<svg xmlns="http://www.w3.org/2000/svg" width="1254" height="838" fill="none" viewBox="0 0 1254 838">
  <path fill="#fff" d="M40 42a2 2 0 0 1 2-2h1170c1.1 0 2 .895 2 2v754c0 1.105-.9 2-2 2H42a2 2 0 0 1-2-2V42Z"/>
  <path fill="#000" fill-opacity=".1" d="M42 41h1170v-2H42v2Zm1171 1v754h2V42h-2Zm-1 755H42v2h1170v-2ZM41 796V42h-2v754h2Zm1 1a1 1 0 0 1-1-1h-2a3 3 0 0 0 3 3v-2Zm1171-1c0 .552-.45 1-1 1v2c1.66 0 3-1.343 3-3h-2Zm-1-755c.55 0 1 .448 1 1h2c0-1.657-1.34-3-3-3v2ZM42 39a3 3 0 0 0-3 3h2a1 1 0 0 1 1-1v-2Z"/>
  <path fill="#F2F2F2" stroke="#000" d="M377.5 234.5h410v234h-410z"/>
  <path fill="#fff" d="M499 281h161v43H499z"/>
  <path fill="#fff" d="M499 281h161v43H499z"/>
  <path fill="#fff" d="M499 281h161v43H499zm4 71h157v80H503z"/>
  <path fill="#fff" d="M503 352h157v80H503z"/>
  <path fill="#fff" d="M503 352h157v80H503zm269-117h13v233h-13z"/>
  <path fill="#000" d="m779 235 4.33 4.5h-8.66L779 235Z"/>
  <path fill="#D9D9D9" d="M772 264h13v54h-13z"/>
  <path fill="#000" d="m777.999 466.063-4.272-4.555 8.659.111-4.387 4.444Z"/>
  <path fill="#F2F2F2" stroke="#000" d="M256.5 392.5h410v234h-410z"/>
  <path fill="#fff" d="M289 421h157v80H289z"/>
  <path fill="#fff" d="M289 421h157v80H289z"/>
  <path fill="#fff" d="M289 421h157v80H289zm0 98h157v80H289z"/>
  <path fill="#fff" d="M289 519h157v80H289z"/>
  <path fill="#fff" d="M289 519h157v80H289zm181 0h157v80H470z"/>
  <path fill="#fff" d="M470 519h157v80H470z"/>
  <path fill="#fff" d="M470 519h157v80H470zm0-96h157v80H470z"/>
  <path fill="#fff" d="M470 423h157v80H470z"/>
  <path fill="#fff" d="M470 423h157v80H470z"/>
  <path stroke="red" stroke-linecap="round" stroke-linejoin="round" stroke-width="2" d="m249 471.111 14 17.778m0-17.778-14 17.778M256 500c5.57 0 10.911-2.107 14.849-5.858C274.788 490.391 277 485.304 277 480s-2.212-10.391-6.151-14.142C266.911 462.107 261.57 460 256 460s-10.911 2.107-14.849 5.858C237.212 469.609 235 474.696 235 480s2.212 10.391 6.151 14.142C245.089 497.893 250.43 500 256 500Zm516-186.889 14 17.778m0-17.778-14 17.778M779 342c5.57 0 10.911-2.107 14.849-5.858C797.788 332.391 800 327.304 800 322s-2.212-10.391-6.151-14.142C789.911 304.107 784.57 302 779 302s-10.911 2.107-14.849 5.858C760.212 311.609 758 316.696 758 322s2.212 10.391 6.151 14.142C768.089 339.893 773.43 342 779 342Z"/>
  <path fill="#fff" stroke="#000" d="M61.5 656.5h276v122h-276z"/>
  <path fill="#000" d="M75.488 678v-11.168h4.448c1.003 0 1.77.288 2.304.864.544.565.816 1.344.816 2.336 0 .992-.272 1.776-.816 2.352-.533.565-1.301.848-2.304.848h-3.104V678h-1.344Zm1.344-5.952h3.104c.533 0 .944-.139 1.232-.416.299-.277.448-.672.448-1.184v-.832c0-.512-.15-.907-.448-1.184-.288-.277-.699-.416-1.232-.416h-3.104v4.032ZM84.907 678v-8.256h1.28v1.52h.08c.15-.395.416-.747.8-1.056.384-.309.912-.464 1.584-.464h.496v1.28h-.752c-.694 0-1.237.133-1.632.4-.384.256-.576.581-.576.976v5.6h-1.28Zm8.917.192a3.714 3.714 0 0 1-1.52-.304 3.405 3.405 0 0 1-1.184-.864 4.3 4.3 0 0 1-.752-1.36 5.543 5.543 0 0 1-.272-1.792c0-.651.09-1.243.272-1.776.181-.533.432-.987.752-1.36.33-.384.725-.677 1.184-.88a3.714 3.714 0 0 1 1.52-.304c.554 0 1.056.101 1.504.304.458.203.853.496 1.184.88.33.373.586.827.768 1.36a5.49 5.49 0 0 1 .272 1.776c0 .661-.09 1.259-.272 1.792a4.136 4.136 0 0 1-.768 1.36c-.33.373-.726.661-1.184.864-.448.203-.95.304-1.504.304Zm0-1.136c.693 0 1.258-.213 1.696-.64.437-.427.656-1.077.656-1.952v-1.184c0-.875-.219-1.525-.656-1.952-.438-.427-1.003-.64-1.696-.64-.694 0-1.259.213-1.696.64-.438.427-.656 1.077-.656 1.952v1.184c0 .875.218 1.525.656 1.952.437.427 1.002.64 1.696.64Zm5.833-7.312h1.28v1.344h.064c.213-.523.523-.907.928-1.152.416-.256.912-.384 1.488-.384.512 0 .976.101 1.392.304.416.203.768.491 1.056.864.299.373.523.827.672 1.36.16.533.24 1.131.24 1.792s-.08 1.259-.24 1.792a3.768 3.768 0 0 1-.672 1.36c-.288.373-.64.661-1.056.864-.416.203-.88.304-1.392.304-1.12 0-1.925-.512-2.416-1.536h-.064v4.544h-1.28v-11.456Zm3.408 7.296c.725 0 1.296-.224 1.712-.672.416-.459.624-1.056.624-1.792v-1.408c0-.736-.208-1.328-.624-1.776-.416-.459-.987-.688-1.712-.688-.288 0-.565.043-.832.128-.256.075-.48.181-.672.32a1.633 1.633 0 0 0-.464.512c-.107.192-.16.4-.16.624v3.072c0 .267.053.507.16.72.117.203.272.379.464.528.192.139.416.245.672.32.267.075.544.112.832.112Zm8.993 1.152a3.714 3.714 0 0 1-1.52-.304 3.405 3.405 0 0 1-1.184-.864 4.294 4.294 0 0 1-.752-1.36 5.554 5.554 0 0 1-.272-1.792c0-.651.091-1.243.272-1.776.181-.533.432-.987.752-1.36a3.315 3.315 0 0 1 1.184-.88 3.714 3.714 0 0 1 1.52-.304c.555 0 1.056.101 1.504.304.459.203.853.496 1.184.88.331.373.587.827.768 1.36.181.533.272 1.125.272 1.776 0 .661-.091 1.259-.272 1.792a4.122 4.122 0 0 1-.768 1.36 3.405 3.405 0 0 1-1.184.864 3.602 3.602 0 0 1-1.504.304Zm0-1.136c.693 0 1.259-.213 1.696-.64.437-.427.656-1.077.656-1.952v-1.184c0-.875-.219-1.525-.656-1.952-.437-.427-1.003-.64-1.696-.64-.693 0-1.259.213-1.696.64-.437.427-.656 1.077-.656 1.952v1.184c0 .875.219 1.525.656 1.952.437.427 1.003.64 1.696.64Zm5.833.944v-8.256h1.28v1.52h.08c.15-.395.416-.747.8-1.056.384-.309.912-.464 1.584-.464h.496v1.28h-.752c-.693 0-1.237.133-1.632.4-.384.256-.576.581-.576.976v5.6h-1.28Zm8.869.192a3.797 3.797 0 0 1-1.552-.304 3.249 3.249 0 0 1-1.168-.864 4.042 4.042 0 0 1-.72-1.36 6.227 6.227 0 0 1-.24-1.792c0-.661.08-1.259.24-1.792.171-.533.411-.987.72-1.36.32-.373.709-.661 1.168-.864a3.797 3.797 0 0 1 1.552-.304c.821 0 1.477.181 1.968.544.501.352.875.816 1.12 1.392l-1.072.544a1.943 1.943 0 0 0-.736-.992c-.341-.235-.768-.352-1.28-.352-.384 0-.72.064-1.008.192a1.848 1.848 0 0 0-.72.512 2.07 2.07 0 0 0-.432.784 3.23 3.23 0 0 0-.144.992v1.408c0 .725.192 1.323.576 1.792.395.459.971.688 1.728.688 1.035 0 1.781-.48 2.24-1.44l.928.624a3.267 3.267 0 0 1-1.2 1.424c-.523.352-1.179.528-1.968.528Zm5.615-10.384c-.277 0-.48-.064-.608-.192a.792.792 0 0 1-.176-.528v-.208c0-.213.059-.384.176-.512.128-.139.331-.208.608-.208.277 0 .475.069.592.208a.692.692 0 0 1 .192.512v.208a.75.75 0 0 1-.192.528c-.117.128-.315.192-.592.192Zm-.64 1.936h1.28V678h-1.28v-8.256Zm7.12 8.448a3.714 3.714 0 0 1-1.52-.304 3.405 3.405 0 0 1-1.184-.864 4.294 4.294 0 0 1-.752-1.36 5.554 5.554 0 0 1-.272-1.792c0-.651.091-1.243.272-1.776.181-.533.432-.987.752-1.36a3.315 3.315 0 0 1 1.184-.88 3.714 3.714 0 0 1 1.52-.304c.555 0 1.056.101 1.504.304.459.203.853.496 1.184.88.331.373.587.827.768 1.36.181.533.272 1.125.272 1.776 0 .661-.091 1.259-.272 1.792a4.122 4.122 0 0 1-.768 1.36 3.405 3.405 0 0 1-1.184.864 3.602 3.602 0 0 1-1.504.304Zm0-1.136c.693 0 1.259-.213 1.696-.64.437-.427.656-1.077.656-1.952v-1.184c0-.875-.219-1.525-.656-1.952-.437-.427-1.003-.64-1.696-.64-.693 0-1.259.213-1.696.64-.437.427-.656 1.077-.656 1.952v1.184c0 .875.219 1.525.656 1.952.437.427 1.003.64 1.696.64Zm5.833.944v-8.256h1.28v1.344h.064c.203-.469.485-.843.848-1.12.373-.277.869-.416 1.488-.416.853 0 1.525.277 2.016.832.501.544.752 1.317.752 2.32V678h-1.28v-5.072c0-1.483-.624-2.224-1.872-2.224-.256 0-.507.032-.752.096-.235.064-.448.16-.64.288a1.47 1.47 0 0 0-.464.496c-.107.192-.16.421-.16.688V678h-1.28Zm15.094 0c-.48 0-.827-.128-1.04-.384-.203-.256-.331-.576-.384-.96h-.08c-.181.512-.48.896-.896 1.152-.416.256-.912.384-1.488.384-.875 0-1.557-.224-2.048-.672-.48-.448-.72-1.056-.72-1.824 0-.779.283-1.376.848-1.792.576-.416 1.467-.624 2.672-.624h1.632v-.816c0-.587-.16-1.035-.48-1.344-.32-.309-.811-.464-1.472-.464-.501 0-.923.112-1.264.336a2.804 2.804 0 0 0-.832.896l-.768-.72c.224-.448.581-.827 1.072-1.136.491-.32 1.109-.48 1.856-.48 1.003 0 1.781.245 2.336.736.555.491.832 1.173.832 2.048v4.544h.944V678h-.72Zm-3.68-.896c.32 0 .613-.037.88-.112.267-.075.496-.181.688-.32.192-.139.341-.299.448-.48.107-.181.16-.379.16-.592v-1.36h-1.696c-.736 0-1.275.107-1.616.32-.331.213-.496.523-.496.928v.336c0 .405.144.72.432.944.299.224.699.336 1.2.336Zm6.227.896v-8.256h1.28v1.52h.08c.149-.395.416-.747.8-1.056.384-.309.912-.464 1.584-.464h.496v1.28h-.752c-.694 0-1.238.133-1.632.4-.384.256-.576.581-.576.976v5.6h-1.28Zm20.001.192c-.768 0-1.414-.144-1.936-.432a4.518 4.518 0 0 1-1.328-1.184l.912-.736c.32.405.677.72 1.072.944.394.213.853.32 1.376.32.544 0 .965-.117 1.264-.352.309-.235.464-.565.464-.992 0-.32-.107-.592-.32-.816-.203-.235-.576-.395-1.12-.48l-.656-.096a5.854 5.854 0 0 1-1.056-.24 3.36 3.36 0 0 1-.848-.448 2.118 2.118 0 0 1-.56-.704c-.128-.277-.192-.608-.192-.992 0-.405.074-.757.224-1.056.149-.309.352-.565.608-.768.266-.203.581-.352.944-.448.362-.107.752-.16 1.168-.16.672 0 1.232.117 1.68.352.458.235.858.56 1.2.976l-.848.768c-.182-.256-.448-.485-.8-.688-.352-.213-.795-.32-1.328-.32-.534 0-.939.117-1.216.352-.267.224-.4.533-.4.928 0 .405.133.699.4.88.277.181.672.315 1.184.4l.64.096c.917.139 1.568.405 1.952.8.384.384.576.891.576 1.52 0 .8-.272 1.429-.816 1.888-.544.459-1.291.688-2.24.688Zm8.436 0a3.718 3.718 0 0 1-1.52-.304 3.415 3.415 0 0 1-1.184-.864 4.314 4.314 0 0 1-.752-1.36 5.554 5.554 0 0 1-.272-1.792c0-.651.091-1.243.272-1.776.182-.533.432-.987.752-1.36a3.323 3.323 0 0 1 1.184-.88 3.718 3.718 0 0 1 1.52-.304c.555 0 1.056.101 1.504.304.459.203.854.496 1.184.88.331.373.587.827.768 1.36a5.47 5.47 0 0 1 .272 1.776c0 .661-.09 1.259-.272 1.792a4.122 4.122 0 0 1-.768 1.36c-.33.373-.725.661-1.184.864a3.602 3.602 0 0 1-1.504.304Zm0-1.136c.694 0 1.259-.213 1.696-.64.438-.427.656-1.077.656-1.952v-1.184c0-.875-.218-1.525-.656-1.952-.437-.427-1.002-.64-1.696-.64-.693 0-1.258.213-1.696.64-.437.427-.656 1.077-.656 1.952v1.184c0 .875.219 1.525.656 1.952.438.427 1.003.64 1.696.64Zm7.194.944c-.448 0-.79-.123-1.024-.368-.224-.256-.336-.576-.336-.96V666.16h1.28v10.72h1.216V678h-1.136Zm6.119.192a3.714 3.714 0 0 1-1.52-.304 3.405 3.405 0 0 1-1.184-.864 4.294 4.294 0 0 1-.752-1.36 5.554 5.554 0 0 1-.272-1.792c0-.651.091-1.243.272-1.776.181-.533.432-.987.752-1.36a3.315 3.315 0 0 1 1.184-.88 3.714 3.714 0 0 1 1.52-.304c.555 0 1.056.101 1.504.304.459.203.853.496 1.184.88.331.373.587.827.768 1.36.181.533.272 1.125.272 1.776 0 .661-.091 1.259-.272 1.792a4.122 4.122 0 0 1-.768 1.36 3.405 3.405 0 0 1-1.184.864 3.602 3.602 0 0 1-1.504.304Zm0-1.136c.693 0 1.259-.213 1.696-.64.437-.427.656-1.077.656-1.952v-1.184c0-.875-.219-1.525-.656-1.952-.437-.427-1.003-.64-1.696-.64-.693 0-1.259.213-1.696.64-.437.427-.656 1.077-.656 1.952v1.184c0 .875.219 1.525.656 1.952.437.427 1.003.64 1.696.64Zm22.567-.4h-.064a3.855 3.855 0 0 1-.32.576 2.172 2.172 0 0 1-.448.496c-.181.139-.4.251-.656.336a2.848 2.848 0 0 1-.896.128c-.853 0-1.531-.272-2.032-.816-.501-.555-.752-1.333-.752-2.336v-5.296h1.28v5.072c0 1.483.629 2.224 1.888 2.224.256 0 .501-.032.736-.096.245-.064.459-.16.64-.288a1.378 1.378 0 0 0 .624-1.2v-5.712h1.28V678h-1.28v-1.344Zm4.006 1.344v-8.256h1.28v1.344h.064c.202-.469.485-.843.848-1.12.373-.277.869-.416 1.488-.416.853 0 1.525.277 2.016.832.501.544.752 1.317.752 2.32V678h-1.28v-5.072c0-1.483-.624-2.224-1.872-2.224-.256 0-.507.032-.752.096-.235.064-.448.16-.64.288a1.47 1.47 0 0 0-.464.496c-.107.192-.16.421-.16.688V678h-1.28Zm15.093 0c-.48 0-.826-.128-1.04-.384-.202-.256-.33-.576-.384-.96h-.08c-.181.512-.48.896-.896 1.152-.416.256-.912.384-1.488.384-.874 0-1.557-.224-2.048-.672-.48-.448-.72-1.056-.72-1.824 0-.779.283-1.376.848-1.792.576-.416 1.467-.624 2.672-.624h1.632v-.816c0-.587-.16-1.035-.48-1.344-.32-.309-.81-.464-1.472-.464-.501 0-.922.112-1.264.336-.33.224-.608.523-.832.896l-.768-.72c.224-.448.582-.827 1.072-1.136.491-.32 1.11-.48 1.856-.48 1.003 0 1.782.245 2.336.736.555.491.832 1.173.832 2.048v4.544h.944V678h-.72Zm-3.68-.896c.32 0 .614-.037.88-.112.267-.075.496-.181.688-.32.192-.139.342-.299.448-.48.107-.181.16-.379.16-.592v-1.36h-1.696c-.736 0-1.274.107-1.616.32-.33.213-.496.523-.496.928v.336c0 .405.144.72.432.944.299.224.699.336 1.2.336Zm19.697.896-2.896-8.256h1.28l1.44 4.096.896 2.816h.08l.896-2.816 1.472-4.096h1.232L263.25 678h-1.488Zm9.03.192a3.757 3.757 0 0 1-1.536-.304 3.45 3.45 0 0 1-1.168-.864 4.294 4.294 0 0 1-.752-1.36 5.854 5.854 0 0 1-.256-1.792c0-.651.085-1.243.256-1.776.181-.533.432-.987.752-1.36.331-.384.72-.677 1.168-.88a3.757 3.757 0 0 1 1.536-.304c.555 0 1.051.101 1.488.304a3.25 3.25 0 0 1 1.12.848c.309.352.544.773.704 1.264.171.491.256 1.029.256 1.616v.608h-5.936v.384c0 .352.053.683.16.992.117.299.277.56.48.784.213.224.469.4.768.528.309.128.656.192 1.04.192.523 0 .976-.123 1.36-.368.395-.245.699-.597.912-1.056l.912.656a3.229 3.229 0 0 1-1.248 1.376c-.565.341-1.237.512-2.016.512Zm0-7.568c-.352 0-.672.064-.96.192a2.136 2.136 0 0 0-.752.512 2.49 2.49 0 0 0-.48.8 2.698 2.698 0 0 0-.176.992v.112h4.56v-.176c0-.736-.203-1.323-.608-1.76-.395-.448-.923-.672-1.584-.672Zm5.677 7.376v-8.256h1.28v1.344h.064c.203-.469.486-.843.848-1.12.374-.277.87-.416 1.488-.416.854 0 1.526.277 2.016.832.502.544.752 1.317.752 2.32V678h-1.28v-5.072c0-1.483-.624-2.224-1.872-2.224a2.97 2.97 0 0 0-.752.096c-.234.064-.448.16-.64.288a1.48 1.48 0 0 0-.464.496c-.106.192-.16.421-.16.688V678h-1.28Zm10.918 0c-.448 0-.789-.123-1.024-.368-.224-.256-.336-.587-.336-.992v-5.776h-1.36v-1.12h.768c.277 0 .464-.053.56-.16.107-.117.16-.315.16-.592v-1.536h1.152v2.288h1.808v1.12h-1.808v6.016h1.68V678h-1.6Zm9.786 0c-.48 0-.827-.128-1.04-.384-.203-.256-.331-.576-.384-.96h-.08c-.182.512-.48.896-.896 1.152-.416.256-.912.384-1.488.384-.875 0-1.558-.224-2.048-.672-.48-.448-.72-1.056-.72-1.824 0-.779.282-1.376.848-1.792.576-.416 1.466-.624 2.671-.624h1.633v-.816c0-.587-.16-1.035-.48-1.344-.32-.309-.811-.464-1.472-.464-.502 0-.923.112-1.264.336a2.804 2.804 0 0 0-.832.896l-.768-.72c.224-.448.581-.827 1.071-1.136.491-.32 1.11-.48 1.857-.48 1.002 0 1.781.245 2.336.736.554.491.832 1.173.832 2.048v4.544h.943V678h-.719Zm-3.68-.896c.32 0 .613-.037.88-.112.266-.075.496-.181.688-.32.192-.139.341-.299.448-.48.106-.181.16-.379.16-.592v-1.36h-1.696c-.736 0-1.275.107-1.616.32-.331.213-.496.523-.496.928v.336c0 .405.144.72.432.944.298.224.698.336 1.2.336Zm6.226.896v-8.256h1.28v1.344h.064c.203-.469.486-.843.848-1.12.374-.277.87-.416 1.488-.416.854 0 1.526.277 2.016.832.502.544.752 1.317.752 2.32V678h-1.28v-5.072c0-1.483-.624-2.224-1.872-2.224a2.97 2.97 0 0 0-.752.096c-.234.064-.448.16-.64.288a1.48 1.48 0 0 0-.464.496c-.106.192-.16.421-.16.688V678h-1.28Zm15.094 0c-.48 0-.827-.128-1.04-.384-.203-.256-.331-.576-.384-.96h-.08c-.181.512-.48.896-.896 1.152-.416.256-.912.384-1.488.384-.875 0-1.557-.224-2.048-.672-.48-.448-.72-1.056-.72-1.824 0-.779.283-1.376.848-1.792.576-.416 1.467-.624 2.672-.624h1.632v-.816c0-.587-.16-1.035-.48-1.344-.32-.309-.811-.464-1.472-.464-.501 0-.923.112-1.264.336a2.804 2.804 0 0 0-.832.896l-.768-.72c.224-.448.581-.827 1.072-1.136.491-.32 1.109-.48 1.856-.48 1.003 0 1.781.245 2.336.736.555.491.832 1.173.832 2.048v4.544h.944V678h-.72Zm-3.68-.896c.32 0 .613-.037.88-.112.267-.075.496-.181.688-.32.192-.139.341-.299.448-.48.107-.181.16-.379.16-.592v-1.36h-1.696c-.736 0-1.275.107-1.616.32-.331.213-.496.523-.496.928v.336c0 .405.144.72.432.944.299.224.699.336 1.2.336ZM81.36 699c-.48 0-.827-.128-1.04-.384-.203-.256-.33-.576-.384-.96h-.08c-.181.512-.48.896-.896 1.152-.416.256-.912.384-1.488.384-.875 0-1.557-.224-2.048-.672-.48-.448-.72-1.056-.72-1.824 0-.779.283-1.376.848-1.792.576-.416 1.467-.624 2.672-.624h1.632v-.816c0-.587-.16-1.035-.48-1.344-.32-.309-.81-.464-1.472-.464-.501 0-.923.112-1.264.336-.33.224-.608.523-.832.896l-.768-.72c.224-.448.581-.827 1.072-1.136.49-.32 1.11-.48 1.856-.48 1.003 0 1.781.245 2.336.736.555.491.832 1.173.832 2.048v4.544h.944V699h-.72Zm-3.68-.896c.32 0 .613-.037.88-.112.267-.075.496-.181.688-.32.192-.139.341-.299.448-.48.107-.181.16-.379.16-.592v-1.36H78.16c-.736 0-1.275.107-1.616.32-.33.213-.496.523-.496.928v.336c0 .405.144.72.432.944.299.224.699.336 1.2.336Zm6.227-10.944h1.28v4.928h.064c.213-.523.522-.907.928-1.152.416-.256.912-.384 1.488-.384.512 0 .976.101 1.392.304.416.203.768.491 1.056.864.299.373.523.827.672 1.36.16.533.24 1.131.24 1.792s-.08 1.259-.24 1.792a3.8 3.8 0 0 1-.672 1.36c-.288.373-.64.661-1.056.864-.416.203-.88.304-1.392.304-1.12 0-1.925-.512-2.416-1.536h-.064V699h-1.28v-11.84Zm3.408 10.88c.725 0 1.296-.224 1.712-.672.416-.459.624-1.056.624-1.792v-1.408c0-.736-.208-1.328-.624-1.776-.416-.459-.987-.688-1.712-.688a2.72 2.72 0 0 0-.832.128c-.256.075-.48.181-.672.32a1.637 1.637 0 0 0-.464.512c-.107.192-.16.4-.16.624v3.072c0 .267.053.507.16.72.117.203.272.379.464.528.192.139.416.245.672.32.266.075.544.112.832.112Zm6.513-9.232c-.277 0-.48-.064-.608-.192a.79.79 0 0 1-.176-.528v-.208c0-.213.059-.384.176-.512.128-.139.33-.208.608-.208.278 0 .475.069.592.208a.692.692 0 0 1 .192.512v.208a.75.75 0 0 1-.192.528c-.117.128-.314.192-.592.192Zm-.64 1.936h1.28V699h-1.28v-8.256Zm7.104 8.448a3.755 3.755 0 0 1-1.536-.304 3.447 3.447 0 0 1-1.168-.864 4.302 4.302 0 0 1-.752-1.36 5.866 5.866 0 0 1-.256-1.792c0-.651.085-1.243.256-1.776.181-.533.432-.987.752-1.36.33-.384.72-.677 1.168-.88.459-.203.97-.304 1.536-.304.555 0 1.051.101 1.488.304a3.25 3.25 0 0 1 1.12.848c.309.352.544.773.704 1.264.171.491.256 1.029.256 1.616v.608h-5.936v.384c0 .352.053.683.16.992.117.299.278.56.48.784.214.224.47.4.768.528a2.7 2.7 0 0 0 1.04.192c.523 0 .976-.123 1.36-.368.395-.245.699-.597.912-1.056l.912.656a3.229 3.229 0 0 1-1.248 1.376c-.565.341-1.237.512-2.016.512Zm0-7.568c-.352 0-.672.064-.96.192a2.14 2.14 0 0 0-.752.512 2.692 2.692 0 0 0-.656 1.792v.112h4.56v-.176c0-.736-.203-1.323-.608-1.76-.395-.448-.923-.672-1.584-.672Zm5.677 7.376v-8.256h1.28v1.52h.08c.15-.395.416-.747.8-1.056.384-.309.912-.464 1.584-.464h.496v1.28h-.752c-.693 0-1.237.133-1.632.4-.384.256-.576.581-.576.976v5.6h-1.28Zm7.762 0c-.448 0-.789-.123-1.024-.368-.224-.256-.336-.587-.336-.992v-5.776h-1.36v-1.12h.768c.277 0 .464-.053.56-.16.107-.117.16-.315.16-.592v-1.536h1.152v2.288h1.808v1.12h-1.808v6.016h1.68V699h-1.6Zm9.785 0c-.48 0-.826-.128-1.04-.384-.202-.256-.33-.576-.384-.96h-.08c-.181.512-.48.896-.896 1.152-.416.256-.912.384-1.488.384-.874 0-1.557-.224-2.048-.672-.48-.448-.72-1.056-.72-1.824 0-.779.283-1.376.848-1.792.576-.416 1.467-.624 2.672-.624h1.632v-.816c0-.587-.16-1.035-.48-1.344-.32-.309-.81-.464-1.472-.464-.501 0-.922.112-1.264.336-.33.224-.608.523-.832.896l-.768-.72c.224-.448.582-.827 1.072-1.136.491-.32 1.11-.48 1.856-.48 1.003 0 1.782.245 2.336.736.555.491.832 1.173.832 2.048v4.544h.944V699h-.72Zm-3.68-.896c.32 0 .614-.037.88-.112.267-.075.496-.181.688-.32.192-.139.342-.299.448-.48.107-.181.16-.379.16-.592v-1.36h-1.696c-.736 0-1.274.107-1.616.32-.33.213-.496.523-.496.928v.336c0 .405.144.72.432.944.299.224.699.336 1.2.336Zm7.199-.976c.342 0 .587.091.736.272.16.171.24.395.24.672v.224c0 .437-.128.917-.384 1.44a4.245 4.245 0 0 1-1.072 1.392h-1.072c.32-.341.576-.667.768-.976.203-.299.347-.635.432-1.008a.805.805 0 0 1-.48-.304.985.985 0 0 1-.144-.544v-.224c0-.277.075-.501.224-.672.16-.181.411-.272.752-.272Zm13.22-6.384h1.28v1.344h.064c.213-.523.522-.907.928-1.152.416-.256.912-.384 1.488-.384.512 0 .976.101 1.392.304.416.203.768.491 1.056.864a3.8 3.8 0 0 1 .672 1.36c.16.533.24 1.131.24 1.792s-.08 1.259-.24 1.792a3.8 3.8 0 0 1-.672 1.36c-.288.373-.64.661-1.056.864-.416.203-.88.304-1.392.304-1.12 0-1.926-.512-2.416-1.536h-.064v4.544h-1.28v-11.456Zm3.408 7.296c.725 0 1.296-.224 1.712-.672.416-.459.624-1.056.624-1.792v-1.408c0-.736-.208-1.328-.624-1.776-.416-.459-.987-.688-1.712-.688a2.72 2.72 0 0 0-.832.128c-.256.075-.48.181-.672.32a1.633 1.633 0 0 0-.464.512c-.107.192-.16.4-.16.624v3.072c0 .267.053.507.16.72.117.203.272.379.464.528.192.139.416.245.672.32.266.075.544.112.832.112Zm8.993 1.152a3.711 3.711 0 0 1-1.52-.304 3.396 3.396 0 0 1-1.184-.864 4.294 4.294 0 0 1-.752-1.36c-.182-.533-.272-1.131-.272-1.792 0-.651.09-1.243.272-1.776.181-.533.432-.987.752-1.36.33-.384.725-.677 1.184-.88a3.711 3.711 0 0 1 1.52-.304c.554 0 1.056.101 1.504.304.458.203.853.496 1.184.88.33.373.586.827.768 1.36.181.533.272 1.125.272 1.776 0 .661-.091 1.259-.272 1.792a4.158 4.158 0 0 1-.768 1.36 3.415 3.415 0 0 1-1.184.864c-.448.203-.95.304-1.504.304Zm0-1.136c.693 0 1.258-.213 1.696-.64.437-.427.656-1.077.656-1.952v-1.184c0-.875-.219-1.525-.656-1.952-.438-.427-1.003-.64-1.696-.64-.694 0-1.259.213-1.696.64-.438.427-.656 1.077-.656 1.952v1.184c0 .875.218 1.525.656 1.952.437.427 1.002.64 1.696.64Zm5.833.944v-8.256h1.28v1.52h.08c.149-.395.416-.747.8-1.056.384-.309.912-.464 1.584-.464h.496v1.28h-.752c-.693 0-1.237.133-1.632.4-.384.256-.576.581-.576.976v5.6h-1.28Zm18.655.192a3.75 3.75 0 0 1-1.536-.304 3.44 3.44 0 0 1-1.168-.864 4.294 4.294 0 0 1-.752-1.36 5.854 5.854 0 0 1-.256-1.792c0-.651.085-1.243.256-1.776.181-.533.432-.987.752-1.36.33-.384.72-.677 1.168-.88a3.75 3.75 0 0 1 1.536-.304c.554 0 1.05.101 1.488.304.437.203.81.485 1.12.848.309.352.544.773.704 1.264.17.491.256 1.029.256 1.616v.608h-5.936v.384c0 .352.053.683.16.992.117.299.277.56.48.784.213.224.469.4.768.528.309.128.656.192 1.04.192.522 0 .976-.123 1.36-.368a2.4 2.4 0 0 0 .912-1.056l.912.656a3.229 3.229 0 0 1-1.248 1.376c-.566.341-1.238.512-2.016.512Zm0-7.568c-.352 0-.672.064-.96.192a2.136 2.136 0 0 0-.752.512 2.49 2.49 0 0 0-.48.8 2.678 2.678 0 0 0-.176.992v.112h4.56v-.176c0-.736-.203-1.323-.608-1.76-.395-.448-.923-.672-1.584-.672Zm5.677-.88h1.28v9.536c0 .576-.144 1.04-.432 1.392-.288.352-.741.528-1.36.528h-.832v-1.12h1.344v-10.336Zm.64-1.936c-.277 0-.48-.064-.608-.192a.792.792 0 0 1-.176-.528v-.208c0-.213.059-.384.176-.512.128-.139.331-.208.608-.208.277 0 .475.069.592.208a.692.692 0 0 1 .192.512v.208a.75.75 0 0 1-.192.528c-.117.128-.315.192-.592.192Zm6.464 10.384a3.757 3.757 0 0 1-1.536-.304 3.45 3.45 0 0 1-1.168-.864 4.294 4.294 0 0 1-.752-1.36 5.854 5.854 0 0 1-.256-1.792c0-.651.085-1.243.256-1.776.181-.533.432-.987.752-1.36.331-.384.72-.677 1.168-.88a3.757 3.757 0 0 1 1.536-.304c.555 0 1.051.101 1.488.304a3.25 3.25 0 0 1 1.12.848c.309.352.544.773.704 1.264.171.491.256 1.029.256 1.616v.608h-5.936v.384c0 .352.053.683.16.992.117.299.277.56.48.784.213.224.469.4.768.528.309.128.656.192 1.04.192.523 0 .976-.123 1.36-.368.395-.245.699-.597.912-1.056l.912.656a3.229 3.229 0 0 1-1.248 1.376c-.565.341-1.237.512-2.016.512Zm0-7.568c-.352 0-.672.064-.96.192a2.136 2.136 0 0 0-.752.512 2.49 2.49 0 0 0-.48.8 2.698 2.698 0 0 0-.176.992v.112h4.56v-.176c0-.736-.203-1.323-.608-1.76-.395-.448-.923-.672-1.584-.672Zm5.677 7.376v-8.256h1.28v1.344h.064c.096-.213.203-.411.32-.592.128-.192.278-.357.448-.496.182-.139.39-.245.624-.32.235-.085.512-.128.832-.128.544 0 1.046.133 1.504.4.459.256.8.683 1.024 1.28h.032c.15-.448.427-.837.832-1.168.416-.341.976-.512 1.68-.512.843 0 1.499.277 1.968.832.48.544.72 1.317.72 2.32V699h-1.28v-5.072c0-.736-.144-1.291-.432-1.664-.288-.373-.746-.56-1.376-.56-.256 0-.501.032-.736.096-.224.064-.426.16-.608.288a1.402 1.402 0 0 0-.592 1.184V699h-1.28v-5.072c0-.736-.144-1.291-.432-1.664-.288-.373-.736-.56-1.344-.56-.256 0-.501.032-.736.096-.234.064-.442.16-.624.288-.181.128-.33.293-.448.496-.106.192-.16.421-.16.688V699h-1.28Zm13.969-8.256h1.28v1.344h.064c.213-.523.523-.907.928-1.152.416-.256.912-.384 1.488-.384.512 0 .976.101 1.392.304.416.203.768.491 1.056.864.299.373.523.827.672 1.36.16.533.24 1.131.24 1.792s-.08 1.259-.24 1.792a3.768 3.768 0 0 1-.672 1.36c-.288.373-.64.661-1.056.864-.416.203-.88.304-1.392.304-1.12 0-1.925-.512-2.416-1.536h-.064v4.544h-1.28v-11.456Zm3.408 7.296c.725 0 1.296-.224 1.712-.672.416-.459.624-1.056.624-1.792v-1.408c0-.736-.208-1.328-.624-1.776-.416-.459-.987-.688-1.712-.688-.288 0-.565.043-.832.128-.256.075-.48.181-.672.32a1.633 1.633 0 0 0-.464.512c-.107.192-.16.4-.16.624v3.072c0 .267.053.507.16.72.117.203.272.379.464.528.192.139.416.245.672.32.267.075.544.112.832.112Zm7.233.96c-.448 0-.789-.123-1.024-.368-.224-.256-.336-.576-.336-.96V687.16h1.28v10.72h1.216V699h-1.136Zm6.12.192a3.711 3.711 0 0 1-1.52-.304 3.396 3.396 0 0 1-1.184-.864 4.294 4.294 0 0 1-.752-1.36c-.182-.533-.272-1.131-.272-1.792 0-.651.09-1.243.272-1.776.181-.533.432-.987.752-1.36.33-.384.725-.677 1.184-.88a3.711 3.711 0 0 1 1.52-.304c.554 0 1.056.101 1.504.304.458.203.853.496 1.184.88.33.373.586.827.768 1.36.181.533.272 1.125.272 1.776 0 .661-.091 1.259-.272 1.792a4.158 4.158 0 0 1-.768 1.36 3.415 3.415 0 0 1-1.184.864c-.448.203-.95.304-1.504.304Zm0-1.136c.693 0 1.258-.213 1.696-.64.437-.427.656-1.077.656-1.952v-1.184c0-.875-.219-1.525-.656-1.952-.438-.427-1.003-.64-1.696-.64-.694 0-1.259.213-1.696.64-.438.427-.656 1.077-.656 1.952v1.184c0 .875.218 1.525.656 1.952.437.427 1.002.64 1.696.64Zm6.336-.928c.342 0 .587.091.736.272.16.171.24.395.24.672v.224c0 .437-.128.917-.384 1.44a4.245 4.245 0 0 1-1.072 1.392h-1.072c.32-.341.576-.667.768-.976.203-.299.347-.635.432-1.008a.805.805 0 0 1-.48-.304.985.985 0 0 1-.144-.544v-.224c0-.277.075-.501.224-.672.16-.181.411-.272.752-.272Zm15.699 2.064c-.768 0-1.413-.144-1.936-.432a4.53 4.53 0 0 1-1.328-1.184l.912-.736c.32.405.678.72 1.072.944.395.213.854.32 1.376.32.544 0 .966-.117 1.264-.352.31-.235.464-.565.464-.992 0-.32-.106-.592-.32-.816-.202-.235-.576-.395-1.12-.48l-.656-.096a5.854 5.854 0 0 1-1.056-.24 3.378 3.378 0 0 1-.848-.448 2.143 2.143 0 0 1-.56-.704c-.128-.277-.192-.608-.192-.992 0-.405.075-.757.224-1.056.15-.309.352-.565.608-.768.267-.203.582-.352.944-.448.363-.107.752-.16 1.168-.16.672 0 1.232.117 1.68.352.459.235.859.56 1.2.976l-.848.768c-.181-.256-.448-.485-.8-.688-.352-.213-.794-.32-1.328-.32-.533 0-.938.117-1.216.352-.266.224-.4.533-.4.928 0 .405.134.699.4.88.278.181.672.315 1.184.4l.64.096c.918.139 1.568.405 1.952.8.384.384.576.891.576 1.52 0 .8-.272 1.429-.816 1.888-.544.459-1.29.688-2.24.688Zm8.421 0a3.757 3.757 0 0 1-1.536-.304 3.45 3.45 0 0 1-1.168-.864 4.314 4.314 0 0 1-.752-1.36 5.884 5.884 0 0 1-.256-1.792c0-.651.086-1.243.256-1.776.182-.533.432-.987.752-1.36.331-.384.72-.677 1.168-.88a3.757 3.757 0 0 1 1.536-.304c.555 0 1.051.101 1.488.304a3.24 3.24 0 0 1 1.12.848c.31.352.544.773.704 1.264.171.491.256 1.029.256 1.616v.608h-5.936v.384c0 .352.054.683.16.992.118.299.278.56.48.784.214.224.47.4.768.528a2.7 2.7 0 0 0 1.04.192c.523 0 .976-.123 1.36-.368.395-.245.699-.597.912-1.056l.912.656a3.216 3.216 0 0 1-1.248 1.376c-.565.341-1.237.512-2.016.512Zm0-7.568c-.352 0-.672.064-.96.192a2.145 2.145 0 0 0-.752.512 2.527 2.527 0 0 0-.48.8 2.698 2.698 0 0 0-.176.992v.112h4.56v-.176c0-.736-.202-1.323-.608-1.76-.394-.448-.922-.672-1.584-.672Zm20.633 6.032h-.064c-.501 1.024-1.306 1.536-2.416 1.536-.512 0-.976-.101-1.392-.304a3.11 3.11 0 0 1-1.072-.864 4.16 4.16 0 0 1-.672-1.36 6.657 6.657 0 0 1-.224-1.792c0-.661.075-1.259.224-1.792a4.16 4.16 0 0 1 .672-1.36 3.11 3.11 0 0 1 1.072-.864c.416-.203.88-.304 1.392-.304.576 0 1.067.128 1.472.384.416.245.731.629.944 1.152h.064v-4.928h1.28V699h-1.28v-1.344Zm-2.128.384c.288 0 .56-.037.816-.112.267-.075.496-.181.688-.32.192-.149.342-.325.448-.528a1.46 1.46 0 0 0 .176-.72v-3.072c0-.224-.058-.432-.176-.624a1.464 1.464 0 0 0-.448-.512 2.154 2.154 0 0 0-.688-.32 2.573 2.573 0 0 0-.816-.128c-.725 0-1.296.229-1.712.688-.416.448-.624 1.04-.624 1.776v1.408c0 .736.208 1.333.624 1.792.416.448.987.672 1.712.672Zm9.234 1.152a3.75 3.75 0 0 1-1.536-.304 3.44 3.44 0 0 1-1.168-.864 4.294 4.294 0 0 1-.752-1.36 5.854 5.854 0 0 1-.256-1.792c0-.651.085-1.243.256-1.776.181-.533.432-.987.752-1.36.33-.384.72-.677 1.168-.88a3.75 3.75 0 0 1 1.536-.304c.554 0 1.05.101 1.488.304.437.203.81.485 1.12.848.309.352.544.773.704 1.264.17.491.256 1.029.256 1.616v.608h-5.936v.384c0 .352.053.683.16.992.117.299.277.56.48.784.213.224.469.4.768.528.309.128.656.192 1.04.192.522 0 .976-.123 1.36-.368a2.4 2.4 0 0 0 .912-1.056l.912.656a3.229 3.229 0 0 1-1.248 1.376c-.566.341-1.238.512-2.016.512Zm0-7.568c-.352 0-.672.064-.96.192a2.136 2.136 0 0 0-.752.512 2.49 2.49 0 0 0-.48.8 2.678 2.678 0 0 0-.176.992v.112h4.56v-.176c0-.736-.203-1.323-.608-1.76-.395-.448-.923-.672-1.584-.672Zm5.677-4.464h1.28v4.928h.064c.213-.523.522-.907.928-1.152.416-.256.912-.384 1.488-.384.512 0 .976.101 1.392.304.416.203.768.491 1.056.864a3.8 3.8 0 0 1 .672 1.36c.16.533.24 1.131.24 1.792s-.08 1.259-.24 1.792a3.8 3.8 0 0 1-.672 1.36c-.288.373-.64.661-1.056.864-.416.203-.88.304-1.392.304-1.12 0-1.926-.512-2.416-1.536h-.064V699h-1.28v-11.84Zm3.408 10.88c.725 0 1.296-.224 1.712-.672.416-.459.624-1.056.624-1.792v-1.408c0-.736-.208-1.328-.624-1.776-.416-.459-.987-.688-1.712-.688a2.72 2.72 0 0 0-.832.128c-.256.075-.48.181-.672.32a1.633 1.633 0 0 0-.464.512c-.107.192-.16.4-.16.624v3.072c0 .267.053.507.16.72.117.203.272.379.464.528.192.139.416.245.672.32.266.075.544.112.832.112Zm8.977 1.152a3.757 3.757 0 0 1-1.536-.304 3.45 3.45 0 0 1-1.168-.864 4.294 4.294 0 0 1-.752-1.36 5.854 5.854 0 0 1-.256-1.792c0-.651.085-1.243.256-1.776.181-.533.432-.987.752-1.36.331-.384.72-.677 1.168-.88a3.757 3.757 0 0 1 1.536-.304c.555 0 1.051.101 1.488.304a3.25 3.25 0 0 1 1.12.848c.309.352.544.773.704 1.264.171.491.256 1.029.256 1.616v.608h-5.936v.384c0 .352.053.683.16.992.117.299.277.56.48.784.213.224.469.4.768.528.309.128.656.192 1.04.192.523 0 .976-.123 1.36-.368.395-.245.699-.597.912-1.056l.912.656a3.229 3.229 0 0 1-1.248 1.376c-.565.341-1.237.512-2.016.512Zm0-7.568c-.352 0-.672.064-.96.192a2.136 2.136 0 0 0-.752.512 2.49 2.49 0 0 0-.48.8 2.698 2.698 0 0 0-.176.992v.112h4.56v-.176c0-.736-.203-1.323-.608-1.76-.395-.448-.923-.672-1.584-.672Zm5.677 7.376v-8.256h1.28v1.344h.064c.203-.469.486-.843.848-1.12.374-.277.87-.416 1.488-.416.854 0 1.526.277 2.016.832.502.544.752 1.317.752 2.32V699h-1.28v-5.072c0-1.483-.624-2.224-1.872-2.224a2.97 2.97 0 0 0-.752.096c-.234.064-.448.16-.64.288a1.48 1.48 0 0 0-.464.496c-.106.192-.16.421-.16.688V699h-1.28ZM78.464 720.192a3.755 3.755 0 0 1-1.536-.304 3.447 3.447 0 0 1-1.168-.864 4.3 4.3 0 0 1-.752-1.36 5.863 5.863 0 0 1-.256-1.792c0-.651.085-1.243.256-1.776.181-.533.432-.987.752-1.36.33-.384.72-.677 1.168-.88.459-.203.97-.304 1.536-.304.555 0 1.05.101 1.488.304.437.203.81.485 1.12.848.31.352.544.773.704 1.264a4.89 4.89 0 0 1 .256 1.616v.608h-5.936v.384c0 .352.053.683.16.992.117.299.277.56.48.784.213.224.47.4.768.528a2.7 2.7 0 0 0 1.04.192c.523 0 .976-.123 1.36-.368.395-.245.699-.597.912-1.056l.912.656a3.225 3.225 0 0 1-1.248 1.376c-.565.341-1.237.512-2.016.512Zm0-7.568c-.352 0-.672.064-.96.192a2.139 2.139 0 0 0-.752.512 2.692 2.692 0 0 0-.656 1.792v.112h4.56v-.176c0-.736-.203-1.323-.608-1.76-.395-.448-.923-.672-1.584-.672ZM85.84 720l-2.896-8.256h1.28l1.44 4.096.896 2.816h.08l.896-2.816 1.472-4.096h1.232L87.328 720H85.84Zm6.691-10.192c-.277 0-.48-.064-.608-.192a.79.79 0 0 1-.176-.528v-.208c0-.213.059-.384.176-.512.128-.139.33-.208.608-.208.278 0 .475.069.592.208a.692.692 0 0 1 .192.512v.208a.75.75 0 0 1-.192.528c-.117.128-.314.192-.592.192Zm-.64 1.936h1.28V720h-1.28v-8.256ZM97.715 720c-.448 0-.79-.123-1.024-.368-.224-.256-.336-.587-.336-.992v-5.776h-1.36v-1.12h.768c.278 0 .464-.053.56-.16.107-.117.16-.315.16-.592v-1.536h1.152v2.288h1.808v1.12h-1.808v6.016h1.68V720h-1.6Zm9.786 0c-.48 0-.827-.128-1.04-.384-.203-.256-.331-.576-.384-.96h-.08c-.182.512-.48.896-.896 1.152-.416.256-.912.384-1.488.384-.875 0-1.558-.224-2.048-.672-.48-.448-.72-1.056-.72-1.824 0-.779.282-1.376.848-1.792.576-.416 1.466-.624 2.672-.624h1.632v-.816c0-.587-.16-1.035-.48-1.344-.32-.309-.811-.464-1.472-.464-.502 0-.923.112-1.264.336a2.804 2.804 0 0 0-.832.896l-.768-.72c.224-.448.581-.827 1.072-1.136.49-.32 1.109-.48 1.856-.48 1.002 0 1.781.245 2.336.736.554.491.832 1.173.832 2.048v4.544h.944V720h-.72Zm-3.68-.896c.32 0 .613-.037.88-.112.266-.075.496-.181.688-.32.192-.139.341-.299.448-.48.106-.181.16-.379.16-.592v-1.36h-1.696c-.736 0-1.275.107-1.616.32-.331.213-.496.523-.496.928v.336c0 .405.144.72.432.944.298.224.698.336 1.2.336Zm6.227.896v-8.256h1.28v1.52h.08c.149-.395.416-.747.8-1.056.384-.309.912-.464 1.584-.464h.496v1.28h-.752c-.694 0-1.238.133-1.632.4-.384.256-.576.581-.576.976v5.6h-1.28Zm34.601 0c-.48 0-.827-.128-1.04-.384-.203-.256-.331-.576-.384-.96h-.08c-.181.512-.48.896-.896 1.152-.416.256-.912.384-1.488.384-.875 0-1.557-.224-2.048-.672-.48-.448-.72-1.056-.72-1.824 0-.779.283-1.376.848-1.792.576-.416 1.467-.624 2.672-.624h1.632v-.816c0-.587-.16-1.035-.48-1.344-.32-.309-.811-.464-1.472-.464-.501 0-.923.112-1.264.336a2.804 2.804 0 0 0-.832.896l-.768-.72c.224-.448.581-.827 1.072-1.136.491-.32 1.109-.48 1.856-.48 1.003 0 1.781.245 2.336.736.555.491.832 1.173.832 2.048v4.544h.944V720h-.72Zm-3.68-.896c.32 0 .613-.037.88-.112.267-.075.496-.181.688-.32.192-.139.341-.299.448-.48.107-.181.16-.379.16-.592v-1.36h-1.696c-.736 0-1.275.107-1.616.32-.331.213-.496.523-.496.928v.336c0 .405.144.72.432.944.299.224.699.336 1.2.336Zm6.227.896v-8.256h1.28v1.344h.064c.203-.469.485-.843.848-1.12.373-.277.869-.416 1.488-.416.853 0 1.525.277 2.016.832.501.544.752 1.317.752 2.32V720h-1.28v-5.072c0-1.483-.624-2.224-1.872-2.224-.256 0-.507.032-.752.096-.235.064-.448.16-.64.288a1.47 1.47 0 0 0-.464.496c-.107.192-.16.421-.16.688V720h-1.28Zm14.182-1.344h-.064a3.947 3.947 0 0 1-.32.576 2.195 2.195 0 0 1-.448.496c-.182.139-.4.251-.656.336a2.848 2.848 0 0 1-.896.128c-.854 0-1.531-.272-2.032-.816-.502-.555-.752-1.333-.752-2.336v-5.296h1.28v5.072c0 1.483.629 2.224 1.888 2.224.256 0 .501-.032.736-.096.245-.064.458-.16.64-.288a1.378 1.378 0 0 0 .624-1.2v-5.712h1.28V720h-1.28v-1.344Zm4.005 1.344v-8.256h1.28v1.344h.064c.203-.469.486-.843.848-1.12.374-.277.87-.416 1.488-.416.854 0 1.526.277 2.016.832.502.544.752 1.317.752 2.32V720h-1.28v-5.072c0-1.483-.624-2.224-1.872-2.224a2.97 2.97 0 0 0-.752.096c-.234.064-.448.16-.64.288a1.48 1.48 0 0 0-.464.496c-.106.192-.16.421-.16.688V720h-1.28Zm12.166.192a3.797 3.797 0 0 1-1.552-.304 3.257 3.257 0 0 1-1.168-.864 4.042 4.042 0 0 1-.72-1.36 6.227 6.227 0 0 1-.24-1.792c0-.661.08-1.259.24-1.792.171-.533.411-.987.72-1.36.32-.373.71-.661 1.168-.864a3.797 3.797 0 0 1 1.552-.304c.822 0 1.478.181 1.968.544.502.352.875.816 1.12 1.392l-1.072.544a1.937 1.937 0 0 0-.736-.992c-.341-.235-.768-.352-1.28-.352-.384 0-.72.064-1.008.192a1.848 1.848 0 0 0-.72.512 2.07 2.07 0 0 0-.432.784 3.23 3.23 0 0 0-.144.992v1.408c0 .725.192 1.323.576 1.792.395.459.971.688 1.728.688 1.035 0 1.782-.48 2.24-1.44l.928.624a3.254 3.254 0 0 1-1.2 1.424c-.522.352-1.178.528-1.968.528Zm5.615-10.384c-.277 0-.48-.064-.608-.192a.792.792 0 0 1-.176-.528v-.208c0-.213.059-.384.176-.512.128-.139.331-.208.608-.208.277 0 .475.069.592.208a.692.692 0 0 1 .192.512v.208a.75.75 0 0 1-.192.528c-.117.128-.315.192-.592.192Zm-.64 1.936h1.28V720h-1.28v-8.256Zm7.12 8.448a3.714 3.714 0 0 1-1.52-.304 3.405 3.405 0 0 1-1.184-.864 4.294 4.294 0 0 1-.752-1.36 5.554 5.554 0 0 1-.272-1.792c0-.651.091-1.243.272-1.776.181-.533.432-.987.752-1.36a3.315 3.315 0 0 1 1.184-.88 3.714 3.714 0 0 1 1.52-.304c.555 0 1.056.101 1.504.304.459.203.853.496 1.184.88.331.373.587.827.768 1.36.181.533.272 1.125.272 1.776 0 .661-.091 1.259-.272 1.792a4.122 4.122 0 0 1-.768 1.36 3.405 3.405 0 0 1-1.184.864 3.602 3.602 0 0 1-1.504.304Zm0-1.136c.693 0 1.259-.213 1.696-.64.437-.427.656-1.077.656-1.952v-1.184c0-.875-.219-1.525-.656-1.952-.437-.427-1.003-.64-1.696-.64-.693 0-1.259.213-1.696.64-.437.427-.656 1.077-.656 1.952v1.184c0 .875.219 1.525.656 1.952.437.427 1.003.64 1.696.64Zm8.313 1.136c-.768 0-1.413-.144-1.936-.432a4.53 4.53 0 0 1-1.328-1.184l.912-.736c.32.405.678.72 1.072.944.395.213.854.32 1.376.32.544 0 .966-.117 1.264-.352.31-.235.464-.565.464-.992 0-.32-.106-.592-.32-.816-.202-.235-.576-.395-1.12-.48l-.656-.096a5.854 5.854 0 0 1-1.056-.24 3.378 3.378 0 0 1-.848-.448 2.143 2.143 0 0 1-.56-.704c-.128-.277-.192-.608-.192-.992 0-.405.075-.757.224-1.056.15-.309.352-.565.608-.768.267-.203.582-.352.944-.448.363-.107.752-.16 1.168-.16.672 0 1.232.117 1.68.352.459.235.859.56 1.2.976l-.848.768c-.181-.256-.448-.485-.8-.688-.352-.213-.794-.32-1.328-.32-.533 0-.938.117-1.216.352-.266.224-.4.533-.4.928 0 .405.134.699.4.88.278.181.672.315 1.184.4l.64.096c.918.139 1.568.405 1.952.8.384.384.576.891.576 1.52 0 .8-.272 1.429-.816 1.888-.544.459-1.29.688-2.24.688Zm31.148 0a3.75 3.75 0 0 1-1.536-.304 3.44 3.44 0 0 1-1.168-.864 4.294 4.294 0 0 1-.752-1.36 5.854 5.854 0 0 1-.256-1.792c0-.651.085-1.243.256-1.776.181-.533.432-.987.752-1.36.33-.384.72-.677 1.168-.88a3.75 3.75 0 0 1 1.536-.304c.554 0 1.05.101 1.488.304.437.203.81.485 1.12.848.309.352.544.773.704 1.264.17.491.256 1.029.256 1.616v.608h-5.936v.384c0 .352.053.683.16.992.117.299.277.56.48.784.213.224.469.4.768.528.309.128.656.192 1.04.192.522 0 .976-.123 1.36-.368a2.4 2.4 0 0 0 .912-1.056l.912.656a3.229 3.229 0 0 1-1.248 1.376c-.566.341-1.238.512-2.016.512Zm0-7.568c-.352 0-.672.064-.96.192a2.136 2.136 0 0 0-.752.512 2.49 2.49 0 0 0-.48.8 2.678 2.678 0 0 0-.176.992v.112h4.56v-.176c0-.736-.203-1.323-.608-1.76-.395-.448-.923-.672-1.584-.672Zm5.677 7.376v-8.256h1.28v1.344h.064c.096-.213.203-.411.32-.592a2.22 2.22 0 0 1 .448-.496c.181-.139.389-.245.624-.32.235-.085.512-.128.832-.128.544 0 1.045.133 1.504.4.459.256.8.683 1.024 1.28h.032c.149-.448.427-.837.832-1.168.416-.341.976-.512 1.68-.512.843 0 1.499.277 1.968.832.48.544.72 1.317.72 2.32V720h-1.28v-5.072c0-.736-.144-1.291-.432-1.664-.288-.373-.747-.56-1.376-.56-.256 0-.501.032-.736.096-.224.064-.427.16-.608.288a1.392 1.392 0 0 0-.432.496c-.107.192-.16.421-.16.688V720h-1.28v-5.072c0-.736-.144-1.291-.432-1.664-.288-.373-.736-.56-1.344-.56-.256 0-.501.032-.736.096s-.443.16-.624.288a1.541 1.541 0 0 0-.448.496c-.107.192-.16.421-.16.688V720h-1.28Zm17.073.192a3.75 3.75 0 0 1-1.536-.304 3.44 3.44 0 0 1-1.168-.864 4.294 4.294 0 0 1-.752-1.36 5.854 5.854 0 0 1-.256-1.792c0-.651.085-1.243.256-1.776.181-.533.432-.987.752-1.36.33-.384.72-.677 1.168-.88a3.75 3.75 0 0 1 1.536-.304c.554 0 1.05.101 1.488.304.437.203.81.485 1.12.848.309.352.544.773.704 1.264.17.491.256 1.029.256 1.616v.608h-5.936v.384c0 .352.053.683.16.992.117.299.277.56.48.784.213.224.469.4.768.528.309.128.656.192 1.04.192.522 0 .976-.123 1.36-.368a2.4 2.4 0 0 0 .912-1.056l.912.656a3.229 3.229 0 0 1-1.248 1.376c-.566.341-1.238.512-2.016.512Zm0-7.568c-.352 0-.672.064-.96.192a2.136 2.136 0 0 0-.752.512 2.49 2.49 0 0 0-.48.8 2.678 2.678 0 0 0-.176.992v.112h4.56v-.176c0-.736-.203-1.323-.608-1.76-.395-.448-.923-.672-1.584-.672Zm5.677 7.376v-8.256h1.28v1.52h.08c.149-.395.416-.747.8-1.056.384-.309.912-.464 1.584-.464h.496v1.28h-.752c-.693 0-1.237.133-1.632.4-.384.256-.576.581-.576.976v5.6h-1.28Zm12.46.912c0 .853-.336 1.477-1.008 1.872-.661.405-1.659.608-2.992.608-1.291 0-2.219-.176-2.784-.528-.565-.352-.848-.853-.848-1.504 0-.448.117-.8.352-1.056.235-.245.555-.427.96-.544v-.176c-.491-.235-.736-.619-.736-1.152 0-.416.133-.731.4-.944.267-.224.608-.389 1.024-.496v-.064a2.72 2.72 0 0 1-1.152-1.008c-.267-.437-.4-.944-.4-1.52 0-.416.075-.8.224-1.152.149-.352.357-.651.624-.896.277-.256.603-.453.976-.592a3.74 3.74 0 0 1 1.28-.208c.587 0 1.109.107 1.568.32v-.144c0-.32.075-.581.224-.784.149-.213.395-.32.736-.32h1.232v1.12h-1.568v.528c.299.256.528.565.688.928.171.352.256.752.256 1.2 0 .416-.075.8-.224 1.152a2.617 2.617 0 0 1-.64.912 2.865 2.865 0 0 1-.976.576 3.74 3.74 0 0 1-1.28.208c-.267 0-.533-.027-.8-.08a2.552 2.552 0 0 0-.752.336.659.659 0 0 0-.336.592c0 .245.117.411.352.496.235.085.539.128.912.128h1.76c1.024 0 1.765.197 2.224.592.469.384.704.917.704 1.6Zm-1.2.096a.97.97 0 0 0-.384-.8c-.245-.192-.688-.288-1.328-.288h-2.752c-.512.235-.768.608-.768 1.12 0 .363.133.672.4.928.277.256.741.384 1.392.384h1.184c.715 0 1.269-.112 1.664-.336.395-.224.592-.56.592-1.008Zm-2.864-4.784c.544 0 .976-.128 1.296-.384.32-.267.48-.672.48-1.216v-.448c0-.544-.16-.944-.48-1.2-.32-.267-.752-.4-1.296-.4s-.976.133-1.296.4c-.32.256-.48.656-.48 1.2v.448c0 .544.16.949.48 1.216.32.256.752.384 1.296.384Zm8.567 3.968a3.757 3.757 0 0 1-1.536-.304 3.45 3.45 0 0 1-1.168-.864 4.314 4.314 0 0 1-.752-1.36 5.884 5.884 0 0 1-.256-1.792c0-.651.086-1.243.256-1.776.182-.533.432-.987.752-1.36.331-.384.72-.677 1.168-.88a3.757 3.757 0 0 1 1.536-.304c.555 0 1.051.101 1.488.304a3.24 3.24 0 0 1 1.12.848c.31.352.544.773.704 1.264.171.491.256 1.029.256 1.616v.608h-5.936v.384c0 .352.054.683.16.992.118.299.278.56.48.784.214.224.47.4.768.528a2.7 2.7 0 0 0 1.04.192c.523 0 .976-.123 1.36-.368.395-.245.699-.597.912-1.056l.912.656a3.216 3.216 0 0 1-1.248 1.376c-.565.341-1.237.512-2.016.512Zm0-7.568c-.352 0-.672.064-.96.192a2.145 2.145 0 0 0-.752.512 2.527 2.527 0 0 0-.48.8 2.698 2.698 0 0 0-.176.992v.112h4.56v-.176c0-.736-.202-1.323-.608-1.76-.394-.448-.922-.672-1.584-.672Zm5.678 7.376v-8.256h1.28v1.344h.064c.202-.469.485-.843.848-1.12.373-.277.869-.416 1.488-.416.853 0 1.525.277 2.016.832.501.544.752 1.317.752 2.32V720h-1.28v-5.072c0-1.483-.624-2.224-1.872-2.224-.256 0-.507.032-.752.096-.235.064-.448.16-.64.288a1.47 1.47 0 0 0-.464.496c-.107.192-.16.421-.16.688V720h-1.28Zm10.917 0c-.448 0-.789-.123-1.024-.368-.224-.256-.336-.587-.336-.992v-5.776h-1.36v-1.12h.768c.278 0 .464-.053.56-.16.107-.117.16-.315.16-.592v-1.536h1.152v2.288h1.808v1.12h-1.808v6.016h1.68V720h-1.6Zm6.827.192a3.757 3.757 0 0 1-1.536-.304 3.45 3.45 0 0 1-1.168-.864 4.294 4.294 0 0 1-.752-1.36 5.854 5.854 0 0 1-.256-1.792c0-.651.085-1.243.256-1.776.181-.533.432-.987.752-1.36.331-.384.72-.677 1.168-.88a3.757 3.757 0 0 1 1.536-.304c.555 0 1.051.101 1.488.304a3.25 3.25 0 0 1 1.12.848c.309.352.544.773.704 1.264.171.491.256 1.029.256 1.616v.608h-5.936v.384c0 .352.053.683.16.992.117.299.277.56.48.784.213.224.469.4.768.528.309.128.656.192 1.04.192.523 0 .976-.123 1.36-.368.395-.245.699-.597.912-1.056l.912.656a3.229 3.229 0 0 1-1.248 1.376c-.565.341-1.237.512-2.016.512Zm0-7.568c-.352 0-.672.064-.96.192a2.136 2.136 0 0 0-.752.512 2.49 2.49 0 0 0-.48.8 2.698 2.698 0 0 0-.176.992v.112h4.56v-.176c0-.736-.203-1.323-.608-1.76-.395-.448-.923-.672-1.584-.672Zm8.157 7.568c-.768 0-1.413-.144-1.936-.432a4.53 4.53 0 0 1-1.328-1.184l.912-.736c.32.405.678.72 1.072.944.395.213.854.32 1.376.32.544 0 .966-.117 1.264-.352.31-.235.464-.565.464-.992 0-.32-.106-.592-.32-.816-.202-.235-.576-.395-1.12-.48l-.656-.096a5.854 5.854 0 0 1-1.056-.24 3.378 3.378 0 0 1-.848-.448 2.143 2.143 0 0 1-.56-.704c-.128-.277-.192-.608-.192-.992 0-.405.075-.757.224-1.056.15-.309.352-.565.608-.768.267-.203.582-.352.944-.448.363-.107.752-.16 1.168-.16.672 0 1.232.117 1.68.352.459.235.859.56 1.2.976l-.848.768c-.181-.256-.448-.485-.8-.688-.352-.213-.794-.32-1.328-.32-.533 0-.938.117-1.216.352-.266.224-.4.533-.4.928 0 .405.134.699.4.88.278.181.672.315 1.184.4l.64.096c.918.139 1.568.405 1.952.8.384.384.576.891.576 1.52 0 .8-.272 1.429-.816 1.888-.544.459-1.29.688-2.24.688Zm4.101 2.224 4.176-14.256h1.152l-4.176 14.256h-1.152ZM81.36 741c-.48 0-.827-.128-1.04-.384-.203-.256-.33-.576-.384-.96h-.08c-.181.512-.48.896-.896 1.152-.416.256-.912.384-1.488.384-.875 0-1.557-.224-2.048-.672-.48-.448-.72-1.056-.72-1.824 0-.779.283-1.376.848-1.792.576-.416 1.467-.624 2.672-.624h1.632v-.816c0-.587-.16-1.035-.48-1.344-.32-.309-.81-.464-1.472-.464-.501 0-.923.112-1.264.336-.33.224-.608.523-.832.896l-.768-.72c.224-.448.581-.827 1.072-1.136.49-.32 1.11-.48 1.856-.48 1.003 0 1.781.245 2.336.736.555.491.832 1.173.832 2.048v4.544h.944V741h-.72Zm-3.68-.896c.32 0 .613-.037.88-.112.267-.075.496-.181.688-.32.192-.139.341-.299.448-.48.107-.181.16-.379.16-.592v-1.36H78.16c-.736 0-1.275.107-1.616.32-.33.213-.496.523-.496.928v.336c0 .405.144.72.432.944.299.224.699.336 1.2.336Zm6.227.896v-8.256h1.28v1.344h.064c.203-.469.485-.843.848-1.12.373-.277.87-.416 1.488-.416.853 0 1.525.277 2.016.832.501.544.752 1.317.752 2.32V741h-1.28v-5.072c0-1.483-.624-2.224-1.872-2.224-.256 0-.507.032-.752.096-.235.064-.448.16-.64.288a1.473 1.473 0 0 0-.464.496c-.107.192-.16.421-.16.688V741h-1.28Zm9.734-10.192c-.278 0-.48-.064-.608-.192a.79.79 0 0 1-.176-.528v-.208c0-.213.058-.384.176-.512.128-.139.33-.208.608-.208.277 0 .474.069.592.208a.692.692 0 0 1 .192.512v.208a.75.75 0 0 1-.192.528c-.118.128-.315.192-.592.192Zm-.64 1.936h1.28V741H93v-8.256ZM97 741v-8.256h1.28v1.344h.064a4.45 4.45 0 0 1 .32-.592 2.23 2.23 0 0 1 .448-.496c.181-.139.389-.245.624-.32.234-.085.512-.128.832-.128.544 0 1.045.133 1.504.4.458.256.8.683 1.024 1.28h.032c.149-.448.426-.837.832-1.168.416-.341.976-.512 1.68-.512.842 0 1.498.277 1.968.832.48.544.72 1.317.72 2.32V741h-1.28v-5.072c0-.736-.144-1.291-.432-1.664-.288-.373-.747-.56-1.376-.56-.256 0-.502.032-.736.096-.224.064-.427.16-.608.288a1.373 1.373 0 0 0-.432.496c-.107.192-.16.421-.16.688V741h-1.28v-5.072c0-.736-.144-1.291-.432-1.664-.288-.373-.736-.56-1.344-.56-.256 0-.502.032-.736.096-.235.064-.443.16-.624.288a1.53 1.53 0 0 0-.448.496c-.107.192-.16.421-.16.688V741H97Zm19.968 0c-.48 0-.826-.128-1.04-.384-.202-.256-.33-.576-.384-.96h-.08c-.181.512-.48.896-.896 1.152-.416.256-.912.384-1.488.384-.874 0-1.557-.224-2.048-.672-.48-.448-.72-1.056-.72-1.824 0-.779.283-1.376.848-1.792.576-.416 1.467-.624 2.672-.624h1.632v-.816c0-.587-.16-1.035-.48-1.344-.32-.309-.81-.464-1.472-.464-.501 0-.922.112-1.264.336-.33.224-.608.523-.832.896l-.768-.72c.224-.448.582-.827 1.072-1.136.491-.32 1.11-.48 1.856-.48 1.003 0 1.782.245 2.336.736.555.491.832 1.173.832 2.048v4.544h.944V741h-.72Zm-3.68-.896c.32 0 .614-.037.88-.112.267-.075.496-.181.688-.32.192-.139.342-.299.448-.48.107-.181.16-.379.16-.592v-1.36h-1.696c-.736 0-1.274.107-1.616.32-.33.213-.496.523-.496.928v.336c0 .405.144.72.432.944.299.224.699.336 1.2.336Zm11.507-.448h-.064c-.501 1.024-1.306 1.536-2.416 1.536-.512 0-.976-.101-1.392-.304a3.11 3.11 0 0 1-1.072-.864 4.16 4.16 0 0 1-.672-1.36 6.657 6.657 0 0 1-.224-1.792c0-.661.075-1.259.224-1.792a4.16 4.16 0 0 1 .672-1.36 3.11 3.11 0 0 1 1.072-.864c.416-.203.88-.304 1.392-.304.576 0 1.067.128 1.472.384.416.245.731.629.944 1.152h.064v-4.928h1.28V741h-1.28v-1.344Zm-2.128.384c.288 0 .56-.037.816-.112.267-.075.496-.181.688-.32.192-.149.342-.325.448-.528a1.46 1.46 0 0 0 .176-.72v-3.072c0-.224-.058-.432-.176-.624a1.464 1.464 0 0 0-.448-.512 2.154 2.154 0 0 0-.688-.32 2.573 2.573 0 0 0-.816-.128c-.725 0-1.296.229-1.712.688-.416.448-.624 1.04-.624 1.776v1.408c0 .736.208 1.333.624 1.792.416.448.987.672 1.712.672Zm9.25 1.152a3.711 3.711 0 0 1-1.52-.304 3.396 3.396 0 0 1-1.184-.864 4.294 4.294 0 0 1-.752-1.36c-.182-.533-.272-1.131-.272-1.792 0-.651.09-1.243.272-1.776.181-.533.432-.987.752-1.36.33-.384.725-.677 1.184-.88a3.711 3.711 0 0 1 1.52-.304c.554 0 1.056.101 1.504.304.458.203.853.496 1.184.88.33.373.586.827.768 1.36.181.533.272 1.125.272 1.776 0 .661-.091 1.259-.272 1.792a4.158 4.158 0 0 1-.768 1.36 3.415 3.415 0 0 1-1.184.864c-.448.203-.95.304-1.504.304Zm0-1.136c.693 0 1.258-.213 1.696-.64.437-.427.656-1.077.656-1.952v-1.184c0-.875-.219-1.525-.656-1.952-.438-.427-1.003-.64-1.696-.64-.694 0-1.259.213-1.696.64-.438.427-.656 1.077-.656 1.952v1.184c0 .875.218 1.525.656 1.952.437.427 1.002.64 1.696.64Zm8.313 1.136c-.768 0-1.414-.144-1.936-.432a4.518 4.518 0 0 1-1.328-1.184l.912-.736c.32.405.677.72 1.072.944.394.213.853.32 1.376.32.544 0 .965-.117 1.264-.352.309-.235.464-.565.464-.992 0-.32-.107-.592-.32-.816-.203-.235-.576-.395-1.12-.48l-.656-.096a5.854 5.854 0 0 1-1.056-.24 3.36 3.36 0 0 1-.848-.448 2.118 2.118 0 0 1-.56-.704c-.128-.277-.192-.608-.192-.992 0-.405.074-.757.224-1.056.149-.309.352-.565.608-.768.266-.203.581-.352.944-.448.362-.107.752-.16 1.168-.16.672 0 1.232.117 1.68.352.458.235.858.56 1.2.976l-.848.768c-.182-.256-.448-.485-.8-.688-.352-.213-.795-.32-1.328-.32-.534 0-.939.117-1.216.352-.267.224-.4.533-.4.928 0 .405.133.699.4.88.277.181.672.315 1.184.4l.64.096c.917.139 1.568.405 1.952.8.384.384.576.891.576 1.52 0 .8-.272 1.429-.816 1.888-.544.459-1.291.688-2.24.688Zm18.593 0a3.711 3.711 0 0 1-1.52-.304 3.396 3.396 0 0 1-1.184-.864 4.294 4.294 0 0 1-.752-1.36c-.182-.533-.272-1.131-.272-1.792 0-.651.09-1.243.272-1.776.181-.533.432-.987.752-1.36.33-.384.725-.677 1.184-.88a3.711 3.711 0 0 1 1.52-.304c.554 0 1.056.101 1.504.304.458.203.853.496 1.184.88.33.373.586.827.768 1.36.181.533.272 1.125.272 1.776 0 .661-.091 1.259-.272 1.792a4.158 4.158 0 0 1-.768 1.36 3.415 3.415 0 0 1-1.184.864c-.448.203-.95.304-1.504.304Zm0-1.136c.693 0 1.258-.213 1.696-.64.437-.427.656-1.077.656-1.952v-1.184c0-.875-.219-1.525-.656-1.952-.438-.427-1.003-.64-1.696-.64-.694 0-1.259.213-1.696.64-.438.427-.656 1.077-.656 1.952v1.184c0 .875.218 1.525.656 1.952.437.427 1.002.64 1.696.64Zm15.989.944v-8.256h1.28v1.344h.064c.096-.213.203-.411.32-.592a2.22 2.22 0 0 1 .448-.496c.181-.139.389-.245.624-.32.235-.085.512-.128.832-.128.544 0 1.045.133 1.504.4.459.256.8.683 1.024 1.28h.032c.149-.448.427-.837.832-1.168.416-.341.976-.512 1.68-.512.843 0 1.499.277 1.968.832.48.544.72 1.317.72 2.32V741h-1.28v-5.072c0-.736-.144-1.291-.432-1.664-.288-.373-.747-.56-1.376-.56-.256 0-.501.032-.736.096-.224.064-.427.16-.608.288a1.392 1.392 0 0 0-.432.496c-.107.192-.16.421-.16.688V741h-1.28v-5.072c0-.736-.144-1.291-.432-1.664-.288-.373-.736-.56-1.344-.56-.256 0-.501.032-.736.096s-.443.16-.624.288a1.541 1.541 0 0 0-.448.496c-.107.192-.16.421-.16.688V741h-1.28Zm19.057-1.344h-.064a3.855 3.855 0 0 1-.32.576 2.172 2.172 0 0 1-.448.496c-.181.139-.4.251-.656.336a2.848 2.848 0 0 1-.896.128c-.853 0-1.531-.272-2.032-.816-.501-.555-.752-1.333-.752-2.336v-5.296h1.28v5.072c0 1.483.629 2.224 1.888 2.224.256 0 .501-.032.736-.096.245-.064.459-.16.64-.288a1.378 1.378 0 0 0 .624-1.2v-5.712h1.28V741h-1.28v-1.344Zm-1.808-8.016-.832-.384 1.36-2.72 1.168.56-1.696 2.544Zm7.174 9.36c-.448 0-.79-.123-1.024-.368-.224-.256-.336-.576-.336-.96V729.16h1.28v10.72h1.216V741h-1.136Zm4.745 0c-.448 0-.789-.123-1.024-.368-.224-.256-.336-.587-.336-.992v-5.776h-1.36v-1.12h.768c.277 0 .464-.053.56-.16.107-.117.16-.315.16-.592v-1.536h1.152v2.288h1.808v1.12H203.9v6.016h1.68V741h-1.6Zm4.425-10.192c-.277 0-.48-.064-.608-.192a.792.792 0 0 1-.176-.528v-.208c0-.213.059-.384.176-.512.128-.139.331-.208.608-.208.278 0 .475.069.592.208a.692.692 0 0 1 .192.512v.208a.75.75 0 0 1-.192.528c-.117.128-.314.192-.592.192Zm-.64 1.936h1.28V741h-1.28v-8.256Zm4 0h1.28v1.344h.064c.214-.523.523-.907.928-1.152.416-.256.912-.384 1.488-.384.512 0 .976.101 1.392.304.416.203.768.491 1.056.864.299.373.523.827.672 1.36.16.533.24 1.131.24 1.792s-.08 1.259-.24 1.792a3.768 3.768 0 0 1-.672 1.36c-.288.373-.64.661-1.056.864-.416.203-.88.304-1.392.304-1.12 0-1.925-.512-2.416-1.536h-.064v4.544h-1.28v-11.456Zm3.408 7.296c.726 0 1.296-.224 1.712-.672.416-.459.624-1.056.624-1.792v-1.408c0-.736-.208-1.328-.624-1.776-.416-.459-.986-.688-1.712-.688-.288 0-.565.043-.832.128-.256.075-.48.181-.672.32a1.645 1.645 0 0 0-.464.512c-.106.192-.16.4-.16.624v3.072c0 .267.054.507.16.72.118.203.272.379.464.528.192.139.416.245.672.32.267.075.544.112.832.112Zm7.234.96c-.448 0-.79-.123-1.024-.368-.224-.256-.336-.576-.336-.96V729.16h1.28v10.72h1.216V741h-1.136Zm6.103.192a3.757 3.757 0 0 1-1.536-.304 3.45 3.45 0 0 1-1.168-.864 4.294 4.294 0 0 1-.752-1.36 5.854 5.854 0 0 1-.256-1.792c0-.651.085-1.243.256-1.776.181-.533.432-.987.752-1.36.331-.384.72-.677 1.168-.88a3.757 3.757 0 0 1 1.536-.304c.555 0 1.051.101 1.488.304a3.25 3.25 0 0 1 1.12.848c.309.352.544.773.704 1.264.171.491.256 1.029.256 1.616v.608h-5.936v.384c0 .352.053.683.16.992.117.299.277.56.48.784.213.224.469.4.768.528.309.128.656.192 1.04.192.523 0 .976-.123 1.36-.368.395-.245.699-.597.912-1.056l.912.656a3.229 3.229 0 0 1-1.248 1.376c-.565.341-1.237.512-2.016.512Zm0-7.568c-.352 0-.672.064-.96.192a2.136 2.136 0 0 0-.752.512 2.49 2.49 0 0 0-.48.8 2.698 2.698 0 0 0-.176.992v.112h4.56v-.176c0-.736-.203-1.323-.608-1.76-.395-.448-.923-.672-1.584-.672Zm8.157 7.568c-.768 0-1.413-.144-1.936-.432a4.518 4.518 0 0 1-1.328-1.184l.912-.736c.32.405.677.72 1.072.944.395.213.853.32 1.376.32.544 0 .965-.117 1.264-.352.309-.235.464-.565.464-.992 0-.32-.107-.592-.32-.816-.203-.235-.576-.395-1.12-.48l-.656-.096a5.854 5.854 0 0 1-1.056-.24 3.36 3.36 0 0 1-.848-.448 2.13 2.13 0 0 1-.56-.704c-.128-.277-.192-.608-.192-.992 0-.405.075-.757.224-1.056.149-.309.352-.565.608-.768.267-.203.581-.352.944-.448.363-.107.752-.16 1.168-.16.672 0 1.232.117 1.68.352.459.235.859.56 1.2.976l-.848.768c-.181-.256-.448-.485-.8-.688-.352-.213-.795-.32-1.328-.32s-.939.117-1.216.352c-.267.224-.4.533-.4.928 0 .405.133.699.4.88.277.181.672.315 1.184.4l.64.096c.917.139 1.568.405 1.952.8.384.384.576.891.576 1.52 0 .8-.272 1.429-.816 1.888-.544.459-1.291.688-2.24.688Zm17.297-.192-2.896-8.256h1.28l1.44 4.096.896 2.816h.08l.896-2.816 1.472-4.096h1.232L255.453 741h-1.488Zm9.03.192a3.757 3.757 0 0 1-1.536-.304 3.45 3.45 0 0 1-1.168-.864 4.314 4.314 0 0 1-.752-1.36 5.884 5.884 0 0 1-.256-1.792c0-.651.086-1.243.256-1.776.182-.533.432-.987.752-1.36.331-.384.72-.677 1.168-.88a3.757 3.757 0 0 1 1.536-.304c.555 0 1.051.101 1.488.304a3.24 3.24 0 0 1 1.12.848c.31.352.544.773.704 1.264.171.491.256 1.029.256 1.616v.608h-5.936v.384c0 .352.054.683.16.992.118.299.278.56.48.784.214.224.47.4.768.528a2.7 2.7 0 0 0 1.04.192c.523 0 .976-.123 1.36-.368.395-.245.699-.597.912-1.056l.912.656a3.216 3.216 0 0 1-1.248 1.376c-.565.341-1.237.512-2.016.512Zm0-7.568c-.352 0-.672.064-.96.192a2.145 2.145 0 0 0-.752.512 2.527 2.527 0 0 0-.48.8 2.698 2.698 0 0 0-.176.992v.112h4.56v-.176c0-.736-.202-1.323-.608-1.76-.394-.448-.922-.672-1.584-.672Zm5.678 7.376v-8.256h1.28v1.344h.064c.202-.469.485-.843.848-1.12.373-.277.869-.416 1.488-.416.853 0 1.525.277 2.016.832.501.544.752 1.317.752 2.32V741h-1.28v-5.072c0-1.483-.624-2.224-1.872-2.224-.256 0-.507.032-.752.096-.235.064-.448.16-.64.288a1.47 1.47 0 0 0-.464.496c-.107.192-.16.421-.16.688V741h-1.28Zm10.917 0c-.448 0-.789-.123-1.024-.368-.224-.256-.336-.587-.336-.992v-5.776h-1.36v-1.12h.768c.278 0 .464-.053.56-.16.107-.117.16-.315.16-.592v-1.536h1.152v2.288h1.808v1.12h-1.808v6.016h1.68V741h-1.6Zm9.786 0c-.48 0-.827-.128-1.04-.384-.203-.256-.331-.576-.384-.96h-.08c-.182.512-.48.896-.896 1.152-.416.256-.912.384-1.488.384-.875 0-1.558-.224-2.048-.672-.48-.448-.72-1.056-.72-1.824 0-.779.282-1.376.848-1.792.576-.416 1.466-.624 2.672-.624h1.632v-.816c0-.587-.16-1.035-.48-1.344-.32-.309-.811-.464-1.472-.464-.502 0-.923.112-1.264.336a2.804 2.804 0 0 0-.832.896l-.768-.72c.224-.448.581-.827 1.072-1.136.49-.32 1.109-.48 1.856-.48 1.002 0 1.781.245 2.336.736.554.491.832 1.173.832 2.048v4.544h.944V741h-.72Zm-3.68-.896c.32 0 .613-.037.88-.112.266-.075.496-.181.688-.32.192-.139.341-.299.448-.48.106-.181.16-.379.16-.592v-1.36h-1.696c-.736 0-1.275.107-1.616.32-.331.213-.496.523-.496.928v.336c0 .405.144.72.432.944.298.224.698.336 1.2.336Zm6.227.896v-8.256h1.28v1.344h.064c.202-.469.485-.843.848-1.12.373-.277.869-.416 1.488-.416.853 0 1.525.277 2.016.832.501.544.752 1.317.752 2.32V741h-1.28v-5.072c0-1.483-.624-2.224-1.872-2.224-.256 0-.507.032-.752.096-.235.064-.448.16-.64.288a1.47 1.47 0 0 0-.464.496c-.107.192-.16.421-.16.688V741h-1.28Zm15.093 0c-.48 0-.826-.128-1.04-.384-.202-.256-.33-.576-.384-.96h-.08c-.181.512-.48.896-.896 1.152-.416.256-.912.384-1.488.384-.874 0-1.557-.224-2.048-.672-.48-.448-.72-1.056-.72-1.824 0-.779.283-1.376.848-1.792.576-.416 1.467-.624 2.672-.624h1.632v-.816c0-.587-.16-1.035-.48-1.344-.32-.309-.81-.464-1.472-.464-.501 0-.922.112-1.264.336-.33.224-.608.523-.832.896l-.768-.72c.224-.448.582-.827 1.072-1.136.491-.32 1.11-.48 1.856-.48 1.003 0 1.782.245 2.336.736.555.491.832 1.173.832 2.048v4.544h.944V741h-.72Zm-3.68-.896c.32 0 .614-.037.88-.112.267-.075.496-.181.688-.32.192-.139.342-.299.448-.48.107-.181.16-.379.16-.592v-1.36h-1.696c-.736 0-1.274.107-1.616.32-.33.213-.496.523-.496.928v.336c0 .405.144.72.432.944.299.224.699.336 1.2.336Zm8.707 1.088c-.768 0-1.413-.144-1.936-.432a4.518 4.518 0 0 1-1.328-1.184l.912-.736c.32.405.677.72 1.072.944.395.213.853.32 1.376.32.544 0 .965-.117 1.264-.352.309-.235.464-.565.464-.992 0-.32-.107-.592-.32-.816-.203-.235-.576-.395-1.12-.48l-.656-.096a5.854 5.854 0 0 1-1.056-.24 3.36 3.36 0 0 1-.848-.448 2.13 2.13 0 0 1-.56-.704c-.128-.277-.192-.608-.192-.992 0-.405.075-.757.224-1.056.149-.309.352-.565.608-.768.267-.203.581-.352.944-.448.363-.107.752-.16 1.168-.16.672 0 1.232.117 1.68.352.459.235.859.56 1.2.976l-.848.768c-.181-.256-.448-.485-.8-.688-.352-.213-.795-.32-1.328-.32s-.939.117-1.216.352c-.267.224-.4.533-.4.928 0 .405.133.699.4.88.277.181.672.315 1.184.4l.64.096c.917.139 1.568.405 1.952.8.384.384.576.891.576 1.52 0 .8-.272 1.429-.816 1.888-.544.459-1.291.688-2.24.688Zm-234.203 21c-.768 0-1.413-.144-1.936-.432a4.522 4.522 0 0 1-1.328-1.184l.912-.736c.32.405.677.72 1.072.944.395.213.853.32 1.376.32.544 0 .965-.117 1.264-.352.31-.235.464-.565.464-.992 0-.32-.107-.592-.32-.816-.203-.235-.576-.395-1.12-.48l-.656-.096a5.854 5.854 0 0 1-1.056-.24 3.366 3.366 0 0 1-.848-.448 2.13 2.13 0 0 1-.56-.704c-.128-.277-.192-.608-.192-.992 0-.405.075-.757.224-1.056.15-.309.352-.565.608-.768.267-.203.581-.352.944-.448a4.11 4.11 0 0 1 1.168-.16c.672 0 1.232.117 1.68.352.459.235.859.56 1.2.976l-.848.768c-.181-.256-.448-.485-.8-.688-.352-.213-.795-.32-1.328-.32s-.939.117-1.216.352c-.267.224-.4.533-.4.928 0 .405.133.699.4.88.277.181.672.315 1.184.4l.64.096c.917.139 1.568.405 1.952.8.384.384.576.891.576 1.52 0 .8-.272 1.429-.816 1.888-.544.459-1.29.688-2.24.688Zm10.405-1.536h-.064a3.891 3.891 0 0 1-.32.576 2.174 2.174 0 0 1-.448.496c-.181.139-.4.251-.656.336a2.846 2.846 0 0 1-.896.128c-.854 0-1.53-.272-2.032-.816-.501-.555-.752-1.333-.752-2.336v-5.296h1.28v5.072c0 1.483.63 2.224 1.888 2.224.256 0 .501-.032.736-.096.245-.064.459-.16.64-.288a1.375 1.375 0 0 0 .624-1.2v-5.712h1.28V762h-1.28v-1.344Zm4.006-6.912h1.28v1.344h.064c.213-.523.522-.907.928-1.152.416-.256.912-.384 1.488-.384.512 0 .976.101 1.392.304.416.203.768.491 1.056.864a3.8 3.8 0 0 1 .672 1.36c.16.533.24 1.131.24 1.792s-.08 1.259-.24 1.792a3.8 3.8 0 0 1-.672 1.36c-.288.373-.64.661-1.056.864-.416.203-.88.304-1.392.304-1.12 0-1.926-.512-2.416-1.536h-.064v4.544h-1.28v-11.456Zm3.408 7.296c.725 0 1.296-.224 1.712-.672.416-.459.624-1.056.624-1.792v-1.408c0-.736-.208-1.328-.624-1.776-.416-.459-.987-.688-1.712-.688a2.72 2.72 0 0 0-.832.128c-.256.075-.48.181-.672.32a1.638 1.638 0 0 0-.464.512c-.107.192-.16.4-.16.624v3.072c0 .267.053.507.16.72.117.203.272.379.464.528.192.139.416.245.672.32.266.075.544.112.832.112Zm8.977 1.152a3.757 3.757 0 0 1-1.536-.304 3.45 3.45 0 0 1-1.168-.864 4.294 4.294 0 0 1-.752-1.36 5.854 5.854 0 0 1-.256-1.792c0-.651.085-1.243.256-1.776.181-.533.432-.987.752-1.36.331-.384.72-.677 1.168-.88a3.757 3.757 0 0 1 1.536-.304c.555 0 1.051.101 1.488.304a3.25 3.25 0 0 1 1.12.848c.309.352.544.773.704 1.264.171.491.256 1.029.256 1.616v.608h-5.936v.384c0 .352.053.683.16.992.117.299.277.56.48.784.213.224.469.4.768.528.309.128.656.192 1.04.192.523 0 .976-.123 1.36-.368.395-.245.699-.597.912-1.056l.912.656a3.229 3.229 0 0 1-1.248 1.376c-.565.341-1.237.512-2.016.512Zm0-7.568c-.352 0-.672.064-.96.192a2.136 2.136 0 0 0-.752.512 2.49 2.49 0 0 0-.48.8 2.698 2.698 0 0 0-.176.992v.112h4.56v-.176c0-.736-.203-1.323-.608-1.76-.395-.448-.923-.672-1.584-.672Zm5.677 7.376v-8.256h1.28v1.52h.08c.149-.395.416-.747.8-1.056.384-.309.912-.464 1.584-.464h.496v1.28h-.752c-.693 0-1.237.133-1.632.4-.384.256-.576.581-.576.976v5.6h-1.28Zm5.875-8.256h1.28v1.344h.064c.213-.523.523-.907.928-1.152.416-.256.912-.384 1.488-.384.512 0 .976.101 1.392.304.416.203.768.491 1.056.864.299.373.523.827.672 1.36.16.533.24 1.131.24 1.792s-.08 1.259-.24 1.792a3.768 3.768 0 0 1-.672 1.36c-.288.373-.64.661-1.056.864-.416.203-.88.304-1.392.304-1.12 0-1.925-.512-2.416-1.536h-.064v4.544h-1.28v-11.456Zm3.408 7.296c.725 0 1.296-.224 1.712-.672.416-.459.624-1.056.624-1.792v-1.408c0-.736-.208-1.328-.624-1.776-.416-.459-.987-.688-1.712-.688-.288 0-.565.043-.832.128-.256.075-.48.181-.672.32a1.633 1.633 0 0 0-.464.512c-.107.192-.16.4-.16.624v3.072c0 .267.053.507.16.72.117.203.272.379.464.528.192.139.416.245.672.32.267.075.544.112.832.112Zm10.961-.384h-.064a3.855 3.855 0 0 1-.32.576 2.149 2.149 0 0 1-.448.496c-.181.139-.4.251-.656.336a2.843 2.843 0 0 1-.896.128c-.853 0-1.53-.272-2.032-.816-.501-.555-.752-1.333-.752-2.336v-5.296h1.28v5.072c0 1.483.63 2.224 1.888 2.224.256 0 .502-.032.736-.096.246-.064.459-.16.64-.288.192-.128.342-.288.448-.48.118-.203.176-.443.176-.72v-5.712h1.28V762h-1.28v-1.344Zm7.11 1.536a3.757 3.757 0 0 1-1.536-.304 3.45 3.45 0 0 1-1.168-.864 4.294 4.294 0 0 1-.752-1.36 5.854 5.854 0 0 1-.256-1.792c0-.651.085-1.243.256-1.776.181-.533.432-.987.752-1.36.331-.384.72-.677 1.168-.88a3.757 3.757 0 0 1 1.536-.304c.555 0 1.051.101 1.488.304a3.25 3.25 0 0 1 1.12.848c.309.352.544.773.704 1.264.171.491.256 1.029.256 1.616v.608h-5.936v.384c0 .352.053.683.16.992.117.299.277.56.48.784.213.224.469.4.768.528.309.128.656.192 1.04.192.523 0 .976-.123 1.36-.368.395-.245.699-.597.912-1.056l.912.656a3.229 3.229 0 0 1-1.248 1.376c-.565.341-1.237.512-2.016.512Zm0-7.568c-.352 0-.672.064-.96.192a2.136 2.136 0 0 0-.752.512 2.49 2.49 0 0 0-.48.8 2.698 2.698 0 0 0-.176.992v.112h4.56v-.176c0-.736-.203-1.323-.608-1.76-.395-.448-.923-.672-1.584-.672Zm8.157 7.568c-.768 0-1.413-.144-1.936-.432a4.53 4.53 0 0 1-1.328-1.184l.912-.736c.32.405.678.72 1.072.944.395.213.854.32 1.376.32.544 0 .966-.117 1.264-.352.31-.235.464-.565.464-.992 0-.32-.106-.592-.32-.816-.202-.235-.576-.395-1.12-.48l-.656-.096a5.854 5.854 0 0 1-1.056-.24 3.378 3.378 0 0 1-.848-.448 2.143 2.143 0 0 1-.56-.704c-.128-.277-.192-.608-.192-.992 0-.405.075-.757.224-1.056.15-.309.352-.565.608-.768.267-.203.582-.352.944-.448.363-.107.752-.16 1.168-.16.672 0 1.232.117 1.68.352.459.235.859.56 1.2.976l-.848.768c-.181-.256-.448-.485-.8-.688-.352-.213-.794-.32-1.328-.32-.533 0-.938.117-1.216.352-.266.224-.4.533-.4.928 0 .405.134.699.4.88.278.181.672.315 1.184.4l.64.096c.918.139 1.568.405 1.952.8.384.384.576.891.576 1.52 0 .8-.272 1.429-.816 1.888-.544.459-1.29.688-2.24.688Zm7.032-.192c-.448 0-.789-.123-1.024-.368-.224-.256-.336-.587-.336-.992v-5.776h-1.36v-1.12h.768c.277 0 .464-.053.56-.16.107-.117.16-.315.16-.592v-1.536h1.152v2.288h1.808v1.12h-1.808v6.016h1.68V762h-1.6Zm9.785 0c-.48 0-.826-.128-1.04-.384-.202-.256-.33-.576-.384-.96h-.08c-.181.512-.48.896-.896 1.152-.416.256-.912.384-1.488.384-.874 0-1.557-.224-2.048-.672-.48-.448-.72-1.056-.72-1.824 0-.779.283-1.376.848-1.792.576-.416 1.467-.624 2.672-.624h1.632v-.816c0-.587-.16-1.035-.48-1.344-.32-.309-.81-.464-1.472-.464-.501 0-.922.112-1.264.336-.33.224-.608.523-.832.896l-.768-.72c.224-.448.582-.827 1.072-1.136.491-.32 1.11-.48 1.856-.48 1.003 0 1.782.245 2.336.736.555.491.832 1.173.832 2.048v4.544h.944V762h-.72Zm-3.68-.896c.32 0 .614-.037.88-.112.267-.075.496-.181.688-.32.192-.139.342-.299.448-.48.107-.181.16-.379.16-.592v-1.36h-1.696c-.736 0-1.274.107-1.616.32-.33.213-.496.523-.496.928v.336c0 .405.144.72.432.944.299.224.699.336 1.2.336Zm8.707 1.088c-.768 0-1.413-.144-1.936-.432a4.518 4.518 0 0 1-1.328-1.184l.912-.736c.32.405.677.72 1.072.944.395.213.853.32 1.376.32.544 0 .965-.117 1.264-.352.309-.235.464-.565.464-.992 0-.32-.107-.592-.32-.816-.203-.235-.576-.395-1.12-.48l-.656-.096a5.854 5.854 0 0 1-1.056-.24 3.36 3.36 0 0 1-.848-.448 2.13 2.13 0 0 1-.56-.704c-.128-.277-.192-.608-.192-.992 0-.405.075-.757.224-1.056.149-.309.352-.565.608-.768.267-.203.581-.352.944-.448.363-.107.752-.16 1.168-.16.672 0 1.232.117 1.68.352.459.235.859.56 1.2.976l-.848.768c-.181-.256-.448-.485-.8-.688-.352-.213-.795-.32-1.328-.32s-.939.117-1.216.352c-.267.224-.4.533-.4.928 0 .405.133.699.4.88.277.181.672.315 1.184.4l.64.096c.917.139 1.568.405 1.952.8.384.384.576.891.576 1.52 0 .8-.272 1.429-.816 1.888-.544.459-1.291.688-2.24.688Zm6.055 0c-.341 0-.592-.085-.752-.256-.149-.171-.224-.395-.224-.672v-.208c0-.277.075-.501.224-.672.16-.171.411-.256.752-.256s.587.085.736.256c.16.171.24.395.24.672v.208c0 .277-.08.501-.24.672-.149.171-.395.256-.736.256Z"/>
  <path fill="#fff" stroke="#000" d="M861.5 309.5h236v69h-236z"/>
  <path fill="#000" d="M875.488 331v-11.168h6.816v1.184h-5.472v3.744h5.152v1.184h-5.152v3.872h5.472V331h-6.816Zm9.2 0v-8.256h1.28v1.344h.064c.203-.469.485-.843.848-1.12.373-.277.869-.416 1.488-.416.853 0 1.525.277 2.016.832.501.544.752 1.317.752 2.32V331h-1.28v-5.072c0-1.483-.624-2.224-1.872-2.224-.256 0-.507.032-.752.096-.235.064-.448.16-.64.288a1.47 1.47 0 0 0-.464.496c-.107.192-.16.421-.16.688V331h-1.28Zm24.591 0c-.448 0-.79-.123-1.024-.368-.224-.256-.336-.576-.336-.96V319.16h1.28v10.72h1.216V331h-1.136Zm6.119.192a3.714 3.714 0 0 1-1.52-.304 3.405 3.405 0 0 1-1.184-.864 4.294 4.294 0 0 1-.752-1.36 5.554 5.554 0 0 1-.272-1.792c0-.651.091-1.243.272-1.776.181-.533.432-.987.752-1.36a3.315 3.315 0 0 1 1.184-.88 3.714 3.714 0 0 1 1.52-.304c.555 0 1.056.101 1.504.304.459.203.853.496 1.184.88.331.373.587.827.768 1.36.181.533.272 1.125.272 1.776 0 .661-.091 1.259-.272 1.792a4.122 4.122 0 0 1-.768 1.36 3.405 3.405 0 0 1-1.184.864 3.602 3.602 0 0 1-1.504.304Zm0-1.136c.693 0 1.259-.213 1.696-.64.437-.427.656-1.077.656-1.952v-1.184c0-.875-.219-1.525-.656-1.952-.437-.427-1.003-.64-1.696-.64-.693 0-1.259.213-1.696.64-.437.427-.656 1.077-.656 1.952v1.184c0 .875.219 1.525.656 1.952.437.427 1.003.64 1.696.64Zm19.97-7.312h1.28v1.344h.064c.213-.523.522-.907.928-1.152.416-.256.912-.384 1.488-.384.512 0 .976.101 1.392.304.416.203.768.491 1.056.864a3.8 3.8 0 0 1 .672 1.36c.16.533.24 1.131.24 1.792s-.08 1.259-.24 1.792a3.8 3.8 0 0 1-.672 1.36c-.288.373-.64.661-1.056.864-.416.203-.88.304-1.392.304-1.12 0-1.926-.512-2.416-1.536h-.064v4.544h-1.28v-11.456Zm3.408 7.296c.725 0 1.296-.224 1.712-.672.416-.459.624-1.056.624-1.792v-1.408c0-.736-.208-1.328-.624-1.776-.416-.459-.987-.688-1.712-.688a2.72 2.72 0 0 0-.832.128c-.256.075-.48.181-.672.32a1.633 1.633 0 0 0-.464.512c-.107.192-.16.4-.16.624v3.072c0 .267.053.507.16.72.117.203.272.379.464.528.192.139.416.245.672.32.266.075.544.112.832.112Zm8.993 1.152a3.714 3.714 0 0 1-1.52-.304 3.405 3.405 0 0 1-1.184-.864 4.294 4.294 0 0 1-.752-1.36 5.554 5.554 0 0 1-.272-1.792c0-.651.091-1.243.272-1.776.181-.533.432-.987.752-1.36a3.315 3.315 0 0 1 1.184-.88 3.714 3.714 0 0 1 1.52-.304c.555 0 1.056.101 1.504.304.459.203.853.496 1.184.88.331.373.587.827.768 1.36.181.533.272 1.125.272 1.776 0 .661-.091 1.259-.272 1.792a4.122 4.122 0 0 1-.768 1.36 3.405 3.405 0 0 1-1.184.864 3.602 3.602 0 0 1-1.504.304Zm0-1.136c.693 0 1.259-.213 1.696-.64.437-.427.656-1.077.656-1.952v-1.184c0-.875-.219-1.525-.656-1.952-.437-.427-1.003-.64-1.696-.64-.693 0-1.259.213-1.696.64-.437.427-.656 1.077-.656 1.952v1.184c0 .875.219 1.525.656 1.952.437.427 1.003.64 1.696.64Zm8.313 1.136c-.768 0-1.413-.144-1.936-.432a4.53 4.53 0 0 1-1.328-1.184l.912-.736c.32.405.678.72 1.072.944.395.213.854.32 1.376.32.544 0 .966-.117 1.264-.352.31-.235.464-.565.464-.992 0-.32-.106-.592-.32-.816-.202-.235-.576-.395-1.12-.48l-.656-.096a5.854 5.854 0 0 1-1.056-.24 3.378 3.378 0 0 1-.848-.448 2.143 2.143 0 0 1-.56-.704c-.128-.277-.192-.608-.192-.992 0-.405.075-.757.224-1.056.15-.309.352-.565.608-.768.267-.203.582-.352.944-.448.363-.107.752-.16 1.168-.16.672 0 1.232.117 1.68.352.459.235.859.56 1.2.976l-.848.768c-.181-.256-.448-.485-.8-.688-.352-.213-.794-.32-1.328-.32-.533 0-.938.117-1.216.352-.266.224-.4.533-.4.928 0 .405.134.699.4.88.278.181.672.315 1.184.4l.64.096c.918.139 1.568.405 1.952.8.384.384.576.891.576 1.52 0 .8-.272 1.429-.816 1.888-.544.459-1.29.688-2.24.688Zm5.957-10.384c-.277 0-.48-.064-.608-.192a.792.792 0 0 1-.176-.528v-.208c0-.213.059-.384.176-.512.128-.139.331-.208.608-.208.277 0 .475.069.592.208a.692.692 0 0 1 .192.512v.208a.75.75 0 0 1-.192.528c-.117.128-.315.192-.592.192Zm-.64 1.936h1.28V331h-1.28v-8.256Zm4-3.584h1.28v4.928h.064c.213-.523.523-.907.928-1.152.416-.256.912-.384 1.488-.384.512 0 .976.101 1.392.304.416.203.768.491 1.056.864.299.373.523.827.672 1.36.16.533.24 1.131.24 1.792s-.08 1.259-.24 1.792a3.768 3.768 0 0 1-.672 1.36c-.288.373-.64.661-1.056.864-.416.203-.88.304-1.392.304-1.12 0-1.925-.512-2.416-1.536h-.064V331h-1.28v-11.84Zm3.408 10.88c.725 0 1.296-.224 1.712-.672.416-.459.624-1.056.624-1.792v-1.408c0-.736-.208-1.328-.624-1.776-.416-.459-.987-.688-1.712-.688-.288 0-.565.043-.832.128-.256.075-.48.181-.672.32a1.633 1.633 0 0 0-.464.512c-.107.192-.16.4-.16.624v3.072c0 .267.053.507.16.72.117.203.272.379.464.528.192.139.416.245.672.32.267.075.544.112.832.112Zm7.233.96c-.448 0-.789-.123-1.024-.368-.224-.256-.336-.576-.336-.96V319.16h1.28v10.72h1.216V331h-1.136Zm6.104.192a3.75 3.75 0 0 1-1.536-.304 3.44 3.44 0 0 1-1.168-.864 4.294 4.294 0 0 1-.752-1.36 5.854 5.854 0 0 1-.256-1.792c0-.651.085-1.243.256-1.776.181-.533.432-.987.752-1.36.33-.384.72-.677 1.168-.88a3.75 3.75 0 0 1 1.536-.304c.554 0 1.05.101 1.488.304.437.203.81.485 1.12.848.309.352.544.773.704 1.264.17.491.256 1.029.256 1.616v.608h-5.936v.384c0 .352.053.683.16.992.117.299.277.56.48.784.213.224.469.4.768.528.309.128.656.192 1.04.192.522 0 .976-.123 1.36-.368a2.4 2.4 0 0 0 .912-1.056l.912.656a3.229 3.229 0 0 1-1.248 1.376c-.566.341-1.238.512-2.016.512Zm0-7.568c-.352 0-.672.064-.96.192a2.136 2.136 0 0 0-.752.512 2.49 2.49 0 0 0-.48.8 2.678 2.678 0 0 0-.176.992v.112h4.56v-.176c0-.736-.203-1.323-.608-1.76-.395-.448-.923-.672-1.584-.672Zm22.916 7.568c-.56 0-1.08-.101-1.53-.304a3.428 3.428 0 0 1-1.17-.864 4.27 4.27 0 0 1-.75-1.36c-.18-.533-.26-1.131-.26-1.792 0-.651.08-1.243.26-1.776.18-.533.43-.987.75-1.36.33-.384.72-.677 1.17-.88.45-.203.97-.304 1.53-.304s1.05.101 1.49.304c.44.203.81.485 1.12.848.31.352.54.773.7 1.264.17.491.26 1.029.26 1.616v.608h-5.94v.384c0 .352.06.683.16.992.12.299.28.56.48.784.22.224.47.4.77.528.31.128.66.192 1.04.192.52 0 .98-.123 1.36-.368.4-.245.7-.597.91-1.056l.92.656a3.285 3.285 0 0 1-1.25 1.376c-.57.341-1.24.512-2.02.512Zm0-7.568c-.35 0-.67.064-.96.192-.29.117-.54.288-.75.512-.2.224-.36.491-.48.8-.12.299-.18.629-.18.992v.112h4.56v-.176c0-.736-.2-1.323-.6-1.76-.4-.448-.93-.672-1.59-.672Zm7.38 7.376-2.9-8.256h1.28l1.44 4.096.9 2.816h.08l.89-2.816 1.48-4.096h1.23l-2.91 8.256h-1.49Zm6.69-10.192c-.28 0-.48-.064-.61-.192a.78.78 0 0 1-.18-.528v-.208c0-.213.06-.384.18-.512.13-.139.33-.208.61-.208.28 0 .47.069.59.208.13.128.19.299.19.512v.208a.74.74 0 0 1-.19.528c-.12.128-.31.192-.59.192Zm-.64 1.936h1.28V331h-1.28v-8.256Zm5.82 8.256c-.45 0-.79-.123-1.02-.368-.23-.256-.34-.587-.34-.992v-5.776h-1.36v-1.12h.77c.28 0 .46-.053.56-.16.11-.117.16-.315.16-.592v-1.536h1.15v2.288h1.81v1.12h-1.81v6.016h1.68V331h-1.6Zm9.79 0c-.48 0-.83-.128-1.04-.384-.2-.256-.33-.576-.39-.96h-.08c-.18.512-.48.896-.89 1.152-.42.256-.91.384-1.49.384-.87 0-1.56-.224-2.05-.672-.48-.448-.72-1.056-.72-1.824 0-.779.28-1.376.85-1.792.58-.416 1.47-.624 2.67-.624h1.63v-.816c0-.587-.16-1.035-.48-1.344-.32-.309-.81-.464-1.47-.464-.5 0-.92.112-1.26.336-.33.224-.61.523-.83.896l-.77-.72c.22-.448.58-.827 1.07-1.136.49-.32 1.11-.48 1.86-.48 1 0 1.78.245 2.33.736.56.491.83 1.173.83 2.048v4.544h.95V331h-.72Zm-3.68-.896c.32 0 .61-.037.88-.112.26-.075.49-.181.69-.32.19-.139.34-.299.44-.48.11-.181.16-.379.16-.592v-1.36h-1.69c-.74 0-1.28.107-1.62.32-.33.213-.49.523-.49.928v.336c0 .405.14.72.43.944.3.224.7.336 1.2.336Zm6.23.896v-8.256h1.28v1.52h.08c.14-.395.41-.747.8-1.056.38-.309.91-.464 1.58-.464h.5v1.28h-.76c-.69 0-1.23.133-1.63.4-.38.256-.57.581-.57.976v5.6h-1.28Zm21.37 0c-.45 0-.79-.123-1.03-.368-.22-.256-.33-.576-.33-.96V319.16h1.28v10.72h1.21V331h-1.13Zm9 0c-.48 0-.83-.128-1.04-.384-.21-.256-.33-.576-.39-.96h-.08c-.18.512-.48.896-.89 1.152-.42.256-.92.384-1.49.384-.88 0-1.56-.224-2.05-.672-.48-.448-.72-1.056-.72-1.824 0-.779.28-1.376.85-1.792.57-.416 1.46-.624 2.67-.624h1.63v-.816c0-.587-.16-1.035-.48-1.344-.32-.309-.81-.464-1.47-.464-.5 0-.92.112-1.26.336-.33.224-.61.523-.84.896l-.76-.72c.22-.448.58-.827 1.07-1.136.49-.32 1.11-.48 1.85-.48 1.01 0 1.79.245 2.34.736.55.491.83 1.173.83 2.048v4.544h.95V331h-.72Zm-3.68-.896c.32 0 .61-.037.88-.112.26-.075.49-.181.68-.32.2-.139.35-.299.45-.48.11-.181.16-.379.16-.592v-1.36h-1.69c-.74 0-1.28.107-1.62.32-.33.213-.5.523-.5.928v.336c0 .405.15.72.44.944.29.224.69.336 1.2.336Zm8.7 1.088c-.76 0-1.41-.144-1.93-.432a4.513 4.513 0 0 1-1.33-1.184l.91-.736c.32.405.68.72 1.07.944.4.213.86.32 1.38.32.54 0 .96-.117 1.26-.352.31-.235.47-.565.47-.992 0-.32-.11-.592-.32-.816-.21-.235-.58-.395-1.12-.48l-.66-.096a5.864 5.864 0 0 1-1.05-.24 3.29 3.29 0 0 1-.85-.448 2.08 2.08 0 0 1-.56-.704c-.13-.277-.19-.608-.19-.992 0-.405.07-.757.22-1.056.15-.309.35-.565.61-.768.26-.203.58-.352.94-.448.36-.107.75-.16 1.17-.16.67 0 1.23.117 1.68.352.46.235.86.56 1.2.976l-.85.768c-.18-.256-.45-.485-.8-.688-.35-.213-.79-.32-1.33-.32-.53 0-.94.117-1.21.352-.27.224-.4.533-.4.928 0 .405.13.699.4.88.27.181.67.315 1.18.4l.64.096c.92.139 1.57.405 1.95.8.39.384.58.891.58 1.52 0 .8-.27 1.429-.82 1.888-.54.459-1.29.688-2.24.688Zm-196.68 8.968h1.28v4.928h.064c.213-.523.523-.907.928-1.152.416-.256.912-.384 1.488-.384.512 0 .976.101 1.392.304.416.203.768.491 1.056.864.299.373.523.827.672 1.36.16.533.24 1.131.24 1.792s-.08 1.259-.24 1.792a3.768 3.768 0 0 1-.672 1.36c-.288.373-.64.661-1.056.864-.416.203-.88.304-1.392.304-1.12 0-1.925-.512-2.416-1.536h-.064V352h-1.28v-11.84Zm3.408 10.88c.725 0 1.296-.224 1.712-.672.416-.459.624-1.056.624-1.792v-1.408c0-.736-.208-1.328-.624-1.776-.416-.459-.987-.688-1.712-.688-.288 0-.565.043-.832.128-.256.075-.48.181-.672.32a1.633 1.633 0 0 0-.464.512c-.107.192-.16.4-.16.624v3.072c0 .267.053.507.16.72.117.203.272.379.464.528.192.139.416.245.672.32.267.075.544.112.832.112Zm11.873.96c-.48 0-.826-.128-1.04-.384-.202-.256-.33-.576-.384-.96h-.08c-.181.512-.48.896-.896 1.152-.416.256-.912.384-1.488.384-.874 0-1.557-.224-2.048-.672-.48-.448-.72-1.056-.72-1.824 0-.779.283-1.376.848-1.792.576-.416 1.467-.624 2.672-.624h1.632v-.816c0-.587-.16-1.035-.48-1.344-.32-.309-.81-.464-1.472-.464-.501 0-.922.112-1.264.336-.33.224-.608.523-.832.896l-.768-.72c.224-.448.582-.827 1.072-1.136.491-.32 1.11-.48 1.856-.48 1.003 0 1.782.245 2.336.736.555.491.832 1.173.832 2.048v4.544h.944V352h-.72Zm-3.68-.896c.32 0 .614-.037.88-.112.267-.075.496-.181.688-.32.192-.139.342-.299.448-.48.107-.181.16-.379.16-.592v-1.36h-1.696c-.736 0-1.274.107-1.616.32-.33.213-.496.523-.496.928v.336c0 .405.144.72.432.944.299.224.699.336 1.2.336Zm6.227.896v-8.256h1.28v1.52h.08c.149-.395.416-.747.8-1.056.384-.309.912-.464 1.584-.464h.496v1.28h-.752c-.693 0-1.237.133-1.632.4-.384.256-.576.581-.576.976v5.6h-1.28Zm5.875 0v-8.256h1.28v1.52h.08c.149-.395.416-.747.8-1.056.384-.309.912-.464 1.584-.464h.496v1.28h-.752c-.693 0-1.237.133-1.632.4-.384.256-.576.581-.576.976v5.6h-1.28Zm11.813 0c-.48 0-.827-.128-1.04-.384-.203-.256-.331-.576-.384-.96h-.08c-.182.512-.48.896-.896 1.152-.416.256-.912.384-1.488.384-.875 0-1.558-.224-2.048-.672-.48-.448-.72-1.056-.72-1.824 0-.779.282-1.376.848-1.792.576-.416 1.466-.624 2.672-.624h1.632v-.816c0-.587-.16-1.035-.48-1.344-.32-.309-.811-.464-1.472-.464-.502 0-.923.112-1.264.336a2.804 2.804 0 0 0-.832.896l-.768-.72c.224-.448.581-.827 1.072-1.136.49-.32 1.109-.48 1.856-.48 1.002 0 1.781.245 2.336.736.554.491.832 1.173.832 2.048v4.544h.944V352h-.72Zm-3.68-.896c.32 0 .613-.037.88-.112.266-.075.496-.181.688-.32.192-.139.341-.299.448-.48.106-.181.16-.379.16-.592v-1.36h-1.696c-.736 0-1.275.107-1.616.32-.331.213-.496.523-.496.928v.336c0 .405.144.72.432.944.298.224.698.336 1.2.336Zm8.707 1.088c-.768 0-1.414-.144-1.936-.432a4.518 4.518 0 0 1-1.328-1.184l.912-.736c.32.405.677.72 1.072.944.394.213.853.32 1.376.32.544 0 .965-.117 1.264-.352.309-.235.464-.565.464-.992 0-.32-.107-.592-.32-.816-.203-.235-.576-.395-1.121-.48l-.655-.096a5.854 5.854 0 0 1-1.056-.24 3.36 3.36 0 0 1-.848-.448 2.118 2.118 0 0 1-.56-.704c-.128-.277-.192-.608-.192-.992 0-.405.074-.757.224-1.056.149-.309.352-.565.608-.768.266-.203.581-.352.944-.448.362-.107.752-.16 1.168-.16.672 0 1.232.117 1.68.352.458.235.858.56 1.2.976l-.848.768c-.182-.256-.448-.485-.8-.688-.352-.213-.795-.32-1.328-.32-.534 0-.939.117-1.216.352-.267.224-.4.533-.4.928 0 .405.133.699.4.88.277.181.672.315 1.184.4l.64.096c.917.139 1.568.405 1.952.8.384.384.576.891.576 1.52 0 .8-.272 1.429-.816 1.888-.544.459-1.291.688-2.24.688Zm14.378-1.536h-.064c-.502 1.024-1.307 1.536-2.416 1.536-.512 0-.976-.101-1.392-.304a3.1 3.1 0 0 1-1.072-.864 4.16 4.16 0 0 1-.672-1.36 6.618 6.618 0 0 1-.224-1.792c0-.661.074-1.259.224-1.792a4.16 4.16 0 0 1 .672-1.36 3.1 3.1 0 0 1 1.072-.864c.416-.203.88-.304 1.392-.304.576 0 1.066.128 1.472.384.416.245.73.629.944 1.152h.064v-4.928h1.28V352h-1.28v-1.344Zm-2.128.384c.288 0 .56-.037.816-.112.266-.075.496-.181.688-.32a1.62 1.62 0 0 0 .448-.528 1.47 1.47 0 0 0 .176-.72v-3.072c0-.224-.059-.432-.176-.624a1.474 1.474 0 0 0-.448-.512 2.164 2.164 0 0 0-.688-.32 2.573 2.573 0 0 0-.816-.128c-.726 0-1.296.229-1.712.688-.416.448-.624 1.04-.624 1.776v1.408c0 .736.208 1.333.624 1.792.416.448.986.672 1.712.672Zm9.233 1.152a3.757 3.757 0 0 1-1.536-.304 3.45 3.45 0 0 1-1.168-.864 4.294 4.294 0 0 1-.752-1.36 5.854 5.854 0 0 1-.256-1.792c0-.651.085-1.243.256-1.776.181-.533.432-.987.752-1.36.331-.384.72-.677 1.168-.88a3.757 3.757 0 0 1 1.536-.304c.555 0 1.051.101 1.488.304a3.25 3.25 0 0 1 1.12.848c.309.352.544.773.704 1.264.171.491.256 1.029.256 1.616v.608h-5.936v.384c0 .352.053.683.16.992.117.299.277.56.48.784.213.224.469.4.768.528.309.128.656.192 1.04.192.523 0 .976-.123 1.36-.368.395-.245.699-.597.912-1.056l.912.656a3.229 3.229 0 0 1-1.248 1.376c-.565.341-1.237.512-2.016.512Zm0-7.568c-.352 0-.672.064-.96.192a2.136 2.136 0 0 0-.752.512 2.49 2.49 0 0 0-.48.8 2.698 2.698 0 0 0-.176.992v.112h4.56v-.176c0-.736-.203-1.323-.608-1.76-.395-.448-.923-.672-1.584-.672Zm14.738 6.032h-.064c-.501 1.024-1.306 1.536-2.416 1.536-.512 0-.976-.101-1.392-.304a3.11 3.11 0 0 1-1.072-.864 4.16 4.16 0 0 1-.672-1.36 6.657 6.657 0 0 1-.224-1.792c0-.661.075-1.259.224-1.792a4.16 4.16 0 0 1 .672-1.36 3.11 3.11 0 0 1 1.072-.864c.416-.203.88-.304 1.392-.304.576 0 1.067.128 1.472.384.416.245.731.629.944 1.152h.064v-4.928h1.28V352h-1.28v-1.344Zm-2.128.384c.288 0 .56-.037.816-.112.267-.075.496-.181.688-.32.192-.149.342-.325.448-.528a1.46 1.46 0 0 0 .176-.72v-3.072c0-.224-.058-.432-.176-.624a1.464 1.464 0 0 0-.448-.512 2.154 2.154 0 0 0-.688-.32 2.573 2.573 0 0 0-.816-.128c-.725 0-1.296.229-1.712.688-.416.448-.624 1.04-.624 1.776v1.408c0 .736.208 1.333.624 1.792.416.448.987.672 1.712.672Zm9.234 1.152a3.75 3.75 0 0 1-1.536-.304 3.44 3.44 0 0 1-1.168-.864 4.294 4.294 0 0 1-.752-1.36 5.854 5.854 0 0 1-.256-1.792c0-.651.085-1.243.256-1.776.181-.533.432-.987.752-1.36.33-.384.72-.677 1.168-.88a3.75 3.75 0 0 1 1.536-.304c.554 0 1.05.101 1.488.304.437.203.81.485 1.12.848.309.352.544.773.704 1.264.17.491.256 1.029.256 1.616v.608h-5.936v.384c0 .352.053.683.16.992.117.299.277.56.48.784.213.224.469.4.768.528.309.128.656.192 1.04.192.522 0 .976-.123 1.36-.368a2.4 2.4 0 0 0 .912-1.056l.912.656a3.229 3.229 0 0 1-1.248 1.376c-.566.341-1.238.512-2.016.512Zm0-7.568c-.352 0-.672.064-.96.192a2.136 2.136 0 0 0-.752.512 2.49 2.49 0 0 0-.48.8 2.678 2.678 0 0 0-.176.992v.112h4.56v-.176c0-.736-.203-1.323-.608-1.76-.395-.448-.923-.672-1.584-.672Zm8.157 7.568c-.768 0-1.413-.144-1.936-.432a4.518 4.518 0 0 1-1.328-1.184l.912-.736c.32.405.677.72 1.072.944.395.213.853.32 1.376.32.544 0 .965-.117 1.264-.352.309-.235.464-.565.464-.992 0-.32-.107-.592-.32-.816-.203-.235-.576-.395-1.12-.48l-.656-.096a5.854 5.854 0 0 1-1.056-.24 3.36 3.36 0 0 1-.848-.448 2.13 2.13 0 0 1-.56-.704c-.128-.277-.192-.608-.192-.992 0-.405.075-.757.224-1.056.149-.309.352-.565.608-.768.267-.203.581-.352.944-.448.363-.107.752-.16 1.168-.16.672 0 1.232.117 1.68.352.459.235.859.56 1.2.976l-.848.768c-.181-.256-.448-.485-.8-.688-.352-.213-.795-.32-1.328-.32s-.939.117-1.216.352c-.267.224-.4.533-.4.928 0 .405.133.699.4.88.277.181.672.315 1.184.4l.64.096c.917.139 1.568.405 1.952.8.384.384.576.891.576 1.52 0 .8-.272 1.429-.816 1.888-.544.459-1.291.688-2.24.688Zm5.317-8.448h1.28v1.344h.064c.213-.523.522-.907.928-1.152.416-.256.912-.384 1.488-.384.512 0 .976.101 1.392.304.416.203.768.491 1.056.864a3.8 3.8 0 0 1 .672 1.36c.16.533.24 1.131.24 1.792s-.08 1.259-.24 1.792a3.8 3.8 0 0 1-.672 1.36c-.288.373-.64.661-1.056.864-.416.203-.88.304-1.392.304-1.12 0-1.926-.512-2.416-1.536h-.064v4.544h-1.28v-11.456Zm3.408 7.296c.725 0 1.296-.224 1.712-.672.416-.459.624-1.056.624-1.792v-1.408c0-.736-.208-1.328-.624-1.776-.416-.459-.987-.688-1.712-.688a2.72 2.72 0 0 0-.832.128c-.256.075-.48.181-.672.32a1.633 1.633 0 0 0-.464.512c-.107.192-.16.4-.16.624v3.072c0 .267.053.507.16.72.117.203.272.379.464.528.192.139.416.245.672.32.266.075.544.112.832.112Zm7.233.96c-.448 0-.789-.123-1.024-.368-.224-.256-.336-.576-.336-.96V340.16h1.28v10.72h1.216V352h-1.136Zm8.999 0c-.48 0-.826-.128-1.04-.384-.202-.256-.33-.576-.384-.96h-.08c-.181.512-.48.896-.896 1.152-.416.256-.912.384-1.488.384-.874 0-1.557-.224-2.048-.672-.48-.448-.72-1.056-.72-1.824 0-.779.283-1.376.848-1.792.576-.416 1.467-.624 2.672-.624h1.632v-.816c0-.587-.16-1.035-.48-1.344-.32-.309-.81-.464-1.472-.464-.501 0-.922.112-1.264.336-.33.224-.608.523-.832.896l-.768-.72c.224-.448.582-.827 1.072-1.136.491-.32 1.11-.48 1.856-.48 1.003 0 1.782.245 2.336.736.555.491.832 1.173.832 2.048v4.544h.944V352h-.72Zm-3.68-.896c.32 0 .614-.037.88-.112.267-.075.496-.181.688-.32.192-.139.342-.299.448-.48.107-.181.16-.379.16-.592v-1.36h-1.696c-.736 0-1.274.107-1.616.32-.33.213-.496.523-.496.928v.336c0 .405.144.72.432.944.299.224.699.336 1.2.336Zm5.395.896v-1.072l4.688-6.064h-4.544v-1.12h6.097v.96l-4.785 6.176h4.915V352h-6.371Zm14.251 0c-.48 0-.82-.128-1.04-.384-.2-.256-.33-.576-.38-.96h-.08c-.18.512-.48.896-.9 1.152-.41.256-.91.384-1.48.384-.88 0-1.56-.224-2.05-.672-.48-.448-.72-1.056-.72-1.824 0-.779.28-1.376.85-1.792.57-.416 1.46-.624 2.67-.624h1.63v-.816c0-.587-.16-1.035-.48-1.344-.32-.309-.81-.464-1.47-.464-.5 0-.93.112-1.27.336-.33.224-.6.523-.83.896l-.77-.72c.23-.448.58-.827 1.08-1.136.49-.32 1.1-.48 1.85-.48 1 0 1.78.245 2.34.736.55.491.83 1.173.83 2.048v4.544h.94V352h-.72Zm-3.68-.896c.32 0 .62-.037.88-.112.27-.075.5-.181.69-.32.19-.139.34-.299.45-.48.11-.181.16-.379.16-.592v-1.36h-1.7c-.73 0-1.27.107-1.61.32-.33.213-.5.523-.5.928v.336c0 .405.15.72.43.944.3.224.7.336 1.2.336Zm6.23.896v-8.256h1.28v1.344h.06c.1-.213.21-.411.32-.592.13-.192.28-.357.45-.496.18-.139.39-.245.63-.32.23-.085.51-.128.83-.128.54 0 1.04.133 1.5.4.46.256.8.683 1.03 1.28h.03c.15-.448.42-.837.83-1.168.42-.341.98-.512 1.68-.512.84 0 1.5.277 1.97.832.48.544.72 1.317.72 2.32V352h-1.28v-5.072c0-.736-.15-1.291-.43-1.664-.29-.373-.75-.56-1.38-.56-.26 0-.5.032-.74.096-.22.064-.42.16-.6.288-.19.128-.33.293-.44.496-.1.192-.16.421-.16.688V352h-1.28v-5.072c0-.736-.14-1.291-.43-1.664s-.73-.56-1.34-.56c-.26 0-.5.032-.74.096-.23.064-.44.16-.62.288-.18.128-.33.293-.45.496a1.36 1.36 0 0 0-.16.688V352h-1.28Zm14.61-10.192c-.28 0-.48-.064-.61-.192a.78.78 0 0 1-.18-.528v-.208c0-.213.06-.384.18-.512.13-.139.33-.208.61-.208.28 0 .47.069.59.208.13.128.19.299.19.512v.208a.74.74 0 0 1-.19.528c-.12.128-.31.192-.59.192Zm-.64 1.936h1.28V352h-1.28v-8.256Zm7.1 8.448c-.56 0-1.07-.101-1.53-.304a3.428 3.428 0 0 1-1.17-.864 4.27 4.27 0 0 1-.75-1.36 5.881 5.881 0 0 1-.26-1.792c0-.651.09-1.243.26-1.776.18-.533.43-.987.75-1.36.33-.384.72-.677 1.17-.88.46-.203.97-.304 1.53-.304s1.05.101 1.49.304c.44.203.81.485 1.12.848.31.352.54.773.7 1.264.18.491.26 1.029.26 1.616v.608h-5.94v.384c0 .352.06.683.16.992.12.299.28.56.48.784.22.224.47.4.77.528.31.128.66.192 1.04.192.53 0 .98-.123 1.36-.368.4-.245.7-.597.91-1.056l.92.656a3.285 3.285 0 0 1-1.25 1.376c-.57.341-1.24.512-2.02.512Zm0-7.568c-.35 0-.67.064-.96.192-.29.117-.54.288-.75.512-.2.224-.36.491-.48.8-.12.299-.18.629-.18.992v.112h4.56v-.176c0-.736-.2-1.323-.6-1.76-.4-.448-.93-.672-1.59-.672Zm5.68 7.376v-8.256h1.28v1.344h.06c.21-.469.49-.843.85-1.12.38-.277.87-.416 1.49-.416.85 0 1.53.277 2.02.832.5.544.75 1.317.75 2.32V352h-1.28v-5.072c0-1.483-.63-2.224-1.87-2.224-.26 0-.51.032-.76.096-.23.064-.44.16-.64.288a1.51 1.51 0 0 0-.46.496 1.36 1.36 0 0 0-.16.688V352h-1.28Zm10.92 0c-.45 0-.79-.123-1.03-.368-.22-.256-.33-.587-.33-.992v-5.776h-1.36v-1.12h.77c.27 0 .46-.053.56-.16.1-.117.16-.315.16-.592v-1.536h1.15v2.288h1.81v1.12h-1.81v6.016h1.68V352h-1.6Zm6.84.192c-.55 0-1.06-.101-1.52-.304a3.372 3.372 0 0 1-1.18-.864 4.493 4.493 0 0 1-.76-1.36 5.583 5.583 0 0 1-.27-1.792c0-.651.09-1.243.27-1.776.19-.533.44-.987.76-1.36.33-.384.72-.677 1.18-.88.46-.203.97-.304 1.52-.304.56 0 1.06.101 1.5.304.46.203.86.496 1.19.88.33.373.59.827.77 1.36.18.533.27 1.125.27 1.776 0 .661-.09 1.259-.27 1.792-.18.523-.44.976-.77 1.36a3.41 3.41 0 0 1-1.19.864c-.44.203-.94.304-1.5.304Zm0-1.136c.69 0 1.26-.213 1.7-.64.43-.427.65-1.077.65-1.952v-1.184c0-.875-.22-1.525-.65-1.952-.44-.427-1.01-.64-1.7-.64s-1.26.213-1.7.64c-.43.427-.65 1.077-.65 1.952v1.184c0 .875.22 1.525.65 1.952.44.427 1.01.64 1.7.64Z"/>
  <path stroke="#000" d="M800 241h10.785v103M800 447h10.785V344m0 0H861M232.336 481.197l-72.106-1.151 2.867 170.893"/>
  <path fill="#000" d="M415.348 91.872h10.332c2.088 0 3.72.588 4.896 1.764 1.2 1.176 1.8 2.748 1.8 4.716 0 .936-.132 1.728-.396 2.376-.264.648-.6 1.188-1.008 1.62-.408.408-.852.72-1.332.936-.48.192-.924.324-1.332.396v.216c.456.024.96.144 1.512.36.576.216 1.116.564 1.62 1.044.504.456.924 1.056 1.26 1.8.36.72.54 1.596.54 2.628a8.072 8.072 0 0 1-.504 2.88 6.833 6.833 0 0 1-1.332 2.304 6.525 6.525 0 0 1-2.052 1.548 6.19 6.19 0 0 1-2.592.54h-11.412V91.872Zm3.024 22.464h7.452c1.296 0 2.316-.324 3.06-.972.744-.672 1.116-1.644 1.116-2.916v-1.224c0-1.272-.372-2.232-1.116-2.88-.744-.672-1.764-1.008-3.06-1.008h-7.452v9Zm0-11.592h6.948c1.2 0 2.136-.3 2.808-.9.672-.6 1.008-1.464 1.008-2.592v-1.224c0-1.128-.336-1.992-1.008-2.592-.672-.6-1.608-.9-2.808-.9h-6.948v8.208ZM438.58 117V98.424h2.88v3.42h.18c.336-.888.936-1.68 1.8-2.376s2.052-1.044 3.564-1.044h1.116v2.88h-1.692c-1.56 0-2.784.3-3.672.9-.864.576-1.296 1.308-1.296 2.196V117h-2.88Zm20.063.432c-1.248 0-2.388-.228-3.42-.684a7.643 7.643 0 0 1-2.664-1.944c-.72-.864-1.284-1.884-1.692-3.06-.408-1.2-.612-2.544-.612-4.032 0-1.464.204-2.796.612-3.996.408-1.2.972-2.22 1.692-3.06a7.45 7.45 0 0 1 2.664-1.98c1.032-.456 2.172-.684 3.42-.684 1.248 0 2.376.228 3.384.684a7.45 7.45 0 0 1 2.664 1.98c.744.84 1.32 1.86 1.728 3.06.408 1.2.612 2.532.612 3.996 0 1.488-.204 2.832-.612 4.032-.408 1.176-.984 2.196-1.728 3.06a7.643 7.643 0 0 1-2.664 1.944c-1.008.456-2.136.684-3.384.684Zm0-2.556c1.56 0 2.832-.48 3.816-1.44s1.476-2.424 1.476-4.392v-2.664c0-1.968-.492-3.432-1.476-4.392-.984-.96-2.256-1.44-3.816-1.44s-2.832.48-3.816 1.44-1.476 2.424-1.476 4.392v2.664c0 1.968.492 3.432 1.476 4.392.984.96 2.256 1.44 3.816 1.44Zm11.004-16.452h2.808l1.98 8.028 1.98 8.136h.072l2.268-8.136 2.34-8.028h2.556l2.412 8.028 2.304 8.136h.072l1.908-8.136 2.016-8.028h2.7L490.131 117h-3.564l-2.592-8.928-1.62-5.652h-.072l-1.584 5.652-2.592 8.928h-3.492l-4.968-18.576Zm35.087 19.008c-1.728 0-3.18-.324-4.356-.972a10.175 10.175 0 0 1-2.988-2.664l2.052-1.656c.72.912 1.524 1.62 2.412 2.124.888.48 1.92.72 3.096.72 1.224 0 2.172-.264 2.844-.792.696-.528 1.044-1.272 1.044-2.232 0-.72-.24-1.332-.72-1.836-.456-.528-1.296-.888-2.52-1.08l-1.476-.216a13.3 13.3 0 0 1-2.376-.54 7.575 7.575 0 0 1-1.908-1.008 4.786 4.786 0 0 1-1.26-1.584c-.288-.624-.432-1.368-.432-2.232 0-.912.168-1.704.504-2.376a4.865 4.865 0 0 1 1.368-1.728c.6-.456 1.308-.792 2.124-1.008a9.273 9.273 0 0 1 2.628-.36c1.512 0 2.772.264 3.78.792a8.447 8.447 0 0 1 2.7 2.196l-1.908 1.728c-.408-.576-1.008-1.092-1.8-1.548-.792-.48-1.788-.72-2.988-.72s-2.112.264-2.736.792c-.6.504-.9 1.2-.9 2.088 0 .912.3 1.572.9 1.98.624.408 1.512.708 2.664.9l1.44.216c2.064.312 3.528.912 4.392 1.8.864.864 1.296 2.004 1.296 3.42 0 1.8-.612 3.216-1.836 4.248-1.224 1.032-2.904 1.548-5.04 1.548Zm18.947 0c-1.272 0-2.424-.228-3.456-.684a7.735 7.735 0 0 1-2.628-1.944c-.72-.864-1.284-1.884-1.692-3.06-.384-1.2-.576-2.544-.576-4.032 0-1.464.192-2.796.576-3.996.408-1.2.972-2.22 1.692-3.06a7.536 7.536 0 0 1 2.628-1.98c1.032-.456 2.184-.684 3.456-.684 1.248 0 2.364.228 3.348.684a7.313 7.313 0 0 1 2.52 1.908c.696.792 1.224 1.74 1.584 2.844.384 1.104.576 2.316.576 3.636v1.368h-13.356v.864a6.8 6.8 0 0 0 .36 2.232c.264.672.624 1.26 1.08 1.764.48.504 1.056.9 1.728 1.188.696.288 1.476.432 2.34.432 1.176 0 2.196-.276 3.06-.828.888-.552 1.572-1.344 2.052-2.376l2.052 1.476c-.6 1.272-1.536 2.304-2.808 3.096-1.272.768-2.784 1.152-4.536 1.152Zm0-17.028c-.792 0-1.512.144-2.16.432a4.823 4.823 0 0 0-1.692 1.152 5.622 5.622 0 0 0-1.08 1.8c-.264.672-.396 1.416-.396 2.232v.252h10.26v-.396c0-1.656-.456-2.976-1.368-3.96-.888-1.008-2.076-1.512-3.564-1.512ZM536.455 117V98.424h2.88v3.42h.18c.336-.888.936-1.68 1.8-2.376s2.052-1.044 3.564-1.044h1.116v2.88h-1.692c-1.56 0-2.784.3-3.672.9-.864.576-1.296 1.308-1.296 2.196V117h-2.88Zm25.506 0-6.12-25.128h3.204l2.7 12.096 2.088 9.396h.072l2.34-9.396 3.168-12.096h3.456l3.06 12.096 2.34 9.36h.108l2.16-9.36 2.844-12.096h3.096L580.033 117h-3.348l-3.276-12.528-2.304-9.216h-.072l-2.376 9.216L565.309 117h-3.348Zm29.723-22.932c-.624 0-1.08-.144-1.368-.432-.264-.312-.396-.708-.396-1.188v-.468c0-.48.132-.864.396-1.152.288-.312.744-.468 1.368-.468.624 0 1.068.156 1.332.468.288.288.432.672.432 1.152v.468c0 .48-.144.876-.432 1.188-.264.288-.708.432-1.332.432Zm-1.44 4.356h2.88V117h-2.88V98.424Zm9 18.576V98.424h2.88v3.024h.144c.456-1.056 1.092-1.896 1.908-2.52.84-.624 1.956-.936 3.348-.936 1.92 0 3.432.624 4.536 1.872 1.128 1.224 1.692 2.964 1.692 5.22V117h-2.88v-11.412c0-3.336-1.404-5.004-4.212-5.004-.576 0-1.14.072-1.692.216a4.9 4.9 0 0 0-1.44.648c-.432.288-.78.66-1.044 1.116-.24.432-.36.948-.36 1.548V117h-2.88Zm32.341-3.024h-.144c-1.128 2.304-2.94 3.456-5.436 3.456-1.152 0-2.196-.228-3.132-.684a6.971 6.971 0 0 1-2.412-1.944c-.648-.84-1.152-1.86-1.512-3.06-.336-1.2-.504-2.544-.504-4.032s.168-2.832.504-4.032c.36-1.2.864-2.22 1.512-3.06a6.971 6.971 0 0 1 2.412-1.944c.936-.456 1.98-.684 3.132-.684 1.296 0 2.4.288 3.312.864.936.552 1.644 1.416 2.124 2.592h.144V90.36h2.88V117h-2.88v-3.024Zm-4.788.864c.648 0 1.26-.084 1.836-.252a4.854 4.854 0 0 0 1.548-.72 3.653 3.653 0 0 0 1.008-1.188c.264-.48.396-1.02.396-1.62v-6.912c0-.504-.132-.972-.396-1.404a3.308 3.308 0 0 0-1.008-1.152 4.854 4.854 0 0 0-1.548-.72 5.768 5.768 0 0 0-1.836-.288c-1.632 0-2.916.516-3.852 1.548-.936 1.008-1.404 2.34-1.404 3.996v3.168c0 1.656.468 3 1.404 4.032.936 1.008 2.22 1.512 3.852 1.512Zm20.81 2.592c-1.248 0-2.388-.228-3.42-.684a7.643 7.643 0 0 1-2.664-1.944c-.72-.864-1.284-1.884-1.692-3.06-.408-1.2-.612-2.544-.612-4.032 0-1.464.204-2.796.612-3.996.408-1.2.972-2.22 1.692-3.06a7.45 7.45 0 0 1 2.664-1.98c1.032-.456 2.172-.684 3.42-.684 1.248 0 2.376.228 3.384.684a7.45 7.45 0 0 1 2.664 1.98c.744.84 1.32 1.86 1.728 3.06.408 1.2.612 2.532.612 3.996 0 1.488-.204 2.832-.612 4.032-.408 1.176-.984 2.196-1.728 3.06a7.643 7.643 0 0 1-2.664 1.944c-1.008.456-2.136.684-3.384.684Zm0-2.556c1.56 0 2.832-.48 3.816-1.44s1.476-2.424 1.476-4.392v-2.664c0-1.968-.492-3.432-1.476-4.392-.984-.96-2.256-1.44-3.816-1.44s-2.832.48-3.816 1.44-1.476 2.424-1.476 4.392v2.664c0 1.968.492 3.432 1.476 4.392.984.96 2.256 1.44 3.816 1.44Zm11.005-16.452h2.808l1.98 8.028 1.98 8.136h.072l2.268-8.136 2.34-8.028h2.556l2.412 8.028 2.304 8.136h.072l1.908-8.136 2.016-8.028h2.7L679.096 117h-3.564l-2.592-8.928-1.62-5.652h-.072l-1.584 5.652-2.592 8.928h-3.492l-4.968-18.576ZM696.985 117V91.872h14.976v2.664h-11.952v8.424h10.908v2.664h-10.908V117h-3.024Zm25.891.432c-1.272 0-2.424-.228-3.456-.684a7.735 7.735 0 0 1-2.628-1.944c-.72-.864-1.284-1.884-1.692-3.06-.384-1.2-.576-2.544-.576-4.032 0-1.464.192-2.796.576-3.996.408-1.2.972-2.22 1.692-3.06a7.536 7.536 0 0 1 2.628-1.98c1.032-.456 2.184-.684 3.456-.684 1.248 0 2.364.228 3.348.684a7.313 7.313 0 0 1 2.52 1.908c.696.792 1.224 1.74 1.584 2.844.384 1.104.576 2.316.576 3.636v1.368h-13.356v.864a6.8 6.8 0 0 0 .36 2.232c.264.672.624 1.26 1.08 1.764.48.504 1.056.9 1.728 1.188.696.288 1.476.432 2.34.432 1.176 0 2.196-.276 3.06-.828.888-.552 1.572-1.344 2.052-2.376l2.052 1.476c-.6 1.272-1.536 2.304-2.808 3.096-1.272.768-2.784 1.152-4.536 1.152Zm0-17.028c-.792 0-1.512.144-2.16.432a4.823 4.823 0 0 0-1.692 1.152 5.622 5.622 0 0 0-1.08 1.8c-.264.672-.396 1.416-.396 2.232v.252h10.26v-.396c0-1.656-.456-2.976-1.368-3.96-.888-1.008-2.076-1.512-3.564-1.512ZM749.15 117c-1.08 0-1.86-.288-2.34-.864-.456-.576-.744-1.296-.864-2.16h-.18c-.408 1.152-1.08 2.016-2.016 2.592-.936.576-2.052.864-3.348.864-1.968 0-3.504-.504-4.608-1.512-1.08-1.008-1.62-2.376-1.62-4.104 0-1.752.636-3.096 1.908-4.032 1.296-.936 3.3-1.404 6.012-1.404h3.672v-1.836c0-1.32-.36-2.328-1.08-3.024-.72-.696-1.824-1.044-3.312-1.044-1.128 0-2.076.252-2.844.756-.744.504-1.368 1.176-1.872 2.016l-1.728-1.62c.504-1.008 1.308-1.86 2.412-2.556 1.104-.72 2.496-1.08 4.176-1.08 2.256 0 4.008.552 5.256 1.656 1.248 1.104 1.872 2.64 1.872 4.608v10.224h2.124V117h-1.62Zm-8.28-2.016c.72 0 1.38-.084 1.98-.252a4.854 4.854 0 0 0 1.548-.72 3.57 3.57 0 0 0 1.008-1.08c.24-.408.36-.852.36-1.332v-3.06h-3.816c-1.656 0-2.868.24-3.636.72-.744.48-1.116 1.176-1.116 2.088v.756c0 .912.324 1.62.972 2.124.672.504 1.572.756 2.7.756ZM758.984 117c-1.008 0-1.776-.276-2.304-.828-.504-.576-.756-1.32-.756-2.232v-12.996h-3.06v-2.52h1.728c.624 0 1.044-.12 1.26-.36.24-.264.36-.708.36-1.332v-3.456h2.592v5.148h4.068v2.52h-4.068v13.536h3.78V117h-3.6Zm19.965-3.024h-.144a8.742 8.742 0 0 1-.72 1.296c-.264.408-.6.78-1.008 1.116-.408.312-.9.564-1.476.756-.576.192-1.248.288-2.016.288-1.92 0-3.444-.612-4.572-1.836-1.128-1.248-1.692-3-1.692-5.256V98.424h2.88v11.412c0 3.336 1.416 5.004 4.248 5.004.576 0 1.128-.072 1.656-.216a4.396 4.396 0 0 0 1.44-.648 3.093 3.093 0 0 0 1.008-1.08c.264-.456.396-.996.396-1.62V98.424h2.88V117h-2.88v-3.024Zm9.013 3.024V98.424h2.88v3.42h.18c.336-.888.936-1.68 1.8-2.376s2.052-1.044 3.564-1.044h1.116v2.88h-1.692c-1.56 0-2.784.3-3.672.9-.864.576-1.296 1.308-1.296 2.196V117h-2.88Zm20.027.432c-1.272 0-2.424-.228-3.456-.684a7.735 7.735 0 0 1-2.628-1.944c-.72-.864-1.284-1.884-1.692-3.06-.384-1.2-.576-2.544-.576-4.032 0-1.464.192-2.796.576-3.996.408-1.2.972-2.22 1.692-3.06a7.536 7.536 0 0 1 2.628-1.98c1.032-.456 2.184-.684 3.456-.684 1.248 0 2.364.228 3.348.684a7.313 7.313 0 0 1 2.52 1.908c.696.792 1.224 1.74 1.584 2.844.384 1.104.576 2.316.576 3.636v1.368h-13.356v.864a6.8 6.8 0 0 0 .36 2.232c.264.672.624 1.26 1.08 1.764.48.504 1.056.9 1.728 1.188.696.288 1.476.432 2.34.432 1.176 0 2.196-.276 3.06-.828.888-.552 1.572-1.344 2.052-2.376l2.052 1.476c-.6 1.272-1.536 2.304-2.808 3.096-1.272.768-2.784 1.152-4.536 1.152Zm0-17.028c-.792 0-1.512.144-2.16.432a4.823 4.823 0 0 0-1.692 1.152 5.622 5.622 0 0 0-1.08 1.8c-.264.672-.396 1.416-.396 2.232v.252h10.26v-.396c0-1.656-.456-2.976-1.368-3.96-.888-1.008-2.076-1.512-3.564-1.512Zm18.354 17.028c-1.728 0-3.18-.324-4.356-.972a10.175 10.175 0 0 1-2.988-2.664l2.052-1.656c.72.912 1.524 1.62 2.412 2.124.888.48 1.92.72 3.096.72 1.224 0 2.172-.264 2.844-.792.696-.528 1.044-1.272 1.044-2.232 0-.72-.24-1.332-.72-1.836-.456-.528-1.296-.888-2.52-1.08l-1.476-.216a13.3 13.3 0 0 1-2.376-.54 7.575 7.575 0 0 1-1.908-1.008 4.786 4.786 0 0 1-1.26-1.584c-.288-.624-.432-1.368-.432-2.232 0-.912.168-1.704.504-2.376a4.865 4.865 0 0 1 1.368-1.728c.6-.456 1.308-.792 2.124-1.008a9.273 9.273 0 0 1 2.628-.36c1.512 0 2.772.264 3.78.792a8.447 8.447 0 0 1 2.7 2.196l-1.908 1.728c-.408-.576-1.008-1.092-1.8-1.548-.792-.48-1.788-.72-2.988-.72s-2.112.264-2.736.792c-.6.504-.9 1.2-.9 2.088 0 .912.3 1.572.9 1.98.624.408 1.512.708 2.664.9l1.44.216c2.064.312 3.528.912 4.392 1.8.864.864 1.296 2.004 1.296 3.42 0 1.8-.612 3.216-1.836 4.248-1.224 1.032-2.904 1.548-5.04 1.548Z"/>
</svg>
