<svg xmlns="http://www.w3.org/2000/svg" width="1283" height="819" fill="none" viewBox="0 0 1283 819">
  <path fill="#fff" d="M40 42a2 2 0 0 1 2-2h1199c1.1 0 2 .895 2 2v735c0 1.105-.9 2-2 2H42a2 2 0 0 1-2-2V42Z"/>
  <path fill="#000" fill-opacity=".1" d="M42 41h1199v-2H42v2Zm1200 1v735h2V42h-2Zm-1 736H42v2h1199v-2ZM41 777V42h-2v735h2Zm1 1a1 1 0 0 1-1-1h-2a3 3 0 0 0 3 3v-2Zm1200-1c0 .552-.45 1-1 1v2c1.66 0 3-1.343 3-3h-2Zm-1-736c.55 0 1 .448 1 1h2c0-1.657-1.34-3-3-3v2ZM42 39a3 3 0 0 0-3 3h2a1 1 0 0 1 1-1v-2Z"/>
  <circle cx="358" cy="156" r="38.5" fill="#fff" stroke="#000"/>
  <circle cx="646" cy="156" r="39" fill="#D9D9D9"/>
  <path fill="#fff" stroke="#000" d="M980.5 156c0 21.263-17.237 38.5-38.5 38.5s-38.5-17.237-38.5-38.5 17.237-38.5 38.5-38.5 38.5 17.237 38.5 38.5Z"/>
  <path fill="#000" d="M361.29 134.254V175h-5.149v-34.317l-10.382 3.785v-4.648l14.723-5.566h.808Zm296.629 35.516V174h-26.523v-3.702l13.275-14.778c1.633-1.819 2.895-3.359 3.786-4.621.909-1.28 1.54-2.421 1.892-3.423a9.056 9.056 0 0 0 .557-3.117c0-1.336-.279-2.542-.835-3.618a6.25 6.25 0 0 0-2.394-2.616c-1.057-.65-2.338-.975-3.841-.975-1.799 0-3.302.353-4.508 1.058a6.506 6.506 0 0 0-2.672 2.895c-.594 1.243-.891 2.671-.891 4.286h-5.149c0-2.283.501-4.37 1.503-6.263 1.002-1.892 2.486-3.395 4.453-4.508 1.967-1.132 4.388-1.698 7.264-1.698 2.561 0 4.75.455 6.569 1.364 1.818.89 3.21 2.152 4.175 3.785.983 1.614 1.475 3.507 1.475 5.678 0 1.187-.204 2.393-.613 3.618a18.33 18.33 0 0 1-1.642 3.618 28.016 28.016 0 0 1-2.421 3.562 55.392 55.392 0 0 1-2.922 3.452l-10.855 11.773h20.317Zm277.963-17.564h3.674c1.8 0 3.284-.297 4.453-.891 1.188-.612 2.069-1.438 2.644-2.477.594-1.058.891-2.245.891-3.563 0-1.558-.26-2.866-.779-3.924a5.216 5.216 0 0 0-2.338-2.393c-1.039-.539-2.357-.808-3.952-.808-1.448 0-2.728.288-3.841.863a6.322 6.322 0 0 0-2.589 2.394c-.612 1.039-.918 2.263-.918 3.674h-5.149c0-2.06.52-3.934 1.559-5.623 1.039-1.688 2.495-3.033 4.369-4.035 1.893-1.002 4.082-1.503 6.569-1.503 2.449 0 4.592.436 6.429 1.308 1.837.854 3.265 2.134 4.286 3.841 1.02 1.688 1.531 3.794 1.531 6.318 0 1.02-.242 2.115-.724 3.284-.464 1.15-1.197 2.226-2.199 3.228-.983 1.002-2.263 1.828-3.84 2.477-1.578.631-3.47.947-5.678.947h-4.398v-3.117Zm0 4.23v-3.089h4.398c2.579 0 4.713.306 6.401.918 1.689.612 3.015 1.429 3.98 2.449.984 1.021 1.67 2.143 2.06 3.368a11.23 11.23 0 0 1 .612 3.618c0 1.893-.325 3.572-.974 5.038a10.262 10.262 0 0 1-2.7 3.729c-1.15 1.021-2.505 1.791-4.063 2.31-1.559.52-3.257.78-5.094.78-1.762 0-3.423-.251-4.981-.752-1.541-.501-2.904-1.224-4.092-2.171a10.173 10.173 0 0 1-2.783-3.534c-.668-1.411-1.002-3.016-1.002-4.815h5.149c0 1.41.306 2.644.918 3.701.631 1.058 1.522 1.884 2.672 2.477 1.169.576 2.542.863 4.119.863 1.578 0 2.932-.269 4.064-.807a5.86 5.86 0 0 0 2.644-2.505c.631-1.113.946-2.514.946-4.202 0-1.689-.352-3.071-1.057-4.147-.705-1.095-1.707-1.902-3.006-2.422-1.281-.538-2.793-.807-4.537-.807h-3.674Z"/>
  <path stroke="#000" d="M398 152.5h210m80 0h210"/>
  <g clip-path="url(#a)">
    <g clip-path="url(#b)">
      <rect width="263" height="41" x="527" y="361" fill="#fff" rx="4"/>
      <rect width="262" height="40" x="527.5" y="361.5" stroke="#000" stroke-opacity=".42" rx="3.5"/>
    </g>
  </g>
  <g clip-path="url(#c)">
    <path fill="#000" d="M807 377c-5.52 0-10 4.48-10 10s4.48 10 10 10 10-4.48 10-10-4.48-10-10-10Zm1 15h-2v-2h2v2Zm0-4h-2v-6h2v6Z"/>
  </g>
  <path fill="#000" d="M499.8 380.222c3.535 0 6.4-3.184 6.4-7.111 0-3.927-2.865-7.111-6.4-7.111s-6.4 3.184-6.4 7.111c0 3.927 2.865 7.111 6.4 7.111Zm.56 3.574c-4.368-.178-13.36 2.24-13.36 7.093v3.555h15.264c-3.952-4.906-1.968-10.471-1.904-10.648Zm14.528 7.128a7.443 7.443 0 0 0 .912-3.591c0-3.929-2.864-7.111-6.4-7.111-3.536 0-6.4 3.182-6.4 7.111s2.864 7.111 6.4 7.111c1.184 0 2.288-.391 3.232-1.013l4.112 4.569 2.256-2.507-4.112-4.569Zm-5.488-.035c-1.76 0-3.2-1.6-3.2-3.556 0-1.955 1.44-3.555 3.2-3.555 1.76 0 3.2 1.6 3.2 3.555 0 1.956-1.44 3.556-3.2 3.556Z"/>
  <path fill="#000" fill-opacity=".6" d="M527.142 353.726v-7.406c0-.205-.112-.341-.336-.406a3.127 3.127 0 0 0-.854-.098h-.21v-.756h4.116v.756h-.224c-.345 0-.63.033-.854.098-.224.065-.336.201-.336.406v7.406c0 .205.112.341.336.406.224.065.509.098.854.098h.224v.77h-4.116v-.77h.21c.345 0 .63-.033.854-.098.224-.065.336-.201.336-.406ZM531.18 355v-.672h.042c.242 0 .452-.019.63-.056a.769.769 0 0 0 .406-.238c.093-.121.14-.285.14-.49v-4.676c0-.14-.042-.243-.126-.308a.823.823 0 0 0-.35-.182 6.711 6.711 0 0 0-.602-.14l-.14-.028v-.728h2.24l.168 1.596.056.07v5.04c0 .028.056.056.168.084.112.019.247.033.406.042.158.009.303.014.434.014h.056V355h-3.528Zm8.484 0h-3.528v-.672h.042c.13 0 .275-.005.434-.014a3.76 3.76 0 0 0 .406-.042c.121-.028.182-.056.182-.084v-4.578c0-.308-.042-.56-.126-.756a.79.79 0 0 0-.378-.434c-.178-.103-.416-.154-.714-.154-.308 0-.612.061-.91.182a3.18 3.18 0 0 0-.854.546 6.06 6.06 0 0 0-.826.938v-.756c.27-.401.555-.737.854-1.008.298-.271.616-.476.952-.616.345-.14.714-.21 1.106-.21.457 0 .84.079 1.148.238.317.149.56.383.728.7.177.308.266.7.266 1.176v4.088c0 .205.046.369.14.49a.76.76 0 0 0 .406.238c.177.037.387.056.63.056h.042V355Zm9.041-6.678a15.31 15.31 0 0 0-1.106-.014 4.25 4.25 0 0 0-.77.084 1.27 1.27 0 0 0-.518.238l-.21-.056c.121-.299.266-.555.434-.77a2.25 2.25 0 0 1 .56-.518 2.06 2.06 0 0 1 .714-.266 3.5 3.5 0 0 1 .896-.028v1.33Zm-4.494 4.396c-.579 0-1.092-.107-1.54-.322a2.584 2.584 0 0 1-1.036-.938c-.243-.401-.364-.873-.364-1.414 0-.532.126-.999.378-1.4a2.547 2.547 0 0 1 1.036-.952 3.26 3.26 0 0 1 1.526-.35c.579 0 1.092.117 1.54.35.448.224.798.541 1.05.952.252.401.378.868.378 1.4 0 .541-.126 1.013-.378 1.414a2.565 2.565 0 0 1-1.05.938c-.439.215-.952.322-1.54.322Zm0-.826c.373 0 .686-.07.938-.21.261-.14.457-.345.588-.616.131-.28.196-.621.196-1.022s-.065-.742-.196-1.022a1.335 1.335 0 0 0-.588-.63c-.252-.149-.565-.224-.938-.224-.364 0-.672.075-.924.224-.252.14-.443.35-.574.63-.131.28-.196.621-.196 1.022s.065.742.196 1.022c.131.271.322.476.574.616.252.14.56.21.924.21Zm-.616 6.524a6.608 6.608 0 0 1-1.624-.182c-.467-.112-.835-.299-1.106-.56-.271-.252-.406-.588-.406-1.008 0-.271.061-.509.182-.714.121-.205.308-.397.56-.574.252-.177.569-.364.952-.56l.42.266a4.277 4.277 0 0 0-.588.476 1.81 1.81 0 0 0-.308.462 1.385 1.385 0 0 0-.084.49c0 .224.065.411.196.56.14.159.359.28.658.364.299.093.695.14 1.19.14h1.19c.495 0 .915-.061 1.26-.182.345-.112.611-.275.798-.49.187-.215.28-.471.28-.77 0-.28-.093-.49-.28-.63-.187-.131-.518-.196-.994-.196h-3.234a4.698 4.698 0 0 1-.98-.308c-.252-.131-.439-.289-.56-.476a1.202 1.202 0 0 1-.168-.63c0-.252.061-.481.182-.686.131-.215.313-.415.546-.602a4.79 4.79 0 0 1 .868-.546l.42.294c-.196.14-.359.275-.49.406a1.587 1.587 0 0 0-.28.364.74.74 0 0 0-.098.378c0 .215.089.373.266.476.187.093.457.14.812.14h2.73c.523 0 .961.065 1.316.196.355.131.625.331.812.602.196.261.294.602.294 1.022 0 .56-.159 1.022-.476 1.386-.317.373-.742.649-1.274.826a5.514 5.514 0 0 1-1.75.266h-1.232Zm11.169-11.032v1.344a1.302 1.302 0 0 0-.238-.042l-.294-.028a2.9 2.9 0 0 0-.28-.014 2.67 2.67 0 0 0-.7.084 1.842 1.842 0 0 0-.574.238 2.426 2.426 0 0 0-.49.406 8.566 8.566 0 0 0-.49.616v-.644c.234-.439.472-.807.714-1.106.252-.299.528-.523.826-.672a2.113 2.113 0 0 1 1.008-.238c.112 0 .215.005.308.014a.644.644 0 0 1 .21.042ZM549.486 355v-.672h.042c.364 0 .649-.051.854-.154.215-.103.322-.313.322-.63v-4.676c0-.14-.042-.243-.126-.308a.81.81 0 0 0-.35-.182 6.55 6.55 0 0 0-.602-.14l-.14-.028v-.728h2.24l.168 1.876.056-.056v4.718c0 .084.066.149.196.196.131.047.285.079.462.098.178.009.332.014.462.014h.308V355h-3.892Zm7.497-3.682c0 .541.061 1.003.182 1.386.131.383.313.691.546.924.233.233.499.406.798.518.308.112.639.168.994.168.392 0 .733-.07 1.022-.21.289-.14.537-.317.742-.532.215-.215.397-.443.546-.686l.672.546a3.533 3.533 0 0 1-.7.896 3.21 3.21 0 0 1-1.022.616 3.73 3.73 0 0 1-1.288.21c-.709 0-1.349-.149-1.918-.448a3.35 3.35 0 0 1-1.358-1.316c-.327-.579-.49-1.274-.49-2.086 0-.793.149-1.484.448-2.072.308-.597.723-1.059 1.246-1.386.532-.336 1.139-.504 1.82-.504.551 0 1.027.089 1.428.266.401.177.737.443 1.008.798.271.355.476.798.616 1.33s.21 1.153.21 1.862h-5.796v-.812h4.872l-.364.308a7.247 7.247 0 0 0-.154-1.344c-.075-.373-.191-.672-.35-.896a1.28 1.28 0 0 0-.588-.504 2.257 2.257 0 0 0-.882-.154c-.327 0-.63.065-.91.196a1.886 1.886 0 0 0-.714.574c-.196.261-.35.588-.462.98a5.431 5.431 0 0 0-.154 1.372Zm11.497 1.708a.906.906 0 0 0-.168-.56 1.128 1.128 0 0 0-.434-.364 3.468 3.468 0 0 0-.644-.238 14.33 14.33 0 0 0-.728-.182 9.962 9.962 0 0 1-.91-.238 3.616 3.616 0 0 1-.812-.392 1.853 1.853 0 0 1-.588-.616c-.14-.252-.21-.574-.21-.966 0-.429.107-.803.322-1.12.214-.317.527-.565.938-.742.41-.177.905-.266 1.484-.266.457 0 .854.028 1.19.084.345.047.63.112.854.196.233.075.406.145.518.21v1.75h-1.232v-1.442c.093 0 .172.014.238.042.074.019.13.056.168.112a.499.499 0 0 1 .098.21c.028.075.037.168.028.28a1.187 1.187 0 0 0-.448-.336 2.523 2.523 0 0 0-.644-.21 3.913 3.913 0 0 0-.77-.07c-.551 0-.957.107-1.218.322-.252.205-.378.485-.378.84 0 .224.051.415.154.574.112.149.261.271.448.364.186.093.401.173.644.238.252.065.513.131.784.196.298.065.597.145.896.238a3 3 0 0 1 .798.378c.242.159.434.369.574.63.149.252.224.569.224.952 0 .429-.112.817-.336 1.162-.224.336-.556.602-.994.798-.439.196-.98.294-1.624.294-.467 0-.887-.033-1.26-.098a6.149 6.149 0 0 1-.98-.252 3.768 3.768 0 0 1-.728-.35v-1.834h1.26v1.932a1.302 1.302 0 0 1-.35-.21.64.64 0 0 1-.154-.224.752.752 0 0 1-.042-.238c0-.084.009-.168.028-.252.149.131.331.247.546.35.224.103.476.187.756.252.28.056.588.084.924.084.392 0 .718-.047.98-.14.261-.093.457-.233.588-.42.14-.196.21-.439.21-.728Zm3.72-1.708c0 .541.061 1.003.182 1.386.131.383.313.691.546.924.233.233.499.406.798.518.308.112.639.168.994.168.392 0 .733-.07 1.022-.21.289-.14.537-.317.742-.532.215-.215.397-.443.546-.686l.672.546a3.533 3.533 0 0 1-.7.896 3.21 3.21 0 0 1-1.022.616 3.73 3.73 0 0 1-1.288.21c-.709 0-1.349-.149-1.918-.448a3.35 3.35 0 0 1-1.358-1.316c-.327-.579-.49-1.274-.49-2.086 0-.793.149-1.484.448-2.072.308-.597.723-1.059 1.246-1.386.532-.336 1.139-.504 1.82-.504.551 0 1.027.089 1.428.266.401.177.737.443 1.008.798.271.355.476.798.616 1.33s.21 1.153.21 1.862h-5.796v-.812h4.872l-.364.308a7.247 7.247 0 0 0-.154-1.344c-.075-.373-.191-.672-.35-.896a1.28 1.28 0 0 0-.588-.504 2.257 2.257 0 0 0-.882-.154c-.327 0-.63.065-.91.196a1.886 1.886 0 0 0-.714.574c-.196.261-.35.588-.462.98a5.431 5.431 0 0 0-.154 1.372Zm15.455-.896v.742c-.569.075-1.059.159-1.47.252a6.44 6.44 0 0 0-1.022.308 2.299 2.299 0 0 0-.644.378 1.17 1.17 0 0 0-.336.476 1.655 1.655 0 0 0-.098.574c0 .261.051.481.154.658.112.177.266.313.462.406.196.084.425.126.686.126.299 0 .574-.07.826-.21.252-.14.495-.35.728-.63.233-.28.462-.63.686-1.05l.014.826a4.282 4.282 0 0 1-.658.994 2.72 2.72 0 0 1-.84.658 2.381 2.381 0 0 1-1.05.224c-.448 0-.845-.075-1.19-.224a1.892 1.892 0 0 1-.812-.686c-.196-.299-.294-.658-.294-1.078 0-.392.089-.733.266-1.022.177-.289.457-.541.84-.756.392-.215.896-.401 1.512-.56a18.51 18.51 0 0 1 2.24-.406Zm-.028 4.578-.168-1.624-.07-.084v-3.654c0-.355-.047-.639-.14-.854a.854.854 0 0 0-.476-.462c-.215-.093-.509-.14-.882-.14-.56 0-1.017.079-1.372.238-.355.159-.621.327-.798.504 0-.075.019-.149.056-.224a.734.734 0 0 1 .154-.224.83.83 0 0 1 .224-.182c.093-.047.196-.079.308-.098v1.624h-1.232v-1.708c.131-.103.317-.21.56-.322.252-.121.56-.224.924-.308.364-.093.775-.14 1.232-.14.373 0 .723.037 1.05.112.327.075.611.196.854.364.243.168.434.387.574.658.14.271.21.602.21.994v4.228c0 .131.047.233.14.308a.944.944 0 0 0 .392.168c.168.028.373.056.616.084l.07.014V355h-2.226Zm7.507 3.122v-.672h.378c.14 0 .29-.005.448-.014.168-.009.313-.028.434-.056.131-.019.196-.042.196-.07v-8.106l.056-.126.336-1.61h.854v9.198c0 .317.103.527.308.63.206.103.486.154.84.154h.042v.672h-3.892Zm-1.008-10.78a2.68 2.68 0 0 1 1.974.812c.271.261.518.583.742.966l-.042.924a4.551 4.551 0 0 0-.742-1.022 2.596 2.596 0 0 0-.854-.602 2.343 2.343 0 0 0-1.008-.21c-.364 0-.686.07-.966.21-.28.131-.513.327-.7.588a3.177 3.177 0 0 0-.42.98c-.093.383-.14.821-.14 1.316 0 .476.042.901.126 1.274.094.373.229.686.406.938.178.252.397.448.658.588.271.131.588.196.952.196.392 0 .747-.065 1.064-.196.318-.14.612-.35.882-.63.271-.28.528-.621.77-1.022l.014.868a6.135 6.135 0 0 1-.77.994c-.27.28-.574.49-.91.63a3 3 0 0 1-1.162.21c-.709 0-1.311-.159-1.806-.476a3.226 3.226 0 0 1-1.148-1.358c-.261-.579-.392-1.251-.392-2.016 0-.775.136-1.456.406-2.044a3.28 3.28 0 0 1 1.204-1.4c.523-.345 1.144-.518 1.862-.518Zm8.065.14v5.39c0 .299.037.551.112.756.084.196.21.345.378.448.177.093.415.14.714.14a2.2 2.2 0 0 0 .882-.182c.289-.121.569-.303.84-.546.28-.243.555-.551.826-.924v.756a5.358 5.358 0 0 1-.84.994c-.29.271-.602.476-.938.616-.336.14-.7.21-1.092.21-.439 0-.822-.075-1.148-.224a1.632 1.632 0 0 1-.728-.714c-.168-.317-.252-.709-.252-1.176v-4.158a.443.443 0 0 0-.266-.434c-.178-.084-.448-.149-.812-.196l-.21-.028v-.728h2.534Zm4.746 0v6.216c0 .131.046.233.14.308a.944.944 0 0 0 .392.168c.177.037.382.065.616.084l.084.014V355h-2.254l-.168-1.638-.056-.084v-4.41a.442.442 0 0 0-.28-.434c-.178-.084-.453-.145-.826-.182l-.336-.042v-.728h2.688Zm3.922-1.54c-.27 0-.49-.075-.658-.224-.168-.149-.252-.373-.252-.672 0-.289.084-.509.252-.658.168-.149.388-.224.658-.224.262 0 .476.075.644.224.178.149.266.369.266.658 0 .299-.088.523-.266.672a.934.934 0 0 1-.644.224Zm.714 1.54v6.132c0 .289.108.481.322.574.215.093.504.14.868.14h.042V355h-3.696v-.672h.042c.364 0 .654-.047.868-.14.215-.093.322-.285.322-.574v-4.746c0-.205-.088-.341-.266-.406-.177-.075-.452-.149-.826-.224l-.14-.028v-.728h2.464Zm7.221 3.836c0 .541.06 1.003.182 1.386.13.383.312.691.546.924.233.233.499.406.798.518.308.112.639.168.994.168.392 0 .732-.07 1.022-.21.289-.14.536-.317.742-.532.214-.215.396-.443.546-.686l.672.546a3.556 3.556 0 0 1-.7.896c-.29.261-.63.467-1.022.616a3.73 3.73 0 0 1-1.288.21c-.71 0-1.349-.149-1.918-.448a3.343 3.343 0 0 1-1.358-1.316c-.327-.579-.49-1.274-.49-2.086 0-.793.149-1.484.448-2.072.308-.597.723-1.059 1.246-1.386.532-.336 1.138-.504 1.82-.504.55 0 1.026.089 1.428.266.401.177.737.443 1.008.798.27.355.476.798.616 1.33s.21 1.153.21 1.862H618.5v-.812h4.872l-.364.308a7.247 7.247 0 0 0-.154-1.344c-.075-.373-.192-.672-.35-.896a1.29 1.29 0 0 0-.588-.504 2.257 2.257 0 0 0-.882-.154c-.327 0-.63.065-.91.196a1.886 1.886 0 0 0-.714.574c-.196.261-.35.588-.462.98a5.431 5.431 0 0 0-.154 1.372Zm9.063-6.93v9.226c0 .289.108.481.322.574.215.093.504.14.868.14h.042V355h-3.696v-.672h.056c.364 0 .649-.047.854-.14.215-.093.322-.285.322-.574v-7.84c0-.14-.042-.243-.126-.308a.81.81 0 0 0-.35-.182 6.314 6.314 0 0 0-.616-.14l-.14-.028v-.728h2.464ZM633.846 355v-.77H634c.233 0 .439-.014.616-.042a1.09 1.09 0 0 0 .42-.168.396.396 0 0 0 .154-.322v-7.378c0-.14-.051-.243-.154-.308a.964.964 0 0 0-.42-.154 3.992 3.992 0 0 0-.616-.042h-.154v-.756h3.136l4.914 8.638-.168.07v-7.77c0-.037-.065-.065-.196-.084a3.837 3.837 0 0 0-.462-.07 5.526 5.526 0 0 0-.56-.028h-.196v-.756h3.71v.756h-.168c-.224 0-.429.019-.616.056a1.09 1.09 0 0 0-.42.168.373.373 0 0 0-.154.322V355h-1.4l-5.334-9.352.196-.056v8.47c0 .028.065.056.196.084.131.028.289.051.476.07.196.009.378.014.546.014h.196v.77h-3.696Zm16.033-7.672c0-.523-.145-.929-.434-1.218-.28-.299-.663-.448-1.148-.448-.495 0-.887.149-1.176.448-.28.289-.42.695-.42 1.218 0 .345.061.644.182.896.131.243.317.434.56.574.243.131.527.196.854.196.485 0 .868-.145 1.148-.434.289-.299.434-.709.434-1.232Zm-4.284 0c0-.532.117-.989.35-1.372.233-.383.555-.677.966-.882a2.944 2.944 0 0 1 1.386-.322c.513 0 .971.107 1.372.322.411.205.733.499.966.882.233.383.35.84.35 1.372 0 .523-.117.98-.35 1.372a2.415 2.415 0 0 1-.966.896 2.974 2.974 0 0 1-1.372.308c-.513 0-.975-.103-1.386-.308a2.415 2.415 0 0 1-.966-.896c-.233-.392-.35-.849-.35-1.372Zm17.853 6.37c0 .205.102.341.308.406.214.065.494.117.84.154l.07.014V355h-2.24l-.168-1.638-.056-.014v-7.574c0-.14-.042-.243-.126-.308-.075-.075-.196-.135-.364-.182a6.383 6.383 0 0 0-.616-.14l-.14-.028v-.728h2.492v9.31Zm-3.71-6.356c.41 0 .774.07 1.092.21.326.14.62.341.882.602.27.261.518.588.742.98l-.042.924a4.98 4.98 0 0 0-.742-1.036 2.526 2.526 0 0 0-.854-.616 2.487 2.487 0 0 0-1.008-.196c-.364 0-.686.07-.966.21-.28.131-.514.327-.7.588a2.762 2.762 0 0 0-.42.98c-.094.383-.14.821-.14 1.316 0 .476.042.901.126 1.274.093.373.224.691.392.952.177.252.401.443.672.574.27.131.588.196.952.196.392 0 .746-.065 1.064-.196.317-.14.611-.345.882-.616.27-.28.527-.625.77-1.036l.014.854c-.243.392-.5.728-.77 1.008a2.952 2.952 0 0 1-.924.63c-.336.14-.719.21-1.148.21-.71 0-1.312-.159-1.806-.476a3.212 3.212 0 0 1-1.148-1.358c-.262-.579-.392-1.251-.392-2.016 0-.775.135-1.456.406-2.044a3.272 3.272 0 0 1 1.204-1.4c.522-.345 1.143-.518 1.862-.518Zm7.222 3.976c0 .541.06 1.003.182 1.386.13.383.312.691.546.924.233.233.499.406.798.518.308.112.639.168.994.168.392 0 .732-.07 1.022-.21.289-.14.536-.317.742-.532.214-.215.396-.443.546-.686l.672.546a3.556 3.556 0 0 1-.7.896c-.29.261-.63.467-1.022.616a3.73 3.73 0 0 1-1.288.21c-.71 0-1.349-.149-1.918-.448a3.343 3.343 0 0 1-1.358-1.316c-.327-.579-.49-1.274-.49-2.086 0-.793.149-1.484.448-2.072.308-.597.723-1.059 1.246-1.386.532-.336 1.138-.504 1.82-.504.55 0 1.026.089 1.428.266.401.177.737.443 1.008.798.27.355.476.798.616 1.33s.21 1.153.21 1.862h-5.796v-.812h4.872l-.364.308a7.247 7.247 0 0 0-.154-1.344c-.075-.373-.192-.672-.35-.896a1.29 1.29 0 0 0-.588-.504 2.257 2.257 0 0 0-.882-.154c-.327 0-.63.065-.91.196a1.886 1.886 0 0 0-.714.574c-.196.261-.35.588-.462.98a5.431 5.431 0 0 0-.154 1.372Zm10.499-5.502v-.756h4.298c.821 0 1.558.107 2.212.322a4.516 4.516 0 0 1 1.666.952c.466.411.821.924 1.064 1.54.252.616.378 1.321.378 2.114 0 .784-.126 1.489-.378 2.114a4.322 4.322 0 0 1-1.064 1.582 4.568 4.568 0 0 1-1.666.98c-.654.224-1.391.336-2.212.336h-4.298v-.77h.154c.345 0 .63-.033.854-.098.224-.065.336-.201.336-.406v-7.406c0-.196-.112-.327-.336-.392-.224-.075-.509-.112-.854-.112h-.154Zm4.298.084h-1.652v8.246h1.652c.634 0 1.194-.084 1.68-.252a3.125 3.125 0 0 0 1.218-.784c.336-.355.588-.793.756-1.316.177-.523.266-1.125.266-1.806 0-.691-.089-1.293-.266-1.806a3.156 3.156 0 0 0-.756-1.274 3.07 3.07 0 0 0-1.218-.756c-.486-.168-1.046-.252-1.68-.252Zm14.32 5.348c0 .793-.158 1.484-.476 2.072a3.235 3.235 0 0 1-1.316 1.358c-.56.317-1.218.476-1.974.476-.765 0-1.432-.159-2.002-.476a3.357 3.357 0 0 1-1.316-1.358c-.308-.588-.462-1.279-.462-2.072 0-.597.089-1.134.266-1.61.178-.485.434-.896.77-1.232a3.311 3.311 0 0 1 1.19-.784c.467-.187.985-.28 1.554-.28.57 0 1.083.093 1.54.28.458.177.854.439 1.19.784.336.336.593.747.77 1.232.178.476.266 1.013.266 1.61Zm-6.23 0c0 .672.094 1.237.28 1.694.187.457.462.803.826 1.036.364.224.817.336 1.358.336.542 0 .994-.112 1.358-.336.364-.233.635-.579.812-1.036.187-.457.28-1.022.28-1.694 0-.653-.093-1.204-.28-1.652-.177-.457-.448-.803-.812-1.036-.364-.243-.816-.364-1.358-.364-.541 0-.994.121-1.358.364-.364.233-.639.579-.826 1.036-.186.448-.28.999-.28 1.652Zm11.435 3.066c.411 0 .761-.07 1.05-.21.299-.14.551-.317.756-.532.215-.224.401-.457.56-.7l.658.546a3.558 3.558 0 0 1-.728.91 3.21 3.21 0 0 1-1.022.616c-.383.14-.817.21-1.302.21-.793 0-1.479-.159-2.058-.476a3.354 3.354 0 0 1-1.316-1.358c-.308-.588-.462-1.279-.462-2.072 0-.803.159-1.493.476-2.072a3.3 3.3 0 0 1 1.344-1.358c.588-.317 1.283-.476 2.086-.476.485 0 .915.042 1.288.126.373.084.686.182.938.294.252.103.434.196.546.28v2.128h-1.26v-1.806a.864.864 0 0 1 .266.07c.084.028.154.07.21.126a.525.525 0 0 1 .168.392c-.205-.215-.499-.392-.882-.532a3.484 3.484 0 0 0-1.274-.224c-.588 0-1.073.121-1.456.364-.383.233-.667.579-.854 1.036-.187.457-.28 1.008-.28 1.652 0 .495.051.933.154 1.316.103.383.257.705.462.966.215.261.481.457.798.588.317.131.695.196 1.134.196Zm6.415-6.832v5.39c0 .299.037.551.112.756.084.196.21.345.378.448.177.093.415.14.714.14a2.2 2.2 0 0 0 .882-.182c.289-.121.569-.303.84-.546.28-.243.555-.551.826-.924v.756a5.358 5.358 0 0 1-.84.994c-.29.271-.602.476-.938.616-.336.14-.7.21-1.092.21-.439 0-.822-.075-1.148-.224a1.632 1.632 0 0 1-.728-.714c-.168-.317-.252-.709-.252-1.176v-4.158a.443.443 0 0 0-.266-.434c-.178-.084-.448-.149-.812-.196l-.21-.028v-.728h2.534Zm4.746 0v6.216c0 .131.046.233.14.308a.938.938 0 0 0 .392.168c.177.037.382.065.616.084l.084.014V355h-2.254l-.168-1.638-.056-.084v-4.41a.442.442 0 0 0-.28-.434c-.178-.084-.453-.145-.826-.182l-.336-.042v-.728h2.688Zm2.172 7.518v-.672h.042c.364 0 .649-.051.854-.154.215-.103.322-.313.322-.63v-4.676c0-.14-.042-.243-.126-.308a.81.81 0 0 0-.35-.182 6.55 6.55 0 0 0-.602-.14l-.14-.028v-.728h2.226l.168 1.582.07.084v5.04c0 .028.056.056.168.084.112.019.243.033.392.042.159.009.299.014.42.014h.056V355h-3.5Zm7.952 0h-3.318v-.672h.042c.131 0 .271-.005.42-.014.159-.009.294-.023.406-.042.112-.028.168-.056.168-.084v-4.578a2.36 2.36 0 0 0-.098-.742.778.778 0 0 0-.322-.448c-.149-.103-.359-.154-.63-.154-.289 0-.564.061-.826.182a3.066 3.066 0 0 0-.784.546 6.963 6.963 0 0 0-.812.882l.014-.812c.271-.364.542-.672.812-.924a2.99 2.99 0 0 1 .896-.588c.318-.14.663-.21 1.036-.21.411 0 .761.079 1.05.238.299.149.523.383.672.7.159.308.238.7.238 1.176v4.732c0 .028.052.056.154.084.112.019.248.033.406.042.159.009.304.014.434.014h.042V355Zm4.648 0h-3.514v-.672h.056c.131 0 .271-.005.42-.014a3.14 3.14 0 0 0 .378-.042c.112-.028.168-.056.168-.084v-4.578a2.36 2.36 0 0 0-.098-.742.778.778 0 0 0-.322-.448c-.149-.103-.354-.154-.616-.154a2.04 2.04 0 0 0-.84.182 3.066 3.066 0 0 0-.784.546 7.694 7.694 0 0 0-.798.882v-.812a7.61 7.61 0 0 1 .826-.924c.28-.261.574-.457.882-.588.318-.14.663-.21 1.036-.21.42 0 .775.079 1.064.238.29.149.509.383.658.7.159.308.238.7.238 1.176v4.088c0 .317.108.527.322.63.215.103.504.154.868.154h.056V355Zm2.307-3.682c0 .541.061 1.003.182 1.386.131.383.313.691.546.924.234.233.5.406.798.518.308.112.64.168.994.168.392 0 .733-.07 1.022-.21.29-.14.537-.317.742-.532.215-.215.397-.443.546-.686l.672.546a3.51 3.51 0 0 1-.7.896 3.21 3.21 0 0 1-1.022.616c-.382.14-.812.21-1.288.21-.709 0-1.348-.149-1.918-.448a3.35 3.35 0 0 1-1.358-1.316c-.326-.579-.49-1.274-.49-2.086 0-.793.15-1.484.448-2.072.308-.597.724-1.059 1.246-1.386.532-.336 1.139-.504 1.82-.504.551 0 1.027.089 1.428.266.402.177.738.443 1.008.798.271.355.476.798.616 1.33s.21 1.153.21 1.862h-5.796v-.812h4.872l-.364.308a7.162 7.162 0 0 0-.154-1.344c-.074-.373-.191-.672-.35-.896a1.28 1.28 0 0 0-.588-.504c-.242-.103-.536-.154-.882-.154-.326 0-.63.065-.91.196-.27.121-.508.313-.714.574-.196.261-.35.588-.462.98a5.478 5.478 0 0 0-.154 1.372Zm6.709 3.682v-.672h.042c.242 0 .452-.019.63-.056a.769.769 0 0 0 .406-.238c.093-.121.14-.285.14-.49v-4.676c0-.14-.042-.243-.126-.308a.823.823 0 0 0-.35-.182 6.711 6.711 0 0 0-.602-.14l-.14-.028v-.728h2.24l.168 1.596.056.07v5.04c0 .028.056.056.168.084.112.019.247.033.406.042.158.009.303.014.434.014h.056V355h-3.528Zm8.484 0h-3.528v-.672h.042c.13 0 .275-.005.434-.014a3.76 3.76 0 0 0 .406-.042c.121-.028.182-.056.182-.084v-4.578c0-.308-.042-.56-.126-.756a.79.79 0 0 0-.378-.434c-.178-.103-.416-.154-.714-.154-.308 0-.612.061-.91.182a3.18 3.18 0 0 0-.854.546 6.06 6.06 0 0 0-.826.938v-.756c.27-.401.555-.737.854-1.008.298-.271.616-.476.952-.616.345-.14.714-.21 1.106-.21.457 0 .84.079 1.148.238.317.149.56.383.728.7.177.308.266.7.266 1.176v4.088c0 .205.046.369.14.49a.76.76 0 0 0 .406.238c.177.037.387.056.63.056h.042V355Zm.571-6.678v-.77h.154c.317 0 .583-.019.798-.056.215-.047.373-.135.476-.266.112-.131.168-.327.168-.588l.91.84h2.674v.84h-5.18Zm2.744 4.396c0 .392.056.7.168.924a.97.97 0 0 0 .49.476c.215.093.471.14.77.14.243 0 .467-.014.672-.042.205-.037.345-.065.42-.084v.84c-.093.028-.21.056-.35.084-.14.028-.285.051-.434.07a3.652 3.652 0 0 1-.462.028c-.439 0-.849-.065-1.232-.196a1.864 1.864 0 0 1-.938-.714c-.233-.355-.35-.859-.35-1.512v-5.04l.098-.112v-2.24h1.148v7.378Zm11.102-1.47c0 .793-.159 1.484-.476 2.072a3.24 3.24 0 0 1-1.316 1.358c-.56.317-1.218.476-1.974.476-.765 0-1.433-.159-2.002-.476a3.35 3.35 0 0 1-1.316-1.358c-.308-.588-.462-1.279-.462-2.072 0-.597.089-1.134.266-1.61a3.33 3.33 0 0 1 .77-1.232 3.311 3.311 0 0 1 1.19-.784c.467-.187.985-.28 1.554-.28.569 0 1.083.093 1.54.28.457.177.854.439 1.19.784.336.336.593.747.77 1.232.177.476.266 1.013.266 1.61Zm-6.23 0c0 .672.093 1.237.28 1.694.187.457.462.803.826 1.036.364.224.817.336 1.358.336.541 0 .994-.112 1.358-.336.364-.233.635-.579.812-1.036.187-.457.28-1.022.28-1.694 0-.653-.093-1.204-.28-1.652-.177-.457-.448-.803-.812-1.036-.364-.243-.817-.364-1.358-.364-.541 0-.994.121-1.358.364-.364.233-.639.579-.826 1.036-.187.448-.28.999-.28 1.652Z"/>
  <g clip-path="url(#d)">
    <g clip-path="url(#e)">
      <rect width="267.601" height="41" x="525.399" y="281" fill="#fff" rx="4"/>
      <rect width="266.601" height="40" x="525.899" y="281.5" stroke="#000" stroke-opacity=".42" rx="3.5"/>
      <path fill="#000" fill-opacity=".87" d="M541.798 306.5h-2.375l.015-1.227h2.36c.812 0 1.489-.169 2.031-.507a3.173 3.173 0 0 0 1.219-1.438c.276-.62.414-1.344.414-2.172v-.695c0-.651-.078-1.229-.234-1.734a3.51 3.51 0 0 0-.688-1.289 2.895 2.895 0 0 0-1.109-.805c-.433-.182-.93-.274-1.493-.274h-2.562v-1.234h2.562a5.37 5.37 0 0 1 2.04.375 4.39 4.39 0 0 1 1.585 1.07 4.698 4.698 0 0 1 1.032 1.688c.239.656.359 1.396.359 2.219v.679c0 .823-.12 1.565-.359 2.227a4.648 4.648 0 0 1-1.039 1.679c-.448.464-.99.821-1.625 1.071-.631.245-1.341.367-2.133.367Zm-1.57-11.375V306.5h-1.508v-11.375h1.508Zm18.242 0V306.5h-1.516l-5.726-8.773v8.773h-1.508v-11.375h1.508l5.75 8.797v-8.797h1.492Zm4.789 0V306.5h-1.508v-11.375h1.508Z"/>
      <path fill="#000" fill-opacity=".54" d="M763.984 299.484h10.032L769 304.5l-5.016-5.016Z"/>
    </g>
  </g>
  <path fill="#000" d="M514.275 289.4h-6.505v-3.2c0-1.76-1.464-3.2-3.253-3.2h-6.506c-1.789 0-3.253 1.44-3.253 3.2v3.2h-6.505c-1.789 0-3.253 1.44-3.253 3.2v19.2c0 1.76 1.464 3.2 3.253 3.2h26.022c1.789 0 3.253-1.44 3.253-3.2v-19.2c0-1.76-1.464-3.2-3.253-3.2Zm-16.264-3.2h6.506v3.2h-6.506v-3.2Zm9.759 17.6h-4.88v4.8h-3.252v-4.8h-4.88v-3.2h4.88v-4.8h3.252v4.8h4.88v3.2Z"/>
  <path fill="#000" fill-opacity=".6" d="M530.984 272.384c.476 0 .868-.056 1.176-.168a1.31 1.31 0 0 0 .7-.574c.159-.261.238-.607.238-1.036 0-.383-.079-.695-.238-.938a1.736 1.736 0 0 0-.644-.602 4.253 4.253 0 0 0-.91-.392 16.48 16.48 0 0 0-1.036-.28 31.014 31.014 0 0 1-1.19-.35 4.28 4.28 0 0 1-1.008-.504 2.35 2.35 0 0 1-.714-.826c-.168-.345-.252-.779-.252-1.302 0-.532.121-.989.364-1.372a2.49 2.49 0 0 1 1.064-.91c.457-.215.994-.322 1.61-.322.495 0 .933.075 1.316.224.392.149.728.401 1.008.756.28.345.49.826.63 1.442l-.336-.294.168-1.946h.868v2.856h-.938a3.628 3.628 0 0 0-.588-1.204 2.398 2.398 0 0 0-.882-.742 2.687 2.687 0 0 0-1.19-.252c-.448 0-.817.065-1.106.196-.28.131-.485.322-.616.574-.131.243-.196.537-.196.882s.07.63.21.854c.149.215.35.392.602.532.252.131.546.247.882.35.336.093.695.191 1.078.294.401.103.793.219 1.176.35.392.131.747.303 1.064.518.327.215.583.495.77.84.187.336.28.761.28 1.274 0 .663-.149 1.213-.448 1.652a2.652 2.652 0 0 1-1.19.966c-.495.205-1.059.308-1.694.308a4.79 4.79 0 0 1-1.624-.266 3.028 3.028 0 0 1-1.246-.896c-.336-.42-.569-.985-.7-1.694l.434.392-.168 2.296h-.91v-3.29h.952c.14.569.359 1.05.658 1.442.299.392.663.686 1.092.882.439.187.933.28 1.484.28Zm6.191-3.066c0 .541.06 1.003.182 1.386.13.383.312.691.546.924.233.233.499.406.798.518.308.112.639.168.994.168.392 0 .732-.07 1.022-.21.289-.14.536-.317.742-.532.214-.215.396-.443.546-.686l.672.546a3.556 3.556 0 0 1-.7.896c-.29.261-.63.467-1.022.616a3.73 3.73 0 0 1-1.288.21c-.71 0-1.349-.149-1.918-.448a3.343 3.343 0 0 1-1.358-1.316c-.327-.579-.49-1.274-.49-2.086 0-.793.149-1.484.448-2.072.308-.597.723-1.059 1.246-1.386.532-.336 1.138-.504 1.82-.504.55 0 1.026.089 1.428.266.401.177.737.443 1.008.798.27.355.476.798.616 1.33s.21 1.153.21 1.862h-5.796v-.812h4.872l-.364.308a7.247 7.247 0 0 0-.154-1.344c-.075-.373-.192-.672-.35-.896a1.29 1.29 0 0 0-.588-.504 2.257 2.257 0 0 0-.882-.154c-.327 0-.63.065-.91.196a1.886 1.886 0 0 0-.714.574c-.196.261-.35.588-.462.98a5.431 5.431 0 0 0-.154 1.372Zm9.063-6.93v9.226c0 .289.108.481.322.574.215.093.504.14.868.14h.042V273h-3.696v-.672h.056c.364 0 .649-.047.854-.14.215-.093.322-.285.322-.574v-7.84c0-.14-.042-.243-.126-.308a.81.81 0 0 0-.35-.182 6.314 6.314 0 0 0-.616-.14l-.14-.028v-.728h2.464Zm3.542 6.93c0 .541.061 1.003.182 1.386.131.383.313.691.546.924.233.233.499.406.798.518.308.112.639.168.994.168.392 0 .733-.07 1.022-.21.289-.14.537-.317.742-.532.215-.215.397-.443.546-.686l.672.546a3.533 3.533 0 0 1-.7.896 3.21 3.21 0 0 1-1.022.616 3.73 3.73 0 0 1-1.288.21c-.709 0-1.349-.149-1.918-.448a3.35 3.35 0 0 1-1.358-1.316c-.327-.579-.49-1.274-.49-2.086 0-.793.149-1.484.448-2.072.308-.597.723-1.059 1.246-1.386.532-.336 1.139-.504 1.82-.504.551 0 1.027.089 1.428.266.401.177.737.443 1.008.798.271.355.476.798.616 1.33s.21 1.153.21 1.862h-5.796v-.812h4.872l-.364.308a7.247 7.247 0 0 0-.154-1.344c-.075-.373-.191-.672-.35-.896a1.28 1.28 0 0 0-.588-.504 2.257 2.257 0 0 0-.882-.154c-.327 0-.63.065-.91.196a1.886 1.886 0 0 0-.714.574c-.196.261-.35.588-.462.98a5.431 5.431 0 0 0-.154 1.372Zm10.684 2.996c.41 0 .76-.07 1.05-.21.298-.14.55-.317.756-.532.214-.224.401-.457.56-.7l.658.546a3.58 3.58 0 0 1-.728.91c-.29.261-.63.467-1.022.616-.383.14-.817.21-1.302.21-.794 0-1.48-.159-2.058-.476a3.347 3.347 0 0 1-1.316-1.358c-.308-.588-.462-1.279-.462-2.072 0-.803.158-1.493.476-2.072a3.3 3.3 0 0 1 1.344-1.358c.588-.317 1.283-.476 2.086-.476.485 0 .914.042 1.288.126.373.084.686.182.938.294.252.103.434.196.546.28v2.128h-1.26v-1.806a.864.864 0 0 1 .266.07c.084.028.154.07.21.126a.525.525 0 0 1 .168.392c-.206-.215-.5-.392-.882-.532a3.488 3.488 0 0 0-1.274-.224c-.588 0-1.074.121-1.456.364-.383.233-.668.579-.854 1.036-.187.457-.28 1.008-.28 1.652 0 .495.051.933.154 1.316.102.383.256.705.462.966a2 2 0 0 0 .798.588c.317.131.695.196 1.134.196Zm8.066 0c.411 0 .761-.07 1.05-.21.299-.14.551-.317.756-.532.215-.224.401-.457.56-.7l.658.546a3.558 3.558 0 0 1-.728.91 3.21 3.21 0 0 1-1.022.616c-.383.14-.817.21-1.302.21-.793 0-1.479-.159-2.058-.476a3.354 3.354 0 0 1-1.316-1.358c-.308-.588-.462-1.279-.462-2.072 0-.803.159-1.493.476-2.072a3.3 3.3 0 0 1 1.344-1.358c.588-.317 1.283-.476 2.086-.476.485 0 .915.042 1.288.126.373.084.686.182.938.294.252.103.434.196.546.28v2.128h-1.26v-1.806a.864.864 0 0 1 .266.07c.084.028.154.07.21.126a.525.525 0 0 1 .168.392c-.205-.215-.499-.392-.882-.532a3.484 3.484 0 0 0-1.274-.224c-.588 0-1.073.121-1.456.364-.383.233-.667.579-.854 1.036-.187.457-.28 1.008-.28 1.652 0 .495.051.933.154 1.316.103.383.257.705.462.966.215.261.481.457.798.588.317.131.695.196 1.134.196Zm5.869-8.372c-.271 0-.49-.075-.658-.224-.168-.149-.252-.373-.252-.672 0-.289.084-.509.252-.658.168-.149.387-.224.658-.224.261 0 .476.075.644.224.177.149.266.369.266.658 0 .299-.089.523-.266.672a.935.935 0 0 1-.644.224Zm.714 1.54v6.132c0 .289.107.481.322.574.214.093.504.14.868.14h.042V273h-3.696v-.672h.042c.364 0 .653-.047.868-.14.214-.093.322-.285.322-.574v-4.746c0-.205-.089-.341-.266-.406-.178-.075-.453-.149-.826-.224l-.14-.028v-.728h2.464Zm9.855 3.766c0 .793-.159 1.484-.476 2.072a3.24 3.24 0 0 1-1.316 1.358c-.56.317-1.218.476-1.974.476-.765 0-1.433-.159-2.002-.476a3.35 3.35 0 0 1-1.316-1.358c-.308-.588-.462-1.279-.462-2.072 0-.597.089-1.134.266-1.61a3.33 3.33 0 0 1 .77-1.232 3.311 3.311 0 0 1 1.19-.784c.467-.187.985-.28 1.554-.28.569 0 1.083.093 1.54.28.457.177.854.439 1.19.784.336.336.593.747.77 1.232.177.476.266 1.013.266 1.61Zm-6.23 0c0 .672.093 1.237.28 1.694.187.457.462.803.826 1.036.364.224.817.336 1.358.336.541 0 .994-.112 1.358-.336.364-.233.635-.579.812-1.036.187-.457.28-1.022.28-1.694 0-.653-.093-1.204-.28-1.652-.177-.457-.448-.803-.812-1.036-.364-.243-.817-.364-1.358-.364-.541 0-.994.121-1.358.364-.364.233-.639.579-.826 1.036-.187.448-.28.999-.28 1.652Zm7.487 3.752v-.672h.042c.242 0 .452-.019.63-.056a.769.769 0 0 0 .406-.238c.093-.121.14-.285.14-.49v-4.676c0-.14-.042-.243-.126-.308a.823.823 0 0 0-.35-.182 6.711 6.711 0 0 0-.602-.14l-.14-.028v-.728h2.24l.168 1.596.056.07v5.04c0 .028.056.056.168.084.112.019.247.033.406.042.158.009.303.014.434.014h.056V273h-3.528Zm8.484 0h-3.528v-.672h.042c.13 0 .275-.005.434-.014a3.76 3.76 0 0 0 .406-.042c.121-.028.182-.056.182-.084v-4.578c0-.308-.042-.56-.126-.756a.79.79 0 0 0-.378-.434c-.178-.103-.416-.154-.714-.154-.308 0-.612.061-.91.182a3.18 3.18 0 0 0-.854.546 6.06 6.06 0 0 0-.826.938v-.756c.27-.401.555-.737.854-1.008.298-.271.616-.476.952-.616.345-.14.714-.21 1.106-.21.457 0 .84.079 1.148.238.317.149.56.383.728.7.177.308.266.7.266 1.176v4.088c0 .205.046.369.14.49a.76.76 0 0 0 .406.238c.177.037.387.056.63.056h.042V273Zm2.321-3.682c0 .541.061 1.003.182 1.386.131.383.313.691.546.924.233.233.499.406.798.518.308.112.639.168.994.168.392 0 .733-.07 1.022-.21.289-.14.537-.317.742-.532.215-.215.397-.443.546-.686l.672.546a3.533 3.533 0 0 1-.7.896 3.21 3.21 0 0 1-1.022.616 3.73 3.73 0 0 1-1.288.21c-.709 0-1.349-.149-1.918-.448a3.35 3.35 0 0 1-1.358-1.316c-.327-.579-.49-1.274-.49-2.086 0-.793.149-1.484.448-2.072.308-.597.723-1.059 1.246-1.386.532-.336 1.139-.504 1.82-.504.551 0 1.027.089 1.428.266.401.177.737.443 1.008.798.271.355.476.798.616 1.33s.21 1.153.21 1.862h-5.796v-.812h4.872l-.364.308a7.247 7.247 0 0 0-.154-1.344c-.075-.373-.191-.672-.35-.896a1.28 1.28 0 0 0-.588-.504 2.257 2.257 0 0 0-.882-.154c-.327 0-.63.065-.91.196a1.886 1.886 0 0 0-.714.574c-.196.261-.35.588-.462.98a5.431 5.431 0 0 0-.154 1.372Zm12.837-6.93v9.226c0 .289.107.481.322.574.215.093.504.14.868.14h.042V273h-3.696v-.672h.056c.364 0 .649-.047.854-.14.215-.093.322-.285.322-.574v-7.84c0-.14-.042-.243-.126-.308a.817.817 0 0 0-.35-.182 6.383 6.383 0 0 0-.616-.14l-.14-.028v-.728h2.464Zm7.294 6.034v.742c-.569.075-1.059.159-1.47.252a6.44 6.44 0 0 0-1.022.308 2.299 2.299 0 0 0-.644.378 1.17 1.17 0 0 0-.336.476 1.655 1.655 0 0 0-.098.574c0 .261.051.481.154.658.112.177.266.313.462.406.196.084.425.126.686.126.299 0 .574-.07.826-.21.252-.14.495-.35.728-.63.233-.28.462-.63.686-1.05l.014.826a4.282 4.282 0 0 1-.658.994 2.72 2.72 0 0 1-.84.658 2.381 2.381 0 0 1-1.05.224c-.448 0-.845-.075-1.19-.224a1.892 1.892 0 0 1-.812-.686c-.196-.299-.294-.658-.294-1.078 0-.392.089-.733.266-1.022.177-.289.457-.541.84-.756.392-.215.896-.401 1.512-.56a18.51 18.51 0 0 1 2.24-.406Zm-.028 4.578-.168-1.624-.07-.084v-3.654c0-.355-.047-.639-.14-.854a.854.854 0 0 0-.476-.462c-.215-.093-.509-.14-.882-.14-.56 0-1.017.079-1.372.238-.355.159-.621.327-.798.504 0-.075.019-.149.056-.224a.734.734 0 0 1 .154-.224.83.83 0 0 1 .224-.182c.093-.047.196-.079.308-.098v1.624h-1.232v-1.708c.131-.103.317-.21.56-.322.252-.121.56-.224.924-.308.364-.093.775-.14 1.232-.14.373 0 .723.037 1.05.112.327.075.611.196.854.364.243.168.434.387.574.658.14.271.21.602.21.994v4.228c0 .131.047.233.14.308a.944.944 0 0 0 .392.168c.168.028.373.056.616.084l.07.014V273h-2.226Zm8.075-3.682c0 .541.06 1.003.182 1.386.13.383.312.691.546.924.233.233.499.406.798.518.308.112.639.168.994.168.392 0 .732-.07 1.022-.21.289-.14.536-.317.742-.532.214-.215.396-.443.546-.686l.672.546a3.556 3.556 0 0 1-.7.896c-.29.261-.63.467-1.022.616a3.73 3.73 0 0 1-1.288.21c-.71 0-1.349-.149-1.918-.448a3.343 3.343 0 0 1-1.358-1.316c-.327-.579-.49-1.274-.49-2.086 0-.793.149-1.484.448-2.072.308-.597.723-1.059 1.246-1.386.532-.336 1.138-.504 1.82-.504.55 0 1.026.089 1.428.266.401.177.737.443 1.008.798.27.355.476.798.616 1.33s.21 1.153.21 1.862h-5.796v-.812h4.872l-.364.308a7.247 7.247 0 0 0-.154-1.344c-.075-.373-.192-.672-.35-.896a1.29 1.29 0 0 0-.588-.504 2.257 2.257 0 0 0-.882-.154c-.327 0-.63.065-.91.196a1.886 1.886 0 0 0-.714.574c-.196.261-.35.588-.462.98a5.431 5.431 0 0 0-.154 1.372Zm11.496 1.708a.906.906 0 0 0-.168-.56 1.12 1.12 0 0 0-.434-.364 3.441 3.441 0 0 0-.644-.238 14.07 14.07 0 0 0-.728-.182 10.048 10.048 0 0 1-.91-.238 3.636 3.636 0 0 1-.812-.392 1.853 1.853 0 0 1-.588-.616c-.14-.252-.21-.574-.21-.966 0-.429.107-.803.322-1.12.215-.317.527-.565.938-.742.411-.177.905-.266 1.484-.266.457 0 .854.028 1.19.084.345.047.63.112.854.196.233.075.406.145.518.21v1.75h-1.232v-1.442c.093 0 .173.014.238.042a.271.271 0 0 1 .168.112.487.487 0 0 1 .098.21c.028.075.037.168.028.28a1.18 1.18 0 0 0-.448-.336 2.51 2.51 0 0 0-.644-.21 3.905 3.905 0 0 0-.77-.07c-.551 0-.957.107-1.218.322-.252.205-.378.485-.378.84 0 .224.051.415.154.574.112.149.261.271.448.364.187.093.401.173.644.238.252.065.513.131.784.196.299.065.597.145.896.238.299.093.565.219.798.378.243.159.434.369.574.63.149.252.224.569.224.952 0 .429-.112.817-.336 1.162-.224.336-.555.602-.994.798-.439.196-.98.294-1.624.294-.467 0-.887-.033-1.26-.098a6.149 6.149 0 0 1-.98-.252 3.768 3.768 0 0 1-.728-.35v-1.834h1.26v1.932a1.318 1.318 0 0 1-.35-.21.64.64 0 0 1-.154-.224.752.752 0 0 1-.042-.238c0-.084.009-.168.028-.252.149.131.331.247.546.35.224.103.476.187.756.252.28.056.588.084.924.084.392 0 .719-.047.98-.14.261-.093.457-.233.588-.42.14-.196.21-.439.21-.728Zm6.2 5.096h-3.878v-.672h.042c.233 0 .434-.023.602-.07a.665.665 0 0 0 .406-.238c.093-.112.14-.271.14-.476v-7.798c0-.14-.042-.243-.126-.308-.075-.075-.196-.135-.364-.182a6.711 6.711 0 0 0-.602-.14l-.14-.028v-.728h2.24l.168 1.736.07.084v8.008c0 .028.06.051.182.07.121.028.266.047.434.056.168.009.317.014.448.014h.378v.672Zm1.022-2.968c-.411 0-.78-.07-1.106-.21a3.016 3.016 0 0 1-.882-.602 5.558 5.558 0 0 1-.742-.98l.042-.91c.242.411.494.751.756 1.022.261.271.546.476.854.616.308.14.644.21 1.008.21s.686-.065.966-.196c.28-.14.508-.341.685-.602.187-.271.327-.597.421-.98.093-.383.14-.821.14-1.316 0-.485-.042-.91-.126-1.274a2.618 2.618 0 0 0-.392-.938 1.605 1.605 0 0 0-.658-.588 2.164 2.164 0 0 0-.952-.196c-.383 0-.733.07-1.05.21a2.604 2.604 0 0 0-.882.616 5.515 5.515 0 0 0-.784 1.022l-.028-.868c.252-.392.513-.723.784-.994.27-.28.574-.49.91-.63a2.94 2.94 0 0 1 1.176-.224c.7 0 1.297.163 1.792.49.494.327.872.779 1.134 1.358.261.569.392 1.241.392 2.016 0 .765-.136 1.447-.406 2.044a3.293 3.293 0 0 1-1.19 1.4c-.514.336-1.134.504-1.862.504Zm6.069-3.836c0 .541.06 1.003.182 1.386.13.383.312.691.546.924.233.233.499.406.798.518.308.112.639.168.994.168.392 0 .732-.07 1.022-.21.289-.14.536-.317.742-.532.214-.215.396-.443.546-.686l.672.546a3.556 3.556 0 0 1-.7.896c-.29.261-.63.467-1.022.616a3.73 3.73 0 0 1-1.288.21c-.71 0-1.349-.149-1.918-.448a3.343 3.343 0 0 1-1.358-1.316c-.327-.579-.49-1.274-.49-2.086 0-.793.149-1.484.448-2.072.308-.597.723-1.059 1.246-1.386.532-.336 1.138-.504 1.82-.504.55 0 1.026.089 1.428.266.401.177.737.443 1.008.798.27.355.476.798.616 1.33s.21 1.153.21 1.862h-5.796v-.812h4.872l-.364.308a7.247 7.247 0 0 0-.154-1.344c-.075-.373-.192-.672-.35-.896a1.29 1.29 0 0 0-.588-.504 2.257 2.257 0 0 0-.882-.154c-.327 0-.63.065-.91.196a1.886 1.886 0 0 0-.714.574c-.196.261-.35.588-.462.98a5.431 5.431 0 0 0-.154 1.372Zm10.684 2.996c.41 0 .76-.07 1.05-.21.298-.14.55-.317.756-.532.214-.224.401-.457.56-.7l.658.546a3.58 3.58 0 0 1-.728.91c-.29.261-.63.467-1.022.616-.383.14-.817.21-1.302.21-.794 0-1.48-.159-2.058-.476a3.347 3.347 0 0 1-1.316-1.358c-.308-.588-.462-1.279-.462-2.072 0-.803.158-1.493.476-2.072a3.3 3.3 0 0 1 1.344-1.358c.588-.317 1.283-.476 2.086-.476.485 0 .914.042 1.288.126.373.084.686.182.938.294.252.103.434.196.546.28v2.128h-1.26v-1.806a.864.864 0 0 1 .266.07c.084.028.154.07.21.126a.525.525 0 0 1 .168.392c-.206-.215-.5-.392-.882-.532a3.488 3.488 0 0 0-1.274-.224c-.588 0-1.074.121-1.456.364-.383.233-.668.579-.854 1.036-.187.457-.28 1.008-.28 1.652 0 .495.051.933.154 1.316.102.383.256.705.462.966a2 2 0 0 0 .798.588c.317.131.695.196 1.134.196Zm5.868-8.372c-.271 0-.49-.075-.658-.224-.168-.149-.252-.373-.252-.672 0-.289.084-.509.252-.658.168-.149.387-.224.658-.224.261 0 .476.075.644.224.177.149.266.369.266.658 0 .299-.089.523-.266.672a.935.935 0 0 1-.644.224Zm.714 1.54v6.132c0 .289.107.481.322.574.215.093.504.14.868.14h.042V273h-3.696v-.672h.042c.364 0 .653-.047.868-.14.215-.093.322-.285.322-.574v-4.746c0-.205-.089-.341-.266-.406-.177-.075-.453-.149-.826-.224l-.14-.028v-.728h2.464Zm7.335 2.94v.742c-.569.075-1.059.159-1.47.252-.41.093-.751.196-1.022.308-.27.112-.485.238-.644.378a1.19 1.19 0 0 0-.336.476 1.655 1.655 0 0 0-.098.574c0 .261.052.481.154.658.112.177.266.313.462.406.196.084.425.126.686.126.299 0 .574-.07.826-.21.252-.14.495-.35.728-.63.234-.28.462-.63.686-1.05l.014.826a4.25 4.25 0 0 1-.658.994c-.242.28-.522.499-.84.658a2.381 2.381 0 0 1-1.05.224c-.448 0-.844-.075-1.19-.224a1.892 1.892 0 0 1-.812-.686c-.196-.299-.294-.658-.294-1.078 0-.392.089-.733.266-1.022.178-.289.458-.541.84-.756.392-.215.896-.401 1.512-.56a18.51 18.51 0 0 1 2.24-.406Zm-.028 4.578-.168-1.624-.07-.084v-3.654c0-.355-.046-.639-.14-.854a.854.854 0 0 0-.476-.462c-.214-.093-.508-.14-.882-.14-.56 0-1.017.079-1.372.238-.354.159-.62.327-.798.504 0-.075.019-.149.056-.224a.752.752 0 0 1 .154-.224.845.845 0 0 1 .224-.182 1.09 1.09 0 0 1 .308-.098v1.624h-1.232v-1.708c.131-.103.318-.21.56-.322.252-.121.56-.224.924-.308.364-.093.775-.14 1.232-.14.374 0 .724.037 1.05.112.327.075.612.196.854.364.243.168.434.387.574.658.14.271.21.602.21.994v4.228c0 .131.047.233.14.308a.95.95 0 0 0 .392.168c.168.028.374.056.616.084l.07.014V273h-2.226Zm5.573-10.612v9.226c0 .289.107.481.322.574.214.093.504.14.868.14h.042V273h-3.696v-.672h.056c.364 0 .648-.047.854-.14.214-.093.322-.285.322-.574v-7.84c0-.14-.042-.243-.126-.308a.823.823 0 0 0-.35-.182 6.383 6.383 0 0 0-.616-.14l-.14-.028v-.728h2.464Zm3.933 1.554c-.27 0-.49-.075-.658-.224-.168-.149-.252-.373-.252-.672 0-.289.084-.509.252-.658.168-.149.388-.224.658-.224.262 0 .476.075.644.224.178.149.266.369.266.658 0 .299-.088.523-.266.672a.934.934 0 0 1-.644.224Zm.714 1.54v6.132c0 .289.108.481.322.574.215.093.504.14.868.14h.042V273h-3.696v-.672h.042c.364 0 .654-.047.868-.14.215-.093.322-.285.322-.574v-4.746c0-.205-.088-.341-.266-.406-.177-.075-.452-.149-.826-.224l-.14-.028v-.728h2.464Zm9.492 6.216c0 .205.102.341.308.406.214.065.494.117.84.154l.07.014V273h-2.24l-.168-1.638-.056-.014v-7.574c0-.14-.042-.243-.126-.308-.075-.075-.196-.135-.364-.182a6.383 6.383 0 0 0-.616-.14l-.14-.028v-.728h2.492v9.31Zm-3.71-6.356c.41 0 .774.07 1.092.21.326.14.62.341.882.602.27.261.518.588.742.98l-.042.924a4.98 4.98 0 0 0-.742-1.036 2.526 2.526 0 0 0-.854-.616 2.487 2.487 0 0 0-1.008-.196c-.364 0-.686.07-.966.21-.28.131-.514.327-.7.588a2.762 2.762 0 0 0-.42.98c-.094.383-.14.821-.14 1.316 0 .476.042.901.126 1.274.093.373.224.691.392.952.177.252.401.443.672.574.27.131.588.196.952.196.392 0 .746-.065 1.064-.196.317-.14.611-.345.882-.616.27-.28.527-.625.77-1.036l.014.854c-.243.392-.5.728-.77 1.008a2.952 2.952 0 0 1-.924.63c-.336.14-.719.21-1.148.21-.71 0-1.312-.159-1.806-.476a3.212 3.212 0 0 1-1.148-1.358c-.262-.579-.392-1.251-.392-2.016 0-.775.135-1.456.406-2.044a3.272 3.272 0 0 1 1.204-1.4c.522-.345 1.143-.518 1.862-.518Zm10.974 3.08v.742c-.57.075-1.06.159-1.47.252a6.408 6.408 0 0 0-1.022.308 2.284 2.284 0 0 0-.644.378 1.17 1.17 0 0 0-.336.476 1.632 1.632 0 0 0-.098.574c0 .261.051.481.154.658.112.177.266.313.462.406.196.084.424.126.686.126.298 0 .574-.07.826-.21.252-.14.494-.35.728-.63.233-.28.462-.63.686-1.05l.014.826a4.282 4.282 0 0 1-.658.994 2.72 2.72 0 0 1-.84.658 2.381 2.381 0 0 1-1.05.224c-.448 0-.845-.075-1.19-.224a1.886 1.886 0 0 1-.812-.686c-.196-.299-.294-.658-.294-1.078 0-.392.088-.733.266-1.022.177-.289.457-.541.84-.756.392-.215.896-.401 1.512-.56a18.473 18.473 0 0 1 2.24-.406Zm-.028 4.578-.168-1.624-.07-.084v-3.654c0-.355-.047-.639-.14-.854a.857.857 0 0 0-.476-.462c-.215-.093-.509-.14-.882-.14-.56 0-1.018.079-1.372.238-.355.159-.621.327-.798.504 0-.075.018-.149.056-.224a.717.717 0 0 1 .154-.224.83.83 0 0 1 .224-.182c.093-.047.196-.079.308-.098v1.624h-1.232v-1.708c.13-.103.317-.21.56-.322.252-.121.56-.224.924-.308.364-.093.774-.14 1.232-.14.373 0 .723.037 1.05.112.326.075.611.196.854.364.242.168.434.387.574.658.14.271.21.602.21.994v4.228c0 .131.046.233.14.308a.944.944 0 0 0 .392.168c.168.028.373.056.616.084l.07.014V273h-2.226Zm10.209-1.302c0 .205.103.341.308.406.215.065.495.117.84.154l.07.014V273h-2.24l-.168-1.638-.056-.014v-7.574c0-.14-.042-.243-.126-.308-.075-.075-.196-.135-.364-.182a6.383 6.383 0 0 0-.616-.14l-.14-.028v-.728h2.492v9.31Zm-3.71-6.356a2.68 2.68 0 0 1 1.974.812c.271.261.518.588.742.98l-.042.924a4.944 4.944 0 0 0-.742-1.036 2.516 2.516 0 0 0-.854-.616 2.487 2.487 0 0 0-1.008-.196c-.364 0-.686.07-.966.21-.28.131-.513.327-.7.588a2.762 2.762 0 0 0-.42.98c-.093.383-.14.821-.14 1.316 0 .476.042.901.126 1.274.093.373.224.691.392.952.177.252.401.443.672.574.271.131.588.196.952.196.392 0 .747-.065 1.064-.196.317-.14.611-.345.882-.616.271-.28.527-.625.77-1.036l.014.854a5.95 5.95 0 0 1-.77 1.008 2.952 2.952 0 0 1-.924.63c-.336.14-.719.21-1.148.21-.709 0-1.311-.159-1.806-.476a3.22 3.22 0 0 1-1.148-1.358c-.261-.579-.392-1.251-.392-2.016 0-.775.135-1.456.406-2.044a3.272 3.272 0 0 1 1.204-1.4c.523-.345 1.143-.518 1.862-.518ZM532.142 445.726v-7.406c0-.205-.112-.341-.336-.406a3.127 3.127 0 0 0-.854-.098h-.21v-.756h4.116v.756h-.224c-.345 0-.63.033-.854.098-.224.065-.336.201-.336.406v7.406c0 .205.112.341.336.406.224.065.509.098.854.098h.224v.77h-4.116v-.77h.21c.345 0 .63-.033.854-.098.224-.065.336-.201.336-.406ZM536.18 447v-.672h.042c.242 0 .452-.019.63-.056a.769.769 0 0 0 .406-.238c.093-.121.14-.285.14-.49v-4.676c0-.14-.042-.243-.126-.308a.823.823 0 0 0-.35-.182 6.711 6.711 0 0 0-.602-.14l-.14-.028v-.728h2.24l.168 1.596.056.07v5.04c0 .028.056.056.168.084.112.019.247.033.406.042.158.009.303.014.434.014h.056V447h-3.528Zm8.484 0h-3.528v-.672h.042c.13 0 .275-.005.434-.014a3.76 3.76 0 0 0 .406-.042c.121-.028.182-.056.182-.084v-4.578c0-.308-.042-.56-.126-.756a.79.79 0 0 0-.378-.434c-.178-.103-.416-.154-.714-.154-.308 0-.612.061-.91.182a3.18 3.18 0 0 0-.854.546 6.06 6.06 0 0 0-.826.938v-.756c.27-.401.555-.737.854-1.008.298-.271.616-.476.952-.616.345-.14.714-.21 1.106-.21.457 0 .84.079 1.148.238.317.149.56.383.728.7.177.308.266.7.266 1.176v4.088c0 .205.046.369.14.49a.76.76 0 0 0 .406.238c.177.037.387.056.63.056h.042V447Zm9.041-6.678a15.31 15.31 0 0 0-1.106-.014 4.25 4.25 0 0 0-.77.084 1.27 1.27 0 0 0-.518.238l-.21-.056c.121-.299.266-.555.434-.77a2.25 2.25 0 0 1 .56-.518 2.06 2.06 0 0 1 .714-.266 3.5 3.5 0 0 1 .896-.028v1.33Zm-4.494 4.396c-.579 0-1.092-.107-1.54-.322a2.584 2.584 0 0 1-1.036-.938c-.243-.401-.364-.873-.364-1.414 0-.532.126-.999.378-1.4a2.547 2.547 0 0 1 1.036-.952 3.26 3.26 0 0 1 1.526-.35c.579 0 1.092.117 1.54.35.448.224.798.541 1.05.952.252.401.378.868.378 1.4 0 .541-.126 1.013-.378 1.414a2.565 2.565 0 0 1-1.05.938c-.439.215-.952.322-1.54.322Zm0-.826c.373 0 .686-.07.938-.21.261-.14.457-.345.588-.616.131-.28.196-.621.196-1.022s-.065-.742-.196-1.022a1.335 1.335 0 0 0-.588-.63c-.252-.149-.565-.224-.938-.224-.364 0-.672.075-.924.224-.252.14-.443.35-.574.63-.131.28-.196.621-.196 1.022s.065.742.196 1.022c.131.271.322.476.574.616.252.14.56.21.924.21Zm-.616 6.524a6.608 6.608 0 0 1-1.624-.182c-.467-.112-.835-.299-1.106-.56-.271-.252-.406-.588-.406-1.008 0-.271.061-.509.182-.714.121-.205.308-.397.56-.574.252-.177.569-.364.952-.56l.42.266a4.277 4.277 0 0 0-.588.476 1.81 1.81 0 0 0-.308.462 1.385 1.385 0 0 0-.084.49c0 .224.065.411.196.56.14.159.359.28.658.364.299.093.695.14 1.19.14h1.19c.495 0 .915-.061 1.26-.182.345-.112.611-.275.798-.49.187-.215.28-.471.28-.77 0-.28-.093-.49-.28-.63-.187-.131-.518-.196-.994-.196h-3.234a4.698 4.698 0 0 1-.98-.308c-.252-.131-.439-.289-.56-.476a1.202 1.202 0 0 1-.168-.63c0-.252.061-.481.182-.686.131-.215.313-.415.546-.602a4.79 4.79 0 0 1 .868-.546l.42.294c-.196.14-.359.275-.49.406a1.587 1.587 0 0 0-.28.364.74.74 0 0 0-.098.378c0 .215.089.373.266.476.187.093.457.14.812.14h2.73c.523 0 .961.065 1.316.196.355.131.625.331.812.602.196.261.294.602.294 1.022 0 .56-.159 1.022-.476 1.386-.317.373-.742.649-1.274.826a5.514 5.514 0 0 1-1.75.266h-1.232Zm11.169-11.032v1.344a1.302 1.302 0 0 0-.238-.042l-.294-.028a2.9 2.9 0 0 0-.28-.014 2.67 2.67 0 0 0-.7.084 1.842 1.842 0 0 0-.574.238 2.426 2.426 0 0 0-.49.406 8.566 8.566 0 0 0-.49.616v-.644c.234-.439.472-.807.714-1.106.252-.299.528-.523.826-.672a2.113 2.113 0 0 1 1.008-.238c.112 0 .215.005.308.014a.644.644 0 0 1 .21.042ZM554.486 447v-.672h.042c.364 0 .649-.051.854-.154.215-.103.322-.313.322-.63v-4.676c0-.14-.042-.243-.126-.308a.81.81 0 0 0-.35-.182 6.55 6.55 0 0 0-.602-.14l-.14-.028v-.728h2.24l.168 1.876.056-.056v4.718c0 .084.066.149.196.196.131.047.285.079.462.098.178.009.332.014.462.014h.308V447h-3.892Zm7.497-3.682c0 .541.061 1.003.182 1.386.131.383.313.691.546.924.233.233.499.406.798.518.308.112.639.168.994.168.392 0 .733-.07 1.022-.21.289-.14.537-.317.742-.532.215-.215.397-.443.546-.686l.672.546a3.533 3.533 0 0 1-.7.896 3.21 3.21 0 0 1-1.022.616 3.73 3.73 0 0 1-1.288.21c-.709 0-1.349-.149-1.918-.448a3.35 3.35 0 0 1-1.358-1.316c-.327-.579-.49-1.274-.49-2.086 0-.793.149-1.484.448-2.072.308-.597.723-1.059 1.246-1.386.532-.336 1.139-.504 1.82-.504.551 0 1.027.089 1.428.266.401.177.737.443 1.008.798.271.355.476.798.616 1.33s.21 1.153.21 1.862h-5.796v-.812h4.872l-.364.308a7.247 7.247 0 0 0-.154-1.344c-.075-.373-.191-.672-.35-.896a1.28 1.28 0 0 0-.588-.504 2.257 2.257 0 0 0-.882-.154c-.327 0-.63.065-.91.196a1.886 1.886 0 0 0-.714.574c-.196.261-.35.588-.462.98a5.431 5.431 0 0 0-.154 1.372Zm11.497 1.708a.906.906 0 0 0-.168-.56 1.128 1.128 0 0 0-.434-.364 3.468 3.468 0 0 0-.644-.238 14.33 14.33 0 0 0-.728-.182 9.962 9.962 0 0 1-.91-.238 3.616 3.616 0 0 1-.812-.392 1.853 1.853 0 0 1-.588-.616c-.14-.252-.21-.574-.21-.966 0-.429.107-.803.322-1.12.214-.317.527-.565.938-.742.41-.177.905-.266 1.484-.266.457 0 .854.028 1.19.084.345.047.63.112.854.196.233.075.406.145.518.21v1.75h-1.232v-1.442c.093 0 .172.014.238.042.074.019.13.056.168.112a.499.499 0 0 1 .098.21c.028.075.037.168.028.28a1.187 1.187 0 0 0-.448-.336 2.523 2.523 0 0 0-.644-.21 3.913 3.913 0 0 0-.77-.07c-.551 0-.957.107-1.218.322-.252.205-.378.485-.378.84 0 .224.051.415.154.574.112.149.261.271.448.364.186.093.401.173.644.238.252.065.513.131.784.196.298.065.597.145.896.238a3 3 0 0 1 .798.378c.242.159.434.369.574.63.149.252.224.569.224.952 0 .429-.112.817-.336 1.162-.224.336-.556.602-.994.798-.439.196-.98.294-1.624.294-.467 0-.887-.033-1.26-.098a6.149 6.149 0 0 1-.98-.252 3.768 3.768 0 0 1-.728-.35v-1.834h1.26v1.932a1.302 1.302 0 0 1-.35-.21.64.64 0 0 1-.154-.224.752.752 0 0 1-.042-.238c0-.084.009-.168.028-.252.149.131.331.247.546.35.224.103.476.187.756.252.28.056.588.084.924.084.392 0 .718-.047.98-.14.261-.093.457-.233.588-.42.14-.196.21-.439.21-.728Zm3.72-1.708c0 .541.061 1.003.182 1.386.131.383.313.691.546.924.233.233.499.406.798.518.308.112.639.168.994.168.392 0 .733-.07 1.022-.21.289-.14.537-.317.742-.532.215-.215.397-.443.546-.686l.672.546a3.533 3.533 0 0 1-.7.896 3.21 3.21 0 0 1-1.022.616 3.73 3.73 0 0 1-1.288.21c-.709 0-1.349-.149-1.918-.448a3.35 3.35 0 0 1-1.358-1.316c-.327-.579-.49-1.274-.49-2.086 0-.793.149-1.484.448-2.072.308-.597.723-1.059 1.246-1.386.532-.336 1.139-.504 1.82-.504.551 0 1.027.089 1.428.266.401.177.737.443 1.008.798.271.355.476.798.616 1.33s.21 1.153.21 1.862h-5.796v-.812h4.872l-.364.308a7.247 7.247 0 0 0-.154-1.344c-.075-.373-.191-.672-.35-.896a1.28 1.28 0 0 0-.588-.504 2.257 2.257 0 0 0-.882-.154c-.327 0-.63.065-.91.196a1.886 1.886 0 0 0-.714.574c-.196.261-.35.588-.462.98a5.431 5.431 0 0 0-.154 1.372Zm15.455-.896v.742c-.569.075-1.059.159-1.47.252a6.44 6.44 0 0 0-1.022.308 2.299 2.299 0 0 0-.644.378 1.17 1.17 0 0 0-.336.476 1.655 1.655 0 0 0-.098.574c0 .261.051.481.154.658.112.177.266.313.462.406.196.084.425.126.686.126.299 0 .574-.07.826-.21.252-.14.495-.35.728-.63.233-.28.462-.63.686-1.05l.014.826a4.282 4.282 0 0 1-.658.994 2.72 2.72 0 0 1-.84.658 2.381 2.381 0 0 1-1.05.224c-.448 0-.845-.075-1.19-.224a1.892 1.892 0 0 1-.812-.686c-.196-.299-.294-.658-.294-1.078 0-.392.089-.733.266-1.022.177-.289.457-.541.84-.756.392-.215.896-.401 1.512-.56a18.51 18.51 0 0 1 2.24-.406Zm-.028 4.578-.168-1.624-.07-.084v-3.654c0-.355-.047-.639-.14-.854a.854.854 0 0 0-.476-.462c-.215-.093-.509-.14-.882-.14-.56 0-1.017.079-1.372.238-.355.159-.621.327-.798.504 0-.075.019-.149.056-.224a.734.734 0 0 1 .154-.224.83.83 0 0 1 .224-.182c.093-.047.196-.079.308-.098v1.624h-1.232v-1.708c.131-.103.317-.21.56-.322.252-.121.56-.224.924-.308.364-.093.775-.14 1.232-.14.373 0 .723.037 1.05.112.327.075.611.196.854.364.243.168.434.387.574.658.14.271.21.602.21.994v4.228c0 .131.047.233.14.308a.944.944 0 0 0 .392.168c.168.028.373.056.616.084l.07.014V447h-2.226Zm5.572-10.612v9.226c0 .289.107.481.322.574.215.093.504.14.868.14h.042V447h-3.696v-.672h.056c.364 0 .649-.047.854-.14.215-.093.322-.285.322-.574v-7.84c0-.14-.042-.243-.126-.308a.817.817 0 0 0-.35-.182 6.383 6.383 0 0 0-.616-.14l-.14-.028v-.728h2.464Zm10.262 3.934a15.31 15.31 0 0 0-1.106-.014 4.25 4.25 0 0 0-.77.084 1.27 1.27 0 0 0-.518.238l-.21-.056c.121-.299.266-.555.434-.77a2.25 2.25 0 0 1 .56-.518 2.06 2.06 0 0 1 .714-.266 3.5 3.5 0 0 1 .896-.028v1.33Zm-4.494 4.396c-.579 0-1.092-.107-1.54-.322a2.584 2.584 0 0 1-1.036-.938c-.243-.401-.364-.873-.364-1.414 0-.532.126-.999.378-1.4a2.547 2.547 0 0 1 1.036-.952 3.26 3.26 0 0 1 1.526-.35c.579 0 1.092.117 1.54.35.448.224.798.541 1.05.952.252.401.378.868.378 1.4 0 .541-.126 1.013-.378 1.414a2.565 2.565 0 0 1-1.05.938c-.439.215-.952.322-1.54.322Zm0-.826c.373 0 .686-.07.938-.21.261-.14.457-.345.588-.616.131-.28.196-.621.196-1.022s-.065-.742-.196-1.022a1.335 1.335 0 0 0-.588-.63c-.252-.149-.565-.224-.938-.224-.364 0-.672.075-.924.224-.252.14-.443.35-.574.63-.131.28-.196.621-.196 1.022s.065.742.196 1.022c.131.271.322.476.574.616.252.14.56.21.924.21Zm-.616 6.524a6.608 6.608 0 0 1-1.624-.182c-.467-.112-.835-.299-1.106-.56-.271-.252-.406-.588-.406-1.008 0-.271.061-.509.182-.714.121-.205.308-.397.56-.574.252-.177.569-.364.952-.56l.42.266a4.277 4.277 0 0 0-.588.476 1.81 1.81 0 0 0-.308.462 1.385 1.385 0 0 0-.084.49c0 .224.065.411.196.56.14.159.359.28.658.364.299.093.695.14 1.19.14h1.19c.495 0 .915-.061 1.26-.182.345-.112.611-.275.798-.49.187-.215.28-.471.28-.77 0-.28-.093-.49-.28-.63-.187-.131-.518-.196-.994-.196h-3.234a4.698 4.698 0 0 1-.98-.308c-.252-.131-.439-.289-.56-.476a1.202 1.202 0 0 1-.168-.63c0-.252.061-.481.182-.686.131-.215.313-.415.546-.602a4.79 4.79 0 0 1 .868-.546l.42.294c-.196.14-.359.275-.49.406a1.587 1.587 0 0 0-.28.364.74.74 0 0 0-.098.378c0 .215.089.373.266.476.187.093.457.14.812.14h2.73c.523 0 .961.065 1.316.196.355.131.625.331.812.602.196.261.294.602.294 1.022 0 .56-.159 1.022-.476 1.386-.317.373-.742.649-1.274.826a5.514 5.514 0 0 1-1.75.266h-1.232Zm8.187-10.934v5.39c0 .299.038.551.112.756.084.196.21.345.378.448.178.093.416.14.714.14a2.2 2.2 0 0 0 .882-.182c.29-.121.57-.303.84-.546.28-.243.556-.551.826-.924v.756a5.282 5.282 0 0 1-.84.994 3.126 3.126 0 0 1-.938.616c-.336.14-.7.21-1.092.21-.438 0-.821-.075-1.148-.224a1.637 1.637 0 0 1-.728-.714c-.168-.317-.252-.709-.252-1.176v-4.158c0-.205-.088-.35-.266-.434-.177-.084-.448-.149-.812-.196l-.21-.028v-.728h2.534Zm4.746 0v6.216c0 .131.047.233.14.308a.95.95 0 0 0 .392.168c.178.037.383.065.616.084l.084.014V447h-2.254l-.168-1.638-.056-.084v-4.41a.441.441 0 0 0-.28-.434c-.177-.084-.452-.145-.826-.182l-.336-.042v-.728h2.688Zm2.173 7.518v-.672h.042c.243 0 .453-.019.63-.056a.765.765 0 0 0 .406-.238c.093-.121.14-.285.14-.49v-4.676c0-.14-.042-.243-.126-.308a.817.817 0 0 0-.35-.182 6.63 6.63 0 0 0-.602-.14l-.14-.028v-.728h2.24l.168 1.596.056.07v5.04c0 .028.056.056.168.084.112.019.247.033.406.042.159.009.303.014.434.014h.056V447h-3.528Zm8.484 0h-3.528v-.672h.042c.131 0 .275-.005.434-.014.159-.009.294-.023.406-.042.121-.028.182-.056.182-.084v-4.578c0-.308-.042-.56-.126-.756a.79.79 0 0 0-.378-.434c-.177-.103-.415-.154-.714-.154-.308 0-.611.061-.91.182a3.196 3.196 0 0 0-.854.546 6.06 6.06 0 0 0-.826.938v-.756c.271-.401.555-.737.854-1.008.299-.271.616-.476.952-.616.345-.14.714-.21 1.106-.21.457 0 .84.079 1.148.238.317.149.56.383.728.7.177.308.266.7.266 1.176v4.088c0 .205.047.369.14.49a.765.765 0 0 0 .406.238c.177.037.387.056.63.056h.042V447Zm4.6 0v-.672h.042c.364 0 .649-.051.854-.154.215-.103.322-.313.322-.63v-4.676c0-.14-.042-.243-.126-.308a.817.817 0 0 0-.35-.182 6.63 6.63 0 0 0-.602-.14l-.14-.028v-.728h2.226l.168 1.582.07.084v5.04c0 .028.056.056.168.084.112.019.243.033.392.042.159.009.299.014.42.014h.056V447h-3.5Zm7.952 0h-3.318v-.672h.042c.131 0 .271-.005.42-.014.159-.009.294-.023.406-.042.112-.028.168-.056.168-.084v-4.578a2.39 2.39 0 0 0-.098-.742.782.782 0 0 0-.322-.448c-.149-.103-.359-.154-.63-.154-.289 0-.565.061-.826.182a3.049 3.049 0 0 0-.784.546 6.963 6.963 0 0 0-.812.882l.014-.812c.271-.364.541-.672.812-.924a2.99 2.99 0 0 1 .896-.588c.317-.14.663-.21 1.036-.21.411 0 .761.079 1.05.238.299.149.523.383.672.7.159.308.238.7.238 1.176v4.732c0 .028.051.056.154.084.112.019.247.033.406.042.159.009.303.014.434.014h.042V447Zm4.648 0h-3.514v-.672h.056c.131 0 .271-.005.42-.014.149-.009.275-.023.378-.042.112-.028.168-.056.168-.084v-4.578a2.39 2.39 0 0 0-.098-.742.782.782 0 0 0-.322-.448c-.149-.103-.355-.154-.616-.154a2.04 2.04 0 0 0-.84.182 3.049 3.049 0 0 0-.784.546 7.694 7.694 0 0 0-.798.882v-.812c.28-.364.555-.672.826-.924.28-.261.574-.457.882-.588.317-.14.663-.21 1.036-.21.42 0 .775.079 1.064.238.289.149.509.383.658.7.159.308.238.7.238 1.176v4.088c0 .317.107.527.322.63.215.103.504.154.868.154h.056V447Zm2.307-3.682c0 .541.061 1.003.182 1.386.131.383.313.691.546.924.233.233.499.406.798.518.308.112.639.168.994.168.392 0 .733-.07 1.022-.21.289-.14.537-.317.742-.532.215-.215.397-.443.546-.686l.672.546a3.533 3.533 0 0 1-.7.896 3.21 3.21 0 0 1-1.022.616 3.73 3.73 0 0 1-1.288.21c-.709 0-1.349-.149-1.918-.448a3.35 3.35 0 0 1-1.358-1.316c-.327-.579-.49-1.274-.49-2.086 0-.793.149-1.484.448-2.072.308-.597.723-1.059 1.246-1.386.532-.336 1.139-.504 1.82-.504.551 0 1.027.089 1.428.266.401.177.737.443 1.008.798.271.355.476.798.616 1.33s.21 1.153.21 1.862h-5.796v-.812h4.872l-.364.308a7.247 7.247 0 0 0-.154-1.344c-.075-.373-.191-.672-.35-.896a1.28 1.28 0 0 0-.588-.504 2.257 2.257 0 0 0-.882-.154c-.327 0-.63.065-.91.196a1.886 1.886 0 0 0-.714.574c-.196.261-.35.588-.462.98a5.431 5.431 0 0 0-.154 1.372Zm6.708 3.682v-.672h.042c.243 0 .453-.019.63-.056a.76.76 0 0 0 .406-.238c.094-.121.14-.285.14-.49v-4.676c0-.14-.042-.243-.126-.308a.81.81 0 0 0-.35-.182 6.55 6.55 0 0 0-.602-.14l-.14-.028v-.728h2.24l.168 1.596.056.07v5.04c0 .028.056.056.168.084.112.019.248.033.406.042.159.009.304.014.434.014h.056V447h-3.528Zm8.484 0h-3.528v-.672h.042c.131 0 .276-.005.434-.014.159-.009.294-.023.406-.042.122-.028.182-.056.182-.084v-4.578c0-.308-.042-.56-.126-.756a.783.783 0 0 0-.378-.434c-.177-.103-.415-.154-.714-.154-.308 0-.611.061-.91.182a3.196 3.196 0 0 0-.854.546c-.27.243-.546.555-.826.938v-.756c.271-.401.556-.737.854-1.008.299-.271.616-.476.952-.616.346-.14.714-.21 1.106-.21.458 0 .84.079 1.148.238.318.149.56.383.728.7.178.308.266.7.266 1.176v4.088c0 .205.047.369.14.49a.769.769 0 0 0 .406.238c.178.037.388.056.63.056h.042V447Zm5.752-1.974a.906.906 0 0 0-.168-.56 1.128 1.128 0 0 0-.434-.364 3.468 3.468 0 0 0-.644-.238 14.33 14.33 0 0 0-.728-.182 9.962 9.962 0 0 1-.91-.238 3.616 3.616 0 0 1-.812-.392 1.853 1.853 0 0 1-.588-.616c-.14-.252-.21-.574-.21-.966 0-.429.107-.803.322-1.12.214-.317.527-.565.938-.742.41-.177.905-.266 1.484-.266.457 0 .854.028 1.19.084.345.047.63.112.854.196.233.075.406.145.518.21v1.75h-1.232v-1.442c.093 0 .172.014.238.042.074.019.13.056.168.112a.499.499 0 0 1 .098.21c.028.075.037.168.028.28a1.187 1.187 0 0 0-.448-.336 2.523 2.523 0 0 0-.644-.21 3.913 3.913 0 0 0-.77-.07c-.551 0-.957.107-1.218.322-.252.205-.378.485-.378.84 0 .224.051.415.154.574.112.149.261.271.448.364.186.093.401.173.644.238.252.065.513.131.784.196.298.065.597.145.896.238a3 3 0 0 1 .798.378c.242.159.434.369.574.63.149.252.224.569.224.952 0 .429-.112.817-.336 1.162-.224.336-.556.602-.994.798-.439.196-.98.294-1.624.294-.467 0-.887-.033-1.26-.098a6.149 6.149 0 0 1-.98-.252 3.768 3.768 0 0 1-.728-.35v-1.834h1.26v1.932a1.302 1.302 0 0 1-.35-.21.64.64 0 0 1-.154-.224.752.752 0 0 1-.042-.238c0-.084.009-.168.028-.252.149.131.331.247.546.35.224.103.476.187.756.252.28.056.588.084.924.084.392 0 .718-.047.98-.14.261-.093.457-.233.588-.42.14-.196.21-.439.21-.728Zm7.431-2.604v.742c-.569.075-1.059.159-1.47.252a6.44 6.44 0 0 0-1.022.308 2.299 2.299 0 0 0-.644.378 1.17 1.17 0 0 0-.336.476 1.655 1.655 0 0 0-.098.574c0 .261.051.481.154.658.112.177.266.313.462.406.196.084.425.126.686.126.299 0 .574-.07.826-.21.252-.14.495-.35.728-.63.233-.28.462-.63.686-1.05l.014.826a4.282 4.282 0 0 1-.658.994 2.72 2.72 0 0 1-.84.658 2.381 2.381 0 0 1-1.05.224c-.448 0-.845-.075-1.19-.224a1.892 1.892 0 0 1-.812-.686c-.196-.299-.294-.658-.294-1.078 0-.392.089-.733.266-1.022.177-.289.457-.541.84-.756.392-.215.896-.401 1.512-.56a18.51 18.51 0 0 1 2.24-.406Zm-.028 4.578-.168-1.624-.07-.084v-3.654c0-.355-.047-.639-.14-.854a.854.854 0 0 0-.476-.462c-.215-.093-.509-.14-.882-.14-.56 0-1.017.079-1.372.238-.355.159-.621.327-.798.504 0-.075.019-.149.056-.224a.734.734 0 0 1 .154-.224.83.83 0 0 1 .224-.182c.093-.047.196-.079.308-.098v1.624h-1.232v-1.708c.131-.103.317-.21.56-.322.252-.121.56-.224.924-.308.364-.093.775-.14 1.232-.14.373 0 .723.037 1.05.112.327.075.611.196.854.364.243.168.434.387.574.658.14.271.21.602.21.994v4.228c0 .131.047.233.14.308a.944.944 0 0 0 .392.168c.168.028.373.056.616.084l.07.014V447h-2.226Zm4.231.868v-7a.39.39 0 0 0-.14-.322.99.99 0 0 0-.42-.196 4.513 4.513 0 0 0-.644-.112l-.224-.028v-.728h2.66v8.386c0 .485-.075.891-.224 1.218-.15.336-.355.597-.616.784a2.487 2.487 0 0 1-.854.406c-.318.084-.64.126-.966.126-.243 0-.481-.019-.714-.056a2.754 2.754 0 0 1-.546-.126v-.882c.158.047.34.089.546.126.205.037.438.056.7.056.298 0 .555-.051.77-.154a.959.959 0 0 0 .49-.504c.121-.243.182-.574.182-.994Zm.504-9.926a.987.987 0 0 1-.658-.224c-.168-.149-.252-.373-.252-.672 0-.289.084-.509.252-.658a.987.987 0 0 1 .658-.224c.261 0 .476.075.644.224.177.149.266.369.266.658 0 .299-.089.523-.266.672a.935.935 0 0 1-.644.224Zm4.133 5.376c0 .541.06 1.003.182 1.386.13.383.312.691.546.924.233.233.499.406.798.518.308.112.639.168.994.168.392 0 .732-.07 1.022-.21.289-.14.536-.317.742-.532.214-.215.396-.443.546-.686l.672.546a3.556 3.556 0 0 1-.7.896c-.29.261-.63.467-1.022.616a3.73 3.73 0 0 1-1.288.21c-.71 0-1.349-.149-1.918-.448a3.343 3.343 0 0 1-1.358-1.316c-.327-.579-.49-1.274-.49-2.086 0-.793.149-1.484.448-2.072.308-.597.723-1.059 1.246-1.386.532-.336 1.138-.504 1.82-.504.55 0 1.026.089 1.428.266.401.177.737.443 1.008.798.27.355.476.798.616 1.33s.21 1.153.21 1.862h-5.796v-.812h4.872l-.364.308a7.247 7.247 0 0 0-.154-1.344c-.075-.373-.192-.672-.35-.896a1.29 1.29 0 0 0-.588-.504 2.257 2.257 0 0 0-.882-.154c-.327 0-.63.065-.91.196a1.886 1.886 0 0 0-.714.574c-.196.261-.35.588-.462.98a5.431 5.431 0 0 0-.154 1.372Zm12.641-3.836v5.39c0 .299.037.551.112.756.084.196.21.345.378.448.177.093.415.14.714.14a2.2 2.2 0 0 0 .882-.182c.289-.121.569-.303.84-.546.28-.243.555-.551.826-.924v.756a5.282 5.282 0 0 1-.84.994 3.126 3.126 0 0 1-.938.616c-.336.14-.7.21-1.092.21-.439 0-.821-.075-1.148-.224a1.637 1.637 0 0 1-.728-.714c-.168-.317-.252-.709-.252-1.176v-4.158a.443.443 0 0 0-.266-.434c-.177-.084-.448-.149-.812-.196l-.21-.028v-.728h2.534Zm4.746 0v6.216c0 .131.047.233.14.308a.944.944 0 0 0 .392.168c.177.037.383.065.616.084l.084.014V447h-2.254l-.168-1.638-.056-.084v-4.41a.441.441 0 0 0-.28-.434c-.177-.084-.453-.145-.826-.182l-.336-.042v-.728h2.688Zm-162.832 19.766c0 .793-.159 1.484-.476 2.072a3.24 3.24 0 0 1-1.316 1.358c-.56.317-1.218.476-1.974.476-.765 0-1.433-.159-2.002-.476a3.35 3.35 0 0 1-1.316-1.358c-.308-.588-.462-1.279-.462-2.072 0-.597.089-1.134.266-1.61a3.33 3.33 0 0 1 .77-1.232 3.311 3.311 0 0 1 1.19-.784c.467-.187.985-.28 1.554-.28.569 0 1.083.093 1.54.28.457.177.854.439 1.19.784.336.336.593.747.77 1.232.177.476.266 1.013.266 1.61Zm-6.23 0c0 .672.093 1.237.28 1.694.187.457.462.803.826 1.036.364.224.817.336 1.358.336.541 0 .994-.112 1.358-.336.364-.233.635-.579.812-1.036.187-.457.28-1.022.28-1.694 0-.653-.093-1.204-.28-1.652-.177-.457-.448-.803-.812-1.036-.364-.243-.817-.364-1.358-.364-.541 0-.994.121-1.358.364-.364.233-.639.579-.826 1.036-.187.448-.28.999-.28 1.652Zm12.149 3.906a2.74 2.74 0 0 1-1.092-.21 2.962 2.962 0 0 1-.896-.602 5.558 5.558 0 0 1-.742-.98l.042-.896c.242.401.494.742.756 1.022.27.271.555.476.854.616.308.131.648.196 1.022.196.364 0 .681-.065.952-.196.28-.14.508-.341.686-.602.186-.271.326-.597.42-.98.093-.383.14-.821.14-1.316 0-.485-.042-.91-.126-1.274a2.618 2.618 0 0 0-.392-.938 1.605 1.605 0 0 0-.658-.588c-.262-.131-.574-.196-.938-.196a2.689 2.689 0 0 0-1.946.812 5.355 5.355 0 0 0-.784 1.036l-.028-.854c.252-.392.513-.728.784-1.008a2.84 2.84 0 0 1 2.086-.854c.7 0 1.297.163 1.792.49.494.327.872.779 1.134 1.358.261.569.392 1.241.392 2.016 0 .765-.14 1.447-.42 2.044a3.326 3.326 0 0 1-1.176 1.4c-.514.336-1.134.504-1.862.504Zm-3.71-9.38c0-.14-.042-.243-.126-.308a.823.823 0 0 0-.35-.182 6.383 6.383 0 0 0-.616-.14l-.14-.028v-.728h2.478v8.918l-.07.098-.336 1.764h-.84v-9.394Zm13.215 7.252a.906.906 0 0 0-.168-.56 1.128 1.128 0 0 0-.434-.364 3.468 3.468 0 0 0-.644-.238 14.33 14.33 0 0 0-.728-.182 9.962 9.962 0 0 1-.91-.238 3.616 3.616 0 0 1-.812-.392 1.853 1.853 0 0 1-.588-.616c-.14-.252-.21-.574-.21-.966 0-.429.107-.803.322-1.12.214-.317.527-.565.938-.742.41-.177.905-.266 1.484-.266.457 0 .854.028 1.19.084.345.047.63.112.854.196.233.075.406.145.518.21v1.75h-1.232v-1.442c.093 0 .172.014.238.042.074.019.13.056.168.112a.499.499 0 0 1 .098.21c.028.075.037.168.028.28a1.187 1.187 0 0 0-.448-.336 2.523 2.523 0 0 0-.644-.21 3.913 3.913 0 0 0-.77-.07c-.551 0-.957.107-1.218.322-.252.205-.378.485-.378.84 0 .224.051.415.154.574.112.149.261.271.448.364.186.093.401.173.644.238.252.065.513.131.784.196.298.065.597.145.896.238a3 3 0 0 1 .798.378c.242.159.434.369.574.63.149.252.224.569.224.952 0 .429-.112.817-.336 1.162-.224.336-.556.602-.994.798-.439.196-.98.294-1.624.294-.467 0-.887-.033-1.26-.098a6.149 6.149 0 0 1-.98-.252 3.768 3.768 0 0 1-.728-.35v-1.834h1.26v1.932a1.302 1.302 0 0 1-.35-.21.64.64 0 0 1-.154-.224.752.752 0 0 1-.042-.238c0-.084.009-.168.028-.252.149.131.331.247.546.35.224.103.476.187.756.252.28.056.588.084.924.084.392 0 .718-.047.98-.14.261-.093.457-.233.588-.42.14-.196.21-.439.21-.728Zm3.72-1.708c0 .541.061 1.003.182 1.386.131.383.313.691.546.924.233.233.499.406.798.518.308.112.639.168.994.168.392 0 .733-.07 1.022-.21.289-.14.537-.317.742-.532.215-.215.397-.443.546-.686l.672.546a3.533 3.533 0 0 1-.7.896 3.21 3.21 0 0 1-1.022.616 3.73 3.73 0 0 1-1.288.21c-.709 0-1.349-.149-1.918-.448a3.35 3.35 0 0 1-1.358-1.316c-.327-.579-.49-1.274-.49-2.086 0-.793.149-1.484.448-2.072.308-.597.723-1.059 1.246-1.386.532-.336 1.139-.504 1.82-.504.551 0 1.027.089 1.428.266.401.177.737.443 1.008.798.271.355.476.798.616 1.33s.21 1.153.21 1.862h-5.796v-.812h4.872l-.364.308a7.247 7.247 0 0 0-.154-1.344c-.075-.373-.191-.672-.35-.896a1.28 1.28 0 0 0-.588-.504 2.257 2.257 0 0 0-.882-.154c-.327 0-.63.065-.91.196a1.886 1.886 0 0 0-.714.574c-.196.261-.35.588-.462.98a5.431 5.431 0 0 0-.154 1.372Zm11.986-3.934v1.344a1.302 1.302 0 0 0-.238-.042l-.294-.028a2.9 2.9 0 0 0-.28-.014 2.67 2.67 0 0 0-.7.084 1.842 1.842 0 0 0-.574.238 2.426 2.426 0 0 0-.49.406 8.566 8.566 0 0 0-.49.616v-.644c.234-.439.472-.807.714-1.106.252-.299.528-.523.826-.672a2.113 2.113 0 0 1 1.008-.238c.112 0 .215.005.308.014a.644.644 0 0 1 .21.042ZM564.07 463v-.672h.042c.364 0 .649-.051.854-.154.215-.103.322-.313.322-.63v-4.676c0-.14-.042-.243-.126-.308a.81.81 0 0 0-.35-.182 6.55 6.55 0 0 0-.602-.14l-.14-.028v-.728h2.24l.168 1.876.056-.056v4.718c0 .084.066.149.196.196.131.047.285.079.462.098.178.009.332.014.462.014h.308V463h-3.892Zm12.569-6.468c-.009-.056-.07-.107-.182-.154a1.257 1.257 0 0 0-.42-.112 3.232 3.232 0 0 0-.532-.042h-.07v-.742h3.192v.742h-.056c-.177 0-.34.019-.49.056a.887.887 0 0 0-.378.21 1.125 1.125 0 0 0-.266.434l-2.338 6.16h-1.358l-2.338-6.244a.798.798 0 0 0-.238-.378.753.753 0 0 0-.378-.182 2.054 2.054 0 0 0-.518-.056h-.056v-.742h3.528v.742h-.07c-.205 0-.401.005-.588.014a2.98 2.98 0 0 0-.448.028c-.112.009-.168.033-.168.07l2.226 6.132-.196-.14 2.142-5.796Zm7.594 1.89v.742c-.569.075-1.059.159-1.47.252a6.44 6.44 0 0 0-1.022.308 2.299 2.299 0 0 0-.644.378 1.17 1.17 0 0 0-.336.476 1.655 1.655 0 0 0-.098.574c0 .261.051.481.154.658.112.177.266.313.462.406.196.084.425.126.686.126.299 0 .574-.07.826-.21.252-.14.495-.35.728-.63.233-.28.462-.63.686-1.05l.014.826a4.282 4.282 0 0 1-.658.994 2.72 2.72 0 0 1-.84.658 2.381 2.381 0 0 1-1.05.224c-.448 0-.845-.075-1.19-.224a1.892 1.892 0 0 1-.812-.686c-.196-.299-.294-.658-.294-1.078 0-.392.089-.733.266-1.022.177-.289.457-.541.84-.756.392-.215.896-.401 1.512-.56a18.51 18.51 0 0 1 2.24-.406Zm-.028 4.578-.168-1.624-.07-.084v-3.654c0-.355-.047-.639-.14-.854a.854.854 0 0 0-.476-.462c-.215-.093-.509-.14-.882-.14-.56 0-1.017.079-1.372.238-.355.159-.621.327-.798.504 0-.075.019-.149.056-.224a.734.734 0 0 1 .154-.224.83.83 0 0 1 .224-.182c.093-.047.196-.079.308-.098v1.624h-1.232v-1.708c.131-.103.317-.21.56-.322.252-.121.56-.224.924-.308.364-.093.775-.14 1.232-.14.373 0 .723.037 1.05.112.327.075.611.196.854.364.243.168.434.387.574.658.14.271.21.602.21.994v4.228c0 .131.047.233.14.308a.944.944 0 0 0 .392.168c.168.028.373.056.616.084l.07.014V463h-2.226Zm6.892-.686c.41 0 .76-.07 1.05-.21.298-.14.55-.317.756-.532.214-.224.401-.457.56-.7l.658.546a3.58 3.58 0 0 1-.728.91c-.29.261-.63.467-1.022.616-.383.14-.817.21-1.302.21-.794 0-1.48-.159-2.058-.476a3.347 3.347 0 0 1-1.316-1.358c-.308-.588-.462-1.279-.462-2.072 0-.803.158-1.493.476-2.072a3.3 3.3 0 0 1 1.344-1.358c.588-.317 1.283-.476 2.086-.476.485 0 .914.042 1.288.126.373.084.686.182.938.294.252.103.434.196.546.28v2.128h-1.26v-1.806a.864.864 0 0 1 .266.07c.084.028.154.07.21.126a.525.525 0 0 1 .168.392c-.206-.215-.5-.392-.882-.532a3.488 3.488 0 0 0-1.274-.224c-.588 0-1.074.121-1.456.364-.383.233-.668.579-.854 1.036-.187.457-.28 1.008-.28 1.652 0 .495.051.933.154 1.316.102.383.256.705.462.966a2 2 0 0 0 .798.588c.317.131.695.196 1.134.196Zm5.868-8.372c-.271 0-.49-.075-.658-.224-.168-.149-.252-.373-.252-.672 0-.289.084-.509.252-.658.168-.149.387-.224.658-.224.261 0 .476.075.644.224.177.149.266.369.266.658 0 .299-.089.523-.266.672a.935.935 0 0 1-.644.224Zm.714 1.54v6.132c0 .289.107.481.322.574.215.093.504.14.868.14h.042V463h-3.696v-.672h.042c.364 0 .653-.047.868-.14.215-.093.322-.285.322-.574v-4.746c0-.205-.089-.341-.266-.406-.177-.075-.453-.149-.826-.224l-.14-.028v-.728h2.464Zm9.855 3.766c0 .793-.158 1.484-.476 2.072a3.235 3.235 0 0 1-1.316 1.358c-.56.317-1.218.476-1.974.476-.765 0-1.432-.159-2.002-.476a3.357 3.357 0 0 1-1.316-1.358c-.308-.588-.462-1.279-.462-2.072 0-.597.089-1.134.266-1.61.178-.485.434-.896.77-1.232a3.311 3.311 0 0 1 1.19-.784c.467-.187.985-.28 1.554-.28.57 0 1.083.093 1.54.28.458.177.854.439 1.19.784.336.336.593.747.77 1.232.178.476.266 1.013.266 1.61Zm-6.23 0c0 .672.094 1.237.28 1.694.187.457.462.803.826 1.036.364.224.817.336 1.358.336.542 0 .994-.112 1.358-.336.364-.233.635-.579.812-1.036.187-.457.28-1.022.28-1.694 0-.653-.093-1.204-.28-1.652-.177-.457-.448-.803-.812-1.036-.364-.243-.816-.364-1.358-.364-.541 0-.994.121-1.358.364-.364.233-.639.579-.826 1.036-.186.448-.28.999-.28 1.652Zm7.487 3.752v-.672h.042c.243 0 .453-.019.63-.056a.765.765 0 0 0 .406-.238c.093-.121.14-.285.14-.49v-4.676c0-.14-.042-.243-.126-.308a.817.817 0 0 0-.35-.182 6.63 6.63 0 0 0-.602-.14l-.14-.028v-.728h2.24l.168 1.596.056.07v5.04c0 .028.056.056.168.084.112.019.247.033.406.042.159.009.303.014.434.014h.056V463h-3.528Zm8.484 0h-3.528v-.672h.042c.131 0 .275-.005.434-.014.159-.009.294-.023.406-.042.121-.028.182-.056.182-.084v-4.578c0-.308-.042-.56-.126-.756a.79.79 0 0 0-.378-.434c-.177-.103-.415-.154-.714-.154-.308 0-.611.061-.91.182a3.196 3.196 0 0 0-.854.546 6.06 6.06 0 0 0-.826.938v-.756c.271-.401.555-.737.854-1.008.299-.271.616-.476.952-.616.345-.14.714-.21 1.106-.21.457 0 .84.079 1.148.238.317.149.56.383.728.7.177.308.266.7.266 1.176v4.088c0 .205.047.369.14.49a.765.765 0 0 0 .406.238c.177.037.387.056.63.056h.042V463Zm11.866-1.302c0 .205.103.341.308.406.215.065.495.117.84.154l.07.014V463h-2.24l-.168-1.638-.056-.014v-7.574c0-.14-.042-.243-.126-.308-.075-.075-.196-.135-.364-.182a6.383 6.383 0 0 0-.616-.14l-.14-.028v-.728h2.492v9.31Zm-3.71-6.356a2.68 2.68 0 0 1 1.974.812c.271.261.518.588.742.98l-.042.924a4.944 4.944 0 0 0-.742-1.036 2.516 2.516 0 0 0-.854-.616 2.487 2.487 0 0 0-1.008-.196c-.364 0-.686.07-.966.21-.28.131-.513.327-.7.588a2.762 2.762 0 0 0-.42.98c-.093.383-.14.821-.14 1.316 0 .476.042.901.126 1.274.093.373.224.691.392.952.177.252.401.443.672.574.271.131.588.196.952.196.392 0 .747-.065 1.064-.196.317-.14.611-.345.882-.616.271-.28.527-.625.77-1.036l.014.854a5.95 5.95 0 0 1-.77 1.008 2.952 2.952 0 0 1-.924.63c-.336.14-.719.21-1.148.21-.709 0-1.311-.159-1.806-.476a3.22 3.22 0 0 1-1.148-1.358c-.261-.579-.392-1.251-.392-2.016 0-.775.135-1.456.406-2.044a3.272 3.272 0 0 1 1.204-1.4c.523-.345 1.143-.518 1.862-.518Zm7.222 3.976c0 .541.061 1.003.182 1.386.131.383.313.691.546.924.233.233.499.406.798.518.308.112.639.168.994.168.392 0 .733-.07 1.022-.21.289-.14.537-.317.742-.532.215-.215.397-.443.546-.686l.672.546a3.533 3.533 0 0 1-.7.896 3.21 3.21 0 0 1-1.022.616 3.73 3.73 0 0 1-1.288.21c-.709 0-1.349-.149-1.918-.448a3.35 3.35 0 0 1-1.358-1.316c-.327-.579-.49-1.274-.49-2.086 0-.793.149-1.484.448-2.072.308-.597.723-1.059 1.246-1.386.532-.336 1.139-.504 1.82-.504.551 0 1.027.089 1.428.266.401.177.737.443 1.008.798.271.355.476.798.616 1.33s.21 1.153.21 1.862h-5.796v-.812h4.872l-.364.308a7.247 7.247 0 0 0-.154-1.344c-.075-.373-.191-.672-.35-.896a1.28 1.28 0 0 0-.588-.504 2.257 2.257 0 0 0-.882-.154c-.327 0-.63.065-.91.196a1.886 1.886 0 0 0-.714.574c-.196.261-.35.588-.462.98a5.431 5.431 0 0 0-.154 1.372Zm15.133 1.708a.906.906 0 0 0-.168-.56 1.12 1.12 0 0 0-.434-.364 3.441 3.441 0 0 0-.644-.238 14.07 14.07 0 0 0-.728-.182 10.048 10.048 0 0 1-.91-.238 3.636 3.636 0 0 1-.812-.392 1.853 1.853 0 0 1-.588-.616c-.14-.252-.21-.574-.21-.966 0-.429.107-.803.322-1.12.215-.317.527-.565.938-.742.411-.177.905-.266 1.484-.266.457 0 .854.028 1.19.084.345.047.63.112.854.196.233.075.406.145.518.21v1.75h-1.232v-1.442c.093 0 .173.014.238.042a.271.271 0 0 1 .168.112.487.487 0 0 1 .098.21c.028.075.037.168.028.28a1.18 1.18 0 0 0-.448-.336 2.51 2.51 0 0 0-.644-.21 3.905 3.905 0 0 0-.77-.07c-.551 0-.957.107-1.218.322-.252.205-.378.485-.378.84 0 .224.051.415.154.574.112.149.261.271.448.364.187.093.401.173.644.238.252.065.513.131.784.196.299.065.597.145.896.238.299.093.565.219.798.378.243.159.434.369.574.63.149.252.224.569.224.952 0 .429-.112.817-.336 1.162-.224.336-.555.602-.994.798-.439.196-.98.294-1.624.294-.467 0-.887-.033-1.26-.098a6.149 6.149 0 0 1-.98-.252 3.768 3.768 0 0 1-.728-.35v-1.834h1.26v1.932a1.318 1.318 0 0 1-.35-.21.64.64 0 0 1-.154-.224.752.752 0 0 1-.042-.238c0-.084.009-.168.028-.252.149.131.331.247.546.35.224.103.476.187.756.252.28.056.588.084.924.084.392 0 .719-.047.98-.14.261-.093.457-.233.588-.42.14-.196.21-.439.21-.728Zm4.618-5.544v5.39c0 .299.037.551.112.756.084.196.21.345.378.448.177.093.415.14.714.14a2.2 2.2 0 0 0 .882-.182c.289-.121.569-.303.84-.546.28-.243.555-.551.826-.924v.756a5.358 5.358 0 0 1-.84.994c-.29.271-.602.476-.938.616-.336.14-.7.21-1.092.21-.439 0-.822-.075-1.148-.224a1.632 1.632 0 0 1-.728-.714c-.168-.317-.252-.709-.252-1.176v-4.158a.443.443 0 0 0-.266-.434c-.178-.084-.448-.149-.812-.196l-.21-.028v-.728h2.534Zm4.746 0v6.216c0 .131.046.233.14.308a.944.944 0 0 0 .392.168c.177.037.382.065.616.084l.084.014V463h-2.254l-.168-1.638-.056-.084v-4.41a.442.442 0 0 0-.28-.434c-.178-.084-.453-.145-.826-.182l-.336-.042v-.728h2.688Zm6.96 5.544a.906.906 0 0 0-.168-.56 1.113 1.113 0 0 0-.434-.364 3.415 3.415 0 0 0-.644-.238 14.07 14.07 0 0 0-.728-.182 10.048 10.048 0 0 1-.91-.238 3.658 3.658 0 0 1-.812-.392 1.873 1.873 0 0 1-.588-.616c-.14-.252-.21-.574-.21-.966 0-.429.108-.803.322-1.12.215-.317.528-.565.938-.742.411-.177.906-.266 1.484-.266.458 0 .854.028 1.19.084.346.047.63.112.854.196.234.075.406.145.518.21v1.75h-1.232v-1.442a.6.6 0 0 1 .238.042.271.271 0 0 1 .168.112c.047.056.08.126.098.21.028.075.038.168.028.28a1.18 1.18 0 0 0-.448-.336 2.497 2.497 0 0 0-.644-.21 3.905 3.905 0 0 0-.77-.07c-.55 0-.956.107-1.218.322-.252.205-.378.485-.378.84 0 .224.052.415.154.574.112.149.262.271.448.364.187.093.402.173.644.238.252.065.514.131.784.196.299.065.598.145.896.238.299.093.565.219.798.378.243.159.434.369.574.63.15.252.224.569.224.952 0 .429-.112.817-.336 1.162-.224.336-.555.602-.994.798-.438.196-.98.294-1.624.294-.466 0-.886-.033-1.26-.098a6.177 6.177 0 0 1-.98-.252 3.797 3.797 0 0 1-.728-.35v-1.834h1.26v1.932a1.318 1.318 0 0 1-.35-.21.654.654 0 0 1-.154-.224.752.752 0 0 1-.042-.238c0-.084.01-.168.028-.252.15.131.332.247.546.35.224.103.476.187.756.252.28.056.588.084.924.084.392 0 .719-.047.98-.14.262-.093.458-.233.588-.42.14-.196.21-.439.21-.728Zm10.815 0a.906.906 0 0 0-.168-.56 1.128 1.128 0 0 0-.434-.364 3.468 3.468 0 0 0-.644-.238 14.33 14.33 0 0 0-.728-.182 9.962 9.962 0 0 1-.91-.238 3.616 3.616 0 0 1-.812-.392 1.853 1.853 0 0 1-.588-.616c-.14-.252-.21-.574-.21-.966 0-.429.107-.803.322-1.12.214-.317.527-.565.938-.742.41-.177.905-.266 1.484-.266.457 0 .854.028 1.19.084.345.047.63.112.854.196.233.075.406.145.518.21v1.75h-1.232v-1.442c.093 0 .172.014.238.042.074.019.13.056.168.112a.499.499 0 0 1 .098.21c.028.075.037.168.028.28a1.187 1.187 0 0 0-.448-.336 2.523 2.523 0 0 0-.644-.21 3.913 3.913 0 0 0-.77-.07c-.551 0-.957.107-1.218.322-.252.205-.378.485-.378.84 0 .224.051.415.154.574.112.149.261.271.448.364.186.093.401.173.644.238.252.065.513.131.784.196.298.065.597.145.896.238a3 3 0 0 1 .798.378c.242.159.434.369.574.63.149.252.224.569.224.952 0 .429-.112.817-.336 1.162-.224.336-.556.602-.994.798-.439.196-.98.294-1.624.294-.467 0-.887-.033-1.26-.098a6.149 6.149 0 0 1-.98-.252 3.768 3.768 0 0 1-.728-.35v-1.834h1.26v1.932a1.302 1.302 0 0 1-.35-.21.64.64 0 0 1-.154-.224.752.752 0 0 1-.042-.238c0-.084.009-.168.028-.252.149.131.331.247.546.35.224.103.476.187.756.252.28.056.588.084.924.084.392 0 .718-.047.98-.14.261-.093.457-.233.588-.42.14-.196.21-.439.21-.728Zm4.14-7.084c-.271 0-.49-.075-.658-.224-.168-.149-.252-.373-.252-.672 0-.289.084-.509.252-.658.168-.149.387-.224.658-.224.261 0 .476.075.644.224.177.149.266.369.266.658 0 .299-.089.523-.266.672a.935.935 0 0 1-.644.224Zm.714 1.54v6.132c0 .289.107.481.322.574.214.093.504.14.868.14h.042V463h-3.696v-.672h.042c.364 0 .653-.047.868-.14.214-.093.322-.285.322-.574v-4.746c0-.205-.089-.341-.266-.406-.178-.075-.453-.149-.826-.224l-.14-.028v-.728h2.464Zm2.225 7.518v-.672h.042c.243 0 .453-.019.63-.056a.765.765 0 0 0 .406-.238c.093-.121.14-.285.14-.49v-4.676c0-.14-.042-.243-.126-.308a.817.817 0 0 0-.35-.182 6.63 6.63 0 0 0-.602-.14l-.14-.028v-.728h2.24l.168 1.596.056.07v5.04c0 .028.056.056.168.084.112.019.247.033.406.042.159.009.303.014.434.014h.056V463h-3.528Zm8.484 0h-3.528v-.672h.042c.131 0 .275-.005.434-.014.159-.009.294-.023.406-.042.121-.028.182-.056.182-.084v-4.578c0-.308-.042-.56-.126-.756a.79.79 0 0 0-.378-.434c-.177-.103-.415-.154-.714-.154-.308 0-.611.061-.91.182a3.196 3.196 0 0 0-.854.546 6.06 6.06 0 0 0-.826.938v-.756c.271-.401.555-.737.854-1.008.299-.271.616-.476.952-.616.345-.14.714-.21 1.106-.21.457 0 .84.079 1.148.238.317.149.56.383.728.7.177.308.266.7.266 1.176v4.088c0 .205.047.369.14.49a.765.765 0 0 0 .406.238c.177.037.387.056.63.056h.042V463Zm.571-6.678v-.77h.154c.318 0 .584-.019.798-.056.215-.047.374-.135.476-.266.112-.131.168-.327.168-.588l.91.84h2.674v.84h-5.18Zm2.744 4.396c0 .392.056.7.168.924a.973.973 0 0 0 .49.476c.215.093.472.14.77.14.243 0 .467-.014.672-.042.206-.037.346-.065.42-.084v.84c-.093.028-.21.056-.35.084-.14.028-.284.051-.434.07a3.652 3.652 0 0 1-.462.028c-.438 0-.849-.065-1.232-.196a1.868 1.868 0 0 1-.938-.714c-.233-.355-.35-.859-.35-1.512v-5.04l.098-.112v-2.24h1.148v7.378Zm11.103-1.47c0 .793-.159 1.484-.476 2.072a3.24 3.24 0 0 1-1.316 1.358c-.56.317-1.218.476-1.974.476-.766 0-1.433-.159-2.002-.476a3.35 3.35 0 0 1-1.316-1.358c-.308-.588-.462-1.279-.462-2.072 0-.597.088-1.134.266-1.61a3.33 3.33 0 0 1 .77-1.232 3.302 3.302 0 0 1 1.19-.784c.466-.187.984-.28 1.554-.28a4.04 4.04 0 0 1 1.54.28c.457.177.854.439 1.19.784.336.336.592.747.77 1.232.177.476.266 1.013.266 1.61Zm-6.23 0c0 .672.093 1.237.28 1.694.186.457.462.803.826 1.036.364.224.816.336 1.358.336.541 0 .994-.112 1.358-.336.364-.233.634-.579.812-1.036.186-.457.28-1.022.28-1.694 0-.653-.094-1.204-.28-1.652-.178-.457-.448-.803-.812-1.036-.364-.243-.817-.364-1.358-.364-.542 0-.994.121-1.358.364-.364.233-.64.579-.826 1.036-.187.448-.28.999-.28 1.652Zm7.486 3.752v-.672h.042c.364 0 .649-.051.854-.154.215-.103.322-.313.322-.63v-4.676c0-.14-.042-.243-.126-.308a.81.81 0 0 0-.35-.182 6.55 6.55 0 0 0-.602-.14l-.14-.028v-.728h2.226l.168 1.582.07.084v5.04c0 .028.056.056.168.084.112.019.243.033.392.042.159.009.299.014.42.014h.056V463h-3.5Zm7.952 0h-3.318v-.672h.042c.131 0 .271-.005.42-.014.159-.009.294-.023.406-.042.112-.028.168-.056.168-.084v-4.578a2.36 2.36 0 0 0-.098-.742.778.778 0 0 0-.322-.448c-.149-.103-.359-.154-.63-.154-.289 0-.564.061-.826.182a3.066 3.066 0 0 0-.784.546 6.963 6.963 0 0 0-.812.882l.014-.812c.271-.364.542-.672.812-.924a2.99 2.99 0 0 1 .896-.588c.318-.14.663-.21 1.036-.21.411 0 .761.079 1.05.238.299.149.523.383.672.7.159.308.238.7.238 1.176v4.732c0 .028.052.056.154.084.112.019.248.033.406.042.159.009.304.014.434.014h.042V463Zm4.648 0h-3.514v-.672h.056c.131 0 .271-.005.42-.014a3.14 3.14 0 0 0 .378-.042c.112-.028.168-.056.168-.084v-4.578a2.36 2.36 0 0 0-.098-.742.778.778 0 0 0-.322-.448c-.149-.103-.354-.154-.616-.154a2.04 2.04 0 0 0-.84.182 3.066 3.066 0 0 0-.784.546 7.694 7.694 0 0 0-.798.882v-.812a7.61 7.61 0 0 1 .826-.924c.28-.261.574-.457.882-.588.318-.14.663-.21 1.036-.21.42 0 .775.079 1.064.238.29.149.509.383.658.7.159.308.238.7.238 1.176v4.088c0 .317.108.527.322.63.215.103.504.154.868.154h.056V463Zm6.059-4.578v.742c-.569.075-1.059.159-1.47.252a6.44 6.44 0 0 0-1.022.308 2.299 2.299 0 0 0-.644.378 1.17 1.17 0 0 0-.336.476 1.655 1.655 0 0 0-.098.574c0 .261.051.481.154.658.112.177.266.313.462.406.196.084.425.126.686.126.299 0 .574-.07.826-.21.252-.14.495-.35.728-.63.233-.28.462-.63.686-1.05l.014.826a4.282 4.282 0 0 1-.658.994 2.72 2.72 0 0 1-.84.658 2.381 2.381 0 0 1-1.05.224c-.448 0-.845-.075-1.19-.224a1.892 1.892 0 0 1-.812-.686c-.196-.299-.294-.658-.294-1.078 0-.392.089-.733.266-1.022.177-.289.457-.541.84-.756.392-.215.896-.401 1.512-.56a18.51 18.51 0 0 1 2.24-.406Zm-.028 4.578-.168-1.624-.07-.084v-3.654c0-.355-.047-.639-.14-.854a.854.854 0 0 0-.476-.462c-.215-.093-.509-.14-.882-.14-.56 0-1.017.079-1.372.238-.355.159-.621.327-.798.504 0-.075.019-.149.056-.224a.734.734 0 0 1 .154-.224.83.83 0 0 1 .224-.182c.093-.047.196-.079.308-.098v1.624h-1.232v-1.708c.131-.103.317-.21.56-.322.252-.121.56-.224.924-.308.364-.093.775-.14 1.232-.14.373 0 .723.037 1.05.112.327.075.611.196.854.364.243.168.434.387.574.658.14.271.21.602.21.994v4.228c0 .131.047.233.14.308a.944.944 0 0 0 .392.168c.168.028.373.056.616.084l.07.014V463h-2.226Zm7.868-1.974a.906.906 0 0 0-.168-.56 1.12 1.12 0 0 0-.434-.364 3.441 3.441 0 0 0-.644-.238 14.07 14.07 0 0 0-.728-.182 10.048 10.048 0 0 1-.91-.238 3.636 3.636 0 0 1-.812-.392 1.853 1.853 0 0 1-.588-.616c-.14-.252-.21-.574-.21-.966 0-.429.107-.803.322-1.12.215-.317.527-.565.938-.742.411-.177.905-.266 1.484-.266.457 0 .854.028 1.19.084.345.047.63.112.854.196.233.075.406.145.518.21v1.75h-1.232v-1.442c.093 0 .173.014.238.042a.271.271 0 0 1 .168.112.487.487 0 0 1 .098.21c.028.075.037.168.028.28a1.18 1.18 0 0 0-.448-.336 2.51 2.51 0 0 0-.644-.21 3.905 3.905 0 0 0-.77-.07c-.551 0-.957.107-1.218.322-.252.205-.378.485-.378.84 0 .224.051.415.154.574.112.149.261.271.448.364.187.093.401.173.644.238.252.065.513.131.784.196.299.065.597.145.896.238.299.093.565.219.798.378.243.159.434.369.574.63.149.252.224.569.224.952 0 .429-.112.817-.336 1.162-.224.336-.555.602-.994.798-.439.196-.98.294-1.624.294-.467 0-.887-.033-1.26-.098a6.149 6.149 0 0 1-.98-.252 3.768 3.768 0 0 1-.728-.35v-1.834h1.26v1.932a1.318 1.318 0 0 1-.35-.21.64.64 0 0 1-.154-.224.752.752 0 0 1-.042-.238c0-.084.009-.168.028-.252.149.131.331.247.546.35.224.103.476.187.756.252.28.056.588.084.924.084.392 0 .719-.047.98-.14.261-.093.457-.233.588-.42.14-.196.21-.439.21-.728Zm3.79 2.086a1.1 1.1 0 0 1-.77-.28.94.94 0 0 1-.308-.728.94.94 0 0 1 .308-.728 1.1 1.1 0 0 1 .77-.28c.327 0 .593.093.798.28a.94.94 0 0 1 .308.728.94.94 0 0 1-.308.728c-.205.187-.471.28-.798.28Z"/>
  <g clip-path="url(#f)">
    <path fill="#000" d="M807 482c-5.52 0-10 4.48-10 10s4.48 10 10 10 10-4.48 10-10-4.48-10-10-10Zm1 15h-2v-2h2v2Zm0-4h-2v-6h2v6Z"/>
  </g>
  <rect width="262" height="168" x="525.5" y="471.5" fill="#fff" stroke="#000" rx="9.5"/>
  <defs>
    <clipPath id="a">
      <path fill="#fff" d="M494 361h329v61H494z"/>
    </clipPath>
    <clipPath id="b">
      <path fill="#fff" d="M527 361h263v61H527z"/>
    </clipPath>
    <clipPath id="c">
      <path fill="#fff" d="M795 375h24v24h-24z"/>
    </clipPath>
    <clipPath id="d">
      <path fill="#fff" d="M492.399 281H793v61H492.399z"/>
    </clipPath>
    <clipPath id="e">
      <path fill="#fff" d="M525.399 281H793v61H525.399z"/>
    </clipPath>
    <clipPath id="f">
      <path fill="#fff" d="M795 480h24v24h-24z"/>
    </clipPath>
  </defs>
</svg>
