<svg xmlns="http://www.w3.org/2000/svg" width="1152" height="819" fill="none" viewBox="0 0 1152 819">
  <path fill="#fff" d="M40 42a2 2 0 0 1 2-2h1068c1.1 0 2 .895 2 2v735c0 1.105-.9 2-2 2H42a2 2 0 0 1-2-2V42Z"/>
  <path fill="#000" fill-opacity=".1" d="M42 41h1068v-2H42v2Zm1069 1v735h2V42h-2Zm-1 736H42v2h1068v-2ZM41 777V42h-2v735h2Zm1 1a1 1 0 0 1-1-1h-2a3 3 0 0 0 3 3v-2Zm1069-1c0 .552-.45 1-1 1v2c1.66 0 3-1.343 3-3h-2Zm-1-736c.55 0 1 .448 1 1h2c0-1.657-1.34-3-3-3v2ZM42 39a3 3 0 0 0-3 3h2a1 1 0 0 1 1-1v-2Z"/>
  <path fill="#F5F5F5" stroke="#000" d="M405 210.5h340a9.5 9.5 0 0 1 9.5 9.5v36a9.5 9.5 0 0 1-9.5 9.5H405a9.5 9.5 0 0 1-9.5-9.5v-36a9.5 9.5 0 0 1 9.5-9.5Z"/>
  <path fill="#000" d="M433.383 241.125c0-.266-.042-.5-.125-.703a1.345 1.345 0 0 0-.422-.563c-.198-.166-.474-.325-.828-.476a11.543 11.543 0 0 0-1.328-.461 12.261 12.261 0 0 1-1.524-.555 5.3 5.3 0 0 1-1.164-.711 2.796 2.796 0 0 1-.742-.914 2.603 2.603 0 0 1-.258-1.18c0-.442.091-.851.274-1.226.182-.375.442-.701.781-.977.344-.281.752-.5 1.226-.656a5.056 5.056 0 0 1 1.586-.234c.855 0 1.579.164 2.172.492.599.323 1.055.747 1.367 1.273a3.19 3.19 0 0 1 .469 1.672h-1.5a2.3 2.3 0 0 0-.273-1.133 1.895 1.895 0 0 0-.828-.781c-.37-.193-.839-.289-1.407-.289-.536 0-.979.081-1.328.242-.349.162-.609.381-.781.657-.167.276-.25.591-.25.945 0 .239.049.458.148.656.105.193.263.373.477.539.219.167.495.32.828.461.339.141.742.276 1.211.406.646.183 1.203.386 1.672.61.469.224.854.476 1.156.758.307.276.534.591.68.945.151.349.226.745.226 1.187 0 .464-.093.883-.281 1.258a2.734 2.734 0 0 1-.805.961 3.874 3.874 0 0 1-1.257.617 5.811 5.811 0 0 1-1.625.211 5.663 5.663 0 0 1-1.555-.218 4.638 4.638 0 0 1-1.383-.657 3.437 3.437 0 0 1-.992-1.078c-.245-.432-.367-.932-.367-1.5h1.5c0 .391.075.727.226 1.008.151.276.357.505.618.687.265.183.565.318.898.407.339.083.69.125 1.055.125.526 0 .971-.073 1.336-.219.364-.146.64-.354.828-.625a1.62 1.62 0 0 0 .289-.961Zm7.226 3.031a4.155 4.155 0 0 1-1.601-.297 3.64 3.64 0 0 1-1.227-.851 3.796 3.796 0 0 1-.781-1.297 4.764 4.764 0 0 1-.273-1.641v-.328c0-.687.101-1.299.304-1.836.203-.541.479-1 .828-1.375a3.535 3.535 0 0 1 1.188-.851 3.407 3.407 0 0 1 1.375-.289c.604 0 1.125.104 1.562.312.443.208.805.5 1.086.875.282.37.49.807.625 1.313.136.5.203 1.047.203 1.64v.649h-6.312V239h4.867v-.109a3.622 3.622 0 0 0-.234-1.094 1.968 1.968 0 0 0-.625-.875c-.287-.229-.677-.344-1.172-.344a1.962 1.962 0 0 0-1.617.82 3.061 3.061 0 0 0-.461.993c-.11.39-.164.841-.164 1.351v.328c0 .401.054.779.164 1.133.114.349.278.656.492.922.219.266.482.474.789.625.313.151.667.227 1.063.227.51 0 .942-.105 1.296-.313.355-.208.664-.487.93-.836l.875.695a4.041 4.041 0 0 1-.695.789c-.282.25-.628.454-1.039.61-.407.156-.888.234-1.446.234Zm10.461-1.601v-4.352c0-.333-.067-.622-.203-.867a1.325 1.325 0 0 0-.594-.578c-.265-.136-.593-.203-.984-.203-.365 0-.685.062-.961.187a1.669 1.669 0 0 0-.64.492 1.076 1.076 0 0 0-.227.657h-1.445c0-.302.078-.602.234-.899a2.61 2.61 0 0 1 .672-.804 3.367 3.367 0 0 1 1.062-.579 4.215 4.215 0 0 1 1.391-.218c.615 0 1.156.104 1.625.312.474.208.844.524 1.109.945.271.417.407.941.407 1.571v3.937c0 .282.023.581.07.899.052.317.128.591.226.82V244h-1.507a2.67 2.67 0 0 1-.172-.664 5.314 5.314 0 0 1-.063-.781Zm.25-3.68.016 1.016h-1.461c-.411 0-.779.033-1.102.101a2.543 2.543 0 0 0-.812.289 1.38 1.38 0 0 0-.5.492c-.115.193-.172.42-.172.68 0 .266.06.508.18.727.12.218.299.393.539.523.245.125.544.188.898.188.443 0 .834-.094 1.172-.282.339-.187.607-.416.805-.687.203-.271.312-.534.328-.789l.617.695c-.036.219-.135.461-.297.727a3.521 3.521 0 0 1-1.601 1.367 3.112 3.112 0 0 1-1.235.234c-.573 0-1.075-.112-1.507-.336a2.567 2.567 0 0 1-1-.898 2.374 2.374 0 0 1-.352-1.274c0-.453.088-.851.266-1.195.177-.349.432-.638.765-.867a3.641 3.641 0 0 1 1.203-.531c.469-.12.992-.18 1.571-.18h1.679Zm5.414-2V244h-1.445v-8.453h1.406l.039 1.328Zm2.641-1.375-.008 1.344a2.068 2.068 0 0 0-.344-.047 3.468 3.468 0 0 0-.359-.016c-.333 0-.628.052-.883.157-.255.104-.471.25-.648.437a2.092 2.092 0 0 0-.422.672 3.21 3.21 0 0 0-.195.844l-.407.234c0-.51.05-.99.149-1.437.104-.448.263-.844.476-1.188.214-.349.485-.62.813-.812.333-.198.729-.297 1.187-.297.105 0 .224.013.36.039.135.021.229.044.281.07Zm5.063 7.469c.343 0 .661-.071.953-.211.291-.141.531-.334.718-.578.188-.25.295-.534.321-.852h1.375c-.026.5-.196.966-.508 1.399a3.47 3.47 0 0 1-1.211 1.039c-.5.26-1.05.39-1.648.39-.636 0-1.191-.112-1.665-.336a3.294 3.294 0 0 1-1.171-.922 4.094 4.094 0 0 1-.696-1.343 5.677 5.677 0 0 1-.226-1.617v-.329c0-.567.075-1.104.226-1.609a4.1 4.1 0 0 1 .696-1.352c.312-.39.703-.697 1.171-.921.474-.224 1.029-.336 1.665-.336.661 0 1.239.135 1.734.406.495.265.883.63 1.164 1.094.286.458.443.979.469 1.562h-1.375a2.078 2.078 0 0 0-.297-.945 1.857 1.857 0 0 0-.688-.672 1.917 1.917 0 0 0-1.007-.258c-.443 0-.816.089-1.118.266a1.956 1.956 0 0 0-.711.703 3.307 3.307 0 0 0-.375.976 5.377 5.377 0 0 0-.109 1.086v.329c0 .369.036.734.109 1.093.073.36.196.685.368.977.177.291.414.526.71.703.303.172.678.258 1.126.258ZM471.375 232v12h-1.445v-12h1.445Zm-.344 7.453-.601-.023a5.075 5.075 0 0 1 .258-1.602c.166-.495.401-.924.703-1.289a3.125 3.125 0 0 1 2.476-1.148c.417 0 .792.057 1.125.171.334.11.617.287.852.532.239.245.422.562.547.953.125.385.187.857.187 1.414V244h-1.453v-5.555c0-.442-.065-.797-.195-1.062a1.206 1.206 0 0 0-.571-.586c-.25-.125-.557-.188-.921-.188-.36 0-.688.076-.985.227a2.351 2.351 0 0 0-.758.625c-.208.266-.372.57-.492.914a3.359 3.359 0 0 0-.172 1.078Zm248.557 3.704h-1.807l-.64-.617a14.8 14.8 0 0 0 3.59-9.674c0-8.211-6.655-14.866-14.865-14.866-8.211 0-14.866 6.655-14.866 14.866 0 8.21 6.655 14.865 14.866 14.865a14.8 14.8 0 0 0 9.674-3.59l.617.64v1.807L727.592 258l3.408-3.408-11.412-11.435Zm-13.722 0a10.278 10.278 0 0 1-10.292-10.291 10.278 10.278 0 0 1 10.292-10.292 10.278 10.278 0 0 1 10.291 10.292 10.278 10.278 0 0 1-10.291 10.291Z"/>
  <path stroke="#000" d="M756 279v7.425H590M424 279v7.425h166m0 0V321"/>
  <path fill="#fff" stroke="#000" d="M443.5 321.5h292v129h-292z"/>
  <path fill="#000" d="M459.624 338.192c-.907 0-1.68-.171-2.32-.512a5.01 5.01 0 0 1-1.632-1.44l.992-.832c.395.523.832.923 1.312 1.2.48.267 1.045.4 1.696.4.8 0 1.408-.192 1.824-.576.427-.384.64-.896.64-1.536 0-.533-.16-.944-.48-1.232-.32-.288-.848-.517-1.584-.688l-.912-.208c-1.024-.235-1.808-.587-2.352-1.056-.533-.48-.8-1.152-.8-2.016 0-.491.091-.928.272-1.312.181-.384.432-.704.752-.96.331-.256.72-.448 1.168-.576.459-.139.96-.208 1.504-.208.843 0 1.563.155 2.16.464.608.309 1.12.763 1.536 1.36l-1.008.736a3.467 3.467 0 0 0-1.12-1.008c-.437-.245-.981-.368-1.632-.368-.715 0-1.28.155-1.696.464-.405.299-.608.752-.608 1.36 0 .533.171.939.512 1.216.352.267.88.48 1.584.64l.912.208c1.099.245 1.893.619 2.384 1.12.491.501.736 1.168.736 2 0 .512-.091.976-.272 1.392a2.777 2.777 0 0 1-.752 1.056 3.525 3.525 0 0 1-1.216.672c-.469.16-1.003.24-1.6.24Zm9.137 0a3.757 3.757 0 0 1-1.536-.304 3.45 3.45 0 0 1-1.168-.864 4.294 4.294 0 0 1-.752-1.36 5.854 5.854 0 0 1-.256-1.792c0-.651.085-1.243.256-1.776.181-.533.432-.987.752-1.36.331-.384.72-.677 1.168-.88a3.757 3.757 0 0 1 1.536-.304c.555 0 1.051.101 1.488.304a3.25 3.25 0 0 1 1.12.848c.309.352.544.773.704 1.264.171.491.256 1.029.256 1.616v.608h-5.936v.384c0 .352.053.683.16.992.117.299.277.56.48.784.213.224.469.4.768.528.309.128.656.192 1.04.192.523 0 .976-.123 1.36-.368.395-.245.699-.597.912-1.056l.912.656a3.229 3.229 0 0 1-1.248 1.376c-.565.341-1.237.512-2.016.512Zm0-7.568c-.352 0-.672.064-.96.192a2.136 2.136 0 0 0-.752.512 2.49 2.49 0 0 0-.48.8 2.698 2.698 0 0 0-.176.992v.112h4.56v-.176c0-.736-.203-1.323-.608-1.76-.395-.448-.923-.672-1.584-.672Zm12.562 7.568a3.757 3.757 0 0 1-1.536-.304 3.45 3.45 0 0 1-1.168-.864 4.314 4.314 0 0 1-.752-1.36 5.884 5.884 0 0 1-.256-1.792c0-.651.086-1.243.256-1.776.182-.533.432-.987.752-1.36.331-.384.72-.677 1.168-.88a3.757 3.757 0 0 1 1.536-.304c.555 0 1.051.101 1.488.304a3.24 3.24 0 0 1 1.12.848c.31.352.544.773.704 1.264.171.491.256 1.029.256 1.616v.608h-5.936v.384c0 .352.054.683.16.992.118.299.278.56.48.784.214.224.47.4.768.528a2.7 2.7 0 0 0 1.04.192c.523 0 .976-.123 1.36-.368.395-.245.699-.597.912-1.056l.912.656a3.216 3.216 0 0 1-1.248 1.376c-.565.341-1.237.512-2.016.512Zm0-7.568c-.352 0-.672.064-.96.192a2.145 2.145 0 0 0-.752.512 2.527 2.527 0 0 0-.48.8 2.698 2.698 0 0 0-.176.992v.112h4.56v-.176c0-.736-.202-1.323-.608-1.76-.394-.448-.922-.672-1.584-.672Zm5.678 7.376v-8.256h1.28v1.344h.064c.202-.469.485-.843.848-1.12.373-.277.869-.416 1.488-.416.853 0 1.525.277 2.016.832.501.544.752 1.317.752 2.32V338h-1.28v-5.072c0-1.483-.624-2.224-1.872-2.224-.256 0-.507.032-.752.096-.235.064-.448.16-.64.288a1.47 1.47 0 0 0-.464.496c-.107.192-.16.421-.16.688V338h-1.28Zm12.165.192a3.797 3.797 0 0 1-1.552-.304 3.257 3.257 0 0 1-1.168-.864 4.042 4.042 0 0 1-.72-1.36 6.227 6.227 0 0 1-.24-1.792c0-.661.08-1.259.24-1.792.171-.533.411-.987.72-1.36.32-.373.71-.661 1.168-.864a3.797 3.797 0 0 1 1.552-.304c.822 0 1.478.181 1.968.544.502.352.875.816 1.12 1.392l-1.072.544a1.937 1.937 0 0 0-.736-.992c-.341-.235-.768-.352-1.28-.352-.384 0-.72.064-1.008.192a1.848 1.848 0 0 0-.72.512 2.07 2.07 0 0 0-.432.784 3.23 3.23 0 0 0-.144.992v1.408c0 .725.192 1.323.576 1.792.395.459.971.688 1.728.688 1.035 0 1.782-.48 2.24-1.44l.928.624a3.254 3.254 0 0 1-1.2 1.424c-.522.352-1.178.528-1.968.528Zm8.002 0a3.711 3.711 0 0 1-1.52-.304 3.396 3.396 0 0 1-1.184-.864 4.294 4.294 0 0 1-.752-1.36c-.182-.533-.272-1.131-.272-1.792 0-.651.09-1.243.272-1.776.181-.533.432-.987.752-1.36.33-.384.725-.677 1.184-.88a3.711 3.711 0 0 1 1.52-.304c.554 0 1.056.101 1.504.304.458.203.853.496 1.184.88.33.373.586.827.768 1.36.181.533.272 1.125.272 1.776 0 .661-.091 1.259-.272 1.792a4.158 4.158 0 0 1-.768 1.36 3.415 3.415 0 0 1-1.184.864c-.448.203-.95.304-1.504.304Zm0-1.136c.693 0 1.258-.213 1.696-.64.437-.427.656-1.077.656-1.952v-1.184c0-.875-.219-1.525-.656-1.952-.438-.427-1.003-.64-1.696-.64-.694 0-1.259.213-1.696.64-.438.427-.656 1.077-.656 1.952v1.184c0 .875.218 1.525.656 1.952.437.427 1.002.64 1.696.64Zm5.833.944v-8.256h1.28v1.344h.064c.202-.469.485-.843.848-1.12.373-.277.869-.416 1.488-.416.853 0 1.525.277 2.016.832.501.544.752 1.317.752 2.32V338h-1.28v-5.072c0-1.483-.624-2.224-1.872-2.224-.256 0-.507.032-.752.096-.235.064-.448.16-.64.288a1.47 1.47 0 0 0-.464.496c-.107.192-.16.421-.16.688V338h-1.28Zm10.917 0c-.448 0-.789-.123-1.024-.368-.224-.256-.336-.587-.336-.992v-5.776h-1.36v-1.12h.768c.278 0 .464-.053.56-.16.107-.117.16-.315.16-.592v-1.536h1.152v2.288h1.808v1.12h-1.808v6.016h1.68V338h-1.6Zm3.786 0v-8.256h1.28v1.52h.08c.149-.395.416-.747.8-1.056.384-.309.912-.464 1.584-.464h.496v1.28h-.752c-.694 0-1.238.133-1.632.4-.384.256-.576.581-.576.976v5.6h-1.28Zm11.812 0c-.48 0-.826-.128-1.04-.384-.202-.256-.33-.576-.384-.96h-.08c-.181.512-.48.896-.896 1.152-.416.256-.912.384-1.488.384-.874 0-1.557-.224-2.048-.672-.48-.448-.72-1.056-.72-1.824 0-.779.283-1.376.848-1.792.576-.416 1.467-.624 2.672-.624h1.632v-.816c0-.587-.16-1.035-.48-1.344-.32-.309-.81-.464-1.472-.464-.501 0-.922.112-1.264.336-.33.224-.608.523-.832.896l-.768-.72c.224-.448.582-.827 1.072-1.136.491-.32 1.11-.48 1.856-.48 1.003 0 1.782.245 2.336.736.555.491.832 1.173.832 2.048v4.544h.944V338h-.72Zm-3.68-.896c.32 0 .614-.037.88-.112.267-.075.496-.181.688-.32.192-.139.342-.299.448-.48.107-.181.16-.379.16-.592v-1.36h-1.696c-.736 0-1.274.107-1.616.32-.33.213-.496.523-.496.928v.336c0 .405.144.72.432.944.299.224.699.336 1.2.336Zm6.227.896v-8.256h1.28v1.52h.08c.149-.395.416-.747.8-1.056.384-.309.912-.464 1.584-.464h.496v1.28h-.752c-.693 0-1.237.133-1.632.4-.384.256-.576.581-.576.976v5.6h-1.28Zm11.813 0c-.48 0-.827-.128-1.04-.384-.203-.256-.331-.576-.384-.96h-.08c-.182.512-.48.896-.896 1.152-.416.256-.912.384-1.488.384-.875 0-1.558-.224-2.048-.672-.48-.448-.72-1.056-.72-1.824 0-.779.282-1.376.848-1.792.576-.416 1.466-.624 2.672-.624h1.632v-.816c0-.587-.16-1.035-.48-1.344-.32-.309-.811-.464-1.472-.464-.502 0-.923.112-1.264.336a2.804 2.804 0 0 0-.832.896l-.768-.72c.224-.448.581-.827 1.072-1.136.49-.32 1.109-.48 1.856-.48 1.002 0 1.781.245 2.336.736.554.491.832 1.173.832 2.048v4.544h.944V338h-.72Zm-3.68-.896c.32 0 .613-.037.88-.112.266-.075.496-.181.688-.32.192-.139.341-.299.448-.48.106-.181.16-.379.16-.592v-1.36h-1.696c-.736 0-1.275.107-1.616.32-.331.213-.496.523-.496.928v.336c0 .405.144.72.432.944.298.224.698.336 1.2.336Zm.48-8.464-.832-.384 1.36-2.72 1.168.56-1.696 2.544Zm12.632 9.552a3.75 3.75 0 0 1-1.536-.304 3.44 3.44 0 0 1-1.168-.864 4.294 4.294 0 0 1-.752-1.36 5.854 5.854 0 0 1-.256-1.792c0-.651.085-1.243.256-1.776.181-.533.432-.987.752-1.36.33-.384.72-.677 1.168-.88a3.75 3.75 0 0 1 1.536-.304c.554 0 1.05.101 1.488.304.437.203.81.485 1.12.848.309.352.544.773.704 1.264.17.491.256 1.029.256 1.616v.608h-5.936v.384c0 .352.053.683.16.992.117.299.277.56.48.784.213.224.469.4.768.528.309.128.656.192 1.04.192.522 0 .976-.123 1.36-.368a2.4 2.4 0 0 0 .912-1.056l.912.656a3.229 3.229 0 0 1-1.248 1.376c-.566.341-1.238.512-2.016.512Zm0-7.568c-.352 0-.672.064-.96.192a2.136 2.136 0 0 0-.752.512 2.49 2.49 0 0 0-.48.8 2.678 2.678 0 0 0-.176.992v.112h4.56v-.176c0-.736-.203-1.323-.608-1.76-.395-.448-.923-.672-1.584-.672Zm5.677 7.376v-8.256h1.28v1.344h.064c.203-.469.485-.843.848-1.12.373-.277.869-.416 1.488-.416.853 0 1.525.277 2.016.832.501.544.752 1.317.752 2.32V338h-1.28v-5.072c0-1.483-.624-2.224-1.872-2.224-.256 0-.507.032-.752.096-.235.064-.448.16-.64.288a1.47 1.47 0 0 0-.464.496c-.107.192-.16.421-.16.688V338h-1.28Zm14.699 0c-.448 0-.789-.123-1.024-.368-.224-.256-.336-.587-.336-.992v-5.776h-1.36v-1.12h.768c.277 0 .464-.053.56-.16.107-.117.16-.315.16-.592v-1.536h1.152v2.288h1.808v1.12h-1.808v6.016h1.68V338h-1.6Zm6.843.192a3.714 3.714 0 0 1-1.52-.304 3.405 3.405 0 0 1-1.184-.864 4.294 4.294 0 0 1-.752-1.36 5.554 5.554 0 0 1-.272-1.792c0-.651.091-1.243.272-1.776.181-.533.432-.987.752-1.36a3.315 3.315 0 0 1 1.184-.88 3.714 3.714 0 0 1 1.52-.304c.555 0 1.056.101 1.504.304.459.203.853.496 1.184.88.331.373.587.827.768 1.36.181.533.272 1.125.272 1.776 0 .661-.091 1.259-.272 1.792a4.122 4.122 0 0 1-.768 1.36 3.405 3.405 0 0 1-1.184.864 3.602 3.602 0 0 1-1.504.304Zm0-1.136c.693 0 1.259-.213 1.696-.64.437-.427.656-1.077.656-1.952v-1.184c0-.875-.219-1.525-.656-1.952-.437-.427-1.003-.64-1.696-.64-.693 0-1.259.213-1.696.64-.437.427-.656 1.077-.656 1.952v1.184c0 .875.219 1.525.656 1.952.437.427 1.003.64 1.696.64Zm11.113-.4h-.064c-.501 1.024-1.307 1.536-2.416 1.536-.512 0-.976-.101-1.392-.304a3.11 3.11 0 0 1-1.072-.864 4.16 4.16 0 0 1-.672-1.36 6.657 6.657 0 0 1-.224-1.792c0-.661.075-1.259.224-1.792a4.16 4.16 0 0 1 .672-1.36 3.11 3.11 0 0 1 1.072-.864c.416-.203.88-.304 1.392-.304.576 0 1.067.128 1.472.384.416.245.731.629.944 1.152h.064v-4.928h1.28V338h-1.28v-1.344Zm-2.128.384c.288 0 .56-.037.816-.112.267-.075.496-.181.688-.32a1.62 1.62 0 0 0 .448-.528 1.47 1.47 0 0 0 .176-.72v-3.072c0-.224-.059-.432-.176-.624a1.474 1.474 0 0 0-.448-.512 2.154 2.154 0 0 0-.688-.32 2.573 2.573 0 0 0-.816-.128c-.725 0-1.296.229-1.712.688-.416.448-.624 1.04-.624 1.776v1.408c0 .736.208 1.333.624 1.792.416.448.987.672 1.712.672Zm12.129.96c-.48 0-.826-.128-1.04-.384-.202-.256-.33-.576-.384-.96h-.08c-.181.512-.48.896-.896 1.152-.416.256-.912.384-1.488.384-.874 0-1.557-.224-2.048-.672-.48-.448-.72-1.056-.72-1.824 0-.779.283-1.376.848-1.792.576-.416 1.467-.624 2.672-.624h1.632v-.816c0-.587-.16-1.035-.48-1.344-.32-.309-.81-.464-1.472-.464-.501 0-.922.112-1.264.336-.33.224-.608.523-.832.896l-.768-.72c.224-.448.582-.827 1.072-1.136.491-.32 1.11-.48 1.856-.48 1.003 0 1.782.245 2.336.736.555.491.832 1.173.832 2.048v4.544h.944V338h-.72Zm-3.68-.896c.32 0 .614-.037.88-.112.267-.075.496-.181.688-.32.192-.139.342-.299.448-.48.107-.181.16-.379.16-.592v-1.36h-1.696c-.736 0-1.274.107-1.616.32-.33.213-.496.523-.496.928v.336c0 .405.144.72.432.944.299.224.699.336 1.2.336Zm8.707 1.088c-.768 0-1.413-.144-1.936-.432a4.518 4.518 0 0 1-1.328-1.184l.912-.736c.32.405.677.72 1.072.944.395.213.853.32 1.376.32.544 0 .965-.117 1.264-.352.309-.235.464-.565.464-.992 0-.32-.107-.592-.32-.816-.203-.235-.576-.395-1.12-.48l-.656-.096a5.854 5.854 0 0 1-1.056-.24 3.36 3.36 0 0 1-.848-.448 2.13 2.13 0 0 1-.56-.704c-.128-.277-.192-.608-.192-.992 0-.405.075-.757.224-1.056.149-.309.352-.565.608-.768.267-.203.581-.352.944-.448.363-.107.752-.16 1.168-.16.672 0 1.232.117 1.68.352.459.235.859.56 1.2.976l-.848.768c-.181-.256-.448-.485-.8-.688-.352-.213-.795-.32-1.328-.32s-.939.117-1.216.352c-.267.224-.4.533-.4.928 0 .405.133.699.4.88.277.181.672.315 1.184.4l.64.096c.917.139 1.568.405 1.952.8.384.384.576.891.576 1.52 0 .8-.272 1.429-.816 1.888-.544.459-1.291.688-2.24.688Zm10.458-.192c-.448 0-.789-.123-1.024-.368-.224-.256-.336-.576-.336-.96V326.16h1.28v10.72h1.216V338h-1.136Zm9 0c-.48 0-.827-.128-1.04-.384-.203-.256-.331-.576-.384-.96h-.08c-.182.512-.48.896-.896 1.152-.416.256-.912.384-1.488.384-.875 0-1.558-.224-2.048-.672-.48-.448-.72-1.056-.72-1.824 0-.779.282-1.376.848-1.792.576-.416 1.466-.624 2.672-.624h1.632v-.816c0-.587-.16-1.035-.48-1.344-.32-.309-.811-.464-1.472-.464-.502 0-.923.112-1.264.336a2.804 2.804 0 0 0-.832.896l-.768-.72c.224-.448.581-.827 1.072-1.136.49-.32 1.109-.48 1.856-.48 1.002 0 1.781.245 2.336.736.554.491.832 1.173.832 2.048v4.544h.944V338h-.72Zm-3.68-.896c.32 0 .613-.037.88-.112.266-.075.496-.181.688-.32.192-.139.341-.299.448-.48.106-.181.16-.379.16-.592v-1.36h-1.696c-.736 0-1.275.107-1.616.32-.331.213-.496.523-.496.928v.336c0 .405.144.72.432.944.298.224.698.336 1.2.336Zm8.707 1.088c-.768 0-1.414-.144-1.936-.432a4.518 4.518 0 0 1-1.328-1.184l.912-.736c.32.405.677.72 1.072.944.394.213.853.32 1.376.32.544 0 .965-.117 1.264-.352.309-.235.464-.565.464-.992 0-.32-.107-.592-.32-.816-.203-.235-.576-.395-1.121-.48l-.655-.096a5.854 5.854 0 0 1-1.056-.24 3.36 3.36 0 0 1-.848-.448 2.118 2.118 0 0 1-.56-.704c-.128-.277-.192-.608-.192-.992 0-.405.074-.757.224-1.056.149-.309.352-.565.608-.768.266-.203.581-.352.944-.448.362-.107.752-.16 1.168-.16.672 0 1.232.117 1.68.352.458.235.858.56 1.2.976l-.848.768c-.182-.256-.448-.485-.8-.688-.352-.213-.795-.32-1.328-.32-.534 0-.939.117-1.216.352-.267.224-.4.533-.4.928 0 .405.133.699.4.88.277.181.672.315 1.184.4l.64.096c.917.139 1.568.405 1.952.8.384.384.576.891.576 1.52 0 .8-.272 1.429-.816 1.888-.544.459-1.291.688-2.24.688Zm9.098-8.448h1.28v1.344h.064c.213-.523.522-.907.928-1.152.416-.256.912-.384 1.488-.384.512 0 .976.101 1.392.304.416.203.768.491 1.056.864a3.8 3.8 0 0 1 .672 1.36c.16.533.24 1.131.24 1.792s-.08 1.259-.24 1.792a3.8 3.8 0 0 1-.672 1.36c-.288.373-.64.661-1.056.864-.416.203-.88.304-1.392.304-1.12 0-1.926-.512-2.416-1.536h-.064v4.544h-1.28v-11.456Zm3.408 7.296c.725 0 1.296-.224 1.712-.672.416-.459.624-1.056.624-1.792v-1.408c0-.736-.208-1.328-.624-1.776-.416-.459-.987-.688-1.712-.688a2.72 2.72 0 0 0-.832.128c-.256.075-.48.181-.672.32a1.633 1.633 0 0 0-.464.512c-.107.192-.16.4-.16.624v3.072c0 .267.053.507.16.72.117.203.272.379.464.528.192.139.416.245.672.32.266.075.544.112.832.112Zm8.977 1.152a3.757 3.757 0 0 1-1.536-.304 3.45 3.45 0 0 1-1.168-.864 4.294 4.294 0 0 1-.752-1.36 5.854 5.854 0 0 1-.256-1.792c0-.651.085-1.243.256-1.776.181-.533.432-.987.752-1.36.331-.384.72-.677 1.168-.88a3.757 3.757 0 0 1 1.536-.304c.555 0 1.051.101 1.488.304a3.25 3.25 0 0 1 1.12.848c.309.352.544.773.704 1.264.171.491.256 1.029.256 1.616v.608h-5.936v.384c0 .352.053.683.16.992.117.299.277.56.48.784.213.224.469.4.768.528.309.128.656.192 1.04.192.523 0 .976-.123 1.36-.368.395-.245.699-.597.912-1.056l.912.656a3.229 3.229 0 0 1-1.248 1.376c-.565.341-1.237.512-2.016.512Zm0-7.568c-.352 0-.672.064-.96.192a2.136 2.136 0 0 0-.752.512 2.49 2.49 0 0 0-.48.8 2.698 2.698 0 0 0-.176.992v.112h4.56v-.176c0-.736-.203-1.323-.608-1.76-.395-.448-.923-.672-1.584-.672Zm8.157 7.568c-.768 0-1.413-.144-1.936-.432a4.518 4.518 0 0 1-1.328-1.184l.912-.736c.32.405.677.72 1.072.944.395.213.853.32 1.376.32.544 0 .965-.117 1.264-.352.309-.235.464-.565.464-.992 0-.32-.107-.592-.32-.816-.203-.235-.576-.395-1.12-.48l-.656-.096a5.854 5.854 0 0 1-1.056-.24 3.36 3.36 0 0 1-.848-.448 2.13 2.13 0 0 1-.56-.704c-.128-.277-.192-.608-.192-.992 0-.405.075-.757.224-1.056.149-.309.352-.565.608-.768.267-.203.581-.352.944-.448.363-.107.752-.16 1.168-.16.672 0 1.232.117 1.68.352.459.235.859.56 1.2.976l-.848.768c-.181-.256-.448-.485-.8-.688-.352-.213-.795-.32-1.328-.32s-.939.117-1.216.352c-.267.224-.4.533-.4.928 0 .405.133.699.4.88.277.181.672.315 1.184.4l.64.096c.917.139 1.568.405 1.952.8.384.384.576.891.576 1.52 0 .8-.272 1.429-.816 1.888-.544.459-1.291.688-2.24.688Zm7.032-.192c-.448 0-.79-.123-1.024-.368-.224-.256-.336-.587-.336-.992v-5.776h-1.36v-1.12h.768c.277 0 .464-.053.56-.16.106-.117.16-.315.16-.592v-1.536h1.152v2.288h1.808v1.12h-1.808v6.016h1.68V338h-1.6Zm9.785 0c-.48 0-.827-.128-1.04-.384-.203-.256-.331-.576-.384-.96h-.08c-.181.512-.48.896-.896 1.152-.416.256-.912.384-1.488.384-.875 0-1.557-.224-2.048-.672-.48-.448-.72-1.056-.72-1.824 0-.779.283-1.376.848-1.792.576-.416 1.467-.624 2.672-.624h1.632v-.816c0-.587-.16-1.035-.48-1.344-.32-.309-.811-.464-1.472-.464-.501 0-.923.112-1.264.336a2.804 2.804 0 0 0-.832.896l-.768-.72c.224-.448.581-.827 1.072-1.136.491-.32 1.109-.48 1.856-.48 1.003 0 1.781.245 2.336.736.555.491.832 1.173.832 2.048v4.544h.944V338h-.72Zm-3.68-.896c.32 0 .613-.037.88-.112.267-.075.496-.181.688-.32.192-.139.341-.299.448-.48.107-.181.16-.379.16-.592v-1.36h-1.696c-.736 0-1.275.107-1.616.32-.331.213-.496.523-.496.928v.336c0 .405.144.72.432.944.299.224.699.336 1.2.336Zm6.227.896v-8.256h1.28v1.344h.064c.203-.469.485-.843.848-1.12.373-.277.869-.416 1.488-.416.853 0 1.525.277 2.016.832.501.544.752 1.317.752 2.32V338h-1.28v-5.072c0-1.483-.624-2.224-1.872-2.224-.256 0-.507.032-.752.096-.235.064-.448.16-.64.288a1.47 1.47 0 0 0-.464.496c-.107.192-.16.421-.16.688V338h-1.28Zm4.432-9.792a1.67 1.67 0 0 1-.72-.144 31.565 31.565 0 0 1-.56-.272 3.489 3.489 0 0 0-.656-.288 1.336 1.336 0 0 0-.464-.096.995.995 0 0 0-.48.112 2.528 2.528 0 0 0-.448.32l-.528-.64c.149-.213.347-.405.592-.576.245-.181.555-.272.928-.272.277 0 .517.048.72.144.203.096.389.187.56.272.256.139.469.24.64.304.181.053.341.08.48.08a.995.995 0 0 0 .48-.112c.139-.075.288-.181.448-.32l.528.64a2.594 2.594 0 0 1-.592.592c-.245.171-.555.256-.928.256ZM705.251 338c-.48 0-.827-.128-1.04-.384-.203-.256-.331-.576-.384-.96h-.08c-.182.512-.48.896-.896 1.152-.416.256-.912.384-1.488.384-.875 0-1.558-.224-2.048-.672-.48-.448-.72-1.056-.72-1.824 0-.779.282-1.376.848-1.792.576-.416 1.466-.624 2.672-.624h1.632v-.816c0-.587-.16-1.035-.48-1.344-.32-.309-.811-.464-1.472-.464-.502 0-.923.112-1.264.336a2.804 2.804 0 0 0-.832.896l-.768-.72c.224-.448.581-.827 1.072-1.136.49-.32 1.109-.48 1.856-.48 1.002 0 1.781.245 2.336.736.554.491.832 1.173.832 2.048v4.544h.944V338h-.72Zm-3.68-.896c.32 0 .613-.037.88-.112.266-.075.496-.181.688-.32.192-.139.341-.299.448-.48.106-.181.16-.379.16-.592v-1.36h-1.696c-.736 0-1.275.107-1.616.32-.331.213-.496.523-.496.928v.336c0 .405.144.72.432.944.298.224.698.336 1.2.336Zm8.707 1.088c-.768 0-1.414-.144-1.936-.432a4.518 4.518 0 0 1-1.328-1.184l.912-.736c.32.405.677.72 1.072.944.394.213.853.32 1.376.32.544 0 .965-.117 1.264-.352.309-.235.464-.565.464-.992 0-.32-.107-.592-.32-.816-.203-.235-.576-.395-1.121-.48l-.655-.096a5.854 5.854 0 0 1-1.056-.24 3.36 3.36 0 0 1-.848-.448 2.118 2.118 0 0 1-.56-.704c-.128-.277-.192-.608-.192-.992 0-.405.074-.757.224-1.056.149-.309.352-.565.608-.768.266-.203.581-.352.944-.448.362-.107.752-.16 1.168-.16.672 0 1.232.117 1.68.352.458.235.858.56 1.2.976l-.848.768c-.182-.256-.448-.485-.8-.688-.352-.213-.795-.32-1.328-.32-.534 0-.939.117-1.216.352-.267.224-.4.533-.4.928 0 .405.133.699.4.88.277.181.672.315 1.184.4l.64.096c.917.139 1.568.405 1.952.8.384.384.576.891.576 1.52 0 .8-.272 1.429-.816 1.888-.544.459-1.291.688-2.24.688ZM461.64 357.656h-.064c-.501 1.024-1.307 1.536-2.416 1.536-.512 0-.976-.101-1.392-.304a3.11 3.11 0 0 1-1.072-.864 4.16 4.16 0 0 1-.672-1.36 6.657 6.657 0 0 1-.224-1.792c0-.661.075-1.259.224-1.792a4.16 4.16 0 0 1 .672-1.36 3.11 3.11 0 0 1 1.072-.864c.416-.203.88-.304 1.392-.304.576 0 1.067.128 1.472.384.416.245.731.629.944 1.152h.064v-4.928h1.28V359h-1.28v-1.344Zm-2.128.384c.288 0 .56-.037.816-.112.267-.075.496-.181.688-.32a1.62 1.62 0 0 0 .448-.528 1.47 1.47 0 0 0 .176-.72v-3.072c0-.224-.059-.432-.176-.624a1.474 1.474 0 0 0-.448-.512 2.154 2.154 0 0 0-.688-.32 2.573 2.573 0 0 0-.816-.128c-.725 0-1.296.229-1.712.688-.416.448-.624 1.04-.624 1.776v1.408c0 .736.208 1.333.624 1.792.416.448.987.672 1.712.672Zm9.233 1.152a3.757 3.757 0 0 1-1.536-.304 3.45 3.45 0 0 1-1.168-.864 4.314 4.314 0 0 1-.752-1.36 5.884 5.884 0 0 1-.256-1.792c0-.651.086-1.243.256-1.776.182-.533.432-.987.752-1.36.331-.384.72-.677 1.168-.88a3.757 3.757 0 0 1 1.536-.304c.555 0 1.051.101 1.488.304a3.24 3.24 0 0 1 1.12.848c.31.352.544.773.704 1.264.171.491.256 1.029.256 1.616v.608h-5.936v.384c0 .352.054.683.16.992.118.299.278.56.48.784.214.224.47.4.768.528a2.7 2.7 0 0 0 1.04.192c.523 0 .976-.123 1.36-.368.395-.245.699-.597.912-1.056l.912.656a3.216 3.216 0 0 1-1.248 1.376c-.565.341-1.237.512-2.016.512Zm0-7.568c-.352 0-.672.064-.96.192a2.145 2.145 0 0 0-.752.512 2.527 2.527 0 0 0-.48.8 2.698 2.698 0 0 0-.176.992v.112h4.56v-.176c0-.736-.202-1.323-.608-1.76-.394-.448-.922-.672-1.584-.672Zm7.038 7.376c-.448 0-.79-.123-1.024-.368-.224-.256-.336-.576-.336-.96V347.16h1.28v10.72h1.216V359h-1.136Zm6.78-8.256h1.28v1.344h.064c.213-.523.523-.907.928-1.152.416-.256.912-.384 1.488-.384.512 0 .976.101 1.392.304.416.203.768.491 1.056.864.299.373.523.827.672 1.36.16.533.24 1.131.24 1.792s-.08 1.259-.24 1.792a3.768 3.768 0 0 1-.672 1.36c-.288.373-.64.661-1.056.864-.416.203-.88.304-1.392.304-1.12 0-1.925-.512-2.416-1.536h-.064v4.544h-1.28v-11.456Zm3.408 7.296c.725 0 1.296-.224 1.712-.672.416-.459.624-1.056.624-1.792v-1.408c0-.736-.208-1.328-.624-1.776-.416-.459-.987-.688-1.712-.688-.288 0-.565.043-.832.128-.256.075-.48.181-.672.32a1.633 1.633 0 0 0-.464.512c-.107.192-.16.4-.16.624v3.072c0 .267.053.507.16.72.117.203.272.379.464.528.192.139.416.245.672.32.267.075.544.112.832.112Zm5.873.96v-8.256h1.28v1.52h.08c.15-.395.416-.747.8-1.056.384-.309.912-.464 1.584-.464h.496v1.28h-.752c-.693 0-1.237.133-1.632.4-.384.256-.576.581-.576.976v5.6h-1.28Zm8.917.192a3.718 3.718 0 0 1-1.52-.304 3.415 3.415 0 0 1-1.184-.864 4.314 4.314 0 0 1-.752-1.36 5.554 5.554 0 0 1-.272-1.792c0-.651.091-1.243.272-1.776.182-.533.432-.987.752-1.36a3.323 3.323 0 0 1 1.184-.88 3.718 3.718 0 0 1 1.52-.304c.555 0 1.056.101 1.504.304.459.203.854.496 1.184.88.331.373.587.827.768 1.36a5.47 5.47 0 0 1 .272 1.776c0 .661-.09 1.259-.272 1.792a4.122 4.122 0 0 1-.768 1.36c-.33.373-.725.661-1.184.864a3.602 3.602 0 0 1-1.504.304Zm0-1.136c.694 0 1.259-.213 1.696-.64.438-.427.656-1.077.656-1.952v-1.184c0-.875-.218-1.525-.656-1.952-.437-.427-1.002-.64-1.696-.64-.693 0-1.258.213-1.696.64-.437.427-.656 1.077-.656 1.952v1.184c0 .875.219 1.525.656 1.952.438.427 1.003.64 1.696.64Zm10.843-7.312h1.264l-3.696 10.176a4.123 4.123 0 0 1-.288.608 1.17 1.17 0 0 1-.352.4 1.4 1.4 0 0 1-.528.208 3.696 3.696 0 0 1-.752.064h-.656v-1.12h1.296l.624-1.76-3.088-8.576h1.28l1.984 5.616.384 1.344h.08l.448-1.344 2-5.616Zm5.923 8.448a3.75 3.75 0 0 1-1.536-.304 3.44 3.44 0 0 1-1.168-.864 4.294 4.294 0 0 1-.752-1.36 5.854 5.854 0 0 1-.256-1.792c0-.651.085-1.243.256-1.776.181-.533.432-.987.752-1.36.33-.384.72-.677 1.168-.88a3.75 3.75 0 0 1 1.536-.304c.554 0 1.05.101 1.488.304.437.203.81.485 1.12.848.309.352.544.773.704 1.264.17.491.256 1.029.256 1.616v.608h-5.936v.384c0 .352.053.683.16.992.117.299.277.56.48.784.213.224.469.4.768.528.309.128.656.192 1.04.192.522 0 .976-.123 1.36-.368a2.4 2.4 0 0 0 .912-1.056l.912.656a3.229 3.229 0 0 1-1.248 1.376c-.566.341-1.238.512-2.016.512Zm0-7.568c-.352 0-.672.064-.96.192a2.136 2.136 0 0 0-.752.512 2.49 2.49 0 0 0-.48.8 2.678 2.678 0 0 0-.176.992v.112h4.56v-.176c0-.736-.203-1.323-.608-1.76-.395-.448-.923-.672-1.584-.672Zm8.749 7.568a3.794 3.794 0 0 1-1.552-.304 3.249 3.249 0 0 1-1.168-.864 4.007 4.007 0 0 1-.72-1.36 6.227 6.227 0 0 1-.24-1.792c0-.661.08-1.259.24-1.792.17-.533.41-.987.72-1.36.32-.373.709-.661 1.168-.864a3.794 3.794 0 0 1 1.552-.304c.821 0 1.477.181 1.968.544.501.352.874.816 1.12 1.392l-1.072.544a1.948 1.948 0 0 0-.736-.992c-.342-.235-.768-.352-1.28-.352-.384 0-.72.064-1.008.192a1.848 1.848 0 0 0-.72.512 2.07 2.07 0 0 0-.432.784 3.23 3.23 0 0 0-.144.992v1.408c0 .725.192 1.323.576 1.792.394.459.97.688 1.728.688 1.034 0 1.781-.48 2.24-1.44l.928.624a3.267 3.267 0 0 1-1.2 1.424c-.523.352-1.179.528-1.968.528Zm6.799-.192c-.448 0-.79-.123-1.024-.368-.224-.256-.336-.587-.336-.992v-5.776h-1.36v-1.12h.768c.277 0 .464-.053.56-.16.106-.117.16-.315.16-.592v-1.536h1.152v2.288h1.808v1.12h-1.808v6.016h1.68V359h-1.6Zm6.843.192a3.711 3.711 0 0 1-1.52-.304 3.396 3.396 0 0 1-1.184-.864 4.294 4.294 0 0 1-.752-1.36c-.182-.533-.272-1.131-.272-1.792 0-.651.09-1.243.272-1.776.181-.533.432-.987.752-1.36.33-.384.725-.677 1.184-.88a3.711 3.711 0 0 1 1.52-.304c.554 0 1.056.101 1.504.304.458.203.853.496 1.184.88.33.373.586.827.768 1.36.181.533.272 1.125.272 1.776 0 .661-.091 1.259-.272 1.792a4.158 4.158 0 0 1-.768 1.36 3.415 3.415 0 0 1-1.184.864c-.448.203-.95.304-1.504.304Zm0-1.136c.693 0 1.258-.213 1.696-.64.437-.427.656-1.077.656-1.952v-1.184c0-.875-.219-1.525-.656-1.952-.438-.427-1.003-.64-1.696-.64-.694 0-1.259.213-1.696.64-.438.427-.656 1.077-.656 1.952v1.184c0 .875.218 1.525.656 1.952.437.427 1.002.64 1.696.64Zm14.894-.4h-.064c-.501 1.024-1.307 1.536-2.416 1.536-.512 0-.976-.101-1.392-.304a3.11 3.11 0 0 1-1.072-.864 4.16 4.16 0 0 1-.672-1.36 6.657 6.657 0 0 1-.224-1.792c0-.661.075-1.259.224-1.792a4.16 4.16 0 0 1 .672-1.36 3.11 3.11 0 0 1 1.072-.864c.416-.203.88-.304 1.392-.304.576 0 1.067.128 1.472.384.416.245.731.629.944 1.152h.064v-4.928h1.28V359h-1.28v-1.344Zm-2.128.384c.288 0 .56-.037.816-.112.267-.075.496-.181.688-.32a1.62 1.62 0 0 0 .448-.528 1.47 1.47 0 0 0 .176-.72v-3.072c0-.224-.059-.432-.176-.624a1.474 1.474 0 0 0-.448-.512 2.154 2.154 0 0 0-.688-.32 2.573 2.573 0 0 0-.816-.128c-.725 0-1.296.229-1.712.688-.416.448-.624 1.04-.624 1.776v1.408c0 .736.208 1.333.624 1.792.416.448.987.672 1.712.672Zm9.249 1.152a3.714 3.714 0 0 1-1.52-.304 3.405 3.405 0 0 1-1.184-.864 4.294 4.294 0 0 1-.752-1.36 5.554 5.554 0 0 1-.272-1.792c0-.651.091-1.243.272-1.776.181-.533.432-.987.752-1.36a3.315 3.315 0 0 1 1.184-.88 3.714 3.714 0 0 1 1.52-.304c.555 0 1.056.101 1.504.304.459.203.853.496 1.184.88.331.373.587.827.768 1.36.181.533.272 1.125.272 1.776 0 .661-.091 1.259-.272 1.792a4.122 4.122 0 0 1-.768 1.36 3.405 3.405 0 0 1-1.184.864 3.602 3.602 0 0 1-1.504.304Zm0-1.136c.693 0 1.259-.213 1.696-.64.437-.427.656-1.077.656-1.952v-1.184c0-.875-.219-1.525-.656-1.952-.437-.427-1.003-.64-1.696-.64-.693 0-1.259.213-1.696.64-.437.427-.656 1.077-.656 1.952v1.184c0 .875.219 1.525.656 1.952.437.427 1.003.64 1.696.64Zm5.833.944v-8.256h1.28v1.344h.064c.203-.469.486-.843.848-1.12.374-.277.87-.416 1.488-.416.854 0 1.526.277 2.016.832.502.544.752 1.317.752 2.32V359h-1.28v-5.072c0-1.483-.624-2.224-1.872-2.224a2.97 2.97 0 0 0-.752.096c-.234.064-.448.16-.64.288a1.48 1.48 0 0 0-.464.496c-.106.192-.16.421-.16.688V359h-1.28Zm14.374-1.344h-.064c-.501 1.024-1.307 1.536-2.416 1.536-.512 0-.976-.101-1.392-.304a3.11 3.11 0 0 1-1.072-.864 4.16 4.16 0 0 1-.672-1.36 6.657 6.657 0 0 1-.224-1.792c0-.661.075-1.259.224-1.792a4.16 4.16 0 0 1 .672-1.36 3.11 3.11 0 0 1 1.072-.864c.416-.203.88-.304 1.392-.304.576 0 1.067.128 1.472.384.416.245.731.629.944 1.152h.064v-4.928h1.28V359h-1.28v-1.344Zm-2.128.384c.288 0 .56-.037.816-.112.267-.075.496-.181.688-.32a1.62 1.62 0 0 0 .448-.528 1.47 1.47 0 0 0 .176-.72v-3.072c0-.224-.059-.432-.176-.624a1.474 1.474 0 0 0-.448-.512 2.154 2.154 0 0 0-.688-.32 2.573 2.573 0 0 0-.816-.128c-.725 0-1.296.229-1.712.688-.416.448-.624 1.04-.624 1.776v1.408c0 .736.208 1.333.624 1.792.416.448.987.672 1.712.672Zm9.233 1.152a3.757 3.757 0 0 1-1.536-.304 3.45 3.45 0 0 1-1.168-.864 4.314 4.314 0 0 1-.752-1.36 5.884 5.884 0 0 1-.256-1.792c0-.651.086-1.243.256-1.776.182-.533.432-.987.752-1.36.331-.384.72-.677 1.168-.88a3.757 3.757 0 0 1 1.536-.304c.555 0 1.051.101 1.488.304a3.24 3.24 0 0 1 1.12.848c.31.352.544.773.704 1.264.171.491.256 1.029.256 1.616v.608h-5.936v.384c0 .352.054.683.16.992.118.299.278.56.48.784.214.224.47.4.768.528a2.7 2.7 0 0 0 1.04.192c.523 0 .976-.123 1.36-.368.395-.245.699-.597.912-1.056l.912.656a3.216 3.216 0 0 1-1.248 1.376c-.565.341-1.237.512-2.016.512Zm0-7.568c-.352 0-.672.064-.96.192a2.145 2.145 0 0 0-.752.512 2.527 2.527 0 0 0-.48.8 2.698 2.698 0 0 0-.176.992v.112h4.56v-.176c0-.736-.202-1.323-.608-1.76-.394-.448-.922-.672-1.584-.672Zm11.939 7.568c-.768 0-1.414-.144-1.936-.432a4.518 4.518 0 0 1-1.328-1.184l.912-.736c.32.405.677.72 1.072.944.394.213.853.32 1.376.32.544 0 .965-.117 1.264-.352.309-.235.464-.565.464-.992 0-.32-.107-.592-.32-.816-.203-.235-.576-.395-1.12-.48l-.656-.096a5.854 5.854 0 0 1-1.056-.24 3.36 3.36 0 0 1-.848-.448 2.118 2.118 0 0 1-.56-.704c-.128-.277-.192-.608-.192-.992 0-.405.074-.757.224-1.056.149-.309.352-.565.608-.768.266-.203.581-.352.944-.448.362-.107.752-.16 1.168-.16.672 0 1.232.117 1.68.352.458.235.858.56 1.2.976l-.848.768c-.182-.256-.448-.485-.8-.688-.352-.213-.795-.32-1.328-.32-.534 0-.939.117-1.216.352-.267.224-.4.533-.4.928 0 .405.133.699.4.88.277.181.672.315 1.184.4l.64.096c.917.139 1.568.405 1.952.8.384.384.576.891.576 1.52 0 .8-.272 1.429-.816 1.888-.544.459-1.291.688-2.24.688Zm8.421 0a3.75 3.75 0 0 1-1.536-.304 3.44 3.44 0 0 1-1.168-.864 4.294 4.294 0 0 1-.752-1.36 5.854 5.854 0 0 1-.256-1.792c0-.651.085-1.243.256-1.776.181-.533.432-.987.752-1.36.33-.384.72-.677 1.168-.88a3.75 3.75 0 0 1 1.536-.304c.554 0 1.05.101 1.488.304.437.203.81.485 1.12.848.309.352.544.773.704 1.264.17.491.256 1.029.256 1.616v.608h-5.936v.384c0 .352.053.683.16.992.117.299.277.56.48.784.213.224.469.4.768.528.309.128.656.192 1.04.192.522 0 .976-.123 1.36-.368a2.4 2.4 0 0 0 .912-1.056l.912.656a3.229 3.229 0 0 1-1.248 1.376c-.566.341-1.238.512-2.016.512Zm0-7.568c-.352 0-.672.064-.96.192a2.136 2.136 0 0 0-.752.512 2.49 2.49 0 0 0-.48.8 2.678 2.678 0 0 0-.176.992v.112h4.56v-.176c0-.736-.203-1.323-.608-1.76-.395-.448-.923-.672-1.584-.672ZM620.887 359l-2.896-8.256h1.28l1.44 4.096.896 2.816h.08l.896-2.816 1.472-4.096h1.232L622.375 359h-1.488Zm9.03.192a3.757 3.757 0 0 1-1.536-.304 3.45 3.45 0 0 1-1.168-.864 4.294 4.294 0 0 1-.752-1.36 5.854 5.854 0 0 1-.256-1.792c0-.651.085-1.243.256-1.776.181-.533.432-.987.752-1.36.331-.384.72-.677 1.168-.88a3.757 3.757 0 0 1 1.536-.304c.555 0 1.051.101 1.488.304a3.25 3.25 0 0 1 1.12.848c.309.352.544.773.704 1.264.171.491.256 1.029.256 1.616v.608h-5.936v.384c0 .352.053.683.16.992.117.299.277.56.48.784.213.224.469.4.768.528.309.128.656.192 1.04.192.523 0 .976-.123 1.36-.368.395-.245.699-.597.912-1.056l.912.656a3.229 3.229 0 0 1-1.248 1.376c-.565.341-1.237.512-2.016.512Zm0-7.568c-.352 0-.672.064-.96.192a2.136 2.136 0 0 0-.752.512 2.49 2.49 0 0 0-.48.8 2.698 2.698 0 0 0-.176.992v.112h4.56v-.176c0-.736-.203-1.323-.608-1.76-.395-.448-.923-.672-1.584-.672ZM641.594 359c-.48 0-.826-.128-1.04-.384-.202-.256-.33-.576-.384-.96h-.08c-.181.512-.48.896-.896 1.152-.416.256-.912.384-1.488.384-.874 0-1.557-.224-2.048-.672-.48-.448-.72-1.056-.72-1.824 0-.779.283-1.376.848-1.792.576-.416 1.467-.624 2.672-.624h1.632v-.816c0-.587-.16-1.035-.48-1.344-.32-.309-.81-.464-1.472-.464-.501 0-.922.112-1.264.336-.33.224-.608.523-.832.896l-.768-.72c.224-.448.582-.827 1.072-1.136.491-.32 1.11-.48 1.856-.48 1.003 0 1.782.245 2.336.736.555.491.832 1.173.832 2.048v4.544h.944V359h-.72Zm-3.68-.896c.32 0 .614-.037.88-.112.267-.075.496-.181.688-.32.192-.139.342-.299.448-.48.107-.181.16-.379.16-.592v-1.36h-1.696c-.736 0-1.274.107-1.616.32-.33.213-.496.523-.496.928v.336c0 .405.144.72.432.944.299.224.699.336 1.2.336Zm10.009.896v-8.256h1.28v1.344h.064c.202-.469.485-.843.848-1.12.373-.277.869-.416 1.488-.416.853 0 1.525.277 2.016.832.501.544.752 1.317.752 2.32V359h-1.28v-5.072c0-1.483-.624-2.224-1.872-2.224-.256 0-.507.032-.752.096-.235.064-.448.16-.64.288a1.47 1.47 0 0 0-.464.496c-.107.192-.16.421-.16.688V359h-1.28Zm12.197.192a3.757 3.757 0 0 1-1.536-.304 3.45 3.45 0 0 1-1.168-.864 4.314 4.314 0 0 1-.752-1.36 5.884 5.884 0 0 1-.256-1.792c0-.651.086-1.243.256-1.776.182-.533.432-.987.752-1.36.331-.384.72-.677 1.168-.88a3.757 3.757 0 0 1 1.536-.304c.555 0 1.051.101 1.488.304a3.24 3.24 0 0 1 1.12.848c.31.352.544.773.704 1.264.171.491.256 1.029.256 1.616v.608h-5.936v.384c0 .352.054.683.16.992.118.299.278.56.48.784.214.224.47.4.768.528a2.7 2.7 0 0 0 1.04.192c.523 0 .976-.123 1.36-.368.395-.245.699-.597.912-1.056l.912.656a3.216 3.216 0 0 1-1.248 1.376c-.565.341-1.237.512-2.016.512Zm0-7.568c-.352 0-.672.064-.96.192a2.145 2.145 0 0 0-.752.512 2.527 2.527 0 0 0-.48.8 2.698 2.698 0 0 0-.176.992v.112h4.56v-.176c0-.736-.202-1.323-.608-1.76-.394-.448-.922-.672-1.584-.672Zm8.75 7.568a3.794 3.794 0 0 1-1.552-.304 3.249 3.249 0 0 1-1.168-.864 4.007 4.007 0 0 1-.72-1.36 6.227 6.227 0 0 1-.24-1.792c0-.661.08-1.259.24-1.792.17-.533.41-.987.72-1.36.32-.373.709-.661 1.168-.864a3.794 3.794 0 0 1 1.552-.304c.821 0 1.477.181 1.968.544.501.352.874.816 1.12 1.392l-1.072.544a1.948 1.948 0 0 0-.736-.992c-.342-.235-.768-.352-1.28-.352-.384 0-.72.064-1.008.192a1.848 1.848 0 0 0-.72.512 2.07 2.07 0 0 0-.432.784 3.23 3.23 0 0 0-.144.992v1.408c0 .725.192 1.323.576 1.792.394.459.97.688 1.728.688 1.034 0 1.781-.48 2.24-1.44l.928.624a3.267 3.267 0 0 1-1.2 1.424c-.523.352-1.179.528-1.968.528Zm7.985 0a3.75 3.75 0 0 1-1.536-.304 3.44 3.44 0 0 1-1.168-.864 4.294 4.294 0 0 1-.752-1.36 5.854 5.854 0 0 1-.256-1.792c0-.651.085-1.243.256-1.776.181-.533.432-.987.752-1.36.33-.384.72-.677 1.168-.88a3.75 3.75 0 0 1 1.536-.304c.554 0 1.05.101 1.488.304.437.203.81.485 1.12.848.309.352.544.773.704 1.264.17.491.256 1.029.256 1.616v.608h-5.936v.384c0 .352.053.683.16.992.117.299.277.56.48.784.213.224.469.4.768.528.309.128.656.192 1.04.192.522 0 .976-.123 1.36-.368a2.4 2.4 0 0 0 .912-1.056l.912.656a3.229 3.229 0 0 1-1.248 1.376c-.566.341-1.238.512-2.016.512Zm0-7.568c-.352 0-.672.064-.96.192a2.136 2.136 0 0 0-.752.512 2.49 2.49 0 0 0-.48.8 2.678 2.678 0 0 0-.176.992v.112h4.56v-.176c0-.736-.203-1.323-.608-1.76-.395-.448-.923-.672-1.584-.672Zm8.157 7.568c-.768 0-1.413-.144-1.936-.432a4.518 4.518 0 0 1-1.328-1.184l.912-.736c.32.405.677.72 1.072.944.395.213.853.32 1.376.32.544 0 .965-.117 1.264-.352.309-.235.464-.565.464-.992 0-.32-.107-.592-.32-.816-.203-.235-.576-.395-1.12-.48l-.656-.096a5.854 5.854 0 0 1-1.056-.24 3.36 3.36 0 0 1-.848-.448 2.13 2.13 0 0 1-.56-.704c-.128-.277-.192-.608-.192-.992 0-.405.075-.757.224-1.056.149-.309.352-.565.608-.768.267-.203.581-.352.944-.448.363-.107.752-.16 1.168-.16.672 0 1.232.117 1.68.352.459.235.859.56 1.2.976l-.848.768c-.181-.256-.448-.485-.8-.688-.352-.213-.795-.32-1.328-.32s-.939.117-1.216.352c-.267.224-.4.533-.4.928 0 .405.133.699.4.88.277.181.672.315 1.184.4l.64.096c.917.139 1.568.405 1.952.8.384.384.576.891.576 1.52 0 .8-.272 1.429-.816 1.888-.544.459-1.291.688-2.24.688Zm11.317-.192c-.48 0-.827-.128-1.04-.384-.203-.256-.331-.576-.384-.96h-.08c-.182.512-.48.896-.896 1.152-.416.256-.912.384-1.488.384-.875 0-1.558-.224-2.048-.672-.48-.448-.72-1.056-.72-1.824 0-.779.282-1.376.848-1.792.576-.416 1.466-.624 2.672-.624h1.632v-.816c0-.587-.16-1.035-.48-1.344-.32-.309-.811-.464-1.472-.464-.502 0-.923.112-1.264.336a2.804 2.804 0 0 0-.832.896l-.768-.72c.224-.448.581-.827 1.072-1.136.49-.32 1.109-.48 1.856-.48 1.002 0 1.781.245 2.336.736.554.491.832 1.173.832 2.048v4.544h.944V359h-.72Zm-3.68-.896c.32 0 .613-.037.88-.112.266-.075.496-.181.688-.32.192-.139.341-.299.448-.48.106-.181.16-.379.16-.592v-1.36h-1.696c-.736 0-1.275.107-1.616.32-.331.213-.496.523-.496.928v.336c0 .405.144.72.432.944.298.224.698.336 1.2.336Zm6.227.896v-8.256h1.28v1.52h.08c.149-.395.416-.747.8-1.056.384-.309.912-.464 1.584-.464h.496v1.28h-.752c-.694 0-1.238.133-1.632.4-.384.256-.576.581-.576.976v5.6h-1.28Zm6.515-10.192c-.278 0-.48-.064-.608-.192a.787.787 0 0 1-.176-.528v-.208c0-.213.058-.384.176-.512.128-.139.33-.208.608-.208.277 0 .474.069.592.208a.692.692 0 0 1 .192.512v.208a.75.75 0 0 1-.192.528c-.118.128-.315.192-.592.192Zm-.64 1.936h1.28V359h-1.28v-8.256Zm10 8.256c-.48 0-.827-.128-1.04-.384-.203-.256-.331-.576-.384-.96h-.08c-.182.512-.48.896-.896 1.152-.416.256-.912.384-1.488.384-.875 0-1.558-.224-2.048-.672-.48-.448-.72-1.056-.72-1.824 0-.779.282-1.376.848-1.792.576-.416 1.466-.624 2.672-.624h1.632v-.816c0-.587-.16-1.035-.48-1.344-.32-.309-.811-.464-1.472-.464-.502 0-.923.112-1.264.336a2.804 2.804 0 0 0-.832.896l-.768-.72c.224-.448.581-.827 1.072-1.136.49-.32 1.109-.48 1.856-.48 1.002 0 1.781.245 2.336.736.554.491.832 1.173.832 2.048v4.544h.944V359h-.72Zm-3.68-.896c.32 0 .613-.037.88-.112.266-.075.496-.181.688-.32.192-.139.341-.299.448-.48.106-.181.16-.379.16-.592v-1.36h-1.696c-.736 0-1.275.107-1.616.32-.331.213-.496.523-.496.928v.336c0 .405.144.72.432.944.298.224.698.336 1.2.336Zm8.707 1.088c-.768 0-1.414-.144-1.936-.432a4.518 4.518 0 0 1-1.328-1.184l.912-.736c.32.405.677.72 1.072.944.394.213.853.32 1.376.32.544 0 .965-.117 1.264-.352.309-.235.464-.565.464-.992 0-.32-.107-.592-.32-.816-.203-.235-.576-.395-1.121-.48l-.655-.096a5.854 5.854 0 0 1-1.056-.24 3.36 3.36 0 0 1-.848-.448 2.118 2.118 0 0 1-.56-.704c-.128-.277-.192-.608-.192-.992 0-.405.074-.757.224-1.056.149-.309.352-.565.608-.768.266-.203.581-.352.944-.448.362-.107.752-.16 1.168-.16.672 0 1.232.117 1.68.352.458.235.858.56 1.2.976l-.848.768c-.182-.256-.448-.485-.8-.688-.352-.213-.795-.32-1.328-.32-.534 0-.939.117-1.216.352-.267.224-.4.533-.4.928 0 .405.133.699.4.88.277.181.672.315 1.184.4l.64.096c.917.139 1.568.405 1.952.8.384.384.576.891.576 1.52 0 .8-.272 1.429-.816 1.888-.544.459-1.291.688-2.24.688Zm-260.298 21a3.714 3.714 0 0 1-1.52-.304 3.405 3.405 0 0 1-1.184-.864 4.294 4.294 0 0 1-.752-1.36 5.554 5.554 0 0 1-.272-1.792c0-.651.091-1.243.272-1.776.181-.533.432-.987.752-1.36a3.315 3.315 0 0 1 1.184-.88 3.714 3.714 0 0 1 1.52-.304c.555 0 1.056.101 1.504.304.459.203.853.496 1.184.88.331.373.587.827.768 1.36.181.533.272 1.125.272 1.776 0 .661-.091 1.259-.272 1.792a4.122 4.122 0 0 1-.768 1.36 3.405 3.405 0 0 1-1.184.864 3.602 3.602 0 0 1-1.504.304Zm0-1.136c.693 0 1.259-.213 1.696-.64.437-.427.656-1.077.656-1.952v-1.184c0-.875-.219-1.525-.656-1.952-.437-.427-1.003-.64-1.696-.64-.693 0-1.259.213-1.696.64-.437.427-.656 1.077-.656 1.952v1.184c0 .875.219 1.525.656 1.952.437.427 1.003.64 1.696.64Zm9.614-10.896h1.28v4.928h.064c.203-.469.486-.843.848-1.12.374-.277.87-.416 1.488-.416.854 0 1.526.277 2.016.832.502.544.752 1.317.752 2.32V380h-1.28v-5.072c0-1.483-.624-2.224-1.872-2.224a2.97 2.97 0 0 0-.752.096c-.234.064-.448.16-.64.288a1.48 1.48 0 0 0-.464.496c-.106.192-.16.421-.16.688V380h-1.28v-11.84ZM484.188 380c-.48 0-.827-.128-1.04-.384-.203-.256-.331-.576-.384-.96h-.08c-.181.512-.48.896-.896 1.152-.416.256-.912.384-1.488.384-.875 0-1.557-.224-2.048-.672-.48-.448-.72-1.056-.72-1.824 0-.779.283-1.376.848-1.792.576-.416 1.467-.624 2.672-.624h1.632v-.816c0-.587-.16-1.035-.48-1.344-.32-.309-.811-.464-1.472-.464-.501 0-.923.112-1.264.336a2.804 2.804 0 0 0-.832.896l-.768-.72c.224-.448.581-.827 1.072-1.136.491-.32 1.109-.48 1.856-.48 1.003 0 1.781.245 2.336.736.555.491.832 1.173.832 2.048v4.544h.944V380h-.72Zm-3.68-.896c.32 0 .613-.037.88-.112.267-.075.496-.181.688-.32.192-.139.341-.299.448-.48.107-.181.16-.379.16-.592v-1.36h-1.696c-.736 0-1.275.107-1.616.32-.331.213-.496.523-.496.928v.336c0 .405.144.72.432.944.299.224.699.336 1.2.336Zm11.237-7.36h1.264l-3.696 10.176a4.123 4.123 0 0 1-.288.608 1.17 1.17 0 0 1-.352.4 1.413 1.413 0 0 1-.528.208 3.702 3.702 0 0 1-.752.064h-.656v-1.12h1.296l.624-1.76-3.088-8.576h1.28l1.984 5.616.384 1.344h.08l.448-1.344 2-5.616Zm8.678 8.256c-.48 0-.827-.128-1.04-.384-.203-.256-.331-.576-.384-.96h-.08c-.182.512-.48.896-.896 1.152-.416.256-.912.384-1.488.384-.875 0-1.558-.224-2.048-.672-.48-.448-.72-1.056-.72-1.824 0-.779.282-1.376.848-1.792.576-.416 1.466-.624 2.671-.624h1.633v-.816c0-.587-.16-1.035-.48-1.344-.32-.309-.811-.464-1.472-.464-.502 0-.923.112-1.264.336a2.804 2.804 0 0 0-.832.896l-.768-.72c.224-.448.581-.827 1.071-1.136.491-.32 1.11-.48 1.857-.48 1.002 0 1.781.245 2.336.736.554.491.832 1.173.832 2.048v4.544h.943V380h-.719Zm-3.68-.896c.32 0 .613-.037.88-.112.266-.075.496-.181.688-.32.192-.139.341-.299.448-.48.106-.181.16-.379.16-.592v-1.36h-1.696c-.736 0-1.275.107-1.616.32-.331.213-.496.523-.496.928v.336c0 .405.144.72.432.944.298.224.698.336 1.2.336Zm10.008.896v-8.256h1.28v1.344h.064c.096-.213.202-.411.32-.592a2.22 2.22 0 0 1 .448-.496c.181-.139.389-.245.624-.32.234-.085.512-.128.832-.128.544 0 1.045.133 1.504.4.458.256.8.683 1.024 1.28h.032c.149-.448.426-.837.832-1.168.416-.341.976-.512 1.68-.512.842 0 1.498.277 1.968.832.48.544.72 1.317.72 2.32V380h-1.28v-5.072c0-.736-.144-1.291-.432-1.664-.288-.373-.747-.56-1.376-.56-.256 0-.502.032-.736.096-.224.064-.427.16-.608.288a1.373 1.373 0 0 0-.432.496c-.107.192-.16.421-.16.688V380h-1.28v-5.072c0-.736-.144-1.291-.432-1.664-.288-.373-.736-.56-1.344-.56-.256 0-.502.032-.736.096-.235.064-.443.16-.624.288a1.53 1.53 0 0 0-.448.496c-.107.192-.16.421-.16.688V380h-1.28Zm19.056-1.344h-.064a3.855 3.855 0 0 1-.32.576 2.149 2.149 0 0 1-.448.496c-.181.139-.4.251-.656.336a2.843 2.843 0 0 1-.896.128c-.853 0-1.53-.272-2.032-.816-.501-.555-.752-1.333-.752-2.336v-5.296h1.28v5.072c0 1.483.63 2.224 1.888 2.224.256 0 .502-.032.736-.096.246-.064.459-.16.64-.288.192-.128.342-.288.448-.48.118-.203.176-.443.176-.72v-5.712h1.28V380h-1.28v-1.344Zm7.078 1.536a3.797 3.797 0 0 1-1.552-.304 3.249 3.249 0 0 1-1.168-.864 4.042 4.042 0 0 1-.72-1.36 6.227 6.227 0 0 1-.24-1.792c0-.661.08-1.259.24-1.792.171-.533.411-.987.72-1.36.32-.373.709-.661 1.168-.864a3.797 3.797 0 0 1 1.552-.304c.821 0 1.477.181 1.968.544.501.352.875.816 1.12 1.392l-1.072.544a1.943 1.943 0 0 0-.736-.992c-.341-.235-.768-.352-1.28-.352-.384 0-.72.064-1.008.192a1.848 1.848 0 0 0-.72.512 2.07 2.07 0 0 0-.432.784 3.23 3.23 0 0 0-.144.992v1.408c0 .725.192 1.323.576 1.792.395.459.971.688 1.728.688 1.035 0 1.781-.48 2.24-1.44l.928.624a3.267 3.267 0 0 1-1.2 1.424c-.523.352-1.179.528-1.968.528Zm4.975-12.032h1.28v4.928h.064c.203-.469.485-.843.848-1.12.373-.277.869-.416 1.488-.416.853 0 1.525.277 2.016.832.501.544.752 1.317.752 2.32V380h-1.28v-5.072c0-1.483-.624-2.224-1.872-2.224-.256 0-.507.032-.752.096-.235.064-.448.16-.64.288a1.47 1.47 0 0 0-.464.496c-.107.192-.16.421-.16.688V380h-1.28v-11.84ZM552.954 380c-.48 0-.827-.128-1.04-.384-.203-.256-.331-.576-.384-.96h-.08c-.182.512-.48.896-.896 1.152-.416.256-.912.384-1.488.384-.875 0-1.558-.224-2.048-.672-.48-.448-.72-1.056-.72-1.824 0-.779.282-1.376.848-1.792.576-.416 1.466-.624 2.672-.624h1.632v-.816c0-.587-.16-1.035-.48-1.344-.32-.309-.811-.464-1.472-.464-.502 0-.923.112-1.264.336a2.804 2.804 0 0 0-.832.896l-.768-.72c.224-.448.581-.827 1.072-1.136.49-.32 1.109-.48 1.856-.48 1.002 0 1.781.245 2.336.736.554.491.832 1.173.832 2.048v4.544h.944V380h-.72Zm-3.68-.896c.32 0 .613-.037.88-.112.266-.075.496-.181.688-.32.192-.139.341-.299.448-.48.106-.181.16-.379.16-.592v-1.36h-1.696c-.736 0-1.275.107-1.616.32-.331.213-.496.523-.496.928v.336c0 .405.144.72.432.944.298.224.698.336 1.2.336Zm10.648-9.296c-.277 0-.48-.064-.608-.192a.792.792 0 0 1-.176-.528v-.208c0-.213.059-.384.176-.512.128-.139.331-.208.608-.208.277 0 .475.069.592.208a.692.692 0 0 1 .192.512v.208a.75.75 0 0 1-.192.528c-.117.128-.315.192-.592.192Zm-.64 1.936h1.28V380h-1.28v-8.256Zm4 8.256v-8.256h1.28v1.344h.064c.203-.469.485-.843.848-1.12.373-.277.869-.416 1.488-.416.853 0 1.525.277 2.016.832.501.544.752 1.317.752 2.32V380h-1.28v-5.072c0-1.483-.624-2.224-1.872-2.224-.256 0-.507.032-.752.096-.235.064-.448.16-.64.288a1.47 1.47 0 0 0-.464.496c-.107.192-.16.421-.16.688V380h-1.28Zm9.542-7.136h-1.344v-1.12h1.344v-1.664c0-.576.149-1.04.448-1.392.298-.352.752-.528 1.36-.528h1.248v1.12h-1.776v2.464h1.776v1.12h-1.776V380h-1.28v-7.136Zm7.797 7.328a3.711 3.711 0 0 1-1.52-.304 3.396 3.396 0 0 1-1.184-.864 4.294 4.294 0 0 1-.752-1.36c-.182-.533-.272-1.131-.272-1.792 0-.651.09-1.243.272-1.776.181-.533.432-.987.752-1.36.33-.384.725-.677 1.184-.88a3.711 3.711 0 0 1 1.52-.304c.554 0 1.056.101 1.504.304.458.203.853.496 1.184.88.33.373.586.827.768 1.36.181.533.272 1.125.272 1.776 0 .661-.091 1.259-.272 1.792a4.158 4.158 0 0 1-.768 1.36 3.415 3.415 0 0 1-1.184.864c-.448.203-.95.304-1.504.304Zm0-1.136c.693 0 1.258-.213 1.696-.64.437-.427.656-1.077.656-1.952v-1.184c0-.875-.219-1.525-.656-1.952-.438-.427-1.003-.64-1.696-.64-.694 0-1.259.213-1.696.64-.438.427-.656 1.077-.656 1.952v1.184c0 .875.218 1.525.656 1.952.437.427 1.002.64 1.696.64Zm5.833.944v-8.256h1.28v1.52h.08c.149-.395.416-.747.8-1.056.384-.309.912-.464 1.584-.464h.496v1.28h-.752c-.694 0-1.238.133-1.632.4-.384.256-.576.581-.576.976v5.6h-1.28Zm5.875 0v-8.256h1.28v1.344h.064c.096-.213.202-.411.32-.592a2.22 2.22 0 0 1 .448-.496c.181-.139.389-.245.624-.32.234-.085.512-.128.832-.128.544 0 1.045.133 1.504.4.458.256.8.683 1.024 1.28h.032c.149-.448.426-.837.832-1.168.416-.341.976-.512 1.68-.512.842 0 1.498.277 1.968.832.48.544.72 1.317.72 2.32V380h-1.28v-5.072c0-.736-.144-1.291-.432-1.664-.288-.373-.747-.56-1.376-.56-.256 0-.502.032-.736.096-.224.064-.427.16-.608.288a1.373 1.373 0 0 0-.432.496c-.107.192-.16.421-.16.688V380h-1.28v-5.072c0-.736-.144-1.291-.432-1.664-.288-.373-.736-.56-1.344-.56-.256 0-.502.032-.736.096-.235.064-.443.16-.624.288a1.53 1.53 0 0 0-.448.496c-.107.192-.16.421-.16.688V380h-1.28Zm19.969 0c-.48 0-.827-.128-1.04-.384-.203-.256-.331-.576-.384-.96h-.08c-.182.512-.48.896-.896 1.152-.416.256-.912.384-1.488.384-.875 0-1.558-.224-2.048-.672-.48-.448-.72-1.056-.72-1.824 0-.779.282-1.376.848-1.792.576-.416 1.466-.624 2.671-.624h1.633v-.816c0-.587-.16-1.035-.48-1.344-.32-.309-.811-.464-1.472-.464-.502 0-.923.112-1.264.336a2.804 2.804 0 0 0-.832.896l-.768-.72c.224-.448.581-.827 1.071-1.136.491-.32 1.11-.48 1.857-.48 1.002 0 1.781.245 2.336.736.554.491.832 1.173.832 2.048v4.544h.943V380h-.719Zm-3.68-.896c.32 0 .613-.037.88-.112.266-.075.496-.181.688-.32.192-.139.341-.299.448-.48.106-.181.16-.379.16-.592v-1.36h-1.696c-.736 0-1.275.107-1.616.32-.331.213-.496.523-.496.928v.336c0 .405.144.72.432.944.298.224.698.336 1.2.336Zm9.298 1.088a3.797 3.797 0 0 1-1.552-.304 3.257 3.257 0 0 1-1.168-.864 4.042 4.042 0 0 1-.72-1.36 6.227 6.227 0 0 1-.24-1.792c0-.661.08-1.259.24-1.792.171-.533.411-.987.72-1.36.32-.373.71-.661 1.168-.864a3.797 3.797 0 0 1 1.552-.304c.822 0 1.478.181 1.968.544.502.352.875.816 1.12 1.392l-1.072.544a1.937 1.937 0 0 0-.736-.992c-.341-.235-.768-.352-1.28-.352-.384 0-.72.064-1.008.192a1.848 1.848 0 0 0-.72.512 2.07 2.07 0 0 0-.432.784 3.23 3.23 0 0 0-.144.992v1.408c0 .725.192 1.323.576 1.792.395.459.971.688 1.728.688 1.035 0 1.782-.48 2.24-1.44l.928.624a3.254 3.254 0 0 1-1.2 1.424c-.522.352-1.178.528-1.968.528Zm5.615-10.384c-.277 0-.48-.064-.608-.192a.792.792 0 0 1-.176-.528v-.208c0-.213.059-.384.176-.512.128-.139.331-.208.608-.208.278 0 .475.069.592.208a.692.692 0 0 1 .192.512v.208a.75.75 0 0 1-.192.528c-.117.128-.314.192-.592.192Zm-.64 1.936h1.28V380h-1.28v-8.256Zm7.12 8.448a3.718 3.718 0 0 1-1.52-.304 3.415 3.415 0 0 1-1.184-.864 4.314 4.314 0 0 1-.752-1.36 5.554 5.554 0 0 1-.272-1.792c0-.651.091-1.243.272-1.776.182-.533.432-.987.752-1.36a3.323 3.323 0 0 1 1.184-.88 3.718 3.718 0 0 1 1.52-.304c.555 0 1.056.101 1.504.304.459.203.854.496 1.184.88.331.373.587.827.768 1.36a5.47 5.47 0 0 1 .272 1.776c0 .661-.09 1.259-.272 1.792a4.122 4.122 0 0 1-.768 1.36c-.33.373-.725.661-1.184.864a3.602 3.602 0 0 1-1.504.304Zm0-1.136c.694 0 1.259-.213 1.696-.64.438-.427.656-1.077.656-1.952v-1.184c0-.875-.218-1.525-.656-1.952-.437-.427-1.002-.64-1.696-.64-.693 0-1.258.213-1.696.64-.437.427-.656 1.077-.656 1.952v1.184c0 .875.219 1.525.656 1.952.438.427 1.003.64 1.696.64Zm.128-8.416-.832-.384 1.36-2.72 1.168.56-1.696 2.544Zm5.705 9.36v-8.256h1.28v1.344h.064c.203-.469.486-.843.848-1.12.374-.277.87-.416 1.488-.416.854 0 1.526.277 2.016.832.502.544.752 1.317.752 2.32V380h-1.28v-5.072c0-1.483-.624-2.224-1.872-2.224a2.97 2.97 0 0 0-.752.096c-.234.064-.448.16-.64.288a1.48 1.48 0 0 0-.464.496c-.106.192-.16.421-.16.688V380h-1.28Zm9.91.192c-.341 0-.592-.085-.752-.256-.149-.171-.224-.395-.224-.672v-.208c0-.277.075-.501.224-.672.16-.171.411-.256.752-.256s.587.085.736.256c.16.171.24.395.24.672v.208c0 .277-.08.501-.24.672-.149.171-.395.256-.736.256Zm10.589 0c-.907 0-1.68-.171-2.32-.512a5.01 5.01 0 0 1-1.632-1.44l.992-.832c.394.523.832.923 1.312 1.2.48.267 1.045.4 1.696.4.8 0 1.408-.192 1.824-.576.426-.384.64-.896.64-1.536 0-.533-.16-.944-.48-1.232-.32-.288-.848-.517-1.584-.688l-.912-.208c-1.024-.235-1.808-.587-2.352-1.056-.534-.48-.8-1.152-.8-2.016 0-.491.09-.928.272-1.312.181-.384.432-.704.752-.96.33-.256.72-.448 1.168-.576.458-.139.96-.208 1.504-.208.842 0 1.562.155 2.16.464.608.309 1.12.763 1.536 1.36l-1.008.736a3.477 3.477 0 0 0-1.12-1.008c-.438-.245-.982-.368-1.632-.368-.715 0-1.28.155-1.696.464-.406.299-.608.752-.608 1.36 0 .533.17.939.512 1.216.352.267.88.48 1.584.64l.912.208c1.098.245 1.893.619 2.384 1.12.49.501.736 1.168.736 2 0 .512-.091.976-.272 1.392a2.787 2.787 0 0 1-.752 1.056 3.525 3.525 0 0 1-1.216.672 4.95 4.95 0 0 1-1.6.24Zm9.137 0a3.75 3.75 0 0 1-1.536-.304 3.44 3.44 0 0 1-1.168-.864 4.294 4.294 0 0 1-.752-1.36 5.854 5.854 0 0 1-.256-1.792c0-.651.085-1.243.256-1.776.181-.533.432-.987.752-1.36.33-.384.72-.677 1.168-.88a3.75 3.75 0 0 1 1.536-.304c.554 0 1.05.101 1.488.304.437.203.81.485 1.12.848.309.352.544.773.704 1.264.17.491.256 1.029.256 1.616v.608h-5.936v.384c0 .352.053.683.16.992.117.299.277.56.48.784.213.224.469.4.768.528.309.128.656.192 1.04.192.522 0 .976-.123 1.36-.368a2.4 2.4 0 0 0 .912-1.056l.912.656a3.229 3.229 0 0 1-1.248 1.376c-.566.341-1.238.512-2.016.512Zm0-7.568c-.352 0-.672.064-.96.192a2.136 2.136 0 0 0-.752.512 2.49 2.49 0 0 0-.48.8 2.678 2.678 0 0 0-.176.992v.112h4.56v-.176c0-.736-.203-1.323-.608-1.76-.395-.448-.923-.672-1.584-.672Zm9.458-4.464h1.28v4.928h.064c.203-.469.485-.843.848-1.12.373-.277.869-.416 1.488-.416.853 0 1.525.277 2.016.832.501.544.752 1.317.752 2.32V380h-1.28v-5.072c0-1.483-.624-2.224-1.872-2.224-.256 0-.507.032-.752.096-.235.064-.448.16-.64.288a1.47 1.47 0 0 0-.464.496c-.107.192-.16.421-.16.688V380h-1.28v-11.84ZM690.032 380c-.48 0-.827-.128-1.04-.384-.203-.256-.331-.576-.384-.96h-.08c-.181.512-.48.896-.896 1.152-.416.256-.912.384-1.488.384-.875 0-1.557-.224-2.048-.672-.48-.448-.72-1.056-.72-1.824 0-.779.283-1.376.848-1.792.576-.416 1.467-.624 2.672-.624h1.632v-.816c0-.587-.16-1.035-.48-1.344-.32-.309-.811-.464-1.472-.464-.501 0-.923.112-1.264.336a2.804 2.804 0 0 0-.832.896l-.768-.72c.224-.448.581-.827 1.072-1.136.491-.32 1.109-.48 1.856-.48 1.003 0 1.781.245 2.336.736.555.491.832 1.173.832 2.048v4.544h.944V380h-.72Zm-3.68-.896c.32 0 .613-.037.88-.112.267-.075.496-.181.688-.32.192-.139.341-.299.448-.48.107-.181.16-.379.16-.592v-1.36h-1.696c-.736 0-1.275.107-1.616.32-.331.213-.496.523-.496.928v.336c0 .405.144.72.432.944.299.224.699.336 1.2.336Zm15.288-.448h-.064c-.501 1.024-1.307 1.536-2.416 1.536-.512 0-.976-.101-1.392-.304a3.11 3.11 0 0 1-1.072-.864 4.16 4.16 0 0 1-.672-1.36 6.657 6.657 0 0 1-.224-1.792c0-.661.075-1.259.224-1.792a4.16 4.16 0 0 1 .672-1.36 3.11 3.11 0 0 1 1.072-.864c.416-.203.88-.304 1.392-.304.576 0 1.067.128 1.472.384.416.245.731.629.944 1.152h.064v-4.928h1.28V380h-1.28v-1.344Zm-2.128.384c.288 0 .56-.037.816-.112.267-.075.496-.181.688-.32a1.62 1.62 0 0 0 .448-.528 1.47 1.47 0 0 0 .176-.72v-3.072c0-.224-.059-.432-.176-.624a1.474 1.474 0 0 0-.448-.512 2.154 2.154 0 0 0-.688-.32 2.573 2.573 0 0 0-.816-.128c-.725 0-1.296.229-1.712.688-.416.448-.624 1.04-.624 1.776v1.408c0 .736.208 1.333.624 1.792.416.448.987.672 1.712.672Zm9.233 1.152a3.757 3.757 0 0 1-1.536-.304 3.45 3.45 0 0 1-1.168-.864 4.314 4.314 0 0 1-.752-1.36 5.884 5.884 0 0 1-.256-1.792c0-.651.086-1.243.256-1.776.182-.533.432-.987.752-1.36.331-.384.72-.677 1.168-.88a3.757 3.757 0 0 1 1.536-.304c.555 0 1.051.101 1.488.304a3.24 3.24 0 0 1 1.12.848c.31.352.544.773.704 1.264.171.491.256 1.029.256 1.616v.608h-5.936v.384c0 .352.054.683.16.992.118.299.278.56.48.784.214.224.47.4.768.528a2.7 2.7 0 0 0 1.04.192c.523 0 .976-.123 1.36-.368.395-.245.699-.597.912-1.056l.912.656a3.216 3.216 0 0 1-1.248 1.376c-.565.341-1.237.512-2.016.512Zm0-7.568c-.352 0-.672.064-.96.192a2.145 2.145 0 0 0-.752.512 2.527 2.527 0 0 0-.48.8 2.698 2.698 0 0 0-.176.992v.112h4.56v-.176c0-.736-.202-1.323-.608-1.76-.394-.448-.922-.672-1.584-.672Zm-247.297 27.032h-.064a3.855 3.855 0 0 1-.32.576 2.172 2.172 0 0 1-.448.496c-.181.139-.4.251-.656.336a2.848 2.848 0 0 1-.896.128c-.853 0-1.531-.272-2.032-.816-.501-.555-.752-1.333-.752-2.336v-5.296h1.28v5.072c0 1.483.629 2.224 1.888 2.224.256 0 .501-.032.736-.096.245-.064.459-.16.64-.288a1.378 1.378 0 0 0 .624-1.2v-5.712h1.28V401h-1.28v-1.344Zm5.83 1.344c-.448 0-.79-.123-1.024-.368-.224-.256-.336-.587-.336-.992v-5.776h-1.36v-1.12h.768c.277 0 .464-.053.56-.16.106-.117.16-.315.16-.592v-1.536h1.152v2.288h1.808v1.12h-1.808v6.016h1.68V401h-1.6Zm4.425-10.192c-.277 0-.48-.064-.608-.192a.792.792 0 0 1-.176-.528v-.208c0-.213.059-.384.176-.512.128-.139.331-.208.608-.208.277 0 .475.069.592.208a.692.692 0 0 1 .192.512v.208a.75.75 0 0 1-.192.528c-.117.128-.315.192-.592.192Zm-.64 1.936h1.28V401h-1.28v-8.256Zm5.36 8.256c-.448 0-.789-.123-1.024-.368-.224-.256-.336-.576-.336-.96V389.16h1.28v10.72h1.216V401h-1.136Zm3.639-10.192c-.277 0-.479-.064-.607-.192a.787.787 0 0 1-.176-.528v-.208c0-.213.058-.384.176-.512.128-.139.33-.208.607-.208.278 0 .475.069.593.208a.692.692 0 0 1 .192.512v.208a.75.75 0 0 1-.192.528c-.118.128-.315.192-.593.192Zm-.639 1.936h1.28V401h-1.28v-8.256ZM482.59 401v-1.072l4.689-6.064h-4.544v-1.12h6.096v.96l-4.784 6.176h4.912V401h-6.369Zm14.254 0c-.48 0-.826-.128-1.04-.384-.202-.256-.33-.576-.384-.96h-.08c-.181.512-.48.896-.896 1.152-.416.256-.912.384-1.488.384-.874 0-1.557-.224-2.048-.672-.48-.448-.72-1.056-.72-1.824 0-.779.283-1.376.848-1.792.576-.416 1.467-.624 2.672-.624h1.632v-.816c0-.587-.16-1.035-.48-1.344-.32-.309-.81-.464-1.472-.464-.501 0-.922.112-1.264.336-.33.224-.608.523-.832.896l-.768-.72c.224-.448.582-.827 1.072-1.136.491-.32 1.11-.48 1.856-.48 1.003 0 1.782.245 2.336.736.555.491.832 1.173.832 2.048v4.544h.944V401h-.72Zm-3.68-.896c.32 0 .614-.037.88-.112.267-.075.496-.181.688-.32.192-.139.342-.299.448-.48.107-.181.16-.379.16-.592v-1.36h-1.696c-.736 0-1.274.107-1.616.32-.33.213-.496.523-.496.928v.336c0 .405.144.72.432.944.299.224.699.336 1.2.336Zm6.227.896v-8.256h1.28v1.52h.08c.15-.395.416-.747.8-1.056.384-.309.912-.464 1.584-.464h.496v1.28h-.752c-.693 0-1.237.133-1.632.4-.384.256-.576.581-.576.976v5.6h-1.28Zm14.745-1.344h-.064a3.947 3.947 0 0 1-.32.576 2.195 2.195 0 0 1-.448.496c-.182.139-.4.251-.656.336a2.848 2.848 0 0 1-.896.128c-.854 0-1.531-.272-2.032-.816-.502-.555-.752-1.333-.752-2.336v-5.296h1.28v5.072c0 1.483.629 2.224 1.888 2.224.256 0 .501-.032.736-.096.245-.064.458-.16.64-.288a1.378 1.378 0 0 0 .624-1.2v-5.712h1.28V401h-1.28v-1.344Zm4.005 1.344v-8.256h1.28v1.344h.064c.203-.469.486-.843.848-1.12.374-.277.87-.416 1.488-.416.854 0 1.526.277 2.016.832.502.544.752 1.317.752 2.32V401h-1.28v-5.072c0-1.483-.624-2.224-1.872-2.224a2.97 2.97 0 0 0-.752.096c-.234.064-.448.16-.64.288a1.48 1.48 0 0 0-.464.496c-.106.192-.16.421-.16.688V401h-1.28Zm13.515-10.192c-.277 0-.48-.064-.608-.192a.792.792 0 0 1-.176-.528v-.208c0-.213.059-.384.176-.512.128-.139.331-.208.608-.208.278 0 .475.069.592.208a.692.692 0 0 1 .192.512v.208a.75.75 0 0 1-.192.528c-.117.128-.314.192-.592.192Zm-.64 1.936h1.28V401h-1.28v-8.256Zm7.072 8.448a3.797 3.797 0 0 1-1.552-.304 3.257 3.257 0 0 1-1.168-.864 4.042 4.042 0 0 1-.72-1.36 6.227 6.227 0 0 1-.24-1.792c0-.661.08-1.259.24-1.792.171-.533.411-.987.72-1.36.32-.373.71-.661 1.168-.864a3.797 3.797 0 0 1 1.552-.304c.822 0 1.478.181 1.968.544.502.352.875.816 1.12 1.392l-1.072.544a1.937 1.937 0 0 0-.736-.992c-.341-.235-.768-.352-1.28-.352-.384 0-.72.064-1.008.192a1.848 1.848 0 0 0-.72.512 2.07 2.07 0 0 0-.432.784 3.23 3.23 0 0 0-.144.992v1.408c0 .725.192 1.323.576 1.792.395.459.971.688 1.728.688 1.035 0 1.782-.48 2.24-1.44l.928.624a3.254 3.254 0 0 1-1.2 1.424c-.522.352-1.178.528-1.968.528Zm8.001 0a3.718 3.718 0 0 1-1.52-.304 3.415 3.415 0 0 1-1.184-.864 4.314 4.314 0 0 1-.752-1.36 5.554 5.554 0 0 1-.272-1.792c0-.651.091-1.243.272-1.776.182-.533.432-.987.752-1.36a3.323 3.323 0 0 1 1.184-.88 3.718 3.718 0 0 1 1.52-.304c.555 0 1.056.101 1.504.304.459.203.854.496 1.184.88.331.373.587.827.768 1.36a5.47 5.47 0 0 1 .272 1.776c0 .661-.09 1.259-.272 1.792a4.122 4.122 0 0 1-.768 1.36c-.33.373-.725.661-1.184.864a3.602 3.602 0 0 1-1.504.304Zm0-1.136c.694 0 1.259-.213 1.696-.64.438-.427.656-1.077.656-1.952v-1.184c0-.875-.218-1.525-.656-1.952-.437-.427-1.002-.64-1.696-.64-.693 0-1.258.213-1.696.64-.437.427-.656 1.077-.656 1.952v1.184c0 .875.219 1.525.656 1.952.438.427 1.003.64 1.696.64Zm5.834.944v-8.256h1.28v1.344h.064c.202-.469.485-.843.848-1.12.373-.277.869-.416 1.488-.416.853 0 1.525.277 2.016.832.501.544.752 1.317.752 2.32V401h-1.28v-5.072c0-1.483-.624-2.224-1.872-2.224-.256 0-.507.032-.752.096-.235.064-.448.16-.64.288a1.47 1.47 0 0 0-.464.496c-.107.192-.16.421-.16.688V401h-1.28Zm12.213.192a3.718 3.718 0 0 1-1.52-.304 3.415 3.415 0 0 1-1.184-.864 4.314 4.314 0 0 1-.752-1.36 5.554 5.554 0 0 1-.272-1.792c0-.651.091-1.243.272-1.776.182-.533.432-.987.752-1.36a3.323 3.323 0 0 1 1.184-.88 3.718 3.718 0 0 1 1.52-.304c.555 0 1.056.101 1.504.304.459.203.854.496 1.184.88.331.373.587.827.768 1.36a5.47 5.47 0 0 1 .272 1.776c0 .661-.09 1.259-.272 1.792a4.122 4.122 0 0 1-.768 1.36c-.33.373-.725.661-1.184.864a3.602 3.602 0 0 1-1.504.304Zm0-1.136c.694 0 1.259-.213 1.696-.64.438-.427.656-1.077.656-1.952v-1.184c0-.875-.218-1.525-.656-1.952-.437-.427-1.002-.64-1.696-.64-.693 0-1.258.213-1.696.64-.437.427-.656 1.077-.656 1.952v1.184c0 .875.219 1.525.656 1.952.438.427 1.003.64 1.696.64Zm14.895-.4h-.064c-.502 1.024-1.307 1.536-2.416 1.536-.512 0-.976-.101-1.392-.304a3.1 3.1 0 0 1-1.072-.864 4.16 4.16 0 0 1-.672-1.36 6.618 6.618 0 0 1-.224-1.792c0-.661.074-1.259.224-1.792a4.16 4.16 0 0 1 .672-1.36 3.1 3.1 0 0 1 1.072-.864c.416-.203.88-.304 1.392-.304.576 0 1.066.128 1.472.384.416.245.73.629.944 1.152h.064v-1.344h1.28V404.2h-1.28v-4.544Zm-2.128.384c.288 0 .56-.037.816-.112.266-.075.496-.181.688-.32a1.62 1.62 0 0 0 .448-.528 1.47 1.47 0 0 0 .176-.72v-3.072c0-.224-.059-.432-.176-.624a1.474 1.474 0 0 0-.448-.512 2.164 2.164 0 0 0-.688-.32 2.573 2.573 0 0 0-.816-.128c-.726 0-1.296.229-1.712.688-.416.448-.624 1.04-.624 1.776v1.408c0 .736.208 1.333.624 1.792.416.448.986.672 1.712.672Zm11.217-.384h-.064a3.855 3.855 0 0 1-.32.576 2.172 2.172 0 0 1-.448.496c-.181.139-.4.251-.656.336a2.848 2.848 0 0 1-.896.128c-.853 0-1.531-.272-2.032-.816-.501-.555-.752-1.333-.752-2.336v-5.296h1.28v5.072c0 1.483.629 2.224 1.888 2.224.256 0 .501-.032.736-.096.245-.064.459-.16.64-.288a1.378 1.378 0 0 0 .624-1.2v-5.712h1.28V401h-1.28v-1.344Zm7.11 1.536a3.75 3.75 0 0 1-1.536-.304 3.44 3.44 0 0 1-1.168-.864 4.294 4.294 0 0 1-.752-1.36 5.854 5.854 0 0 1-.256-1.792c0-.651.085-1.243.256-1.776.181-.533.432-.987.752-1.36.33-.384.72-.677 1.168-.88a3.75 3.75 0 0 1 1.536-.304c.554 0 1.05.101 1.488.304.437.203.81.485 1.12.848.309.352.544.773.704 1.264.17.491.256 1.029.256 1.616v.608h-5.936v.384c0 .352.053.683.16.992.117.299.277.56.48.784.213.224.469.4.768.528.309.128.656.192 1.04.192.522 0 .976-.123 1.36-.368a2.4 2.4 0 0 0 .912-1.056l.912.656a3.229 3.229 0 0 1-1.248 1.376c-.566.341-1.238.512-2.016.512Zm0-7.568c-.352 0-.672.064-.96.192a2.136 2.136 0 0 0-.752.512 2.49 2.49 0 0 0-.48.8 2.678 2.678 0 0 0-.176.992v.112h4.56v-.176c0-.736-.203-1.323-.608-1.76-.395-.448-.923-.672-1.584-.672Zm9.458 7.376v-8.256h1.28v1.52h.08c.149-.395.416-.747.8-1.056.384-.309.912-.464 1.584-.464h.496v1.28h-.752c-.693 0-1.237.133-1.632.4-.384.256-.576.581-.576.976v5.6h-1.28Zm8.901.192a3.757 3.757 0 0 1-1.536-.304 3.45 3.45 0 0 1-1.168-.864 4.294 4.294 0 0 1-.752-1.36 5.854 5.854 0 0 1-.256-1.792c0-.651.085-1.243.256-1.776.181-.533.432-.987.752-1.36.331-.384.72-.677 1.168-.88a3.757 3.757 0 0 1 1.536-.304c.555 0 1.051.101 1.488.304a3.25 3.25 0 0 1 1.12.848c.309.352.544.773.704 1.264.171.491.256 1.029.256 1.616v.608h-5.936v.384c0 .352.053.683.16.992.117.299.277.56.48.784.213.224.469.4.768.528.309.128.656.192 1.04.192.523 0 .976-.123 1.36-.368.395-.245.699-.597.912-1.056l.912.656a3.229 3.229 0 0 1-1.248 1.376c-.565.341-1.237.512-2.016.512Zm0-7.568c-.352 0-.672.064-.96.192a2.136 2.136 0 0 0-.752.512 2.49 2.49 0 0 0-.48.8 2.698 2.698 0 0 0-.176.992v.112h4.56v-.176c0-.736-.203-1.323-.608-1.76-.395-.448-.923-.672-1.584-.672Zm5.677-.88h1.28v1.344h.064c.214-.523.523-.907.928-1.152.416-.256.912-.384 1.488-.384.512 0 .976.101 1.392.304.416.203.768.491 1.056.864.299.373.523.827.672 1.36.16.533.24 1.131.24 1.792s-.08 1.259-.24 1.792a3.768 3.768 0 0 1-.672 1.36c-.288.373-.64.661-1.056.864-.416.203-.88.304-1.392.304-1.12 0-1.925-.512-2.416-1.536h-.064v4.544h-1.28v-11.456Zm3.408 7.296c.726 0 1.296-.224 1.712-.672.416-.459.624-1.056.624-1.792v-1.408c0-.736-.208-1.328-.624-1.776-.416-.459-.986-.688-1.712-.688-.288 0-.565.043-.832.128-.256.075-.48.181-.672.32a1.645 1.645 0 0 0-.464.512c-.106.192-.16.4-.16.624v3.072c0 .267.054.507.16.72.118.203.272.379.464.528.192.139.416.245.672.32.267.075.544.112.832.112Zm5.874.96v-8.256h1.28v1.52h.08c.149-.395.416-.747.8-1.056.384-.309.912-.464 1.584-.464h.496v1.28h-.752c-.694 0-1.238.133-1.632.4-.384.256-.576.581-.576.976v5.6h-1.28Zm8.9.192a3.757 3.757 0 0 1-1.536-.304 3.45 3.45 0 0 1-1.168-.864 4.314 4.314 0 0 1-.752-1.36 5.884 5.884 0 0 1-.256-1.792c0-.651.086-1.243.256-1.776.182-.533.432-.987.752-1.36.331-.384.72-.677 1.168-.88a3.757 3.757 0 0 1 1.536-.304c.555 0 1.051.101 1.488.304a3.24 3.24 0 0 1 1.12.848c.31.352.544.773.704 1.264.171.491.256 1.029.256 1.616v.608h-5.936v.384c0 .352.054.683.16.992.118.299.278.56.48.784.214.224.47.4.768.528a2.7 2.7 0 0 0 1.04.192c.523 0 .976-.123 1.36-.368.395-.245.699-.597.912-1.056l.912.656a3.216 3.216 0 0 1-1.248 1.376c-.565.341-1.237.512-2.016.512Zm0-7.568c-.352 0-.672.064-.96.192a2.145 2.145 0 0 0-.752.512 2.527 2.527 0 0 0-.48.8 2.698 2.698 0 0 0-.176.992v.112h4.56v-.176c0-.736-.202-1.323-.608-1.76-.394-.448-.922-.672-1.584-.672Zm8.158 7.568c-.768 0-1.414-.144-1.936-.432a4.518 4.518 0 0 1-1.328-1.184l.912-.736c.32.405.677.72 1.072.944.394.213.853.32 1.376.32.544 0 .965-.117 1.264-.352.309-.235.464-.565.464-.992 0-.32-.107-.592-.32-.816-.203-.235-.576-.395-1.12-.48l-.656-.096a5.854 5.854 0 0 1-1.056-.24 3.36 3.36 0 0 1-.848-.448 2.118 2.118 0 0 1-.56-.704c-.128-.277-.192-.608-.192-.992 0-.405.074-.757.224-1.056.149-.309.352-.565.608-.768.266-.203.581-.352.944-.448.362-.107.752-.16 1.168-.16.672 0 1.232.117 1.68.352.458.235.858.56 1.2.976l-.848.768c-.182-.256-.448-.485-.8-.688-.352-.213-.795-.32-1.328-.32-.534 0-.939.117-1.216.352-.267.224-.4.533-.4.928 0 .405.133.699.4.88.277.181.672.315 1.184.4l.64.096c.917.139 1.568.405 1.952.8.384.384.576.891.576 1.52 0 .8-.272 1.429-.816 1.888-.544.459-1.291.688-2.24.688Zm8.421 0a3.75 3.75 0 0 1-1.536-.304 3.44 3.44 0 0 1-1.168-.864 4.294 4.294 0 0 1-.752-1.36 5.854 5.854 0 0 1-.256-1.792c0-.651.085-1.243.256-1.776.181-.533.432-.987.752-1.36.33-.384.72-.677 1.168-.88a3.75 3.75 0 0 1 1.536-.304c.554 0 1.05.101 1.488.304.437.203.81.485 1.12.848.309.352.544.773.704 1.264.17.491.256 1.029.256 1.616v.608h-5.936v.384c0 .352.053.683.16.992.117.299.277.56.48.784.213.224.469.4.768.528.309.128.656.192 1.04.192.522 0 .976-.123 1.36-.368a2.4 2.4 0 0 0 .912-1.056l.912.656a3.229 3.229 0 0 1-1.248 1.376c-.566.341-1.238.512-2.016.512Zm0-7.568c-.352 0-.672.064-.96.192a2.136 2.136 0 0 0-.752.512 2.49 2.49 0 0 0-.48.8 2.678 2.678 0 0 0-.176.992v.112h4.56v-.176c0-.736-.203-1.323-.608-1.76-.395-.448-.923-.672-1.584-.672Zm5.677 7.376v-8.256h1.28v1.344h.064c.202-.469.485-.843.848-1.12.373-.277.869-.416 1.488-.416.853 0 1.525.277 2.016.832.501.544.752 1.317.752 2.32V401h-1.28v-5.072c0-1.483-.624-2.224-1.872-2.224-.256 0-.507.032-.752.096-.235.064-.448.16-.64.288a1.47 1.47 0 0 0-.464.496c-.107.192-.16.421-.16.688V401h-1.28Zm10.918 0c-.448 0-.79-.123-1.024-.368-.224-.256-.336-.587-.336-.992v-5.776h-1.36v-1.12h.768c.277 0 .464-.053.56-.16.106-.117.16-.315.16-.592v-1.536h1.152v2.288h1.808v1.12h-1.808v6.016h1.68V401h-1.6Zm9.785 0c-.48 0-.827-.128-1.04-.384-.203-.256-.331-.576-.384-.96h-.08c-.181.512-.48.896-.896 1.152-.416.256-.912.384-1.488.384-.875 0-1.557-.224-2.048-.672-.48-.448-.72-1.056-.72-1.824 0-.779.283-1.376.848-1.792.576-.416 1.467-.624 2.672-.624h1.632v-.816c0-.587-.16-1.035-.48-1.344-.32-.309-.811-.464-1.472-.464-.501 0-.923.112-1.264.336a2.804 2.804 0 0 0-.832.896l-.768-.72c.224-.448.581-.827 1.072-1.136.491-.32 1.109-.48 1.856-.48 1.003 0 1.781.245 2.336.736.555.491.832 1.173.832 2.048v4.544h.944V401h-.72Zm-3.68-.896c.32 0 .613-.037.88-.112.267-.075.496-.181.688-.32.192-.139.341-.299.448-.48.107-.181.16-.379.16-.592v-1.36h-1.696c-.736 0-1.275.107-1.616.32-.331.213-.496.523-.496.928v.336c0 .405.144.72.432.944.299.224.699.336 1.2.336Zm15.288-.448h-.064c-.501 1.024-1.307 1.536-2.416 1.536-.512 0-.976-.101-1.392-.304a3.11 3.11 0 0 1-1.072-.864 4.16 4.16 0 0 1-.672-1.36 6.657 6.657 0 0 1-.224-1.792c0-.661.075-1.259.224-1.792a4.16 4.16 0 0 1 .672-1.36 3.11 3.11 0 0 1 1.072-.864c.416-.203.88-.304 1.392-.304.576 0 1.067.128 1.472.384.416.245.731.629.944 1.152h.064v-1.344h1.28V404.2h-1.28v-4.544Zm-2.128.384c.288 0 .56-.037.816-.112.267-.075.496-.181.688-.32a1.62 1.62 0 0 0 .448-.528 1.47 1.47 0 0 0 .176-.72v-3.072c0-.224-.059-.432-.176-.624a1.474 1.474 0 0 0-.448-.512 2.154 2.154 0 0 0-.688-.32 2.573 2.573 0 0 0-.816-.128c-.725 0-1.296.229-1.712.688-.416.448-.624 1.04-.624 1.776v1.408c0 .736.208 1.333.624 1.792.416.448.987.672 1.712.672Zm11.217-.384h-.064a3.855 3.855 0 0 1-.32.576 2.149 2.149 0 0 1-.448.496c-.181.139-.4.251-.656.336a2.843 2.843 0 0 1-.896.128c-.853 0-1.53-.272-2.032-.816-.501-.555-.752-1.333-.752-2.336v-5.296h1.28v5.072c0 1.483.63 2.224 1.888 2.224.256 0 .502-.032.736-.096.246-.064.459-.16.64-.288.192-.128.342-.288.448-.48.118-.203.176-.443.176-.72v-5.712h1.28V401h-1.28v-1.344Zm7.11 1.536a3.757 3.757 0 0 1-1.536-.304 3.45 3.45 0 0 1-1.168-.864 4.294 4.294 0 0 1-.752-1.36 5.854 5.854 0 0 1-.256-1.792c0-.651.085-1.243.256-1.776.181-.533.432-.987.752-1.36.331-.384.72-.677 1.168-.88a3.757 3.757 0 0 1 1.536-.304c.555 0 1.051.101 1.488.304a3.25 3.25 0 0 1 1.12.848c.309.352.544.773.704 1.264.171.491.256 1.029.256 1.616v.608h-5.936v.384c0 .352.053.683.16.992.117.299.277.56.48.784.213.224.469.4.768.528.309.128.656.192 1.04.192.523 0 .976-.123 1.36-.368.395-.245.699-.597.912-1.056l.912.656a3.229 3.229 0 0 1-1.248 1.376c-.565.341-1.237.512-2.016.512Zm0-7.568c-.352 0-.672.064-.96.192a2.136 2.136 0 0 0-.752.512 2.49 2.49 0 0 0-.48.8 2.698 2.698 0 0 0-.176.992v.112h4.56v-.176c0-.736-.203-1.323-.608-1.76-.395-.448-.923-.672-1.584-.672Zm-248.75 28.568a3.757 3.757 0 0 1-1.536-.304 3.45 3.45 0 0 1-1.168-.864 4.294 4.294 0 0 1-.752-1.36 5.854 5.854 0 0 1-.256-1.792c0-.651.085-1.243.256-1.776.181-.533.432-.987.752-1.36.331-.384.72-.677 1.168-.88a3.757 3.757 0 0 1 1.536-.304c.555 0 1.051.101 1.488.304a3.25 3.25 0 0 1 1.12.848c.309.352.544.773.704 1.264.171.491.256 1.029.256 1.616v.608h-5.936v.384c0 .352.053.683.16.992.117.299.277.56.48.784.213.224.469.4.768.528.309.128.656.192 1.04.192.523 0 .976-.123 1.36-.368.395-.245.699-.597.912-1.056l.912.656a3.229 3.229 0 0 1-1.248 1.376c-.565.341-1.237.512-2.016.512Zm0-7.568c-.352 0-.672.064-.96.192a2.136 2.136 0 0 0-.752.512 2.49 2.49 0 0 0-.48.8 2.698 2.698 0 0 0-.176.992v.112h4.56v-.176c0-.736-.203-1.323-.608-1.76-.395-.448-.923-.672-1.584-.672Zm8.157 7.568c-.768 0-1.413-.144-1.936-.432a4.53 4.53 0 0 1-1.328-1.184l.912-.736c.32.405.678.72 1.072.944.395.213.854.32 1.376.32.544 0 .966-.117 1.264-.352.31-.235.464-.565.464-.992 0-.32-.106-.592-.32-.816-.202-.235-.576-.395-1.12-.48l-.656-.096a5.854 5.854 0 0 1-1.056-.24 3.378 3.378 0 0 1-.848-.448 2.143 2.143 0 0 1-.56-.704c-.128-.277-.192-.608-.192-.992 0-.405.075-.757.224-1.056.15-.309.352-.565.608-.768.267-.203.582-.352.944-.448.363-.107.752-.16 1.168-.16.672 0 1.232.117 1.68.352.459.235.859.56 1.2.976l-.848.768c-.181-.256-.448-.485-.8-.688-.352-.213-.794-.32-1.328-.32-.533 0-.938.117-1.216.352-.266.224-.4.533-.4.928 0 .405.134.699.4.88.278.181.672.315 1.184.4l.64.096c.918.139 1.568.405 1.952.8.384.384.576.891.576 1.52 0 .8-.272 1.429-.816 1.888-.544.459-1.29.688-2.24.688Zm7.032-.192c-.448 0-.79-.123-1.024-.368-.224-.256-.336-.587-.336-.992v-5.776h-1.36v-1.12h.768c.277 0 .464-.053.56-.16.106-.117.16-.315.16-.592v-1.536h1.152v2.288h1.808v1.12h-1.808v6.016h1.68V422h-1.6Zm9.785 0c-.48 0-.827-.128-1.04-.384-.203-.256-.331-.576-.384-.96h-.08c-.181.512-.48.896-.896 1.152-.416.256-.912.384-1.488.384-.875 0-1.557-.224-2.048-.672-.48-.448-.72-1.056-.72-1.824 0-.779.283-1.376.848-1.792.576-.416 1.467-.624 2.672-.624h1.632v-.816c0-.587-.16-1.035-.48-1.344-.32-.309-.811-.464-1.472-.464-.501 0-.923.112-1.264.336a2.804 2.804 0 0 0-.832.896l-.768-.72c.224-.448.581-.827 1.072-1.136.491-.32 1.109-.48 1.856-.48 1.003 0 1.781.245 2.336.736.555.491.832 1.173.832 2.048v4.544h.944V422h-.72Zm-3.68-.896c.32 0 .613-.037.88-.112.267-.075.496-.181.688-.32.192-.139.341-.299.448-.48.107-.181.16-.379.16-.592v-1.36h-1.696c-.736 0-1.275.107-1.616.32-.331.213-.496.523-.496.928v.336c0 .405.144.72.432.944.299.224.699.336 1.2.336Zm10.456-6.24h-1.344v-1.12h1.344v-1.664c0-.576.15-1.04.448-1.392.299-.352.752-.528 1.36-.528h1.248v1.12h-1.776v2.464h1.776v1.12h-1.776V422h-1.28v-7.136Zm9.828 5.792h-.064a3.947 3.947 0 0 1-.32.576 2.195 2.195 0 0 1-.448.496c-.182.139-.4.251-.656.336a2.848 2.848 0 0 1-.896.128c-.854 0-1.531-.272-2.032-.816-.502-.555-.752-1.333-.752-2.336v-5.296h1.28v5.072c0 1.483.629 2.224 1.888 2.224.256 0 .501-.032.736-.096.245-.064.458-.16.64-.288a1.378 1.378 0 0 0 .624-1.2v-5.712h1.28V422h-1.28v-1.344Zm4.006 1.344v-8.256h1.28v1.344h.064c.202-.469.485-.843.848-1.12.373-.277.869-.416 1.488-.416.853 0 1.525.277 2.016.832.501.544.752 1.317.752 2.32V422h-1.28v-5.072c0-1.483-.624-2.224-1.872-2.224-.256 0-.507.032-.752.096-.235.064-.448.16-.64.288a1.47 1.47 0 0 0-.464.496c-.107.192-.16.421-.16.688V422h-1.28Zm12.165.192a3.797 3.797 0 0 1-1.552-.304 3.257 3.257 0 0 1-1.168-.864 4.042 4.042 0 0 1-.72-1.36 6.227 6.227 0 0 1-.24-1.792c0-.661.08-1.259.24-1.792.171-.533.411-.987.72-1.36.32-.373.71-.661 1.168-.864a3.797 3.797 0 0 1 1.552-.304c.822 0 1.478.181 1.968.544.502.352.875.816 1.12 1.392l-1.072.544a1.937 1.937 0 0 0-.736-.992c-.341-.235-.768-.352-1.28-.352-.384 0-.72.064-1.008.192a1.848 1.848 0 0 0-.72.512 2.07 2.07 0 0 0-.432.784 3.23 3.23 0 0 0-.144.992v1.408c0 .725.192 1.323.576 1.792.395.459.971.688 1.728.688 1.035 0 1.782-.48 2.24-1.44l.928.624a3.254 3.254 0 0 1-1.2 1.424c-.522.352-1.178.528-1.968.528Zm5.615-10.384c-.277 0-.48-.064-.608-.192a.792.792 0 0 1-.176-.528v-.208c0-.213.059-.384.176-.512.128-.139.331-.208.608-.208.277 0 .475.069.592.208a.692.692 0 0 1 .192.512v.208a.75.75 0 0 1-.192.528c-.117.128-.315.192-.592.192Zm-.64 1.936h1.28V422h-1.28v-8.256Zm7.12 8.448a3.714 3.714 0 0 1-1.52-.304 3.405 3.405 0 0 1-1.184-.864 4.294 4.294 0 0 1-.752-1.36 5.554 5.554 0 0 1-.272-1.792c0-.651.091-1.243.272-1.776.181-.533.432-.987.752-1.36a3.315 3.315 0 0 1 1.184-.88 3.714 3.714 0 0 1 1.52-.304c.555 0 1.056.101 1.504.304.459.203.853.496 1.184.88.331.373.587.827.768 1.36.181.533.272 1.125.272 1.776 0 .661-.091 1.259-.272 1.792a4.122 4.122 0 0 1-.768 1.36 3.405 3.405 0 0 1-1.184.864 3.602 3.602 0 0 1-1.504.304Zm0-1.136c.693 0 1.259-.213 1.696-.64.437-.427.656-1.077.656-1.952v-1.184c0-.875-.219-1.525-.656-1.952-.437-.427-1.003-.64-1.696-.64-.693 0-1.259.213-1.696.64-.437.427-.656 1.077-.656 1.952v1.184c0 .875.219 1.525.656 1.952.437.427 1.003.64 1.696.64Zm.128-8.416-.832-.384 1.36-2.72 1.168.56-1.696 2.544Zm5.705 9.36v-8.256h1.28v1.344h.064c.203-.469.486-.843.848-1.12.374-.277.87-.416 1.488-.416.854 0 1.526.277 2.016.832.502.544.752 1.317.752 2.32V422h-1.28v-5.072c0-1.483-.624-2.224-1.872-2.224a2.97 2.97 0 0 0-.752.096c-.234.064-.448.16-.64.288a1.48 1.48 0 0 0-.464.496c-.106.192-.16.421-.16.688V422h-1.28Zm18.155-1.344h-.064c-.501 1.024-1.306 1.536-2.416 1.536-.512 0-.976-.101-1.392-.304a3.11 3.11 0 0 1-1.072-.864 4.16 4.16 0 0 1-.672-1.36 6.657 6.657 0 0 1-.224-1.792c0-.661.075-1.259.224-1.792a4.16 4.16 0 0 1 .672-1.36 3.11 3.11 0 0 1 1.072-.864c.416-.203.88-.304 1.392-.304.576 0 1.067.128 1.472.384.416.245.731.629.944 1.152h.064v-4.928h1.28V422h-1.28v-1.344Zm-2.128.384c.288 0 .56-.037.816-.112.267-.075.496-.181.688-.32.192-.149.342-.325.448-.528a1.46 1.46 0 0 0 .176-.72v-3.072c0-.224-.058-.432-.176-.624a1.464 1.464 0 0 0-.448-.512 2.154 2.154 0 0 0-.688-.32 2.573 2.573 0 0 0-.816-.128c-.725 0-1.296.229-1.712.688-.416.448-.624 1.04-.624 1.776v1.408c0 .736.208 1.333.624 1.792.416.448.987.672 1.712.672Zm9.234 1.152a3.75 3.75 0 0 1-1.536-.304 3.44 3.44 0 0 1-1.168-.864 4.294 4.294 0 0 1-.752-1.36 5.854 5.854 0 0 1-.256-1.792c0-.651.085-1.243.256-1.776.181-.533.432-.987.752-1.36.33-.384.72-.677 1.168-.88a3.75 3.75 0 0 1 1.536-.304c.554 0 1.05.101 1.488.304.437.203.81.485 1.12.848.309.352.544.773.704 1.264.17.491.256 1.029.256 1.616v.608h-5.936v.384c0 .352.053.683.16.992.117.299.277.56.48.784.213.224.469.4.768.528.309.128.656.192 1.04.192.522 0 .976-.123 1.36-.368a2.4 2.4 0 0 0 .912-1.056l.912.656a3.229 3.229 0 0 1-1.248 1.376c-.566.341-1.238.512-2.016.512Zm0-7.568c-.352 0-.672.064-.96.192a2.136 2.136 0 0 0-.752.512 2.49 2.49 0 0 0-.48.8 2.678 2.678 0 0 0-.176.992v.112h4.56v-.176c0-.736-.203-1.323-.608-1.76-.395-.448-.923-.672-1.584-.672Zm5.677-4.464h1.28v4.928h.064c.213-.523.522-.907.928-1.152.416-.256.912-.384 1.488-.384.512 0 .976.101 1.392.304.416.203.768.491 1.056.864a3.8 3.8 0 0 1 .672 1.36c.16.533.24 1.131.24 1.792s-.08 1.259-.24 1.792a3.8 3.8 0 0 1-.672 1.36c-.288.373-.64.661-1.056.864-.416.203-.88.304-1.392.304-1.12 0-1.926-.512-2.416-1.536h-.064V422h-1.28v-11.84Zm3.408 10.88c.725 0 1.296-.224 1.712-.672.416-.459.624-1.056.624-1.792v-1.408c0-.736-.208-1.328-.624-1.776-.416-.459-.987-.688-1.712-.688a2.72 2.72 0 0 0-.832.128c-.256.075-.48.181-.672.32a1.633 1.633 0 0 0-.464.512c-.107.192-.16.4-.16.624v3.072c0 .267.053.507.16.72.117.203.272.379.464.528.192.139.416.245.672.32.266.075.544.112.832.112Zm8.977 1.152a3.757 3.757 0 0 1-1.536-.304 3.45 3.45 0 0 1-1.168-.864 4.294 4.294 0 0 1-.752-1.36 5.854 5.854 0 0 1-.256-1.792c0-.651.085-1.243.256-1.776.181-.533.432-.987.752-1.36.331-.384.72-.677 1.168-.88a3.757 3.757 0 0 1 1.536-.304c.555 0 1.051.101 1.488.304a3.25 3.25 0 0 1 1.12.848c.309.352.544.773.704 1.264.171.491.256 1.029.256 1.616v.608h-5.936v.384c0 .352.053.683.16.992.117.299.277.56.48.784.213.224.469.4.768.528.309.128.656.192 1.04.192.523 0 .976-.123 1.36-.368.395-.245.699-.597.912-1.056l.912.656a3.229 3.229 0 0 1-1.248 1.376c-.565.341-1.237.512-2.016.512Zm0-7.568c-.352 0-.672.064-.96.192a2.136 2.136 0 0 0-.752.512 2.49 2.49 0 0 0-.48.8 2.698 2.698 0 0 0-.176.992v.112h4.56v-.176c0-.736-.203-1.323-.608-1.76-.395-.448-.923-.672-1.584-.672Zm11.939 7.568c-.768 0-1.414-.144-1.936-.432a4.518 4.518 0 0 1-1.328-1.184l.912-.736c.32.405.677.72 1.072.944.394.213.853.32 1.376.32.544 0 .965-.117 1.264-.352.309-.235.464-.565.464-.992 0-.32-.107-.592-.32-.816-.203-.235-.576-.395-1.121-.48l-.655-.096a5.854 5.854 0 0 1-1.056-.24 3.36 3.36 0 0 1-.848-.448 2.118 2.118 0 0 1-.56-.704c-.128-.277-.192-.608-.192-.992 0-.405.074-.757.224-1.056.149-.309.352-.565.608-.768.266-.203.581-.352.944-.448.362-.107.752-.16 1.168-.16.672 0 1.232.117 1.68.352.458.235.858.56 1.2.976l-.848.768c-.182-.256-.448-.485-.8-.688-.352-.213-.795-.32-1.328-.32-.534 0-.939.117-1.216.352-.267.224-.4.533-.4.928 0 .405.133.699.4.88.277.181.672.315 1.184.4l.64.096c.917.139 1.568.405 1.952.8.384.384.576.891.576 1.52 0 .8-.272 1.429-.816 1.888-.544.459-1.291.688-2.24.688Zm8.42 0a3.757 3.757 0 0 1-1.536-.304 3.45 3.45 0 0 1-1.168-.864 4.314 4.314 0 0 1-.752-1.36 5.884 5.884 0 0 1-.256-1.792c0-.651.086-1.243.256-1.776.182-.533.432-.987.752-1.36.331-.384.72-.677 1.168-.88a3.757 3.757 0 0 1 1.536-.304c.555 0 1.051.101 1.488.304a3.24 3.24 0 0 1 1.12.848c.31.352.544.773.704 1.264.171.491.256 1.029.256 1.616v.608h-5.936v.384c0 .352.054.683.16.992.118.299.278.56.48.784.214.224.47.4.768.528a2.7 2.7 0 0 0 1.04.192c.523 0 .976-.123 1.36-.368.395-.245.699-.597.912-1.056l.912.656a3.216 3.216 0 0 1-1.248 1.376c-.565.341-1.237.512-2.016.512Zm0-7.568c-.352 0-.672.064-.96.192a2.145 2.145 0 0 0-.752.512 2.527 2.527 0 0 0-.48.8 2.698 2.698 0 0 0-.176.992v.112h4.56v-.176c0-.736-.202-1.323-.608-1.76-.394-.448-.922-.672-1.584-.672Zm5.678 7.376v-8.256h1.28v1.52h.08c.149-.395.416-.747.8-1.056.384-.309.912-.464 1.584-.464h.496v1.28h-.752c-.694 0-1.238.133-1.632.4-.384.256-.576.581-.576.976v5.6h-1.28Zm10.104-7.136h-1.344v-1.12h1.344v-1.664c0-.576.149-1.04.448-1.392.299-.352.752-.528 1.36-.528h1.248v1.12h-1.776v2.464h1.776v1.12h-1.776V422h-1.28v-7.136ZM625.344 422c-.48 0-.826-.128-1.04-.384-.202-.256-.33-.576-.384-.96h-.08c-.181.512-.48.896-.896 1.152-.416.256-.912.384-1.488.384-.874 0-1.557-.224-2.048-.672-.48-.448-.72-1.056-.72-1.824 0-.779.283-1.376.848-1.792.576-.416 1.467-.624 2.672-.624h1.632v-.816c0-.587-.16-1.035-.48-1.344-.32-.309-.81-.464-1.472-.464-.501 0-.922.112-1.264.336-.33.224-.608.523-.832.896l-.768-.72c.224-.448.582-.827 1.072-1.136.491-.32 1.11-.48 1.856-.48 1.003 0 1.782.245 2.336.736.555.491.832 1.173.832 2.048v4.544h.944V422h-.72Zm-3.68-.896c.32 0 .614-.037.88-.112.267-.075.496-.181.688-.32.192-.139.342-.299.448-.48.107-.181.16-.379.16-.592v-1.36h-1.696c-.736 0-1.274.107-1.616.32-.33.213-.496.523-.496.928v.336c0 .405.144.72.432.944.299.224.699.336 1.2.336Zm.48-8.464-.832-.384 1.36-2.72 1.168.56-1.696 2.544Zm8.819 9.552a3.797 3.797 0 0 1-1.552-.304 3.257 3.257 0 0 1-1.168-.864 4.042 4.042 0 0 1-.72-1.36 6.227 6.227 0 0 1-.24-1.792c0-.661.08-1.259.24-1.792.171-.533.411-.987.72-1.36.32-.373.71-.661 1.168-.864a3.797 3.797 0 0 1 1.552-.304c.822 0 1.478.181 1.968.544.502.352.875.816 1.12 1.392l-1.072.544a1.937 1.937 0 0 0-.736-.992c-.341-.235-.768-.352-1.28-.352-.384 0-.72.064-1.008.192a1.848 1.848 0 0 0-.72.512 2.07 2.07 0 0 0-.432.784 3.23 3.23 0 0 0-.144.992v1.408c0 .725.192 1.323.576 1.792.395.459.971.688 1.728.688 1.035 0 1.782-.48 2.24-1.44l.928.624a3.254 3.254 0 0 1-1.2 1.424c-.522.352-1.178.528-1.968.528Zm5.615-10.384c-.277 0-.48-.064-.608-.192a.792.792 0 0 1-.176-.528v-.208c0-.213.059-.384.176-.512.128-.139.331-.208.608-.208.277 0 .475.069.592.208a.692.692 0 0 1 .192.512v.208a.75.75 0 0 1-.192.528c-.117.128-.315.192-.592.192Zm-.64 1.936h1.28V422h-1.28v-8.256Zm5.36 8.256c-.448 0-.789-.123-1.024-.368-.224-.256-.336-.576-.336-.96V410.16h1.28v10.72h1.216V422h-1.136Zm3 0v-8.256h1.28v1.344h.064c.096-.213.202-.411.32-.592a2.22 2.22 0 0 1 .448-.496c.181-.139.389-.245.624-.32.234-.085.512-.128.832-.128.544 0 1.045.133 1.504.4.458.256.8.683 1.024 1.28h.032c.149-.448.426-.837.832-1.168.416-.341.976-.512 1.68-.512.842 0 1.498.277 1.968.832.48.544.72 1.317.72 2.32V422h-1.28v-5.072c0-.736-.144-1.291-.432-1.664-.288-.373-.747-.56-1.376-.56-.256 0-.502.032-.736.096-.224.064-.427.16-.608.288a1.373 1.373 0 0 0-.432.496c-.107.192-.16.421-.16.688V422h-1.28v-5.072c0-.736-.144-1.291-.432-1.664-.288-.373-.736-.56-1.344-.56-.256 0-.502.032-.736.096-.235.064-.443.16-.624.288a1.53 1.53 0 0 0-.448.496c-.107.192-.16.421-.16.688V422h-1.28Zm17.072.192a3.757 3.757 0 0 1-1.536-.304 3.45 3.45 0 0 1-1.168-.864 4.314 4.314 0 0 1-.752-1.36 5.884 5.884 0 0 1-.256-1.792c0-.651.086-1.243.256-1.776.182-.533.432-.987.752-1.36.331-.384.72-.677 1.168-.88a3.757 3.757 0 0 1 1.536-.304c.555 0 1.051.101 1.488.304a3.24 3.24 0 0 1 1.12.848c.31.352.544.773.704 1.264.171.491.256 1.029.256 1.616v.608h-5.936v.384c0 .352.054.683.16.992.118.299.278.56.48.784.214.224.47.4.768.528a2.7 2.7 0 0 0 1.04.192c.523 0 .976-.123 1.36-.368.395-.245.699-.597.912-1.056l.912.656a3.216 3.216 0 0 1-1.248 1.376c-.565.341-1.237.512-2.016.512Zm0-7.568c-.352 0-.672.064-.96.192a2.145 2.145 0 0 0-.752.512 2.527 2.527 0 0 0-.48.8 2.698 2.698 0 0 0-.176.992v.112h4.56v-.176c0-.736-.202-1.323-.608-1.76-.394-.448-.922-.672-1.584-.672Zm5.678 7.376v-8.256h1.28v1.344h.064c.202-.469.485-.843.848-1.12.373-.277.869-.416 1.488-.416.853 0 1.525.277 2.016.832.501.544.752 1.317.752 2.32V422h-1.28v-5.072c0-1.483-.624-2.224-1.872-2.224-.256 0-.507.032-.752.096-.235.064-.448.16-.64.288a1.47 1.47 0 0 0-.464.496c-.107.192-.16.421-.16.688V422h-1.28Zm10.917 0c-.448 0-.789-.123-1.024-.368-.224-.256-.336-.587-.336-.992v-5.776h-1.36v-1.12h.768c.278 0 .464-.053.56-.16.107-.117.16-.315.16-.592v-1.536h1.152v2.288h1.808v1.12h-1.808v6.016h1.68V422h-1.6Zm6.827.192a3.757 3.757 0 0 1-1.536-.304 3.45 3.45 0 0 1-1.168-.864 4.294 4.294 0 0 1-.752-1.36 5.854 5.854 0 0 1-.256-1.792c0-.651.085-1.243.256-1.776.181-.533.432-.987.752-1.36.331-.384.72-.677 1.168-.88a3.757 3.757 0 0 1 1.536-.304c.555 0 1.051.101 1.488.304a3.25 3.25 0 0 1 1.12.848c.309.352.544.773.704 1.264.171.491.256 1.029.256 1.616v.608h-5.936v.384c0 .352.053.683.16.992.117.299.277.56.48.784.213.224.469.4.768.528.309.128.656.192 1.04.192.523 0 .976-.123 1.36-.368.395-.245.699-.597.912-1.056l.912.656a3.229 3.229 0 0 1-1.248 1.376c-.565.341-1.237.512-2.016.512Zm0-7.568c-.352 0-.672.064-.96.192a2.136 2.136 0 0 0-.752.512 2.49 2.49 0 0 0-.48.8 2.698 2.698 0 0 0-.176.992v.112h4.56v-.176c0-.736-.203-1.323-.608-1.76-.395-.448-.923-.672-1.584-.672ZM456.36 443v-8.256h1.28v1.52h.08c.149-.395.416-.747.8-1.056.384-.309.912-.464 1.584-.464h.496v1.28h-.752c-.693 0-1.237.133-1.632.4-.384.256-.576.581-.576.976v5.6h-1.28Zm8.901.192a3.757 3.757 0 0 1-1.536-.304 3.45 3.45 0 0 1-1.168-.864 4.294 4.294 0 0 1-.752-1.36 5.854 5.854 0 0 1-.256-1.792c0-.651.085-1.243.256-1.776.181-.533.432-.987.752-1.36.331-.384.72-.677 1.168-.88a3.757 3.757 0 0 1 1.536-.304c.555 0 1.051.101 1.488.304a3.25 3.25 0 0 1 1.12.848c.309.352.544.773.704 1.264.171.491.256 1.029.256 1.616v.608h-5.936v.384c0 .352.053.683.16.992.117.299.277.56.48.784.213.224.469.4.768.528.309.128.656.192 1.04.192.523 0 .976-.123 1.36-.368.395-.245.699-.597.912-1.056l.912.656a3.229 3.229 0 0 1-1.248 1.376c-.565.341-1.237.512-2.016.512Zm0-7.568c-.352 0-.672.064-.96.192a2.136 2.136 0 0 0-.752.512 2.49 2.49 0 0 0-.48.8 2.698 2.698 0 0 0-.176.992v.112h4.56v-.176c0-.736-.203-1.323-.608-1.76-.395-.448-.923-.672-1.584-.672Zm8.749 7.568a3.797 3.797 0 0 1-1.552-.304 3.249 3.249 0 0 1-1.168-.864 4.042 4.042 0 0 1-.72-1.36 6.227 6.227 0 0 1-.24-1.792c0-.661.08-1.259.24-1.792.171-.533.411-.987.72-1.36.32-.373.709-.661 1.168-.864a3.797 3.797 0 0 1 1.552-.304c.821 0 1.477.181 1.968.544.501.352.875.816 1.12 1.392l-1.072.544a1.943 1.943 0 0 0-.736-.992c-.341-.235-.768-.352-1.28-.352-.384 0-.72.064-1.008.192a1.848 1.848 0 0 0-.72.512 2.07 2.07 0 0 0-.432.784 3.23 3.23 0 0 0-.144.992v1.408c0 .725.192 1.323.576 1.792.395.459.971.688 1.728.688 1.035 0 1.781-.48 2.24-1.44l.928.624a3.267 3.267 0 0 1-1.2 1.424c-.523.352-1.179.528-1.968.528Zm8.001 0a3.718 3.718 0 0 1-1.52-.304 3.415 3.415 0 0 1-1.184-.864 4.314 4.314 0 0 1-.752-1.36 5.554 5.554 0 0 1-.272-1.792c0-.651.091-1.243.272-1.776.182-.533.432-.987.752-1.36a3.323 3.323 0 0 1 1.184-.88 3.718 3.718 0 0 1 1.52-.304c.555 0 1.056.101 1.504.304.459.203.854.496 1.184.88.331.373.587.827.768 1.36a5.47 5.47 0 0 1 .272 1.776c0 .661-.09 1.259-.272 1.792a4.122 4.122 0 0 1-.768 1.36c-.33.373-.725.661-1.184.864a3.602 3.602 0 0 1-1.504.304Zm0-1.136c.694 0 1.259-.213 1.696-.64.438-.427.656-1.077.656-1.952v-1.184c0-.875-.218-1.525-.656-1.952-.437-.427-1.002-.64-1.696-.64-.693 0-1.258.213-1.696.64-.437.427-.656 1.077-.656 1.952v1.184c0 .875.219 1.525.656 1.952.438.427 1.003.64 1.696.64Zm5.833.944v-8.256h1.28v1.344h.064c.203-.469.486-.843.848-1.12.374-.277.87-.416 1.488-.416.854 0 1.526.277 2.016.832.502.544.752 1.317.752 2.32V443h-1.28v-5.072c0-1.483-.624-2.224-1.872-2.224a2.97 2.97 0 0 0-.752.096c-.234.064-.448.16-.64.288a1.48 1.48 0 0 0-.464.496c-.106.192-.16.421-.16.688V443h-1.28Zm12.214.192a3.714 3.714 0 0 1-1.52-.304 3.405 3.405 0 0 1-1.184-.864 4.294 4.294 0 0 1-.752-1.36 5.554 5.554 0 0 1-.272-1.792c0-.651.091-1.243.272-1.776.181-.533.432-.987.752-1.36a3.315 3.315 0 0 1 1.184-.88 3.714 3.714 0 0 1 1.52-.304c.555 0 1.056.101 1.504.304.459.203.853.496 1.184.88.331.373.587.827.768 1.36.181.533.272 1.125.272 1.776 0 .661-.091 1.259-.272 1.792a4.122 4.122 0 0 1-.768 1.36 3.405 3.405 0 0 1-1.184.864 3.602 3.602 0 0 1-1.504.304Zm0-1.136c.693 0 1.259-.213 1.696-.64.437-.427.656-1.077.656-1.952v-1.184c0-.875-.219-1.525-.656-1.952-.437-.427-1.003-.64-1.696-.64-.693 0-1.259.213-1.696.64-.437.427-.656 1.077-.656 1.952v1.184c0 .875.219 1.525.656 1.952.437.427 1.003.64 1.696.64Zm8.905 1.136a3.797 3.797 0 0 1-1.552-.304 3.257 3.257 0 0 1-1.168-.864 4.042 4.042 0 0 1-.72-1.36 6.227 6.227 0 0 1-.24-1.792c0-.661.08-1.259.24-1.792.171-.533.411-.987.72-1.36.32-.373.71-.661 1.168-.864a3.797 3.797 0 0 1 1.552-.304c.822 0 1.478.181 1.968.544.502.352.875.816 1.12 1.392l-1.072.544a1.937 1.937 0 0 0-.736-.992c-.341-.235-.768-.352-1.28-.352-.384 0-.72.064-1.008.192a1.848 1.848 0 0 0-.72.512 2.07 2.07 0 0 0-.432.784 3.23 3.23 0 0 0-.144.992v1.408c0 .725.192 1.323.576 1.792.395.459.971.688 1.728.688 1.035 0 1.782-.48 2.24-1.44l.928.624a3.254 3.254 0 0 1-1.2 1.424c-.522.352-1.178.528-1.968.528Zm5.615-10.384c-.277 0-.48-.064-.608-.192a.792.792 0 0 1-.176-.528v-.208c0-.213.059-.384.176-.512.128-.139.331-.208.608-.208.277 0 .475.069.592.208a.692.692 0 0 1 .192.512v.208a.75.75 0 0 1-.192.528c-.117.128-.315.192-.592.192Zm-.64 1.936h1.28V443h-1.28v-8.256Zm4-3.584h1.28v4.928h.064c.213-.523.523-.907.928-1.152.416-.256.912-.384 1.488-.384.512 0 .976.101 1.392.304.416.203.768.491 1.056.864.299.373.523.827.672 1.36.16.533.24 1.131.24 1.792s-.08 1.259-.24 1.792a3.768 3.768 0 0 1-.672 1.36c-.288.373-.64.661-1.056.864-.416.203-.88.304-1.392.304-1.12 0-1.925-.512-2.416-1.536h-.064V443h-1.28v-11.84Zm3.408 10.88c.725 0 1.296-.224 1.712-.672.416-.459.624-1.056.624-1.792v-1.408c0-.736-.208-1.328-.624-1.776-.416-.459-.987-.688-1.712-.688-.288 0-.565.043-.832.128-.256.075-.48.181-.672.32a1.633 1.633 0 0 0-.464.512c-.107.192-.16.4-.16.624v3.072c0 .267.053.507.16.72.117.203.272.379.464.528.192.139.416.245.672.32.267.075.544.112.832.112Zm7.233.96c-.448 0-.789-.123-1.024-.368-.224-.256-.336-.576-.336-.96V431.16h1.28v10.72h1.216V443h-1.136Zm6.104.192a3.75 3.75 0 0 1-1.536-.304 3.44 3.44 0 0 1-1.168-.864 4.294 4.294 0 0 1-.752-1.36 5.854 5.854 0 0 1-.256-1.792c0-.651.085-1.243.256-1.776.181-.533.432-.987.752-1.36.33-.384.72-.677 1.168-.88a3.75 3.75 0 0 1 1.536-.304c.554 0 1.05.101 1.488.304.437.203.81.485 1.12.848.309.352.544.773.704 1.264.17.491.256 1.029.256 1.616v.608h-5.936v.384c0 .352.053.683.16.992.117.299.277.56.48.784.213.224.469.4.768.528.309.128.656.192 1.04.192.522 0 .976-.123 1.36-.368a2.4 2.4 0 0 0 .912-1.056l.912.656a3.229 3.229 0 0 1-1.248 1.376c-.566.341-1.238.512-2.016.512Zm0-7.568c-.352 0-.672.064-.96.192a2.136 2.136 0 0 0-.752.512 2.49 2.49 0 0 0-.48.8 2.678 2.678 0 0 0-.176.992v.112h4.56v-.176c0-.736-.203-1.323-.608-1.76-.395-.448-.923-.672-1.584-.672Zm6.181 7.568c-.342 0-.592-.085-.752-.256-.15-.171-.224-.395-.224-.672v-.208c0-.277.074-.501.224-.672.16-.171.41-.256.752-.256.341 0 .586.085.736.256.16.171.24.395.24.672v.208c0 .277-.08.501-.24.672-.15.171-.395.256-.736.256Zm-.46-300.76c-2.04 0-3.78-.384-5.22-1.152a11.271 11.271 0 0 1-3.672-3.24l2.232-1.872c.888 1.176 1.872 2.076 2.952 2.7 1.08.6 2.352.9 3.816.9 1.8 0 3.168-.432 4.104-1.296.96-.864 1.44-2.016 1.44-3.456 0-1.2-.36-2.124-1.08-2.772-.72-.648-1.908-1.164-3.564-1.548l-2.052-.468c-2.304-.528-4.068-1.32-5.292-2.376-1.2-1.08-1.8-2.592-1.8-4.536 0-1.104.204-2.088.612-2.952a6.008 6.008 0 0 1 1.692-2.16c.744-.576 1.62-1.008 2.628-1.296 1.032-.312 2.16-.468 3.384-.468 1.896 0 3.516.348 4.86 1.044 1.368.696 2.52 1.716 3.456 3.06l-2.268 1.656a7.817 7.817 0 0 0-2.52-2.268c-.984-.552-2.208-.828-3.672-.828-1.608 0-2.88.348-3.816 1.044-.912.672-1.368 1.692-1.368 3.06 0 1.2.384 2.112 1.152 2.736.792.6 1.98 1.08 3.564 1.44l2.052.468c2.472.552 4.26 1.392 5.364 2.52 1.104 1.128 1.656 2.628 1.656 4.5 0 1.152-.204 2.196-.612 3.132a6.247 6.247 0 0 1-1.692 2.376c-.744.648-1.656 1.152-2.736 1.512-1.056.36-2.256.54-3.6.54Zm20.558 0c-1.272 0-2.424-.228-3.456-.684a7.735 7.735 0 0 1-2.628-1.944c-.72-.864-1.284-1.884-1.692-3.06-.384-1.2-.576-2.544-.576-4.032 0-1.464.192-2.796.576-3.996.408-1.2.972-2.22 1.692-3.06a7.536 7.536 0 0 1 2.628-1.98c1.032-.456 2.184-.684 3.456-.684 1.248 0 2.364.228 3.348.684a7.313 7.313 0 0 1 2.52 1.908c.696.792 1.224 1.74 1.584 2.844.384 1.104.576 2.316.576 3.636v1.368h-13.356v.864a6.8 6.8 0 0 0 .36 2.232c.264.672.624 1.26 1.08 1.764.48.504 1.056.9 1.728 1.188.696.288 1.476.432 2.34.432 1.176 0 2.196-.276 3.06-.828.888-.552 1.572-1.344 2.052-2.376l2.052 1.476c-.6 1.272-1.536 2.304-2.808 3.096-1.272.768-2.784 1.152-4.536 1.152Zm0-17.028c-.792 0-1.512.144-2.16.432a4.823 4.823 0 0 0-1.692 1.152 5.622 5.622 0 0 0-1.08 1.8c-.264.672-.396 1.416-.396 2.232v.252h10.26v-.396c0-1.656-.456-2.976-1.368-3.96-.888-1.008-2.076-1.512-3.564-1.512ZM587.236 142c-1.08 0-1.86-.288-2.34-.864-.456-.576-.744-1.296-.864-2.16h-.18c-.408 1.152-1.08 2.016-2.016 2.592-.936.576-2.052.864-3.348.864-1.968 0-3.504-.504-4.608-1.512-1.08-1.008-1.62-2.376-1.62-4.104 0-1.752.636-3.096 1.908-4.032 1.296-.936 3.3-1.404 6.012-1.404h3.672v-1.836c0-1.32-.36-2.328-1.08-3.024-.72-.696-1.824-1.044-3.312-1.044-1.128 0-2.076.252-2.844.756-.744.504-1.368 1.176-1.872 2.016l-1.728-1.62c.504-1.008 1.308-1.86 2.412-2.556 1.104-.72 2.496-1.08 4.176-1.08 2.256 0 4.008.552 5.256 1.656 1.248 1.104 1.872 2.64 1.872 4.608v10.224h2.124V142h-1.62Zm-8.28-2.016c.72 0 1.38-.084 1.98-.252a4.854 4.854 0 0 0 1.548-.72 3.57 3.57 0 0 0 1.008-1.08c.24-.408.36-.852.36-1.332v-3.06h-3.816c-1.656 0-2.868.24-3.636.72-.744.48-1.116 1.176-1.116 2.088v.756c0 .912.324 1.62.972 2.124.672.504 1.572.756 2.7.756Zm14.01 2.016v-18.576h2.88v3.42h.18c.336-.888.936-1.68 1.8-2.376s2.052-1.044 3.564-1.044h1.116v2.88h-1.692c-1.56 0-2.784.3-3.672.9-.864.576-1.296 1.308-1.296 2.196V142h-2.88Zm19.955.432c-1.296 0-2.46-.228-3.492-.684a7.299 7.299 0 0 1-2.628-1.944c-.696-.84-1.236-1.86-1.62-3.06-.36-1.2-.54-2.544-.54-4.032s.18-2.832.54-4.032c.384-1.2.924-2.22 1.62-3.06a7.299 7.299 0 0 1 2.628-1.944c1.032-.456 2.196-.684 3.492-.684 1.848 0 3.324.408 4.428 1.224a7.187 7.187 0 0 1 2.52 3.132l-2.412 1.224c-.336-.96-.888-1.704-1.656-2.232-.768-.528-1.728-.792-2.88-.792-.864 0-1.62.144-2.268.432a4.166 4.166 0 0 0-1.62 1.152c-.432.48-.756 1.068-.972 1.764-.216.672-.324 1.416-.324 2.232v3.168c0 1.632.432 2.976 1.296 4.032.888 1.032 2.184 1.548 3.888 1.548 2.328 0 4.008-1.08 5.04-3.24l2.088 1.404c-.6 1.344-1.5 2.412-2.7 3.204-1.176.792-2.652 1.188-4.428 1.188Zm11.194-27.072h2.88v11.088h.144c.456-1.056 1.092-1.896 1.908-2.52.84-.624 1.956-.936 3.348-.936 1.92 0 3.432.624 4.536 1.872 1.128 1.224 1.692 2.964 1.692 5.22V142h-2.88v-11.412c0-3.336-1.404-5.004-4.212-5.004-.576 0-1.14.072-1.692.216a4.9 4.9 0 0 0-1.44.648c-.432.288-.78.66-1.044 1.116-.24.432-.36.948-.36 1.548V142h-2.88v-26.64Z"/>
</svg>
